%TF.GenerationSoftware,KiCad,Pcbnew,(5.1.6)-1*%
%TF.CreationDate,2020-11-10T02:08:11+03:00*%
%TF.ProjectId,dac-001s,6461632d-3030-4317-932e-6b696361645f,rev?*%
%TF.SameCoordinates,Original*%
%TF.FileFunction,Copper,L1,Top*%
%TF.FilePolarity,Positive*%
%FSLAX46Y46*%
G04 Gerber Fmt 4.6, Leading zero omitted, Abs format (unit mm)*
G04 Created by KiCad (PCBNEW (5.1.6)-1) date 2020-11-10 02:08:11*
%MOMM*%
%LPD*%
G01*
G04 APERTURE LIST*
%TA.AperFunction,EtchedComponent*%
%ADD10C,0.100000*%
%TD*%
%TA.AperFunction,Conductor*%
%ADD11C,2.000000*%
%TD*%
%TA.AperFunction,ComponentPad*%
%ADD12O,1.950000X1.700000*%
%TD*%
%TA.AperFunction,ComponentPad*%
%ADD13O,2.000000X1.700000*%
%TD*%
%TA.AperFunction,ComponentPad*%
%ADD14C,1.600000*%
%TD*%
%TA.AperFunction,ComponentPad*%
%ADD15R,1.600000X1.600000*%
%TD*%
%TA.AperFunction,SMDPad,CuDef*%
%ADD16R,2.000000X1.500000*%
%TD*%
%TA.AperFunction,SMDPad,CuDef*%
%ADD17R,2.000000X3.800000*%
%TD*%
%TA.AperFunction,ViaPad*%
%ADD18C,0.800000*%
%TD*%
%TA.AperFunction,Conductor*%
%ADD19C,0.250000*%
%TD*%
%TA.AperFunction,Conductor*%
%ADD20C,1.200000*%
%TD*%
%TA.AperFunction,Conductor*%
%ADD21C,0.800000*%
%TD*%
%TA.AperFunction,Conductor*%
%ADD22C,0.300000*%
%TD*%
G04 APERTURE END LIST*
D10*
%TO.C,NT1*%
G36*
X125000000Y-79010000D02*
G01*
X129000000Y-79010000D01*
X129000000Y-81010000D01*
X125000000Y-81010000D01*
X125000000Y-79010000D01*
G37*
%TD*%
D11*
%TO.N,GNDD*%
%TO.C,NT1*%
X129000000Y-80010000D03*
%TO.N,GNDA*%
X125000000Y-80010000D03*
%TD*%
D12*
%TO.P,J3,6*%
%TO.N,MCK*%
X147320000Y-70920000D03*
%TO.P,J3,5*%
%TO.N,CK*%
X147320000Y-68420000D03*
%TO.P,J3,4*%
%TO.N,SD*%
X147320000Y-65920000D03*
%TO.P,J3,3*%
%TO.N,WS*%
X147320000Y-63420000D03*
%TO.P,J3,2*%
%TO.N,GNDD*%
X147320000Y-60920000D03*
%TO.P,J3,1*%
%TO.N,+3V3*%
%TA.AperFunction,ComponentPad*%
G36*
G01*
X146595000Y-57570000D02*
X148045000Y-57570000D01*
G75*
G02*
X148295000Y-57820000I0J-250000D01*
G01*
X148295000Y-59020000D01*
G75*
G02*
X148045000Y-59270000I-250000J0D01*
G01*
X146595000Y-59270000D01*
G75*
G02*
X146345000Y-59020000I0J250000D01*
G01*
X146345000Y-57820000D01*
G75*
G02*
X146595000Y-57570000I250000J0D01*
G01*
G37*
%TD.AperFunction*%
%TD*%
%TO.P,J2,3*%
%TO.N,OUTR*%
X96520000Y-67230000D03*
%TO.P,J2,2*%
%TO.N,GNDA*%
X96520000Y-64730000D03*
%TO.P,J2,1*%
%TO.N,OUTL*%
%TA.AperFunction,ComponentPad*%
G36*
G01*
X95795000Y-61380000D02*
X97245000Y-61380000D01*
G75*
G02*
X97495000Y-61630000I0J-250000D01*
G01*
X97495000Y-62830000D01*
G75*
G02*
X97245000Y-63080000I-250000J0D01*
G01*
X95795000Y-63080000D01*
G75*
G02*
X95545000Y-62830000I0J250000D01*
G01*
X95545000Y-61630000D01*
G75*
G02*
X95795000Y-61380000I250000J0D01*
G01*
G37*
%TD.AperFunction*%
%TD*%
D13*
%TO.P,J1,2*%
%TO.N,GNDA*%
X96520000Y-48220000D03*
%TO.P,J1,1*%
%TO.N,+5VA*%
%TA.AperFunction,ComponentPad*%
G36*
G01*
X95770000Y-44870000D02*
X97270000Y-44870000D01*
G75*
G02*
X97520000Y-45120000I0J-250000D01*
G01*
X97520000Y-46320000D01*
G75*
G02*
X97270000Y-46570000I-250000J0D01*
G01*
X95770000Y-46570000D01*
G75*
G02*
X95520000Y-46320000I0J250000D01*
G01*
X95520000Y-45120000D01*
G75*
G02*
X95770000Y-44870000I250000J0D01*
G01*
G37*
%TD.AperFunction*%
%TD*%
%TO.P,R6,2*%
%TO.N,Net-(R6-Pad2)*%
%TA.AperFunction,SMDPad,CuDef*%
G36*
G01*
X137655000Y-76845000D02*
X137655000Y-78095000D01*
G75*
G02*
X137405000Y-78345000I-250000J0D01*
G01*
X136480000Y-78345000D01*
G75*
G02*
X136230000Y-78095000I0J250000D01*
G01*
X136230000Y-76845000D01*
G75*
G02*
X136480000Y-76595000I250000J0D01*
G01*
X137405000Y-76595000D01*
G75*
G02*
X137655000Y-76845000I0J-250000D01*
G01*
G37*
%TD.AperFunction*%
%TO.P,R6,1*%
%TO.N,MCK*%
%TA.AperFunction,SMDPad,CuDef*%
G36*
G01*
X140630000Y-76845000D02*
X140630000Y-78095000D01*
G75*
G02*
X140380000Y-78345000I-250000J0D01*
G01*
X139455000Y-78345000D01*
G75*
G02*
X139205000Y-78095000I0J250000D01*
G01*
X139205000Y-76845000D01*
G75*
G02*
X139455000Y-76595000I250000J0D01*
G01*
X140380000Y-76595000D01*
G75*
G02*
X140630000Y-76845000I0J-250000D01*
G01*
G37*
%TD.AperFunction*%
%TD*%
%TO.P,R4,2*%
%TO.N,Net-(R4-Pad2)*%
%TA.AperFunction,SMDPad,CuDef*%
G36*
G01*
X137655000Y-73035000D02*
X137655000Y-74285000D01*
G75*
G02*
X137405000Y-74535000I-250000J0D01*
G01*
X136480000Y-74535000D01*
G75*
G02*
X136230000Y-74285000I0J250000D01*
G01*
X136230000Y-73035000D01*
G75*
G02*
X136480000Y-72785000I250000J0D01*
G01*
X137405000Y-72785000D01*
G75*
G02*
X137655000Y-73035000I0J-250000D01*
G01*
G37*
%TD.AperFunction*%
%TO.P,R4,1*%
%TO.N,CK*%
%TA.AperFunction,SMDPad,CuDef*%
G36*
G01*
X140630000Y-73035000D02*
X140630000Y-74285000D01*
G75*
G02*
X140380000Y-74535000I-250000J0D01*
G01*
X139455000Y-74535000D01*
G75*
G02*
X139205000Y-74285000I0J250000D01*
G01*
X139205000Y-73035000D01*
G75*
G02*
X139455000Y-72785000I250000J0D01*
G01*
X140380000Y-72785000D01*
G75*
G02*
X140630000Y-73035000I0J-250000D01*
G01*
G37*
%TD.AperFunction*%
%TD*%
%TO.P,R3,2*%
%TO.N,Net-(R3-Pad2)*%
%TA.AperFunction,SMDPad,CuDef*%
G36*
G01*
X137655000Y-69225000D02*
X137655000Y-70475000D01*
G75*
G02*
X137405000Y-70725000I-250000J0D01*
G01*
X136480000Y-70725000D01*
G75*
G02*
X136230000Y-70475000I0J250000D01*
G01*
X136230000Y-69225000D01*
G75*
G02*
X136480000Y-68975000I250000J0D01*
G01*
X137405000Y-68975000D01*
G75*
G02*
X137655000Y-69225000I0J-250000D01*
G01*
G37*
%TD.AperFunction*%
%TO.P,R3,1*%
%TO.N,SD*%
%TA.AperFunction,SMDPad,CuDef*%
G36*
G01*
X140630000Y-69225000D02*
X140630000Y-70475000D01*
G75*
G02*
X140380000Y-70725000I-250000J0D01*
G01*
X139455000Y-70725000D01*
G75*
G02*
X139205000Y-70475000I0J250000D01*
G01*
X139205000Y-69225000D01*
G75*
G02*
X139455000Y-68975000I250000J0D01*
G01*
X140380000Y-68975000D01*
G75*
G02*
X140630000Y-69225000I0J-250000D01*
G01*
G37*
%TD.AperFunction*%
%TD*%
%TO.P,R1,2*%
%TO.N,Net-(R1-Pad2)*%
%TA.AperFunction,SMDPad,CuDef*%
G36*
G01*
X137655000Y-65415000D02*
X137655000Y-66665000D01*
G75*
G02*
X137405000Y-66915000I-250000J0D01*
G01*
X136480000Y-66915000D01*
G75*
G02*
X136230000Y-66665000I0J250000D01*
G01*
X136230000Y-65415000D01*
G75*
G02*
X136480000Y-65165000I250000J0D01*
G01*
X137405000Y-65165000D01*
G75*
G02*
X137655000Y-65415000I0J-250000D01*
G01*
G37*
%TD.AperFunction*%
%TO.P,R1,1*%
%TO.N,WS*%
%TA.AperFunction,SMDPad,CuDef*%
G36*
G01*
X140630000Y-65415000D02*
X140630000Y-66665000D01*
G75*
G02*
X140380000Y-66915000I-250000J0D01*
G01*
X139455000Y-66915000D01*
G75*
G02*
X139205000Y-66665000I0J250000D01*
G01*
X139205000Y-65415000D01*
G75*
G02*
X139455000Y-65165000I250000J0D01*
G01*
X140380000Y-65165000D01*
G75*
G02*
X140630000Y-65415000I0J-250000D01*
G01*
G37*
%TD.AperFunction*%
%TD*%
D14*
%TO.P,C1,2*%
%TO.N,GNDD*%
X136850000Y-48260000D03*
D15*
%TO.P,C1,1*%
%TO.N,+3V3*%
X133350000Y-48260000D03*
%TD*%
%TO.P,C4,2*%
%TO.N,GNDA*%
%TA.AperFunction,SMDPad,CuDef*%
G36*
G01*
X116195000Y-38595000D02*
X114945000Y-38595000D01*
G75*
G02*
X114695000Y-38345000I0J250000D01*
G01*
X114695000Y-37420000D01*
G75*
G02*
X114945000Y-37170000I250000J0D01*
G01*
X116195000Y-37170000D01*
G75*
G02*
X116445000Y-37420000I0J-250000D01*
G01*
X116445000Y-38345000D01*
G75*
G02*
X116195000Y-38595000I-250000J0D01*
G01*
G37*
%TD.AperFunction*%
%TO.P,C4,1*%
%TO.N,+3.3VA*%
%TA.AperFunction,SMDPad,CuDef*%
G36*
G01*
X116195000Y-41570000D02*
X114945000Y-41570000D01*
G75*
G02*
X114695000Y-41320000I0J250000D01*
G01*
X114695000Y-40395000D01*
G75*
G02*
X114945000Y-40145000I250000J0D01*
G01*
X116195000Y-40145000D01*
G75*
G02*
X116445000Y-40395000I0J-250000D01*
G01*
X116445000Y-41320000D01*
G75*
G02*
X116195000Y-41570000I-250000J0D01*
G01*
G37*
%TD.AperFunction*%
%TD*%
%TO.P,C3,2*%
%TO.N,GNDA*%
%TA.AperFunction,SMDPad,CuDef*%
G36*
G01*
X100955000Y-38595000D02*
X99705000Y-38595000D01*
G75*
G02*
X99455000Y-38345000I0J250000D01*
G01*
X99455000Y-37420000D01*
G75*
G02*
X99705000Y-37170000I250000J0D01*
G01*
X100955000Y-37170000D01*
G75*
G02*
X101205000Y-37420000I0J-250000D01*
G01*
X101205000Y-38345000D01*
G75*
G02*
X100955000Y-38595000I-250000J0D01*
G01*
G37*
%TD.AperFunction*%
%TO.P,C3,1*%
%TO.N,+5VA*%
%TA.AperFunction,SMDPad,CuDef*%
G36*
G01*
X100955000Y-41570000D02*
X99705000Y-41570000D01*
G75*
G02*
X99455000Y-41320000I0J250000D01*
G01*
X99455000Y-40395000D01*
G75*
G02*
X99705000Y-40145000I250000J0D01*
G01*
X100955000Y-40145000D01*
G75*
G02*
X101205000Y-40395000I0J-250000D01*
G01*
X101205000Y-41320000D01*
G75*
G02*
X100955000Y-41570000I-250000J0D01*
G01*
G37*
%TD.AperFunction*%
%TD*%
D16*
%TO.P,U1,1*%
%TO.N,GNDA*%
X104800000Y-37070000D03*
%TO.P,U1,3*%
%TO.N,+5VA*%
X104800000Y-41670000D03*
%TO.P,U1,2*%
%TO.N,+3.3VA*%
X104800000Y-39370000D03*
D17*
X111100000Y-39370000D03*
%TD*%
%TO.P,R5,2*%
%TO.N,OUTR*%
%TA.AperFunction,SMDPad,CuDef*%
G36*
G01*
X104635000Y-65415000D02*
X104635000Y-66665000D01*
G75*
G02*
X104385000Y-66915000I-250000J0D01*
G01*
X103460000Y-66915000D01*
G75*
G02*
X103210000Y-66665000I0J250000D01*
G01*
X103210000Y-65415000D01*
G75*
G02*
X103460000Y-65165000I250000J0D01*
G01*
X104385000Y-65165000D01*
G75*
G02*
X104635000Y-65415000I0J-250000D01*
G01*
G37*
%TD.AperFunction*%
%TO.P,R5,1*%
%TO.N,Net-(R5-Pad1)*%
%TA.AperFunction,SMDPad,CuDef*%
G36*
G01*
X107610000Y-65415000D02*
X107610000Y-66665000D01*
G75*
G02*
X107360000Y-66915000I-250000J0D01*
G01*
X106435000Y-66915000D01*
G75*
G02*
X106185000Y-66665000I0J250000D01*
G01*
X106185000Y-65415000D01*
G75*
G02*
X106435000Y-65165000I250000J0D01*
G01*
X107360000Y-65165000D01*
G75*
G02*
X107610000Y-65415000I0J-250000D01*
G01*
G37*
%TD.AperFunction*%
%TD*%
%TO.P,R2,1*%
%TO.N,Net-(R2-Pad1)*%
%TA.AperFunction,SMDPad,CuDef*%
G36*
G01*
X107610000Y-61605000D02*
X107610000Y-62855000D01*
G75*
G02*
X107360000Y-63105000I-250000J0D01*
G01*
X106435000Y-63105000D01*
G75*
G02*
X106185000Y-62855000I0J250000D01*
G01*
X106185000Y-61605000D01*
G75*
G02*
X106435000Y-61355000I250000J0D01*
G01*
X107360000Y-61355000D01*
G75*
G02*
X107610000Y-61605000I0J-250000D01*
G01*
G37*
%TD.AperFunction*%
%TO.P,R2,2*%
%TO.N,OUTL*%
%TA.AperFunction,SMDPad,CuDef*%
G36*
G01*
X104635000Y-61605000D02*
X104635000Y-62855000D01*
G75*
G02*
X104385000Y-63105000I-250000J0D01*
G01*
X103460000Y-63105000D01*
G75*
G02*
X103210000Y-62855000I0J250000D01*
G01*
X103210000Y-61605000D01*
G75*
G02*
X103460000Y-61355000I250000J0D01*
G01*
X104385000Y-61355000D01*
G75*
G02*
X104635000Y-61605000I0J-250000D01*
G01*
G37*
%TD.AperFunction*%
%TD*%
D14*
%TO.P,C11,2*%
%TO.N,GNDA*%
X103922500Y-74850000D03*
%TO.P,C11,1*%
%TO.N,OUTR*%
X103922500Y-69850000D03*
%TD*%
%TO.P,C9,2*%
%TO.N,GNDA*%
X103922500Y-53420000D03*
%TO.P,C9,1*%
%TO.N,OUTL*%
X103922500Y-58420000D03*
%TD*%
%TO.P,C13,2*%
%TO.N,GNDD*%
%TA.AperFunction,SMDPad,CuDef*%
G36*
G01*
X135245000Y-60185000D02*
X133995000Y-60185000D01*
G75*
G02*
X133745000Y-59935000I0J250000D01*
G01*
X133745000Y-59010000D01*
G75*
G02*
X133995000Y-58760000I250000J0D01*
G01*
X135245000Y-58760000D01*
G75*
G02*
X135495000Y-59010000I0J-250000D01*
G01*
X135495000Y-59935000D01*
G75*
G02*
X135245000Y-60185000I-250000J0D01*
G01*
G37*
%TD.AperFunction*%
%TO.P,C13,1*%
%TO.N,Net-(C13-Pad1)*%
%TA.AperFunction,SMDPad,CuDef*%
G36*
G01*
X135245000Y-63160000D02*
X133995000Y-63160000D01*
G75*
G02*
X133745000Y-62910000I0J250000D01*
G01*
X133745000Y-61985000D01*
G75*
G02*
X133995000Y-61735000I250000J0D01*
G01*
X135245000Y-61735000D01*
G75*
G02*
X135495000Y-61985000I0J-250000D01*
G01*
X135495000Y-62910000D01*
G75*
G02*
X135245000Y-63160000I-250000J0D01*
G01*
G37*
%TD.AperFunction*%
%TD*%
%TO.P,C12,2*%
%TO.N,GNDA*%
%TA.AperFunction,SMDPad,CuDef*%
G36*
G01*
X120005000Y-60185000D02*
X118755000Y-60185000D01*
G75*
G02*
X118505000Y-59935000I0J250000D01*
G01*
X118505000Y-59010000D01*
G75*
G02*
X118755000Y-58760000I250000J0D01*
G01*
X120005000Y-58760000D01*
G75*
G02*
X120255000Y-59010000I0J-250000D01*
G01*
X120255000Y-59935000D01*
G75*
G02*
X120005000Y-60185000I-250000J0D01*
G01*
G37*
%TD.AperFunction*%
%TO.P,C12,1*%
%TO.N,Net-(C12-Pad1)*%
%TA.AperFunction,SMDPad,CuDef*%
G36*
G01*
X120005000Y-63160000D02*
X118755000Y-63160000D01*
G75*
G02*
X118505000Y-62910000I0J250000D01*
G01*
X118505000Y-61985000D01*
G75*
G02*
X118755000Y-61735000I250000J0D01*
G01*
X120005000Y-61735000D01*
G75*
G02*
X120255000Y-61985000I0J-250000D01*
G01*
X120255000Y-62910000D01*
G75*
G02*
X120005000Y-63160000I-250000J0D01*
G01*
G37*
%TD.AperFunction*%
%TD*%
%TO.P,C8,2*%
%TO.N,GNDA*%
X113030000Y-72080000D03*
D15*
%TO.P,C8,1*%
%TO.N,+3.3VA*%
X113030000Y-68580000D03*
%TD*%
D14*
%TO.P,C5,2*%
%TO.N,GNDA*%
X117150000Y-48260000D03*
D15*
%TO.P,C5,1*%
%TO.N,+3.3VA*%
X120650000Y-48260000D03*
%TD*%
%TO.P,C7,2*%
%TO.N,GNDA*%
%TA.AperFunction,SMDPad,CuDef*%
G36*
G01*
X120025000Y-69355000D02*
X121275000Y-69355000D01*
G75*
G02*
X121525000Y-69605000I0J-250000D01*
G01*
X121525000Y-70530000D01*
G75*
G02*
X121275000Y-70780000I-250000J0D01*
G01*
X120025000Y-70780000D01*
G75*
G02*
X119775000Y-70530000I0J250000D01*
G01*
X119775000Y-69605000D01*
G75*
G02*
X120025000Y-69355000I250000J0D01*
G01*
G37*
%TD.AperFunction*%
%TO.P,C7,1*%
%TO.N,+3.3VA*%
%TA.AperFunction,SMDPad,CuDef*%
G36*
G01*
X120025000Y-66380000D02*
X121275000Y-66380000D01*
G75*
G02*
X121525000Y-66630000I0J-250000D01*
G01*
X121525000Y-67555000D01*
G75*
G02*
X121275000Y-67805000I-250000J0D01*
G01*
X120025000Y-67805000D01*
G75*
G02*
X119775000Y-67555000I0J250000D01*
G01*
X119775000Y-66630000D01*
G75*
G02*
X120025000Y-66380000I250000J0D01*
G01*
G37*
%TD.AperFunction*%
%TD*%
%TO.P,C2,2*%
%TO.N,GNDD*%
%TA.AperFunction,SMDPad,CuDef*%
G36*
G01*
X134125000Y-56505000D02*
X134125000Y-55255000D01*
G75*
G02*
X134375000Y-55005000I250000J0D01*
G01*
X135300000Y-55005000D01*
G75*
G02*
X135550000Y-55255000I0J-250000D01*
G01*
X135550000Y-56505000D01*
G75*
G02*
X135300000Y-56755000I-250000J0D01*
G01*
X134375000Y-56755000D01*
G75*
G02*
X134125000Y-56505000I0J250000D01*
G01*
G37*
%TD.AperFunction*%
%TO.P,C2,1*%
%TO.N,+3V3*%
%TA.AperFunction,SMDPad,CuDef*%
G36*
G01*
X131150000Y-56505000D02*
X131150000Y-55255000D01*
G75*
G02*
X131400000Y-55005000I250000J0D01*
G01*
X132325000Y-55005000D01*
G75*
G02*
X132575000Y-55255000I0J-250000D01*
G01*
X132575000Y-56505000D01*
G75*
G02*
X132325000Y-56755000I-250000J0D01*
G01*
X131400000Y-56755000D01*
G75*
G02*
X131150000Y-56505000I0J250000D01*
G01*
G37*
%TD.AperFunction*%
%TD*%
%TO.P,C6,2*%
%TO.N,GNDA*%
%TA.AperFunction,SMDPad,CuDef*%
G36*
G01*
X119875000Y-55255000D02*
X119875000Y-56505000D01*
G75*
G02*
X119625000Y-56755000I-250000J0D01*
G01*
X118700000Y-56755000D01*
G75*
G02*
X118450000Y-56505000I0J250000D01*
G01*
X118450000Y-55255000D01*
G75*
G02*
X118700000Y-55005000I250000J0D01*
G01*
X119625000Y-55005000D01*
G75*
G02*
X119875000Y-55255000I0J-250000D01*
G01*
G37*
%TD.AperFunction*%
%TO.P,C6,1*%
%TO.N,+3.3VA*%
%TA.AperFunction,SMDPad,CuDef*%
G36*
G01*
X122850000Y-55255000D02*
X122850000Y-56505000D01*
G75*
G02*
X122600000Y-56755000I-250000J0D01*
G01*
X121675000Y-56755000D01*
G75*
G02*
X121425000Y-56505000I0J250000D01*
G01*
X121425000Y-55255000D01*
G75*
G02*
X121675000Y-55005000I250000J0D01*
G01*
X122600000Y-55005000D01*
G75*
G02*
X122850000Y-55255000I0J-250000D01*
G01*
G37*
%TD.AperFunction*%
%TD*%
%TO.P,C10,2*%
%TO.N,Net-(C10-Pad2)*%
%TA.AperFunction,SMDPad,CuDef*%
G36*
G01*
X127775000Y-57775000D02*
X127775000Y-56525000D01*
G75*
G02*
X128025000Y-56275000I250000J0D01*
G01*
X128950000Y-56275000D01*
G75*
G02*
X129200000Y-56525000I0J-250000D01*
G01*
X129200000Y-57775000D01*
G75*
G02*
X128950000Y-58025000I-250000J0D01*
G01*
X128025000Y-58025000D01*
G75*
G02*
X127775000Y-57775000I0J250000D01*
G01*
G37*
%TD.AperFunction*%
%TO.P,C10,1*%
%TO.N,Net-(C10-Pad1)*%
%TA.AperFunction,SMDPad,CuDef*%
G36*
G01*
X124800000Y-57775000D02*
X124800000Y-56525000D01*
G75*
G02*
X125050000Y-56275000I250000J0D01*
G01*
X125975000Y-56275000D01*
G75*
G02*
X126225000Y-56525000I0J-250000D01*
G01*
X126225000Y-57775000D01*
G75*
G02*
X125975000Y-58025000I-250000J0D01*
G01*
X125050000Y-58025000D01*
G75*
G02*
X124800000Y-57775000I0J250000D01*
G01*
G37*
%TD.AperFunction*%
%TD*%
%TO.P,U2,20*%
%TO.N,+3V3*%
%TA.AperFunction,SMDPad,CuDef*%
G36*
G01*
X129125000Y-60675000D02*
X129125000Y-60475000D01*
G75*
G02*
X129225000Y-60375000I100000J0D01*
G01*
X130500000Y-60375000D01*
G75*
G02*
X130600000Y-60475000I0J-100000D01*
G01*
X130600000Y-60675000D01*
G75*
G02*
X130500000Y-60775000I-100000J0D01*
G01*
X129225000Y-60775000D01*
G75*
G02*
X129125000Y-60675000I0J100000D01*
G01*
G37*
%TD.AperFunction*%
%TO.P,U2,19*%
%TO.N,GNDD*%
%TA.AperFunction,SMDPad,CuDef*%
G36*
G01*
X129125000Y-61325000D02*
X129125000Y-61125000D01*
G75*
G02*
X129225000Y-61025000I100000J0D01*
G01*
X130500000Y-61025000D01*
G75*
G02*
X130600000Y-61125000I0J-100000D01*
G01*
X130600000Y-61325000D01*
G75*
G02*
X130500000Y-61425000I-100000J0D01*
G01*
X129225000Y-61425000D01*
G75*
G02*
X129125000Y-61325000I0J100000D01*
G01*
G37*
%TD.AperFunction*%
%TO.P,U2,18*%
%TO.N,Net-(C13-Pad1)*%
%TA.AperFunction,SMDPad,CuDef*%
G36*
G01*
X129125000Y-61975000D02*
X129125000Y-61775000D01*
G75*
G02*
X129225000Y-61675000I100000J0D01*
G01*
X130500000Y-61675000D01*
G75*
G02*
X130600000Y-61775000I0J-100000D01*
G01*
X130600000Y-61975000D01*
G75*
G02*
X130500000Y-62075000I-100000J0D01*
G01*
X129225000Y-62075000D01*
G75*
G02*
X129125000Y-61975000I0J100000D01*
G01*
G37*
%TD.AperFunction*%
%TO.P,U2,17*%
%TO.N,+3.3VA*%
%TA.AperFunction,SMDPad,CuDef*%
G36*
G01*
X129125000Y-62625000D02*
X129125000Y-62425000D01*
G75*
G02*
X129225000Y-62325000I100000J0D01*
G01*
X130500000Y-62325000D01*
G75*
G02*
X130600000Y-62425000I0J-100000D01*
G01*
X130600000Y-62625000D01*
G75*
G02*
X130500000Y-62725000I-100000J0D01*
G01*
X129225000Y-62725000D01*
G75*
G02*
X129125000Y-62625000I0J100000D01*
G01*
G37*
%TD.AperFunction*%
%TO.P,U2,16*%
%TO.N,GNDD*%
%TA.AperFunction,SMDPad,CuDef*%
G36*
G01*
X129125000Y-63275000D02*
X129125000Y-63075000D01*
G75*
G02*
X129225000Y-62975000I100000J0D01*
G01*
X130500000Y-62975000D01*
G75*
G02*
X130600000Y-63075000I0J-100000D01*
G01*
X130600000Y-63275000D01*
G75*
G02*
X130500000Y-63375000I-100000J0D01*
G01*
X129225000Y-63375000D01*
G75*
G02*
X129125000Y-63275000I0J100000D01*
G01*
G37*
%TD.AperFunction*%
%TO.P,U2,15*%
%TO.N,Net-(R1-Pad2)*%
%TA.AperFunction,SMDPad,CuDef*%
G36*
G01*
X129125000Y-63925000D02*
X129125000Y-63725000D01*
G75*
G02*
X129225000Y-63625000I100000J0D01*
G01*
X130500000Y-63625000D01*
G75*
G02*
X130600000Y-63725000I0J-100000D01*
G01*
X130600000Y-63925000D01*
G75*
G02*
X130500000Y-64025000I-100000J0D01*
G01*
X129225000Y-64025000D01*
G75*
G02*
X129125000Y-63925000I0J100000D01*
G01*
G37*
%TD.AperFunction*%
%TO.P,U2,14*%
%TO.N,Net-(R3-Pad2)*%
%TA.AperFunction,SMDPad,CuDef*%
G36*
G01*
X129125000Y-64575000D02*
X129125000Y-64375000D01*
G75*
G02*
X129225000Y-64275000I100000J0D01*
G01*
X130500000Y-64275000D01*
G75*
G02*
X130600000Y-64375000I0J-100000D01*
G01*
X130600000Y-64575000D01*
G75*
G02*
X130500000Y-64675000I-100000J0D01*
G01*
X129225000Y-64675000D01*
G75*
G02*
X129125000Y-64575000I0J100000D01*
G01*
G37*
%TD.AperFunction*%
%TO.P,U2,13*%
%TO.N,Net-(R4-Pad2)*%
%TA.AperFunction,SMDPad,CuDef*%
G36*
G01*
X129125000Y-65225000D02*
X129125000Y-65025000D01*
G75*
G02*
X129225000Y-64925000I100000J0D01*
G01*
X130500000Y-64925000D01*
G75*
G02*
X130600000Y-65025000I0J-100000D01*
G01*
X130600000Y-65225000D01*
G75*
G02*
X130500000Y-65325000I-100000J0D01*
G01*
X129225000Y-65325000D01*
G75*
G02*
X129125000Y-65225000I0J100000D01*
G01*
G37*
%TD.AperFunction*%
%TO.P,U2,12*%
%TO.N,Net-(R6-Pad2)*%
%TA.AperFunction,SMDPad,CuDef*%
G36*
G01*
X129125000Y-65875000D02*
X129125000Y-65675000D01*
G75*
G02*
X129225000Y-65575000I100000J0D01*
G01*
X130500000Y-65575000D01*
G75*
G02*
X130600000Y-65675000I0J-100000D01*
G01*
X130600000Y-65875000D01*
G75*
G02*
X130500000Y-65975000I-100000J0D01*
G01*
X129225000Y-65975000D01*
G75*
G02*
X129125000Y-65875000I0J100000D01*
G01*
G37*
%TD.AperFunction*%
%TO.P,U2,11*%
%TO.N,GNDD*%
%TA.AperFunction,SMDPad,CuDef*%
G36*
G01*
X129125000Y-66525000D02*
X129125000Y-66325000D01*
G75*
G02*
X129225000Y-66225000I100000J0D01*
G01*
X130500000Y-66225000D01*
G75*
G02*
X130600000Y-66325000I0J-100000D01*
G01*
X130600000Y-66525000D01*
G75*
G02*
X130500000Y-66625000I-100000J0D01*
G01*
X129225000Y-66625000D01*
G75*
G02*
X129125000Y-66525000I0J100000D01*
G01*
G37*
%TD.AperFunction*%
%TO.P,U2,10*%
%TA.AperFunction,SMDPad,CuDef*%
G36*
G01*
X123400000Y-66525000D02*
X123400000Y-66325000D01*
G75*
G02*
X123500000Y-66225000I100000J0D01*
G01*
X124775000Y-66225000D01*
G75*
G02*
X124875000Y-66325000I0J-100000D01*
G01*
X124875000Y-66525000D01*
G75*
G02*
X124775000Y-66625000I-100000J0D01*
G01*
X123500000Y-66625000D01*
G75*
G02*
X123400000Y-66525000I0J100000D01*
G01*
G37*
%TD.AperFunction*%
%TO.P,U2,9*%
%TO.N,GNDA*%
%TA.AperFunction,SMDPad,CuDef*%
G36*
G01*
X123400000Y-65875000D02*
X123400000Y-65675000D01*
G75*
G02*
X123500000Y-65575000I100000J0D01*
G01*
X124775000Y-65575000D01*
G75*
G02*
X124875000Y-65675000I0J-100000D01*
G01*
X124875000Y-65875000D01*
G75*
G02*
X124775000Y-65975000I-100000J0D01*
G01*
X123500000Y-65975000D01*
G75*
G02*
X123400000Y-65875000I0J100000D01*
G01*
G37*
%TD.AperFunction*%
%TO.P,U2,8*%
%TO.N,+3.3VA*%
%TA.AperFunction,SMDPad,CuDef*%
G36*
G01*
X123400000Y-65225000D02*
X123400000Y-65025000D01*
G75*
G02*
X123500000Y-64925000I100000J0D01*
G01*
X124775000Y-64925000D01*
G75*
G02*
X124875000Y-65025000I0J-100000D01*
G01*
X124875000Y-65225000D01*
G75*
G02*
X124775000Y-65325000I-100000J0D01*
G01*
X123500000Y-65325000D01*
G75*
G02*
X123400000Y-65225000I0J100000D01*
G01*
G37*
%TD.AperFunction*%
%TO.P,U2,7*%
%TO.N,Net-(R5-Pad1)*%
%TA.AperFunction,SMDPad,CuDef*%
G36*
G01*
X123400000Y-64575000D02*
X123400000Y-64375000D01*
G75*
G02*
X123500000Y-64275000I100000J0D01*
G01*
X124775000Y-64275000D01*
G75*
G02*
X124875000Y-64375000I0J-100000D01*
G01*
X124875000Y-64575000D01*
G75*
G02*
X124775000Y-64675000I-100000J0D01*
G01*
X123500000Y-64675000D01*
G75*
G02*
X123400000Y-64575000I0J100000D01*
G01*
G37*
%TD.AperFunction*%
%TO.P,U2,6*%
%TO.N,Net-(R2-Pad1)*%
%TA.AperFunction,SMDPad,CuDef*%
G36*
G01*
X123400000Y-63925000D02*
X123400000Y-63725000D01*
G75*
G02*
X123500000Y-63625000I100000J0D01*
G01*
X124775000Y-63625000D01*
G75*
G02*
X124875000Y-63725000I0J-100000D01*
G01*
X124875000Y-63925000D01*
G75*
G02*
X124775000Y-64025000I-100000J0D01*
G01*
X123500000Y-64025000D01*
G75*
G02*
X123400000Y-63925000I0J100000D01*
G01*
G37*
%TD.AperFunction*%
%TO.P,U2,5*%
%TO.N,Net-(C12-Pad1)*%
%TA.AperFunction,SMDPad,CuDef*%
G36*
G01*
X123400000Y-63275000D02*
X123400000Y-63075000D01*
G75*
G02*
X123500000Y-62975000I100000J0D01*
G01*
X124775000Y-62975000D01*
G75*
G02*
X124875000Y-63075000I0J-100000D01*
G01*
X124875000Y-63275000D01*
G75*
G02*
X124775000Y-63375000I-100000J0D01*
G01*
X123500000Y-63375000D01*
G75*
G02*
X123400000Y-63275000I0J100000D01*
G01*
G37*
%TD.AperFunction*%
%TO.P,U2,4*%
%TO.N,Net-(C10-Pad2)*%
%TA.AperFunction,SMDPad,CuDef*%
G36*
G01*
X123400000Y-62625000D02*
X123400000Y-62425000D01*
G75*
G02*
X123500000Y-62325000I100000J0D01*
G01*
X124775000Y-62325000D01*
G75*
G02*
X124875000Y-62425000I0J-100000D01*
G01*
X124875000Y-62625000D01*
G75*
G02*
X124775000Y-62725000I-100000J0D01*
G01*
X123500000Y-62725000D01*
G75*
G02*
X123400000Y-62625000I0J100000D01*
G01*
G37*
%TD.AperFunction*%
%TO.P,U2,3*%
%TO.N,GNDA*%
%TA.AperFunction,SMDPad,CuDef*%
G36*
G01*
X123400000Y-61975000D02*
X123400000Y-61775000D01*
G75*
G02*
X123500000Y-61675000I100000J0D01*
G01*
X124775000Y-61675000D01*
G75*
G02*
X124875000Y-61775000I0J-100000D01*
G01*
X124875000Y-61975000D01*
G75*
G02*
X124775000Y-62075000I-100000J0D01*
G01*
X123500000Y-62075000D01*
G75*
G02*
X123400000Y-61975000I0J100000D01*
G01*
G37*
%TD.AperFunction*%
%TO.P,U2,2*%
%TO.N,Net-(C10-Pad1)*%
%TA.AperFunction,SMDPad,CuDef*%
G36*
G01*
X123400000Y-61325000D02*
X123400000Y-61125000D01*
G75*
G02*
X123500000Y-61025000I100000J0D01*
G01*
X124775000Y-61025000D01*
G75*
G02*
X124875000Y-61125000I0J-100000D01*
G01*
X124875000Y-61325000D01*
G75*
G02*
X124775000Y-61425000I-100000J0D01*
G01*
X123500000Y-61425000D01*
G75*
G02*
X123400000Y-61325000I0J100000D01*
G01*
G37*
%TD.AperFunction*%
%TO.P,U2,1*%
%TO.N,+3.3VA*%
%TA.AperFunction,SMDPad,CuDef*%
G36*
G01*
X123400000Y-60675000D02*
X123400000Y-60475000D01*
G75*
G02*
X123500000Y-60375000I100000J0D01*
G01*
X124775000Y-60375000D01*
G75*
G02*
X124875000Y-60475000I0J-100000D01*
G01*
X124875000Y-60675000D01*
G75*
G02*
X124775000Y-60775000I-100000J0D01*
G01*
X123500000Y-60775000D01*
G75*
G02*
X123400000Y-60675000I0J100000D01*
G01*
G37*
%TD.AperFunction*%
%TD*%
D18*
%TO.N,GNDA*%
X127000000Y-80010000D03*
X115570000Y-35560000D03*
X118110000Y-35560000D03*
X120650000Y-35560000D03*
X100330000Y-35560000D03*
X97790000Y-35560000D03*
X95250000Y-35560000D03*
X121920000Y-59690000D03*
X121920000Y-72390000D03*
X121920000Y-73660000D03*
X121920000Y-74930000D03*
X116840000Y-54610000D03*
X116840000Y-57150000D03*
X126746000Y-65024000D03*
%TO.N,+3.3VA*%
X115570000Y-43180000D03*
X120650000Y-40857500D03*
%TD*%
D19*
%TO.N,GNDA*%
X124137500Y-61875000D02*
X122835000Y-61875000D01*
X122835000Y-61875000D02*
X121920000Y-60960000D01*
X122925000Y-65775000D02*
X122925000Y-67045000D01*
X122925000Y-65775000D02*
X121655000Y-65775000D01*
X124137500Y-65775000D02*
X122925000Y-65775000D01*
X121655000Y-65775000D02*
X122925000Y-67045000D01*
D20*
X127000000Y-80010000D02*
X121920000Y-80010000D01*
D19*
X125995000Y-65775000D02*
X126746000Y-65024000D01*
X124137500Y-65775000D02*
X125995000Y-65775000D01*
D21*
%TO.N,GNDD*%
X129862500Y-68116780D02*
X131862500Y-70116780D01*
X129862500Y-66629280D02*
X129862500Y-68116780D01*
D20*
X129000000Y-80010000D02*
X132080000Y-80010000D01*
D19*
X129865000Y-63175000D02*
X131755000Y-63175000D01*
X129862500Y-63175000D02*
X129862500Y-63177500D01*
X129862500Y-63177500D02*
X129865000Y-63175000D01*
X129862500Y-61225000D02*
X131130000Y-61225000D01*
X128397000Y-66421000D02*
X128393000Y-66425000D01*
X129862500Y-63175000D02*
X128595000Y-63175000D01*
X128397000Y-63373000D02*
X128397000Y-66421000D01*
X128595000Y-63175000D02*
X128397000Y-63373000D01*
X124202000Y-66425000D02*
X129862500Y-66425000D01*
X124137500Y-66425000D02*
X124202000Y-66425000D01*
D21*
%TO.N,+3V3*%
X131862500Y-55880000D02*
X131862500Y-57367500D01*
X129862500Y-59367500D02*
X129862500Y-60370000D01*
X131862500Y-57367500D02*
X129862500Y-59367500D01*
D20*
X147320000Y-58420000D02*
X147320000Y-48260000D01*
X147320000Y-48260000D02*
X143510000Y-44450000D01*
X143510000Y-44450000D02*
X134620000Y-44450000D01*
X133350000Y-45720000D02*
X133350000Y-48260000D01*
X134620000Y-44450000D02*
X133350000Y-45720000D01*
X133350000Y-48260000D02*
X133350000Y-50800000D01*
X133350000Y-50800000D02*
X131862500Y-52287500D01*
X131862500Y-52287500D02*
X131862500Y-54192500D01*
D21*
X131862500Y-55880000D02*
X131862500Y-54192500D01*
D19*
%TO.N,+3.3VA*%
X120650000Y-65931250D02*
X120650000Y-67092500D01*
X124137500Y-65125000D02*
X121456250Y-65125000D01*
X121456250Y-65125000D02*
X120650000Y-65931250D01*
X124137500Y-65125000D02*
X125375000Y-65125000D01*
X125375000Y-65125000D02*
X127975000Y-62525000D01*
X127975000Y-62525000D02*
X129862500Y-62525000D01*
D21*
X120650000Y-67092500D02*
X117057500Y-67092500D01*
X115570000Y-68580000D02*
X113030000Y-68580000D01*
X117057500Y-67092500D02*
X115570000Y-68580000D01*
X122137500Y-55880000D02*
X122137500Y-57367500D01*
X124137500Y-59367500D02*
X124137500Y-60370000D01*
X122137500Y-57367500D02*
X124137500Y-59367500D01*
D20*
X120650000Y-50800000D02*
X122137500Y-52287500D01*
X120650000Y-48260000D02*
X120650000Y-50800000D01*
X122137500Y-52287500D02*
X122137500Y-54192500D01*
D21*
X122137500Y-55880000D02*
X122137500Y-54192500D01*
X104800000Y-39370000D02*
X111100000Y-39370000D01*
X115570000Y-40857500D02*
X115570000Y-40857500D01*
X115570000Y-40857500D02*
X115570000Y-40857500D01*
X115570000Y-40857500D02*
X114517500Y-40857500D01*
D20*
X115570000Y-40857500D02*
X115570000Y-43180000D01*
D21*
X115570000Y-40857500D02*
X115570000Y-40857500D01*
D20*
X117057500Y-40857500D02*
X120650000Y-40857500D01*
D21*
X115570000Y-40857500D02*
X117057500Y-40857500D01*
X114517500Y-40857500D02*
X113030000Y-39370000D01*
X113030000Y-39370000D02*
X111100000Y-39370000D01*
D20*
%TO.N,OUTL*%
X103922500Y-62230000D02*
X96520000Y-62230000D01*
D21*
X103922500Y-58637500D02*
X104140000Y-58420000D01*
X103922500Y-62230000D02*
X103922500Y-58420000D01*
D20*
%TO.N,OUTR*%
X96600000Y-67310000D02*
X96520000Y-67230000D01*
X98425000Y-67310000D02*
X96600000Y-67310000D01*
X103922500Y-66040000D02*
X99695000Y-66040000D01*
X99695000Y-66040000D02*
X98425000Y-67310000D01*
D21*
X103922500Y-66040000D02*
X103922500Y-69850000D01*
D19*
%TO.N,Net-(C10-Pad1)*%
X124137500Y-61225000D02*
X125247500Y-61225000D01*
X125247500Y-61225000D02*
X125512500Y-60960000D01*
D21*
X125512500Y-59907500D02*
X125512500Y-57150000D01*
D19*
X125512500Y-60960000D02*
X125512500Y-59907500D01*
%TO.N,Net-(R2-Pad1)*%
X124137500Y-63825000D02*
X117165000Y-63825000D01*
X117165000Y-63825000D02*
X115570000Y-62230000D01*
X115570000Y-62230000D02*
X114300000Y-62230000D01*
D20*
X114300000Y-62230000D02*
X106897500Y-62230000D01*
%TO.N,+5VA*%
X96520000Y-45720000D02*
X99060000Y-45720000D01*
X100330000Y-44450000D02*
X100330000Y-40857500D01*
X99060000Y-45720000D02*
X100330000Y-44450000D01*
D21*
X100330000Y-40857500D02*
X101817500Y-40857500D01*
X102630000Y-41670000D02*
X104800000Y-41670000D01*
X101817500Y-40857500D02*
X102630000Y-41670000D01*
D19*
%TO.N,Net-(C10-Pad2)*%
X124137500Y-62525000D02*
X126705000Y-62525000D01*
X126705000Y-62525000D02*
X128487500Y-60742500D01*
D21*
X128487500Y-59907500D02*
X128487500Y-57150000D01*
D19*
X128487500Y-60742500D02*
X128487500Y-59907500D01*
%TO.N,Net-(C12-Pad1)*%
X124137500Y-63177500D02*
X122867500Y-63177500D01*
X122867500Y-63177500D02*
X122137500Y-62447500D01*
D21*
X119380000Y-62447500D02*
X121502500Y-62447500D01*
D19*
X122137500Y-62447500D02*
X121502500Y-62447500D01*
D21*
%TO.N,Net-(C13-Pad1)*%
X132932500Y-62447500D02*
X134620000Y-62447500D01*
X132080000Y-61875000D02*
X132360000Y-61875000D01*
X132360000Y-61875000D02*
X132932500Y-62447500D01*
D19*
X132080000Y-61875000D02*
X129862500Y-61875000D01*
%TO.N,Net-(R1-Pad2)*%
X129862500Y-63825000D02*
X131135000Y-63825000D01*
X133350000Y-66040000D02*
X136942500Y-66040000D01*
X131135000Y-63825000D02*
X133350000Y-66040000D01*
%TO.N,Net-(R3-Pad2)*%
X129862500Y-64475000D02*
X131148590Y-64475000D01*
X131148590Y-64475000D02*
X135255002Y-68581412D01*
X135890000Y-69850000D02*
X135255002Y-69215002D01*
X136942500Y-69850000D02*
X135890000Y-69850000D01*
X135255002Y-68581412D02*
X135255002Y-69215002D01*
%TO.N,Net-(R4-Pad2)*%
X129862500Y-65125000D02*
X131162180Y-65125000D01*
X131162180Y-65125000D02*
X134804991Y-68767811D01*
X135890000Y-73660000D02*
X134804991Y-72574991D01*
X136942500Y-73660000D02*
X135890000Y-73660000D01*
X134804991Y-68767811D02*
X134804991Y-72574991D01*
%TO.N,Net-(R5-Pad1)*%
X124137500Y-64475000D02*
X117135000Y-64475000D01*
X117135000Y-64475000D02*
X115570000Y-66040000D01*
X115570000Y-66040000D02*
X114300000Y-66040000D01*
D20*
X114300000Y-66040000D02*
X106897500Y-66040000D01*
D19*
%TO.N,Net-(R6-Pad2)*%
X129862500Y-65775000D02*
X131175770Y-65775000D01*
X131175770Y-65775000D02*
X134354980Y-68954210D01*
X136942500Y-77470000D02*
X135890000Y-77470000D01*
X135890000Y-77470000D02*
X134354980Y-75934980D01*
X134354980Y-68954210D02*
X134354980Y-75934980D01*
%TO.N,MCK*%
X139917500Y-77470000D02*
X140970000Y-77470000D01*
X147320000Y-71120000D02*
X147320000Y-70920000D01*
X140970000Y-77470000D02*
X147320000Y-71120000D01*
%TO.N,CK*%
X139917500Y-73660000D02*
X140970000Y-73660000D01*
X146210000Y-68420000D02*
X147320000Y-68420000D01*
X140970000Y-73660000D02*
X146210000Y-68420000D01*
%TO.N,SD*%
X144900000Y-65920000D02*
X147320000Y-65920000D01*
X139917500Y-69850000D02*
X140970000Y-69850000D01*
X140970000Y-69850000D02*
X144900000Y-65920000D01*
%TO.N,WS*%
X147320000Y-63420000D02*
X146765000Y-63420000D01*
X139917500Y-66040000D02*
X140970000Y-66040000D01*
X143590000Y-63420000D02*
X147320000Y-63420000D01*
X140970000Y-66040000D02*
X143590000Y-63420000D01*
%TD*%
D22*
%TO.N,GNDD*%
G36*
X155850000Y-81850000D02*
G01*
X130960000Y-81850000D01*
X130960000Y-78798093D01*
X150950000Y-78798093D01*
X150950000Y-79201907D01*
X151028780Y-79597963D01*
X151183314Y-79971039D01*
X151407661Y-80306799D01*
X151693201Y-80592339D01*
X152028961Y-80816686D01*
X152402037Y-80971220D01*
X152798093Y-81050000D01*
X153201907Y-81050000D01*
X153597963Y-80971220D01*
X153971039Y-80816686D01*
X154306799Y-80592339D01*
X154592339Y-80306799D01*
X154816686Y-79971039D01*
X154971220Y-79597963D01*
X155050000Y-79201907D01*
X155050000Y-78798093D01*
X154971220Y-78402037D01*
X154816686Y-78028961D01*
X154592339Y-77693201D01*
X154306799Y-77407661D01*
X153971039Y-77183314D01*
X153597963Y-77028780D01*
X153201907Y-76950000D01*
X152798093Y-76950000D01*
X152402037Y-77028780D01*
X152028961Y-77183314D01*
X151693201Y-77407661D01*
X151407661Y-77693201D01*
X151183314Y-78028961D01*
X151028780Y-78402037D01*
X150950000Y-78798093D01*
X130960000Y-78798093D01*
X130960000Y-66895677D01*
X130975971Y-66876216D01*
X131017757Y-66798041D01*
X131043489Y-66713215D01*
X131052177Y-66625000D01*
X131050000Y-66587500D01*
X130987502Y-66525002D01*
X131050000Y-66525002D01*
X131050000Y-66462402D01*
X133779980Y-69192383D01*
X133779981Y-75906727D01*
X133777198Y-75934980D01*
X133788301Y-76047699D01*
X133821179Y-76156087D01*
X133874572Y-76255978D01*
X133878826Y-76261161D01*
X133946427Y-76343534D01*
X133968369Y-76361541D01*
X135463439Y-77856612D01*
X135481446Y-77878554D01*
X135503386Y-77896559D01*
X135569001Y-77950408D01*
X135668892Y-78003801D01*
X135777280Y-78036680D01*
X135777823Y-78036733D01*
X135777823Y-78095000D01*
X135791315Y-78231988D01*
X135831273Y-78363712D01*
X135896161Y-78485109D01*
X135983486Y-78591514D01*
X136089891Y-78678839D01*
X136211288Y-78743727D01*
X136343012Y-78783685D01*
X136480000Y-78797177D01*
X137405000Y-78797177D01*
X137541988Y-78783685D01*
X137673712Y-78743727D01*
X137795109Y-78678839D01*
X137901514Y-78591514D01*
X137988839Y-78485109D01*
X138053727Y-78363712D01*
X138093685Y-78231988D01*
X138107177Y-78095000D01*
X138107177Y-76845000D01*
X138093685Y-76708012D01*
X138053727Y-76576288D01*
X137988839Y-76454891D01*
X137901514Y-76348486D01*
X137795109Y-76261161D01*
X137673712Y-76196273D01*
X137541988Y-76156315D01*
X137405000Y-76142823D01*
X136480000Y-76142823D01*
X136343012Y-76156315D01*
X136211288Y-76196273D01*
X136089891Y-76261161D01*
X135983486Y-76348486D01*
X135896161Y-76454891D01*
X135831273Y-76576288D01*
X135826196Y-76593024D01*
X134929980Y-75696808D01*
X134929980Y-73513152D01*
X135463439Y-74046612D01*
X135481446Y-74068554D01*
X135503386Y-74086559D01*
X135569001Y-74140408D01*
X135603796Y-74159006D01*
X135668892Y-74193801D01*
X135777280Y-74226680D01*
X135777823Y-74226733D01*
X135777823Y-74285000D01*
X135791315Y-74421988D01*
X135831273Y-74553712D01*
X135896161Y-74675109D01*
X135983486Y-74781514D01*
X136089891Y-74868839D01*
X136211288Y-74933727D01*
X136343012Y-74973685D01*
X136480000Y-74987177D01*
X137405000Y-74987177D01*
X137541988Y-74973685D01*
X137673712Y-74933727D01*
X137795109Y-74868839D01*
X137901514Y-74781514D01*
X137988839Y-74675109D01*
X138053727Y-74553712D01*
X138093685Y-74421988D01*
X138107177Y-74285000D01*
X138107177Y-73035000D01*
X138093685Y-72898012D01*
X138053727Y-72766288D01*
X137988839Y-72644891D01*
X137901514Y-72538486D01*
X137795109Y-72451161D01*
X137673712Y-72386273D01*
X137541988Y-72346315D01*
X137405000Y-72332823D01*
X136480000Y-72332823D01*
X136343012Y-72346315D01*
X136211288Y-72386273D01*
X136089891Y-72451161D01*
X135983486Y-72538486D01*
X135896161Y-72644891D01*
X135831273Y-72766288D01*
X135826196Y-72783024D01*
X135379991Y-72336819D01*
X135379991Y-70153164D01*
X135463439Y-70236612D01*
X135481446Y-70258554D01*
X135503386Y-70276559D01*
X135569001Y-70330408D01*
X135668892Y-70383801D01*
X135777280Y-70416680D01*
X135777823Y-70416733D01*
X135777823Y-70475000D01*
X135791315Y-70611988D01*
X135831273Y-70743712D01*
X135896161Y-70865109D01*
X135983486Y-70971514D01*
X136089891Y-71058839D01*
X136211288Y-71123727D01*
X136343012Y-71163685D01*
X136480000Y-71177177D01*
X137405000Y-71177177D01*
X137541988Y-71163685D01*
X137673712Y-71123727D01*
X137795109Y-71058839D01*
X137901514Y-70971514D01*
X137988839Y-70865109D01*
X138053727Y-70743712D01*
X138093685Y-70611988D01*
X138107177Y-70475000D01*
X138107177Y-69225000D01*
X138093685Y-69088012D01*
X138053727Y-68956288D01*
X137988839Y-68834891D01*
X137901514Y-68728486D01*
X137795109Y-68641161D01*
X137673712Y-68576273D01*
X137541988Y-68536315D01*
X137405000Y-68522823D01*
X136480000Y-68522823D01*
X136343012Y-68536315D01*
X136211288Y-68576273D01*
X136089891Y-68641161D01*
X135983486Y-68728486D01*
X135896161Y-68834891D01*
X135831273Y-68956288D01*
X135830002Y-68960478D01*
X135830002Y-68609655D01*
X135832784Y-68581412D01*
X135830002Y-68553166D01*
X135821682Y-68468692D01*
X135788803Y-68360304D01*
X135735410Y-68260414D01*
X135663556Y-68172858D01*
X135641615Y-68154852D01*
X134101763Y-66615000D01*
X135777823Y-66615000D01*
X135777823Y-66665000D01*
X135791315Y-66801988D01*
X135831273Y-66933712D01*
X135896161Y-67055109D01*
X135983486Y-67161514D01*
X136089891Y-67248839D01*
X136211288Y-67313727D01*
X136343012Y-67353685D01*
X136480000Y-67367177D01*
X137405000Y-67367177D01*
X137541988Y-67353685D01*
X137673712Y-67313727D01*
X137795109Y-67248839D01*
X137901514Y-67161514D01*
X137988839Y-67055109D01*
X138053727Y-66933712D01*
X138093685Y-66801988D01*
X138107177Y-66665000D01*
X138107177Y-65415000D01*
X138752823Y-65415000D01*
X138752823Y-66665000D01*
X138766315Y-66801988D01*
X138806273Y-66933712D01*
X138871161Y-67055109D01*
X138958486Y-67161514D01*
X139064891Y-67248839D01*
X139186288Y-67313727D01*
X139318012Y-67353685D01*
X139455000Y-67367177D01*
X140380000Y-67367177D01*
X140516988Y-67353685D01*
X140648712Y-67313727D01*
X140770109Y-67248839D01*
X140876514Y-67161514D01*
X140963839Y-67055109D01*
X141028727Y-66933712D01*
X141068685Y-66801988D01*
X141082177Y-66665000D01*
X141082177Y-66606733D01*
X141082720Y-66606680D01*
X141191108Y-66573801D01*
X141290998Y-66520408D01*
X141378554Y-66448554D01*
X141396565Y-66426607D01*
X143828173Y-63995000D01*
X146028289Y-63995000D01*
X146108860Y-64145736D01*
X146271313Y-64343687D01*
X146469264Y-64506140D01*
X146695104Y-64626855D01*
X146837335Y-64670000D01*
X146695104Y-64713145D01*
X146469264Y-64833860D01*
X146271313Y-64996313D01*
X146108860Y-65194264D01*
X146028289Y-65345000D01*
X144928242Y-65345000D01*
X144899999Y-65342218D01*
X144871756Y-65345000D01*
X144871754Y-65345000D01*
X144787280Y-65353320D01*
X144678892Y-65386199D01*
X144579001Y-65439592D01*
X144533153Y-65477218D01*
X144491446Y-65511446D01*
X144473439Y-65533388D01*
X141033804Y-68973024D01*
X141028727Y-68956288D01*
X140963839Y-68834891D01*
X140876514Y-68728486D01*
X140770109Y-68641161D01*
X140648712Y-68576273D01*
X140516988Y-68536315D01*
X140380000Y-68522823D01*
X139455000Y-68522823D01*
X139318012Y-68536315D01*
X139186288Y-68576273D01*
X139064891Y-68641161D01*
X138958486Y-68728486D01*
X138871161Y-68834891D01*
X138806273Y-68956288D01*
X138766315Y-69088012D01*
X138752823Y-69225000D01*
X138752823Y-70475000D01*
X138766315Y-70611988D01*
X138806273Y-70743712D01*
X138871161Y-70865109D01*
X138958486Y-70971514D01*
X139064891Y-71058839D01*
X139186288Y-71123727D01*
X139318012Y-71163685D01*
X139455000Y-71177177D01*
X140380000Y-71177177D01*
X140516988Y-71163685D01*
X140648712Y-71123727D01*
X140770109Y-71058839D01*
X140876514Y-70971514D01*
X140963839Y-70865109D01*
X141028727Y-70743712D01*
X141068685Y-70611988D01*
X141082177Y-70475000D01*
X141082177Y-70416733D01*
X141082720Y-70416680D01*
X141191108Y-70383801D01*
X141290998Y-70330408D01*
X141378554Y-70258554D01*
X141396566Y-70236607D01*
X145138173Y-66495000D01*
X146028289Y-66495000D01*
X146108860Y-66645736D01*
X146271313Y-66843687D01*
X146469264Y-67006140D01*
X146695104Y-67126855D01*
X146837335Y-67170000D01*
X146695104Y-67213145D01*
X146469264Y-67333860D01*
X146271313Y-67496313D01*
X146108860Y-67694264D01*
X146009630Y-67879908D01*
X145988892Y-67886199D01*
X145889001Y-67939592D01*
X145843153Y-67977218D01*
X145801446Y-68011446D01*
X145783439Y-68033388D01*
X141033804Y-72783024D01*
X141028727Y-72766288D01*
X140963839Y-72644891D01*
X140876514Y-72538486D01*
X140770109Y-72451161D01*
X140648712Y-72386273D01*
X140516988Y-72346315D01*
X140380000Y-72332823D01*
X139455000Y-72332823D01*
X139318012Y-72346315D01*
X139186288Y-72386273D01*
X139064891Y-72451161D01*
X138958486Y-72538486D01*
X138871161Y-72644891D01*
X138806273Y-72766288D01*
X138766315Y-72898012D01*
X138752823Y-73035000D01*
X138752823Y-74285000D01*
X138766315Y-74421988D01*
X138806273Y-74553712D01*
X138871161Y-74675109D01*
X138958486Y-74781514D01*
X139064891Y-74868839D01*
X139186288Y-74933727D01*
X139318012Y-74973685D01*
X139455000Y-74987177D01*
X140380000Y-74987177D01*
X140516988Y-74973685D01*
X140648712Y-74933727D01*
X140770109Y-74868839D01*
X140876514Y-74781514D01*
X140963839Y-74675109D01*
X141028727Y-74553712D01*
X141068685Y-74421988D01*
X141082177Y-74285000D01*
X141082177Y-74226733D01*
X141082720Y-74226680D01*
X141191108Y-74193801D01*
X141290998Y-74140408D01*
X141378554Y-74068554D01*
X141396566Y-74046606D01*
X146193862Y-69249311D01*
X146271313Y-69343687D01*
X146469264Y-69506140D01*
X146695104Y-69626855D01*
X146837335Y-69670000D01*
X146695104Y-69713145D01*
X146469264Y-69833860D01*
X146271313Y-69996313D01*
X146108860Y-70194264D01*
X145988145Y-70420104D01*
X145913810Y-70665155D01*
X145888710Y-70920000D01*
X145913810Y-71174845D01*
X145988145Y-71419896D01*
X146064354Y-71562473D01*
X141033804Y-76593024D01*
X141028727Y-76576288D01*
X140963839Y-76454891D01*
X140876514Y-76348486D01*
X140770109Y-76261161D01*
X140648712Y-76196273D01*
X140516988Y-76156315D01*
X140380000Y-76142823D01*
X139455000Y-76142823D01*
X139318012Y-76156315D01*
X139186288Y-76196273D01*
X139064891Y-76261161D01*
X138958486Y-76348486D01*
X138871161Y-76454891D01*
X138806273Y-76576288D01*
X138766315Y-76708012D01*
X138752823Y-76845000D01*
X138752823Y-78095000D01*
X138766315Y-78231988D01*
X138806273Y-78363712D01*
X138871161Y-78485109D01*
X138958486Y-78591514D01*
X139064891Y-78678839D01*
X139186288Y-78743727D01*
X139318012Y-78783685D01*
X139455000Y-78797177D01*
X140380000Y-78797177D01*
X140516988Y-78783685D01*
X140648712Y-78743727D01*
X140770109Y-78678839D01*
X140876514Y-78591514D01*
X140963839Y-78485109D01*
X141028727Y-78363712D01*
X141068685Y-78231988D01*
X141082177Y-78095000D01*
X141082177Y-78036733D01*
X141082720Y-78036680D01*
X141191108Y-78003801D01*
X141290998Y-77950408D01*
X141378554Y-77878554D01*
X141396566Y-77856606D01*
X147041956Y-72211217D01*
X147131136Y-72220000D01*
X147508864Y-72220000D01*
X147699845Y-72201190D01*
X147944896Y-72126855D01*
X148170736Y-72006140D01*
X148368687Y-71843687D01*
X148531140Y-71645736D01*
X148651855Y-71419896D01*
X148726190Y-71174845D01*
X148751290Y-70920000D01*
X148726190Y-70665155D01*
X148651855Y-70420104D01*
X148531140Y-70194264D01*
X148368687Y-69996313D01*
X148170736Y-69833860D01*
X147944896Y-69713145D01*
X147802665Y-69670000D01*
X147944896Y-69626855D01*
X148170736Y-69506140D01*
X148368687Y-69343687D01*
X148531140Y-69145736D01*
X148651855Y-68919896D01*
X148726190Y-68674845D01*
X148751290Y-68420000D01*
X148726190Y-68165155D01*
X148651855Y-67920104D01*
X148531140Y-67694264D01*
X148368687Y-67496313D01*
X148170736Y-67333860D01*
X147944896Y-67213145D01*
X147802665Y-67170000D01*
X147944896Y-67126855D01*
X148170736Y-67006140D01*
X148368687Y-66843687D01*
X148531140Y-66645736D01*
X148651855Y-66419896D01*
X148726190Y-66174845D01*
X148751290Y-65920000D01*
X148726190Y-65665155D01*
X148651855Y-65420104D01*
X148531140Y-65194264D01*
X148368687Y-64996313D01*
X148170736Y-64833860D01*
X147944896Y-64713145D01*
X147802665Y-64670000D01*
X147944896Y-64626855D01*
X148170736Y-64506140D01*
X148368687Y-64343687D01*
X148531140Y-64145736D01*
X148651855Y-63919896D01*
X148726190Y-63674845D01*
X148751290Y-63420000D01*
X148726190Y-63165155D01*
X148651855Y-62920104D01*
X148531140Y-62694264D01*
X148368687Y-62496313D01*
X148170736Y-62333860D01*
X147944896Y-62213145D01*
X147795012Y-62167679D01*
X147871830Y-62149202D01*
X148103434Y-62042313D01*
X148309735Y-61892294D01*
X148482805Y-61704910D01*
X148615992Y-61487362D01*
X148704179Y-61248011D01*
X148709547Y-61221531D01*
X148628282Y-61020000D01*
X147420000Y-61020000D01*
X147420000Y-61040000D01*
X147220000Y-61040000D01*
X147220000Y-61020000D01*
X146011718Y-61020000D01*
X145930453Y-61221531D01*
X145935821Y-61248011D01*
X146024008Y-61487362D01*
X146157195Y-61704910D01*
X146330265Y-61892294D01*
X146536566Y-62042313D01*
X146768170Y-62149202D01*
X146844988Y-62167679D01*
X146695104Y-62213145D01*
X146469264Y-62333860D01*
X146271313Y-62496313D01*
X146108860Y-62694264D01*
X146028289Y-62845000D01*
X143618243Y-62845000D01*
X143590000Y-62842218D01*
X143561757Y-62845000D01*
X143561754Y-62845000D01*
X143477280Y-62853320D01*
X143368892Y-62886199D01*
X143269002Y-62939592D01*
X143181446Y-63011446D01*
X143163439Y-63033388D01*
X141033804Y-65163024D01*
X141028727Y-65146288D01*
X140963839Y-65024891D01*
X140876514Y-64918486D01*
X140770109Y-64831161D01*
X140648712Y-64766273D01*
X140516988Y-64726315D01*
X140380000Y-64712823D01*
X139455000Y-64712823D01*
X139318012Y-64726315D01*
X139186288Y-64766273D01*
X139064891Y-64831161D01*
X138958486Y-64918486D01*
X138871161Y-65024891D01*
X138806273Y-65146288D01*
X138766315Y-65278012D01*
X138752823Y-65415000D01*
X138107177Y-65415000D01*
X138093685Y-65278012D01*
X138053727Y-65146288D01*
X137988839Y-65024891D01*
X137901514Y-64918486D01*
X137795109Y-64831161D01*
X137673712Y-64766273D01*
X137541988Y-64726315D01*
X137405000Y-64712823D01*
X136480000Y-64712823D01*
X136343012Y-64726315D01*
X136211288Y-64766273D01*
X136089891Y-64831161D01*
X135983486Y-64918486D01*
X135896161Y-65024891D01*
X135831273Y-65146288D01*
X135791315Y-65278012D01*
X135777823Y-65415000D01*
X135777823Y-65465000D01*
X133588173Y-65465000D01*
X131561565Y-63438393D01*
X131543554Y-63416446D01*
X131455998Y-63344592D01*
X131356108Y-63291199D01*
X131247720Y-63258320D01*
X131163246Y-63250000D01*
X131163243Y-63250000D01*
X131135000Y-63247218D01*
X131106757Y-63250000D01*
X130962500Y-63250000D01*
X130960000Y-63247500D01*
X130960000Y-63102500D01*
X131050000Y-63012500D01*
X131052177Y-62975000D01*
X131043489Y-62886785D01*
X131019161Y-62806587D01*
X131041567Y-62732724D01*
X131052177Y-62625000D01*
X131052177Y-62450000D01*
X131452295Y-62450000D01*
X131476052Y-62478948D01*
X131605481Y-62585168D01*
X131753145Y-62664097D01*
X131913371Y-62712700D01*
X132004606Y-62721686D01*
X132301938Y-63019019D01*
X132328552Y-63051448D01*
X132457981Y-63157668D01*
X132535105Y-63198892D01*
X132605645Y-63236597D01*
X132765870Y-63285200D01*
X132781513Y-63286741D01*
X132890751Y-63297500D01*
X132890758Y-63297500D01*
X132932499Y-63301611D01*
X132974240Y-63297500D01*
X133409766Y-63297500D01*
X133411161Y-63300109D01*
X133498486Y-63406514D01*
X133604891Y-63493839D01*
X133726288Y-63558727D01*
X133858012Y-63598685D01*
X133995000Y-63612177D01*
X135245000Y-63612177D01*
X135381988Y-63598685D01*
X135513712Y-63558727D01*
X135635109Y-63493839D01*
X135741514Y-63406514D01*
X135828839Y-63300109D01*
X135893727Y-63178712D01*
X135933685Y-63046988D01*
X135947177Y-62910000D01*
X135947177Y-61985000D01*
X135933685Y-61848012D01*
X135893727Y-61716288D01*
X135828839Y-61594891D01*
X135741514Y-61488486D01*
X135635109Y-61401161D01*
X135513712Y-61336273D01*
X135381988Y-61296315D01*
X135245000Y-61282823D01*
X133995000Y-61282823D01*
X133858012Y-61296315D01*
X133726288Y-61336273D01*
X133604891Y-61401161D01*
X133498486Y-61488486D01*
X133411161Y-61594891D01*
X133409766Y-61597500D01*
X133284581Y-61597500D01*
X132990566Y-61303485D01*
X132963948Y-61271052D01*
X132834519Y-61164832D01*
X132686855Y-61085903D01*
X132526629Y-61037300D01*
X132401749Y-61025000D01*
X132401741Y-61025000D01*
X132360000Y-61020889D01*
X132318259Y-61025000D01*
X132038251Y-61025000D01*
X131913371Y-61037300D01*
X131753145Y-61085903D01*
X131605481Y-61164832D01*
X131476052Y-61271052D01*
X131452295Y-61300000D01*
X130962500Y-61300000D01*
X130960000Y-61297500D01*
X130960000Y-61152500D01*
X131050000Y-61062500D01*
X131052177Y-61025000D01*
X131043489Y-60936785D01*
X131019161Y-60856587D01*
X131041567Y-60782724D01*
X131052177Y-60675000D01*
X131052177Y-60475000D01*
X131041567Y-60367276D01*
X131010145Y-60263691D01*
X130968084Y-60185000D01*
X133292823Y-60185000D01*
X133301511Y-60273215D01*
X133327243Y-60358041D01*
X133369029Y-60436216D01*
X133425263Y-60504737D01*
X133493784Y-60560971D01*
X133571959Y-60602757D01*
X133656785Y-60628489D01*
X133745000Y-60637177D01*
X134407500Y-60635000D01*
X134520000Y-60522500D01*
X134520000Y-59572500D01*
X134720000Y-59572500D01*
X134720000Y-60522500D01*
X134832500Y-60635000D01*
X135495000Y-60637177D01*
X135583215Y-60628489D01*
X135668041Y-60602757D01*
X135746216Y-60560971D01*
X135814737Y-60504737D01*
X135870971Y-60436216D01*
X135912757Y-60358041D01*
X135938489Y-60273215D01*
X135947177Y-60185000D01*
X135945000Y-59685000D01*
X135832500Y-59572500D01*
X134720000Y-59572500D01*
X134520000Y-59572500D01*
X133407500Y-59572500D01*
X133295000Y-59685000D01*
X133292823Y-60185000D01*
X130968084Y-60185000D01*
X130960000Y-60169877D01*
X130960000Y-59472080D01*
X131672080Y-58760000D01*
X133292823Y-58760000D01*
X133295000Y-59260000D01*
X133407500Y-59372500D01*
X134520000Y-59372500D01*
X134520000Y-58422500D01*
X134720000Y-58422500D01*
X134720000Y-59372500D01*
X135832500Y-59372500D01*
X135945000Y-59260000D01*
X135947177Y-58760000D01*
X135938489Y-58671785D01*
X135912757Y-58586959D01*
X135870971Y-58508784D01*
X135814737Y-58440263D01*
X135746216Y-58384029D01*
X135668041Y-58342243D01*
X135583215Y-58316511D01*
X135495000Y-58307823D01*
X134832500Y-58310000D01*
X134720000Y-58422500D01*
X134520000Y-58422500D01*
X134407500Y-58310000D01*
X133745000Y-58307823D01*
X133656785Y-58316511D01*
X133571959Y-58342243D01*
X133493784Y-58384029D01*
X133425263Y-58440263D01*
X133369029Y-58508784D01*
X133327243Y-58586959D01*
X133301511Y-58671785D01*
X133292823Y-58760000D01*
X131672080Y-58760000D01*
X132434019Y-57998061D01*
X132466448Y-57971448D01*
X132572668Y-57842019D01*
X132651597Y-57694355D01*
X132700200Y-57534129D01*
X132712500Y-57409249D01*
X132712500Y-57409242D01*
X132716611Y-57367501D01*
X132712500Y-57325760D01*
X132712500Y-57090234D01*
X132715109Y-57088839D01*
X132821514Y-57001514D01*
X132908839Y-56895109D01*
X132973727Y-56773712D01*
X132979403Y-56755000D01*
X133672823Y-56755000D01*
X133681511Y-56843215D01*
X133707243Y-56928041D01*
X133749029Y-57006216D01*
X133805263Y-57074737D01*
X133873784Y-57130971D01*
X133951959Y-57172757D01*
X134036785Y-57198489D01*
X134125000Y-57207177D01*
X134625000Y-57205000D01*
X134737500Y-57092500D01*
X134737500Y-55980000D01*
X134937500Y-55980000D01*
X134937500Y-57092500D01*
X135050000Y-57205000D01*
X135550000Y-57207177D01*
X135638215Y-57198489D01*
X135723041Y-57172757D01*
X135801216Y-57130971D01*
X135869737Y-57074737D01*
X135925971Y-57006216D01*
X135967757Y-56928041D01*
X135993489Y-56843215D01*
X136002177Y-56755000D01*
X136000000Y-56092500D01*
X135887500Y-55980000D01*
X134937500Y-55980000D01*
X134737500Y-55980000D01*
X133787500Y-55980000D01*
X133675000Y-56092500D01*
X133672823Y-56755000D01*
X132979403Y-56755000D01*
X133013685Y-56641988D01*
X133027177Y-56505000D01*
X133027177Y-55255000D01*
X133013685Y-55118012D01*
X132979404Y-55005000D01*
X133672823Y-55005000D01*
X133675000Y-55667500D01*
X133787500Y-55780000D01*
X134737500Y-55780000D01*
X134737500Y-54667500D01*
X134937500Y-54667500D01*
X134937500Y-55780000D01*
X135887500Y-55780000D01*
X136000000Y-55667500D01*
X136002177Y-55005000D01*
X135993489Y-54916785D01*
X135967757Y-54831959D01*
X135925971Y-54753784D01*
X135869737Y-54685263D01*
X135801216Y-54629029D01*
X135723041Y-54587243D01*
X135638215Y-54561511D01*
X135550000Y-54552823D01*
X135050000Y-54555000D01*
X134937500Y-54667500D01*
X134737500Y-54667500D01*
X134625000Y-54555000D01*
X134125000Y-54552823D01*
X134036785Y-54561511D01*
X133951959Y-54587243D01*
X133873784Y-54629029D01*
X133805263Y-54685263D01*
X133749029Y-54753784D01*
X133707243Y-54831959D01*
X133681511Y-54916785D01*
X133672823Y-55005000D01*
X132979404Y-55005000D01*
X132973727Y-54986288D01*
X132908839Y-54864891D01*
X132821514Y-54758486D01*
X132772192Y-54718008D01*
X132837267Y-54596262D01*
X132897307Y-54398336D01*
X132912500Y-54244078D01*
X132912500Y-52722423D01*
X134055991Y-51578933D01*
X134096054Y-51546054D01*
X134227267Y-51386171D01*
X134324767Y-51203762D01*
X134384807Y-51005836D01*
X134400000Y-50851578D01*
X134400000Y-50851571D01*
X134405079Y-50800000D01*
X134400000Y-50748429D01*
X134400000Y-49436621D01*
X134401216Y-49435971D01*
X134469737Y-49379737D01*
X134525971Y-49311216D01*
X134567757Y-49233041D01*
X134593489Y-49148215D01*
X134594670Y-49136223D01*
X136115198Y-49136223D01*
X136194958Y-49331717D01*
X136416626Y-49438917D01*
X136654948Y-49500812D01*
X136900766Y-49515023D01*
X137144633Y-49481004D01*
X137377178Y-49400063D01*
X137505042Y-49331717D01*
X137584802Y-49136223D01*
X136850000Y-48401421D01*
X136115198Y-49136223D01*
X134594670Y-49136223D01*
X134602177Y-49060000D01*
X134602177Y-48310766D01*
X135594977Y-48310766D01*
X135628996Y-48554633D01*
X135709937Y-48787178D01*
X135778283Y-48915042D01*
X135973777Y-48994802D01*
X136708579Y-48260000D01*
X136991421Y-48260000D01*
X137726223Y-48994802D01*
X137921717Y-48915042D01*
X138028917Y-48693374D01*
X138090812Y-48455052D01*
X138105023Y-48209234D01*
X138071004Y-47965367D01*
X137990063Y-47732822D01*
X137921717Y-47604958D01*
X137726223Y-47525198D01*
X136991421Y-48260000D01*
X136708579Y-48260000D01*
X135973777Y-47525198D01*
X135778283Y-47604958D01*
X135671083Y-47826626D01*
X135609188Y-48064948D01*
X135594977Y-48310766D01*
X134602177Y-48310766D01*
X134602177Y-47460000D01*
X134594671Y-47383777D01*
X136115198Y-47383777D01*
X136850000Y-48118579D01*
X137584802Y-47383777D01*
X137505042Y-47188283D01*
X137283374Y-47081083D01*
X137045052Y-47019188D01*
X136799234Y-47004977D01*
X136555367Y-47038996D01*
X136322822Y-47119937D01*
X136194958Y-47188283D01*
X136115198Y-47383777D01*
X134594671Y-47383777D01*
X134593489Y-47371785D01*
X134567757Y-47286959D01*
X134525971Y-47208784D01*
X134469737Y-47140263D01*
X134401216Y-47084029D01*
X134400000Y-47083379D01*
X134400000Y-46154924D01*
X135054924Y-45500000D01*
X143075077Y-45500000D01*
X146270001Y-48694925D01*
X146270000Y-57201359D01*
X146204891Y-57236161D01*
X146098486Y-57323486D01*
X146011161Y-57429891D01*
X145946273Y-57551288D01*
X145906315Y-57683012D01*
X145892823Y-57820000D01*
X145892823Y-59020000D01*
X145906315Y-59156988D01*
X145946273Y-59288712D01*
X146011161Y-59410109D01*
X146098486Y-59516514D01*
X146204891Y-59603839D01*
X146326288Y-59668727D01*
X146458012Y-59708685D01*
X146595000Y-59722177D01*
X146700179Y-59722177D01*
X146536566Y-59797687D01*
X146330265Y-59947706D01*
X146157195Y-60135090D01*
X146024008Y-60352638D01*
X145935821Y-60591989D01*
X145930453Y-60618469D01*
X146011718Y-60820000D01*
X147220000Y-60820000D01*
X147220000Y-60800000D01*
X147420000Y-60800000D01*
X147420000Y-60820000D01*
X148628282Y-60820000D01*
X148709547Y-60618469D01*
X148704179Y-60591989D01*
X148615992Y-60352638D01*
X148482805Y-60135090D01*
X148309735Y-59947706D01*
X148103434Y-59797687D01*
X147939821Y-59722177D01*
X148045000Y-59722177D01*
X148181988Y-59708685D01*
X148313712Y-59668727D01*
X148435109Y-59603839D01*
X148541514Y-59516514D01*
X148628839Y-59410109D01*
X148693727Y-59288712D01*
X148733685Y-59156988D01*
X148747177Y-59020000D01*
X148747177Y-57820000D01*
X148733685Y-57683012D01*
X148693727Y-57551288D01*
X148628839Y-57429891D01*
X148541514Y-57323486D01*
X148435109Y-57236161D01*
X148370000Y-57201360D01*
X148370000Y-48311571D01*
X148375079Y-48260000D01*
X148370000Y-48208429D01*
X148370000Y-48208422D01*
X148354807Y-48054164D01*
X148294767Y-47856238D01*
X148197267Y-47673829D01*
X148066054Y-47513946D01*
X148025991Y-47481067D01*
X144288937Y-43744014D01*
X144256054Y-43703946D01*
X144096171Y-43572733D01*
X143913762Y-43475233D01*
X143715836Y-43415193D01*
X143561578Y-43400000D01*
X143561568Y-43400000D01*
X143510000Y-43394921D01*
X143458432Y-43400000D01*
X134671567Y-43400000D01*
X134619999Y-43394921D01*
X134568431Y-43400000D01*
X134568422Y-43400000D01*
X134414164Y-43415193D01*
X134216238Y-43475233D01*
X134033829Y-43572733D01*
X134033827Y-43572734D01*
X134033828Y-43572734D01*
X133914008Y-43671067D01*
X133914003Y-43671072D01*
X133873946Y-43703946D01*
X133841071Y-43744004D01*
X132644014Y-44941063D01*
X132603946Y-44973946D01*
X132472733Y-45133829D01*
X132375233Y-45316239D01*
X132315193Y-45514165D01*
X132300000Y-45668423D01*
X132300000Y-45668432D01*
X132294921Y-45720000D01*
X132300000Y-45771568D01*
X132300001Y-47083379D01*
X132298784Y-47084029D01*
X132230263Y-47140263D01*
X132174029Y-47208784D01*
X132132243Y-47286959D01*
X132106511Y-47371785D01*
X132097823Y-47460000D01*
X132097823Y-49060000D01*
X132106511Y-49148215D01*
X132132243Y-49233041D01*
X132174029Y-49311216D01*
X132230263Y-49379737D01*
X132298784Y-49435971D01*
X132300000Y-49436621D01*
X132300001Y-50365075D01*
X131156514Y-51508563D01*
X131116446Y-51541446D01*
X130985233Y-51701329D01*
X130960000Y-51748537D01*
X130960000Y-36798093D01*
X150950000Y-36798093D01*
X150950000Y-37201907D01*
X151028780Y-37597963D01*
X151183314Y-37971039D01*
X151407661Y-38306799D01*
X151693201Y-38592339D01*
X152028961Y-38816686D01*
X152402037Y-38971220D01*
X152798093Y-39050000D01*
X153201907Y-39050000D01*
X153597963Y-38971220D01*
X153971039Y-38816686D01*
X154306799Y-38592339D01*
X154592339Y-38306799D01*
X154816686Y-37971039D01*
X154971220Y-37597963D01*
X155050000Y-37201907D01*
X155050000Y-36798093D01*
X154971220Y-36402037D01*
X154816686Y-36028961D01*
X154592339Y-35693201D01*
X154306799Y-35407661D01*
X153971039Y-35183314D01*
X153597963Y-35028780D01*
X153201907Y-34950000D01*
X152798093Y-34950000D01*
X152402037Y-35028780D01*
X152028961Y-35183314D01*
X151693201Y-35407661D01*
X151407661Y-35693201D01*
X151183314Y-36028961D01*
X151028780Y-36402037D01*
X150950000Y-36798093D01*
X130960000Y-36798093D01*
X130960000Y-34150000D01*
X155850000Y-34150000D01*
X155850000Y-81850000D01*
G37*
X155850000Y-81850000D02*
X130960000Y-81850000D01*
X130960000Y-78798093D01*
X150950000Y-78798093D01*
X150950000Y-79201907D01*
X151028780Y-79597963D01*
X151183314Y-79971039D01*
X151407661Y-80306799D01*
X151693201Y-80592339D01*
X152028961Y-80816686D01*
X152402037Y-80971220D01*
X152798093Y-81050000D01*
X153201907Y-81050000D01*
X153597963Y-80971220D01*
X153971039Y-80816686D01*
X154306799Y-80592339D01*
X154592339Y-80306799D01*
X154816686Y-79971039D01*
X154971220Y-79597963D01*
X155050000Y-79201907D01*
X155050000Y-78798093D01*
X154971220Y-78402037D01*
X154816686Y-78028961D01*
X154592339Y-77693201D01*
X154306799Y-77407661D01*
X153971039Y-77183314D01*
X153597963Y-77028780D01*
X153201907Y-76950000D01*
X152798093Y-76950000D01*
X152402037Y-77028780D01*
X152028961Y-77183314D01*
X151693201Y-77407661D01*
X151407661Y-77693201D01*
X151183314Y-78028961D01*
X151028780Y-78402037D01*
X150950000Y-78798093D01*
X130960000Y-78798093D01*
X130960000Y-66895677D01*
X130975971Y-66876216D01*
X131017757Y-66798041D01*
X131043489Y-66713215D01*
X131052177Y-66625000D01*
X131050000Y-66587500D01*
X130987502Y-66525002D01*
X131050000Y-66525002D01*
X131050000Y-66462402D01*
X133779980Y-69192383D01*
X133779981Y-75906727D01*
X133777198Y-75934980D01*
X133788301Y-76047699D01*
X133821179Y-76156087D01*
X133874572Y-76255978D01*
X133878826Y-76261161D01*
X133946427Y-76343534D01*
X133968369Y-76361541D01*
X135463439Y-77856612D01*
X135481446Y-77878554D01*
X135503386Y-77896559D01*
X135569001Y-77950408D01*
X135668892Y-78003801D01*
X135777280Y-78036680D01*
X135777823Y-78036733D01*
X135777823Y-78095000D01*
X135791315Y-78231988D01*
X135831273Y-78363712D01*
X135896161Y-78485109D01*
X135983486Y-78591514D01*
X136089891Y-78678839D01*
X136211288Y-78743727D01*
X136343012Y-78783685D01*
X136480000Y-78797177D01*
X137405000Y-78797177D01*
X137541988Y-78783685D01*
X137673712Y-78743727D01*
X137795109Y-78678839D01*
X137901514Y-78591514D01*
X137988839Y-78485109D01*
X138053727Y-78363712D01*
X138093685Y-78231988D01*
X138107177Y-78095000D01*
X138107177Y-76845000D01*
X138093685Y-76708012D01*
X138053727Y-76576288D01*
X137988839Y-76454891D01*
X137901514Y-76348486D01*
X137795109Y-76261161D01*
X137673712Y-76196273D01*
X137541988Y-76156315D01*
X137405000Y-76142823D01*
X136480000Y-76142823D01*
X136343012Y-76156315D01*
X136211288Y-76196273D01*
X136089891Y-76261161D01*
X135983486Y-76348486D01*
X135896161Y-76454891D01*
X135831273Y-76576288D01*
X135826196Y-76593024D01*
X134929980Y-75696808D01*
X134929980Y-73513152D01*
X135463439Y-74046612D01*
X135481446Y-74068554D01*
X135503386Y-74086559D01*
X135569001Y-74140408D01*
X135603796Y-74159006D01*
X135668892Y-74193801D01*
X135777280Y-74226680D01*
X135777823Y-74226733D01*
X135777823Y-74285000D01*
X135791315Y-74421988D01*
X135831273Y-74553712D01*
X135896161Y-74675109D01*
X135983486Y-74781514D01*
X136089891Y-74868839D01*
X136211288Y-74933727D01*
X136343012Y-74973685D01*
X136480000Y-74987177D01*
X137405000Y-74987177D01*
X137541988Y-74973685D01*
X137673712Y-74933727D01*
X137795109Y-74868839D01*
X137901514Y-74781514D01*
X137988839Y-74675109D01*
X138053727Y-74553712D01*
X138093685Y-74421988D01*
X138107177Y-74285000D01*
X138107177Y-73035000D01*
X138093685Y-72898012D01*
X138053727Y-72766288D01*
X137988839Y-72644891D01*
X137901514Y-72538486D01*
X137795109Y-72451161D01*
X137673712Y-72386273D01*
X137541988Y-72346315D01*
X137405000Y-72332823D01*
X136480000Y-72332823D01*
X136343012Y-72346315D01*
X136211288Y-72386273D01*
X136089891Y-72451161D01*
X135983486Y-72538486D01*
X135896161Y-72644891D01*
X135831273Y-72766288D01*
X135826196Y-72783024D01*
X135379991Y-72336819D01*
X135379991Y-70153164D01*
X135463439Y-70236612D01*
X135481446Y-70258554D01*
X135503386Y-70276559D01*
X135569001Y-70330408D01*
X135668892Y-70383801D01*
X135777280Y-70416680D01*
X135777823Y-70416733D01*
X135777823Y-70475000D01*
X135791315Y-70611988D01*
X135831273Y-70743712D01*
X135896161Y-70865109D01*
X135983486Y-70971514D01*
X136089891Y-71058839D01*
X136211288Y-71123727D01*
X136343012Y-71163685D01*
X136480000Y-71177177D01*
X137405000Y-71177177D01*
X137541988Y-71163685D01*
X137673712Y-71123727D01*
X137795109Y-71058839D01*
X137901514Y-70971514D01*
X137988839Y-70865109D01*
X138053727Y-70743712D01*
X138093685Y-70611988D01*
X138107177Y-70475000D01*
X138107177Y-69225000D01*
X138093685Y-69088012D01*
X138053727Y-68956288D01*
X137988839Y-68834891D01*
X137901514Y-68728486D01*
X137795109Y-68641161D01*
X137673712Y-68576273D01*
X137541988Y-68536315D01*
X137405000Y-68522823D01*
X136480000Y-68522823D01*
X136343012Y-68536315D01*
X136211288Y-68576273D01*
X136089891Y-68641161D01*
X135983486Y-68728486D01*
X135896161Y-68834891D01*
X135831273Y-68956288D01*
X135830002Y-68960478D01*
X135830002Y-68609655D01*
X135832784Y-68581412D01*
X135830002Y-68553166D01*
X135821682Y-68468692D01*
X135788803Y-68360304D01*
X135735410Y-68260414D01*
X135663556Y-68172858D01*
X135641615Y-68154852D01*
X134101763Y-66615000D01*
X135777823Y-66615000D01*
X135777823Y-66665000D01*
X135791315Y-66801988D01*
X135831273Y-66933712D01*
X135896161Y-67055109D01*
X135983486Y-67161514D01*
X136089891Y-67248839D01*
X136211288Y-67313727D01*
X136343012Y-67353685D01*
X136480000Y-67367177D01*
X137405000Y-67367177D01*
X137541988Y-67353685D01*
X137673712Y-67313727D01*
X137795109Y-67248839D01*
X137901514Y-67161514D01*
X137988839Y-67055109D01*
X138053727Y-66933712D01*
X138093685Y-66801988D01*
X138107177Y-66665000D01*
X138107177Y-65415000D01*
X138752823Y-65415000D01*
X138752823Y-66665000D01*
X138766315Y-66801988D01*
X138806273Y-66933712D01*
X138871161Y-67055109D01*
X138958486Y-67161514D01*
X139064891Y-67248839D01*
X139186288Y-67313727D01*
X139318012Y-67353685D01*
X139455000Y-67367177D01*
X140380000Y-67367177D01*
X140516988Y-67353685D01*
X140648712Y-67313727D01*
X140770109Y-67248839D01*
X140876514Y-67161514D01*
X140963839Y-67055109D01*
X141028727Y-66933712D01*
X141068685Y-66801988D01*
X141082177Y-66665000D01*
X141082177Y-66606733D01*
X141082720Y-66606680D01*
X141191108Y-66573801D01*
X141290998Y-66520408D01*
X141378554Y-66448554D01*
X141396565Y-66426607D01*
X143828173Y-63995000D01*
X146028289Y-63995000D01*
X146108860Y-64145736D01*
X146271313Y-64343687D01*
X146469264Y-64506140D01*
X146695104Y-64626855D01*
X146837335Y-64670000D01*
X146695104Y-64713145D01*
X146469264Y-64833860D01*
X146271313Y-64996313D01*
X146108860Y-65194264D01*
X146028289Y-65345000D01*
X144928242Y-65345000D01*
X144899999Y-65342218D01*
X144871756Y-65345000D01*
X144871754Y-65345000D01*
X144787280Y-65353320D01*
X144678892Y-65386199D01*
X144579001Y-65439592D01*
X144533153Y-65477218D01*
X144491446Y-65511446D01*
X144473439Y-65533388D01*
X141033804Y-68973024D01*
X141028727Y-68956288D01*
X140963839Y-68834891D01*
X140876514Y-68728486D01*
X140770109Y-68641161D01*
X140648712Y-68576273D01*
X140516988Y-68536315D01*
X140380000Y-68522823D01*
X139455000Y-68522823D01*
X139318012Y-68536315D01*
X139186288Y-68576273D01*
X139064891Y-68641161D01*
X138958486Y-68728486D01*
X138871161Y-68834891D01*
X138806273Y-68956288D01*
X138766315Y-69088012D01*
X138752823Y-69225000D01*
X138752823Y-70475000D01*
X138766315Y-70611988D01*
X138806273Y-70743712D01*
X138871161Y-70865109D01*
X138958486Y-70971514D01*
X139064891Y-71058839D01*
X139186288Y-71123727D01*
X139318012Y-71163685D01*
X139455000Y-71177177D01*
X140380000Y-71177177D01*
X140516988Y-71163685D01*
X140648712Y-71123727D01*
X140770109Y-71058839D01*
X140876514Y-70971514D01*
X140963839Y-70865109D01*
X141028727Y-70743712D01*
X141068685Y-70611988D01*
X141082177Y-70475000D01*
X141082177Y-70416733D01*
X141082720Y-70416680D01*
X141191108Y-70383801D01*
X141290998Y-70330408D01*
X141378554Y-70258554D01*
X141396566Y-70236607D01*
X145138173Y-66495000D01*
X146028289Y-66495000D01*
X146108860Y-66645736D01*
X146271313Y-66843687D01*
X146469264Y-67006140D01*
X146695104Y-67126855D01*
X146837335Y-67170000D01*
X146695104Y-67213145D01*
X146469264Y-67333860D01*
X146271313Y-67496313D01*
X146108860Y-67694264D01*
X146009630Y-67879908D01*
X145988892Y-67886199D01*
X145889001Y-67939592D01*
X145843153Y-67977218D01*
X145801446Y-68011446D01*
X145783439Y-68033388D01*
X141033804Y-72783024D01*
X141028727Y-72766288D01*
X140963839Y-72644891D01*
X140876514Y-72538486D01*
X140770109Y-72451161D01*
X140648712Y-72386273D01*
X140516988Y-72346315D01*
X140380000Y-72332823D01*
X139455000Y-72332823D01*
X139318012Y-72346315D01*
X139186288Y-72386273D01*
X139064891Y-72451161D01*
X138958486Y-72538486D01*
X138871161Y-72644891D01*
X138806273Y-72766288D01*
X138766315Y-72898012D01*
X138752823Y-73035000D01*
X138752823Y-74285000D01*
X138766315Y-74421988D01*
X138806273Y-74553712D01*
X138871161Y-74675109D01*
X138958486Y-74781514D01*
X139064891Y-74868839D01*
X139186288Y-74933727D01*
X139318012Y-74973685D01*
X139455000Y-74987177D01*
X140380000Y-74987177D01*
X140516988Y-74973685D01*
X140648712Y-74933727D01*
X140770109Y-74868839D01*
X140876514Y-74781514D01*
X140963839Y-74675109D01*
X141028727Y-74553712D01*
X141068685Y-74421988D01*
X141082177Y-74285000D01*
X141082177Y-74226733D01*
X141082720Y-74226680D01*
X141191108Y-74193801D01*
X141290998Y-74140408D01*
X141378554Y-74068554D01*
X141396566Y-74046606D01*
X146193862Y-69249311D01*
X146271313Y-69343687D01*
X146469264Y-69506140D01*
X146695104Y-69626855D01*
X146837335Y-69670000D01*
X146695104Y-69713145D01*
X146469264Y-69833860D01*
X146271313Y-69996313D01*
X146108860Y-70194264D01*
X145988145Y-70420104D01*
X145913810Y-70665155D01*
X145888710Y-70920000D01*
X145913810Y-71174845D01*
X145988145Y-71419896D01*
X146064354Y-71562473D01*
X141033804Y-76593024D01*
X141028727Y-76576288D01*
X140963839Y-76454891D01*
X140876514Y-76348486D01*
X140770109Y-76261161D01*
X140648712Y-76196273D01*
X140516988Y-76156315D01*
X140380000Y-76142823D01*
X139455000Y-76142823D01*
X139318012Y-76156315D01*
X139186288Y-76196273D01*
X139064891Y-76261161D01*
X138958486Y-76348486D01*
X138871161Y-76454891D01*
X138806273Y-76576288D01*
X138766315Y-76708012D01*
X138752823Y-76845000D01*
X138752823Y-78095000D01*
X138766315Y-78231988D01*
X138806273Y-78363712D01*
X138871161Y-78485109D01*
X138958486Y-78591514D01*
X139064891Y-78678839D01*
X139186288Y-78743727D01*
X139318012Y-78783685D01*
X139455000Y-78797177D01*
X140380000Y-78797177D01*
X140516988Y-78783685D01*
X140648712Y-78743727D01*
X140770109Y-78678839D01*
X140876514Y-78591514D01*
X140963839Y-78485109D01*
X141028727Y-78363712D01*
X141068685Y-78231988D01*
X141082177Y-78095000D01*
X141082177Y-78036733D01*
X141082720Y-78036680D01*
X141191108Y-78003801D01*
X141290998Y-77950408D01*
X141378554Y-77878554D01*
X141396566Y-77856606D01*
X147041956Y-72211217D01*
X147131136Y-72220000D01*
X147508864Y-72220000D01*
X147699845Y-72201190D01*
X147944896Y-72126855D01*
X148170736Y-72006140D01*
X148368687Y-71843687D01*
X148531140Y-71645736D01*
X148651855Y-71419896D01*
X148726190Y-71174845D01*
X148751290Y-70920000D01*
X148726190Y-70665155D01*
X148651855Y-70420104D01*
X148531140Y-70194264D01*
X148368687Y-69996313D01*
X148170736Y-69833860D01*
X147944896Y-69713145D01*
X147802665Y-69670000D01*
X147944896Y-69626855D01*
X148170736Y-69506140D01*
X148368687Y-69343687D01*
X148531140Y-69145736D01*
X148651855Y-68919896D01*
X148726190Y-68674845D01*
X148751290Y-68420000D01*
X148726190Y-68165155D01*
X148651855Y-67920104D01*
X148531140Y-67694264D01*
X148368687Y-67496313D01*
X148170736Y-67333860D01*
X147944896Y-67213145D01*
X147802665Y-67170000D01*
X147944896Y-67126855D01*
X148170736Y-67006140D01*
X148368687Y-66843687D01*
X148531140Y-66645736D01*
X148651855Y-66419896D01*
X148726190Y-66174845D01*
X148751290Y-65920000D01*
X148726190Y-65665155D01*
X148651855Y-65420104D01*
X148531140Y-65194264D01*
X148368687Y-64996313D01*
X148170736Y-64833860D01*
X147944896Y-64713145D01*
X147802665Y-64670000D01*
X147944896Y-64626855D01*
X148170736Y-64506140D01*
X148368687Y-64343687D01*
X148531140Y-64145736D01*
X148651855Y-63919896D01*
X148726190Y-63674845D01*
X148751290Y-63420000D01*
X148726190Y-63165155D01*
X148651855Y-62920104D01*
X148531140Y-62694264D01*
X148368687Y-62496313D01*
X148170736Y-62333860D01*
X147944896Y-62213145D01*
X147795012Y-62167679D01*
X147871830Y-62149202D01*
X148103434Y-62042313D01*
X148309735Y-61892294D01*
X148482805Y-61704910D01*
X148615992Y-61487362D01*
X148704179Y-61248011D01*
X148709547Y-61221531D01*
X148628282Y-61020000D01*
X147420000Y-61020000D01*
X147420000Y-61040000D01*
X147220000Y-61040000D01*
X147220000Y-61020000D01*
X146011718Y-61020000D01*
X145930453Y-61221531D01*
X145935821Y-61248011D01*
X146024008Y-61487362D01*
X146157195Y-61704910D01*
X146330265Y-61892294D01*
X146536566Y-62042313D01*
X146768170Y-62149202D01*
X146844988Y-62167679D01*
X146695104Y-62213145D01*
X146469264Y-62333860D01*
X146271313Y-62496313D01*
X146108860Y-62694264D01*
X146028289Y-62845000D01*
X143618243Y-62845000D01*
X143590000Y-62842218D01*
X143561757Y-62845000D01*
X143561754Y-62845000D01*
X143477280Y-62853320D01*
X143368892Y-62886199D01*
X143269002Y-62939592D01*
X143181446Y-63011446D01*
X143163439Y-63033388D01*
X141033804Y-65163024D01*
X141028727Y-65146288D01*
X140963839Y-65024891D01*
X140876514Y-64918486D01*
X140770109Y-64831161D01*
X140648712Y-64766273D01*
X140516988Y-64726315D01*
X140380000Y-64712823D01*
X139455000Y-64712823D01*
X139318012Y-64726315D01*
X139186288Y-64766273D01*
X139064891Y-64831161D01*
X138958486Y-64918486D01*
X138871161Y-65024891D01*
X138806273Y-65146288D01*
X138766315Y-65278012D01*
X138752823Y-65415000D01*
X138107177Y-65415000D01*
X138093685Y-65278012D01*
X138053727Y-65146288D01*
X137988839Y-65024891D01*
X137901514Y-64918486D01*
X137795109Y-64831161D01*
X137673712Y-64766273D01*
X137541988Y-64726315D01*
X137405000Y-64712823D01*
X136480000Y-64712823D01*
X136343012Y-64726315D01*
X136211288Y-64766273D01*
X136089891Y-64831161D01*
X135983486Y-64918486D01*
X135896161Y-65024891D01*
X135831273Y-65146288D01*
X135791315Y-65278012D01*
X135777823Y-65415000D01*
X135777823Y-65465000D01*
X133588173Y-65465000D01*
X131561565Y-63438393D01*
X131543554Y-63416446D01*
X131455998Y-63344592D01*
X131356108Y-63291199D01*
X131247720Y-63258320D01*
X131163246Y-63250000D01*
X131163243Y-63250000D01*
X131135000Y-63247218D01*
X131106757Y-63250000D01*
X130962500Y-63250000D01*
X130960000Y-63247500D01*
X130960000Y-63102500D01*
X131050000Y-63012500D01*
X131052177Y-62975000D01*
X131043489Y-62886785D01*
X131019161Y-62806587D01*
X131041567Y-62732724D01*
X131052177Y-62625000D01*
X131052177Y-62450000D01*
X131452295Y-62450000D01*
X131476052Y-62478948D01*
X131605481Y-62585168D01*
X131753145Y-62664097D01*
X131913371Y-62712700D01*
X132004606Y-62721686D01*
X132301938Y-63019019D01*
X132328552Y-63051448D01*
X132457981Y-63157668D01*
X132535105Y-63198892D01*
X132605645Y-63236597D01*
X132765870Y-63285200D01*
X132781513Y-63286741D01*
X132890751Y-63297500D01*
X132890758Y-63297500D01*
X132932499Y-63301611D01*
X132974240Y-63297500D01*
X133409766Y-63297500D01*
X133411161Y-63300109D01*
X133498486Y-63406514D01*
X133604891Y-63493839D01*
X133726288Y-63558727D01*
X133858012Y-63598685D01*
X133995000Y-63612177D01*
X135245000Y-63612177D01*
X135381988Y-63598685D01*
X135513712Y-63558727D01*
X135635109Y-63493839D01*
X135741514Y-63406514D01*
X135828839Y-63300109D01*
X135893727Y-63178712D01*
X135933685Y-63046988D01*
X135947177Y-62910000D01*
X135947177Y-61985000D01*
X135933685Y-61848012D01*
X135893727Y-61716288D01*
X135828839Y-61594891D01*
X135741514Y-61488486D01*
X135635109Y-61401161D01*
X135513712Y-61336273D01*
X135381988Y-61296315D01*
X135245000Y-61282823D01*
X133995000Y-61282823D01*
X133858012Y-61296315D01*
X133726288Y-61336273D01*
X133604891Y-61401161D01*
X133498486Y-61488486D01*
X133411161Y-61594891D01*
X133409766Y-61597500D01*
X133284581Y-61597500D01*
X132990566Y-61303485D01*
X132963948Y-61271052D01*
X132834519Y-61164832D01*
X132686855Y-61085903D01*
X132526629Y-61037300D01*
X132401749Y-61025000D01*
X132401741Y-61025000D01*
X132360000Y-61020889D01*
X132318259Y-61025000D01*
X132038251Y-61025000D01*
X131913371Y-61037300D01*
X131753145Y-61085903D01*
X131605481Y-61164832D01*
X131476052Y-61271052D01*
X131452295Y-61300000D01*
X130962500Y-61300000D01*
X130960000Y-61297500D01*
X130960000Y-61152500D01*
X131050000Y-61062500D01*
X131052177Y-61025000D01*
X131043489Y-60936785D01*
X131019161Y-60856587D01*
X131041567Y-60782724D01*
X131052177Y-60675000D01*
X131052177Y-60475000D01*
X131041567Y-60367276D01*
X131010145Y-60263691D01*
X130968084Y-60185000D01*
X133292823Y-60185000D01*
X133301511Y-60273215D01*
X133327243Y-60358041D01*
X133369029Y-60436216D01*
X133425263Y-60504737D01*
X133493784Y-60560971D01*
X133571959Y-60602757D01*
X133656785Y-60628489D01*
X133745000Y-60637177D01*
X134407500Y-60635000D01*
X134520000Y-60522500D01*
X134520000Y-59572500D01*
X134720000Y-59572500D01*
X134720000Y-60522500D01*
X134832500Y-60635000D01*
X135495000Y-60637177D01*
X135583215Y-60628489D01*
X135668041Y-60602757D01*
X135746216Y-60560971D01*
X135814737Y-60504737D01*
X135870971Y-60436216D01*
X135912757Y-60358041D01*
X135938489Y-60273215D01*
X135947177Y-60185000D01*
X135945000Y-59685000D01*
X135832500Y-59572500D01*
X134720000Y-59572500D01*
X134520000Y-59572500D01*
X133407500Y-59572500D01*
X133295000Y-59685000D01*
X133292823Y-60185000D01*
X130968084Y-60185000D01*
X130960000Y-60169877D01*
X130960000Y-59472080D01*
X131672080Y-58760000D01*
X133292823Y-58760000D01*
X133295000Y-59260000D01*
X133407500Y-59372500D01*
X134520000Y-59372500D01*
X134520000Y-58422500D01*
X134720000Y-58422500D01*
X134720000Y-59372500D01*
X135832500Y-59372500D01*
X135945000Y-59260000D01*
X135947177Y-58760000D01*
X135938489Y-58671785D01*
X135912757Y-58586959D01*
X135870971Y-58508784D01*
X135814737Y-58440263D01*
X135746216Y-58384029D01*
X135668041Y-58342243D01*
X135583215Y-58316511D01*
X135495000Y-58307823D01*
X134832500Y-58310000D01*
X134720000Y-58422500D01*
X134520000Y-58422500D01*
X134407500Y-58310000D01*
X133745000Y-58307823D01*
X133656785Y-58316511D01*
X133571959Y-58342243D01*
X133493784Y-58384029D01*
X133425263Y-58440263D01*
X133369029Y-58508784D01*
X133327243Y-58586959D01*
X133301511Y-58671785D01*
X133292823Y-58760000D01*
X131672080Y-58760000D01*
X132434019Y-57998061D01*
X132466448Y-57971448D01*
X132572668Y-57842019D01*
X132651597Y-57694355D01*
X132700200Y-57534129D01*
X132712500Y-57409249D01*
X132712500Y-57409242D01*
X132716611Y-57367501D01*
X132712500Y-57325760D01*
X132712500Y-57090234D01*
X132715109Y-57088839D01*
X132821514Y-57001514D01*
X132908839Y-56895109D01*
X132973727Y-56773712D01*
X132979403Y-56755000D01*
X133672823Y-56755000D01*
X133681511Y-56843215D01*
X133707243Y-56928041D01*
X133749029Y-57006216D01*
X133805263Y-57074737D01*
X133873784Y-57130971D01*
X133951959Y-57172757D01*
X134036785Y-57198489D01*
X134125000Y-57207177D01*
X134625000Y-57205000D01*
X134737500Y-57092500D01*
X134737500Y-55980000D01*
X134937500Y-55980000D01*
X134937500Y-57092500D01*
X135050000Y-57205000D01*
X135550000Y-57207177D01*
X135638215Y-57198489D01*
X135723041Y-57172757D01*
X135801216Y-57130971D01*
X135869737Y-57074737D01*
X135925971Y-57006216D01*
X135967757Y-56928041D01*
X135993489Y-56843215D01*
X136002177Y-56755000D01*
X136000000Y-56092500D01*
X135887500Y-55980000D01*
X134937500Y-55980000D01*
X134737500Y-55980000D01*
X133787500Y-55980000D01*
X133675000Y-56092500D01*
X133672823Y-56755000D01*
X132979403Y-56755000D01*
X133013685Y-56641988D01*
X133027177Y-56505000D01*
X133027177Y-55255000D01*
X133013685Y-55118012D01*
X132979404Y-55005000D01*
X133672823Y-55005000D01*
X133675000Y-55667500D01*
X133787500Y-55780000D01*
X134737500Y-55780000D01*
X134737500Y-54667500D01*
X134937500Y-54667500D01*
X134937500Y-55780000D01*
X135887500Y-55780000D01*
X136000000Y-55667500D01*
X136002177Y-55005000D01*
X135993489Y-54916785D01*
X135967757Y-54831959D01*
X135925971Y-54753784D01*
X135869737Y-54685263D01*
X135801216Y-54629029D01*
X135723041Y-54587243D01*
X135638215Y-54561511D01*
X135550000Y-54552823D01*
X135050000Y-54555000D01*
X134937500Y-54667500D01*
X134737500Y-54667500D01*
X134625000Y-54555000D01*
X134125000Y-54552823D01*
X134036785Y-54561511D01*
X133951959Y-54587243D01*
X133873784Y-54629029D01*
X133805263Y-54685263D01*
X133749029Y-54753784D01*
X133707243Y-54831959D01*
X133681511Y-54916785D01*
X133672823Y-55005000D01*
X132979404Y-55005000D01*
X132973727Y-54986288D01*
X132908839Y-54864891D01*
X132821514Y-54758486D01*
X132772192Y-54718008D01*
X132837267Y-54596262D01*
X132897307Y-54398336D01*
X132912500Y-54244078D01*
X132912500Y-52722423D01*
X134055991Y-51578933D01*
X134096054Y-51546054D01*
X134227267Y-51386171D01*
X134324767Y-51203762D01*
X134384807Y-51005836D01*
X134400000Y-50851578D01*
X134400000Y-50851571D01*
X134405079Y-50800000D01*
X134400000Y-50748429D01*
X134400000Y-49436621D01*
X134401216Y-49435971D01*
X134469737Y-49379737D01*
X134525971Y-49311216D01*
X134567757Y-49233041D01*
X134593489Y-49148215D01*
X134594670Y-49136223D01*
X136115198Y-49136223D01*
X136194958Y-49331717D01*
X136416626Y-49438917D01*
X136654948Y-49500812D01*
X136900766Y-49515023D01*
X137144633Y-49481004D01*
X137377178Y-49400063D01*
X137505042Y-49331717D01*
X137584802Y-49136223D01*
X136850000Y-48401421D01*
X136115198Y-49136223D01*
X134594670Y-49136223D01*
X134602177Y-49060000D01*
X134602177Y-48310766D01*
X135594977Y-48310766D01*
X135628996Y-48554633D01*
X135709937Y-48787178D01*
X135778283Y-48915042D01*
X135973777Y-48994802D01*
X136708579Y-48260000D01*
X136991421Y-48260000D01*
X137726223Y-48994802D01*
X137921717Y-48915042D01*
X138028917Y-48693374D01*
X138090812Y-48455052D01*
X138105023Y-48209234D01*
X138071004Y-47965367D01*
X137990063Y-47732822D01*
X137921717Y-47604958D01*
X137726223Y-47525198D01*
X136991421Y-48260000D01*
X136708579Y-48260000D01*
X135973777Y-47525198D01*
X135778283Y-47604958D01*
X135671083Y-47826626D01*
X135609188Y-48064948D01*
X135594977Y-48310766D01*
X134602177Y-48310766D01*
X134602177Y-47460000D01*
X134594671Y-47383777D01*
X136115198Y-47383777D01*
X136850000Y-48118579D01*
X137584802Y-47383777D01*
X137505042Y-47188283D01*
X137283374Y-47081083D01*
X137045052Y-47019188D01*
X136799234Y-47004977D01*
X136555367Y-47038996D01*
X136322822Y-47119937D01*
X136194958Y-47188283D01*
X136115198Y-47383777D01*
X134594671Y-47383777D01*
X134593489Y-47371785D01*
X134567757Y-47286959D01*
X134525971Y-47208784D01*
X134469737Y-47140263D01*
X134401216Y-47084029D01*
X134400000Y-47083379D01*
X134400000Y-46154924D01*
X135054924Y-45500000D01*
X143075077Y-45500000D01*
X146270001Y-48694925D01*
X146270000Y-57201359D01*
X146204891Y-57236161D01*
X146098486Y-57323486D01*
X146011161Y-57429891D01*
X145946273Y-57551288D01*
X145906315Y-57683012D01*
X145892823Y-57820000D01*
X145892823Y-59020000D01*
X145906315Y-59156988D01*
X145946273Y-59288712D01*
X146011161Y-59410109D01*
X146098486Y-59516514D01*
X146204891Y-59603839D01*
X146326288Y-59668727D01*
X146458012Y-59708685D01*
X146595000Y-59722177D01*
X146700179Y-59722177D01*
X146536566Y-59797687D01*
X146330265Y-59947706D01*
X146157195Y-60135090D01*
X146024008Y-60352638D01*
X145935821Y-60591989D01*
X145930453Y-60618469D01*
X146011718Y-60820000D01*
X147220000Y-60820000D01*
X147220000Y-60800000D01*
X147420000Y-60800000D01*
X147420000Y-60820000D01*
X148628282Y-60820000D01*
X148709547Y-60618469D01*
X148704179Y-60591989D01*
X148615992Y-60352638D01*
X148482805Y-60135090D01*
X148309735Y-59947706D01*
X148103434Y-59797687D01*
X147939821Y-59722177D01*
X148045000Y-59722177D01*
X148181988Y-59708685D01*
X148313712Y-59668727D01*
X148435109Y-59603839D01*
X148541514Y-59516514D01*
X148628839Y-59410109D01*
X148693727Y-59288712D01*
X148733685Y-59156988D01*
X148747177Y-59020000D01*
X148747177Y-57820000D01*
X148733685Y-57683012D01*
X148693727Y-57551288D01*
X148628839Y-57429891D01*
X148541514Y-57323486D01*
X148435109Y-57236161D01*
X148370000Y-57201360D01*
X148370000Y-48311571D01*
X148375079Y-48260000D01*
X148370000Y-48208429D01*
X148370000Y-48208422D01*
X148354807Y-48054164D01*
X148294767Y-47856238D01*
X148197267Y-47673829D01*
X148066054Y-47513946D01*
X148025991Y-47481067D01*
X144288937Y-43744014D01*
X144256054Y-43703946D01*
X144096171Y-43572733D01*
X143913762Y-43475233D01*
X143715836Y-43415193D01*
X143561578Y-43400000D01*
X143561568Y-43400000D01*
X143510000Y-43394921D01*
X143458432Y-43400000D01*
X134671567Y-43400000D01*
X134619999Y-43394921D01*
X134568431Y-43400000D01*
X134568422Y-43400000D01*
X134414164Y-43415193D01*
X134216238Y-43475233D01*
X134033829Y-43572733D01*
X134033827Y-43572734D01*
X134033828Y-43572734D01*
X133914008Y-43671067D01*
X133914003Y-43671072D01*
X133873946Y-43703946D01*
X133841071Y-43744004D01*
X132644014Y-44941063D01*
X132603946Y-44973946D01*
X132472733Y-45133829D01*
X132375233Y-45316239D01*
X132315193Y-45514165D01*
X132300000Y-45668423D01*
X132300000Y-45668432D01*
X132294921Y-45720000D01*
X132300000Y-45771568D01*
X132300001Y-47083379D01*
X132298784Y-47084029D01*
X132230263Y-47140263D01*
X132174029Y-47208784D01*
X132132243Y-47286959D01*
X132106511Y-47371785D01*
X132097823Y-47460000D01*
X132097823Y-49060000D01*
X132106511Y-49148215D01*
X132132243Y-49233041D01*
X132174029Y-49311216D01*
X132230263Y-49379737D01*
X132298784Y-49435971D01*
X132300000Y-49436621D01*
X132300001Y-50365075D01*
X131156514Y-51508563D01*
X131116446Y-51541446D01*
X130985233Y-51701329D01*
X130960000Y-51748537D01*
X130960000Y-36798093D01*
X150950000Y-36798093D01*
X150950000Y-37201907D01*
X151028780Y-37597963D01*
X151183314Y-37971039D01*
X151407661Y-38306799D01*
X151693201Y-38592339D01*
X152028961Y-38816686D01*
X152402037Y-38971220D01*
X152798093Y-39050000D01*
X153201907Y-39050000D01*
X153597963Y-38971220D01*
X153971039Y-38816686D01*
X154306799Y-38592339D01*
X154592339Y-38306799D01*
X154816686Y-37971039D01*
X154971220Y-37597963D01*
X155050000Y-37201907D01*
X155050000Y-36798093D01*
X154971220Y-36402037D01*
X154816686Y-36028961D01*
X154592339Y-35693201D01*
X154306799Y-35407661D01*
X153971039Y-35183314D01*
X153597963Y-35028780D01*
X153201907Y-34950000D01*
X152798093Y-34950000D01*
X152402037Y-35028780D01*
X152028961Y-35183314D01*
X151693201Y-35407661D01*
X151407661Y-35693201D01*
X151183314Y-36028961D01*
X151028780Y-36402037D01*
X150950000Y-36798093D01*
X130960000Y-36798093D01*
X130960000Y-34150000D01*
X155850000Y-34150000D01*
X155850000Y-81850000D01*
%TO.N,GNDA*%
G36*
X130360000Y-57667919D02*
G01*
X129337500Y-58690420D01*
X129337500Y-58360234D01*
X129340109Y-58358839D01*
X129446514Y-58271514D01*
X129533839Y-58165109D01*
X129598727Y-58043712D01*
X129638685Y-57911988D01*
X129652177Y-57775000D01*
X129652177Y-56525000D01*
X129638685Y-56388012D01*
X129598727Y-56256288D01*
X129533839Y-56134891D01*
X129446514Y-56028486D01*
X129340109Y-55941161D01*
X129218712Y-55876273D01*
X129086988Y-55836315D01*
X128950000Y-55822823D01*
X128025000Y-55822823D01*
X127888012Y-55836315D01*
X127756288Y-55876273D01*
X127634891Y-55941161D01*
X127528486Y-56028486D01*
X127441161Y-56134891D01*
X127376273Y-56256288D01*
X127336315Y-56388012D01*
X127322823Y-56525000D01*
X127322823Y-57775000D01*
X127336315Y-57911988D01*
X127376273Y-58043712D01*
X127441161Y-58165109D01*
X127528486Y-58271514D01*
X127634891Y-58358839D01*
X127637501Y-58360234D01*
X127637500Y-59949248D01*
X127649800Y-60074128D01*
X127698403Y-60234354D01*
X127777332Y-60382018D01*
X127883552Y-60511448D01*
X127895540Y-60521287D01*
X126466828Y-61950000D01*
X125237500Y-61950000D01*
X125212500Y-61925000D01*
X125005289Y-61925000D01*
X124986309Y-61914855D01*
X124882724Y-61883433D01*
X124797103Y-61875000D01*
X124882724Y-61866567D01*
X124986309Y-61835145D01*
X125005289Y-61825000D01*
X125212500Y-61825000D01*
X125235864Y-61801636D01*
X125247500Y-61802782D01*
X125275743Y-61800000D01*
X125275746Y-61800000D01*
X125360220Y-61791680D01*
X125468608Y-61758801D01*
X125568498Y-61705408D01*
X125656054Y-61633554D01*
X125674066Y-61611606D01*
X125899108Y-61386564D01*
X125921054Y-61368554D01*
X125992908Y-61280998D01*
X126046301Y-61181108D01*
X126079180Y-61072720D01*
X126087500Y-60988246D01*
X126087500Y-60988243D01*
X126090282Y-60960000D01*
X126087500Y-60931757D01*
X126087500Y-60535205D01*
X126116448Y-60511448D01*
X126222668Y-60382019D01*
X126301597Y-60234355D01*
X126350200Y-60074129D01*
X126362500Y-59949249D01*
X126362500Y-58360234D01*
X126365109Y-58358839D01*
X126471514Y-58271514D01*
X126558839Y-58165109D01*
X126623727Y-58043712D01*
X126663685Y-57911988D01*
X126677177Y-57775000D01*
X126677177Y-56525000D01*
X126663685Y-56388012D01*
X126623727Y-56256288D01*
X126558839Y-56134891D01*
X126471514Y-56028486D01*
X126365109Y-55941161D01*
X126243712Y-55876273D01*
X126111988Y-55836315D01*
X125975000Y-55822823D01*
X125050000Y-55822823D01*
X124913012Y-55836315D01*
X124781288Y-55876273D01*
X124659891Y-55941161D01*
X124553486Y-56028486D01*
X124466161Y-56134891D01*
X124401273Y-56256288D01*
X124361315Y-56388012D01*
X124347823Y-56525000D01*
X124347823Y-57775000D01*
X124361315Y-57911988D01*
X124401273Y-58043712D01*
X124466161Y-58165109D01*
X124553486Y-58271514D01*
X124659891Y-58358839D01*
X124662501Y-58360234D01*
X124662500Y-58690419D01*
X123029001Y-57056921D01*
X123096514Y-57001514D01*
X123183839Y-56895109D01*
X123248727Y-56773712D01*
X123288685Y-56641988D01*
X123302177Y-56505000D01*
X123302177Y-55255000D01*
X123288685Y-55118012D01*
X123248727Y-54986288D01*
X123183839Y-54864891D01*
X123096514Y-54758486D01*
X123047192Y-54718008D01*
X123112267Y-54596262D01*
X123172307Y-54398336D01*
X123187500Y-54244078D01*
X123187500Y-52339071D01*
X123192579Y-52287500D01*
X123187500Y-52235929D01*
X123187500Y-52235922D01*
X123172307Y-52081664D01*
X123112267Y-51883738D01*
X123014767Y-51701329D01*
X122883554Y-51541446D01*
X122843491Y-51508567D01*
X121700000Y-50365077D01*
X121700000Y-49436621D01*
X121701216Y-49435971D01*
X121769737Y-49379737D01*
X121825971Y-49311216D01*
X121867757Y-49233041D01*
X121893489Y-49148215D01*
X121902177Y-49060000D01*
X121902177Y-47460000D01*
X121893489Y-47371785D01*
X121867757Y-47286959D01*
X121825971Y-47208784D01*
X121769737Y-47140263D01*
X121701216Y-47084029D01*
X121623041Y-47042243D01*
X121538215Y-47016511D01*
X121450000Y-47007823D01*
X119850000Y-47007823D01*
X119761785Y-47016511D01*
X119676959Y-47042243D01*
X119598784Y-47084029D01*
X119530263Y-47140263D01*
X119474029Y-47208784D01*
X119432243Y-47286959D01*
X119406511Y-47371785D01*
X119397823Y-47460000D01*
X119397823Y-49060000D01*
X119406511Y-49148215D01*
X119432243Y-49233041D01*
X119474029Y-49311216D01*
X119530263Y-49379737D01*
X119598784Y-49435971D01*
X119600000Y-49436621D01*
X119600001Y-50748422D01*
X119594921Y-50800000D01*
X119615194Y-51005835D01*
X119675233Y-51203761D01*
X119772733Y-51386171D01*
X119871067Y-51505990D01*
X119903947Y-51546054D01*
X119944010Y-51578933D01*
X121087500Y-52722424D01*
X121087501Y-54244078D01*
X121102694Y-54398336D01*
X121162734Y-54596262D01*
X121227809Y-54718008D01*
X121178486Y-54758486D01*
X121091161Y-54864891D01*
X121026273Y-54986288D01*
X120986315Y-55118012D01*
X120972823Y-55255000D01*
X120972823Y-56505000D01*
X120986315Y-56641988D01*
X121026273Y-56773712D01*
X121091161Y-56895109D01*
X121178486Y-57001514D01*
X121284891Y-57088839D01*
X121287501Y-57090234D01*
X121287501Y-57325749D01*
X121283389Y-57367500D01*
X121299800Y-57534129D01*
X121348403Y-57694354D01*
X121356677Y-57709833D01*
X121427333Y-57842019D01*
X121533553Y-57971448D01*
X121565981Y-57998061D01*
X123287500Y-59719581D01*
X123287501Y-59965491D01*
X123193227Y-60015882D01*
X123109552Y-60084552D01*
X123040882Y-60168227D01*
X122989855Y-60263691D01*
X122958433Y-60367276D01*
X122947823Y-60475000D01*
X122947823Y-60675000D01*
X122958433Y-60782724D01*
X122989855Y-60886309D01*
X122997173Y-60900000D01*
X122989855Y-60913691D01*
X122958433Y-61017276D01*
X122947823Y-61125000D01*
X122947823Y-61325000D01*
X122958433Y-61432724D01*
X122980839Y-61506587D01*
X122956511Y-61586785D01*
X122947823Y-61675000D01*
X122950000Y-61712500D01*
X123062500Y-61825000D01*
X123269711Y-61825000D01*
X123288691Y-61835145D01*
X123392276Y-61866567D01*
X123477897Y-61875000D01*
X123392276Y-61883433D01*
X123288691Y-61914855D01*
X123269711Y-61925000D01*
X123062500Y-61925000D01*
X122950000Y-62037500D01*
X122947823Y-62075000D01*
X122956511Y-62163215D01*
X122980839Y-62243413D01*
X122958433Y-62317276D01*
X122947823Y-62425000D01*
X122947823Y-62444650D01*
X122564065Y-62060893D01*
X122546054Y-62038946D01*
X122458498Y-61967092D01*
X122358608Y-61913699D01*
X122250220Y-61880820D01*
X122165746Y-61872500D01*
X122165743Y-61872500D01*
X122137500Y-61869718D01*
X122128638Y-61870591D01*
X122106448Y-61843552D01*
X121977019Y-61737332D01*
X121829355Y-61658403D01*
X121669129Y-61609800D01*
X121544249Y-61597500D01*
X120590234Y-61597500D01*
X120588839Y-61594891D01*
X120501514Y-61488486D01*
X120395109Y-61401161D01*
X120273712Y-61336273D01*
X120141988Y-61296315D01*
X120005000Y-61282823D01*
X118755000Y-61282823D01*
X118618012Y-61296315D01*
X118486288Y-61336273D01*
X118364891Y-61401161D01*
X118258486Y-61488486D01*
X118171161Y-61594891D01*
X118106273Y-61716288D01*
X118066315Y-61848012D01*
X118052823Y-61985000D01*
X118052823Y-62910000D01*
X118066315Y-63046988D01*
X118106273Y-63178712D01*
X118144377Y-63250000D01*
X117403173Y-63250000D01*
X115996565Y-61843393D01*
X115978554Y-61821446D01*
X115890998Y-61749592D01*
X115791108Y-61696199D01*
X115682720Y-61663320D01*
X115598246Y-61655000D01*
X115598243Y-61655000D01*
X115570000Y-61652218D01*
X115541757Y-61655000D01*
X115183238Y-61655000D01*
X115177267Y-61643829D01*
X115046054Y-61483946D01*
X114886171Y-61352733D01*
X114703762Y-61255233D01*
X114505836Y-61195193D01*
X114351578Y-61180000D01*
X107915204Y-61180000D01*
X107856514Y-61108486D01*
X107750109Y-61021161D01*
X107628712Y-60956273D01*
X107496988Y-60916315D01*
X107360000Y-60902823D01*
X106435000Y-60902823D01*
X106298012Y-60916315D01*
X106166288Y-60956273D01*
X106044891Y-61021161D01*
X105938486Y-61108486D01*
X105851161Y-61214891D01*
X105786273Y-61336288D01*
X105746315Y-61468012D01*
X105732823Y-61605000D01*
X105732823Y-62855000D01*
X105746315Y-62991988D01*
X105786273Y-63123712D01*
X105851161Y-63245109D01*
X105938486Y-63351514D01*
X106044891Y-63438839D01*
X106166288Y-63503727D01*
X106298012Y-63543685D01*
X106435000Y-63557177D01*
X107360000Y-63557177D01*
X107496988Y-63543685D01*
X107628712Y-63503727D01*
X107750109Y-63438839D01*
X107856514Y-63351514D01*
X107915204Y-63280000D01*
X114351578Y-63280000D01*
X114505836Y-63264807D01*
X114703762Y-63204767D01*
X114886171Y-63107267D01*
X115046054Y-62976054D01*
X115177267Y-62816171D01*
X115183238Y-62805000D01*
X115331828Y-62805000D01*
X116661827Y-64135000D01*
X115331828Y-65465000D01*
X115183238Y-65465000D01*
X115177267Y-65453829D01*
X115046054Y-65293946D01*
X114886171Y-65162733D01*
X114703762Y-65065233D01*
X114505836Y-65005193D01*
X114351578Y-64990000D01*
X107915204Y-64990000D01*
X107856514Y-64918486D01*
X107750109Y-64831161D01*
X107628712Y-64766273D01*
X107496988Y-64726315D01*
X107360000Y-64712823D01*
X106435000Y-64712823D01*
X106298012Y-64726315D01*
X106166288Y-64766273D01*
X106044891Y-64831161D01*
X105938486Y-64918486D01*
X105851161Y-65024891D01*
X105786273Y-65146288D01*
X105746315Y-65278012D01*
X105732823Y-65415000D01*
X105732823Y-66665000D01*
X105746315Y-66801988D01*
X105786273Y-66933712D01*
X105851161Y-67055109D01*
X105938486Y-67161514D01*
X106044891Y-67248839D01*
X106166288Y-67313727D01*
X106298012Y-67353685D01*
X106435000Y-67367177D01*
X107360000Y-67367177D01*
X107496988Y-67353685D01*
X107628712Y-67313727D01*
X107750109Y-67248839D01*
X107856514Y-67161514D01*
X107915204Y-67090000D01*
X114351578Y-67090000D01*
X114505836Y-67074807D01*
X114703762Y-67014767D01*
X114886171Y-66917267D01*
X115046054Y-66786054D01*
X115177267Y-66626171D01*
X115183238Y-66615000D01*
X115541757Y-66615000D01*
X115570000Y-66617782D01*
X115598243Y-66615000D01*
X115598246Y-66615000D01*
X115682720Y-66606680D01*
X115791108Y-66573801D01*
X115890998Y-66520408D01*
X115978554Y-66448554D01*
X115996565Y-66426607D01*
X117373173Y-65050000D01*
X120718077Y-65050000D01*
X120263393Y-65504685D01*
X120241446Y-65522696D01*
X120198523Y-65575000D01*
X120169592Y-65610252D01*
X120130110Y-65684118D01*
X120116199Y-65710143D01*
X120083320Y-65818531D01*
X120076163Y-65891199D01*
X120072556Y-65927823D01*
X120025000Y-65927823D01*
X119888012Y-65941315D01*
X119756288Y-65981273D01*
X119634891Y-66046161D01*
X119528486Y-66133486D01*
X119441161Y-66239891D01*
X119439766Y-66242500D01*
X117099241Y-66242500D01*
X117057500Y-66238389D01*
X117015759Y-66242500D01*
X117015751Y-66242500D01*
X116890871Y-66254800D01*
X116730645Y-66303403D01*
X116582981Y-66382332D01*
X116453552Y-66488552D01*
X116426938Y-66520981D01*
X115217920Y-67730000D01*
X114277253Y-67730000D01*
X114273489Y-67691785D01*
X114247757Y-67606959D01*
X114205971Y-67528784D01*
X114149737Y-67460263D01*
X114081216Y-67404029D01*
X114003041Y-67362243D01*
X113918215Y-67336511D01*
X113830000Y-67327823D01*
X112230000Y-67327823D01*
X112141785Y-67336511D01*
X112056959Y-67362243D01*
X111978784Y-67404029D01*
X111910263Y-67460263D01*
X111854029Y-67528784D01*
X111812243Y-67606959D01*
X111786511Y-67691785D01*
X111777823Y-67780000D01*
X111777823Y-69380000D01*
X111786511Y-69468215D01*
X111812243Y-69553041D01*
X111854029Y-69631216D01*
X111910263Y-69699737D01*
X111978784Y-69755971D01*
X112056959Y-69797757D01*
X112141785Y-69823489D01*
X112230000Y-69832177D01*
X113830000Y-69832177D01*
X113918215Y-69823489D01*
X114003041Y-69797757D01*
X114081216Y-69755971D01*
X114149737Y-69699737D01*
X114205971Y-69631216D01*
X114247757Y-69553041D01*
X114273489Y-69468215D01*
X114277253Y-69430000D01*
X115528259Y-69430000D01*
X115570000Y-69434111D01*
X115611741Y-69430000D01*
X115611749Y-69430000D01*
X115736629Y-69417700D01*
X115896855Y-69369097D01*
X115923228Y-69355000D01*
X119322823Y-69355000D01*
X119325000Y-69855000D01*
X119437500Y-69967500D01*
X120550000Y-69967500D01*
X120550000Y-69017500D01*
X120750000Y-69017500D01*
X120750000Y-69967500D01*
X121862500Y-69967500D01*
X121975000Y-69855000D01*
X121977177Y-69355000D01*
X121968489Y-69266785D01*
X121942757Y-69181959D01*
X121900971Y-69103784D01*
X121844737Y-69035263D01*
X121776216Y-68979029D01*
X121698041Y-68937243D01*
X121613215Y-68911511D01*
X121525000Y-68902823D01*
X120862500Y-68905000D01*
X120750000Y-69017500D01*
X120550000Y-69017500D01*
X120437500Y-68905000D01*
X119775000Y-68902823D01*
X119686785Y-68911511D01*
X119601959Y-68937243D01*
X119523784Y-68979029D01*
X119455263Y-69035263D01*
X119399029Y-69103784D01*
X119357243Y-69181959D01*
X119331511Y-69266785D01*
X119322823Y-69355000D01*
X115923228Y-69355000D01*
X116044519Y-69290168D01*
X116173948Y-69183948D01*
X116200566Y-69151514D01*
X117409581Y-67942500D01*
X119439766Y-67942500D01*
X119441161Y-67945109D01*
X119528486Y-68051514D01*
X119634891Y-68138839D01*
X119756288Y-68203727D01*
X119888012Y-68243685D01*
X120025000Y-68257177D01*
X121275000Y-68257177D01*
X121411988Y-68243685D01*
X121543712Y-68203727D01*
X121665109Y-68138839D01*
X121771514Y-68051514D01*
X121858839Y-67945109D01*
X121923727Y-67823712D01*
X121963685Y-67691988D01*
X121977177Y-67555000D01*
X121977177Y-66630000D01*
X121963685Y-66493012D01*
X121923727Y-66361288D01*
X121858839Y-66239891D01*
X121771514Y-66133486D01*
X121665109Y-66046161D01*
X121543712Y-65981273D01*
X121443537Y-65950885D01*
X121694423Y-65700000D01*
X123037500Y-65700000D01*
X123062500Y-65725000D01*
X123269711Y-65725000D01*
X123288691Y-65735145D01*
X123392276Y-65766567D01*
X123477897Y-65775000D01*
X123392276Y-65783433D01*
X123288691Y-65814855D01*
X123269711Y-65825000D01*
X123062500Y-65825000D01*
X122950000Y-65937500D01*
X122947823Y-65975000D01*
X122956511Y-66063215D01*
X122980839Y-66143413D01*
X122958433Y-66217276D01*
X122947823Y-66325000D01*
X122947823Y-66525000D01*
X122958433Y-66632724D01*
X122989855Y-66736309D01*
X123040882Y-66831773D01*
X123109552Y-66915448D01*
X123193227Y-66984118D01*
X123288691Y-67035145D01*
X123392276Y-67066567D01*
X123500000Y-67077177D01*
X124775000Y-67077177D01*
X124882724Y-67066567D01*
X124986309Y-67035145D01*
X125052060Y-67000000D01*
X128364757Y-67000000D01*
X128393000Y-67002782D01*
X128421243Y-67000000D01*
X128947940Y-67000000D01*
X129012500Y-67034509D01*
X129012501Y-68075029D01*
X129008389Y-68116780D01*
X129024800Y-68283409D01*
X129073403Y-68443634D01*
X129086797Y-68468692D01*
X129152333Y-68591299D01*
X129258553Y-68720728D01*
X129290981Y-68747341D01*
X130360000Y-69816361D01*
X130360000Y-77320000D01*
X123190000Y-77320000D01*
X123160736Y-77322882D01*
X123132597Y-77331418D01*
X123106664Y-77345280D01*
X123083934Y-77363934D01*
X123065280Y-77386664D01*
X123051418Y-77412597D01*
X123042882Y-77440736D01*
X123040000Y-77470000D01*
X123040000Y-81850000D01*
X88150000Y-81850000D01*
X88150000Y-78798093D01*
X88950000Y-78798093D01*
X88950000Y-79201907D01*
X89028780Y-79597963D01*
X89183314Y-79971039D01*
X89407661Y-80306799D01*
X89693201Y-80592339D01*
X90028961Y-80816686D01*
X90402037Y-80971220D01*
X90798093Y-81050000D01*
X91201907Y-81050000D01*
X91597963Y-80971220D01*
X91971039Y-80816686D01*
X92306799Y-80592339D01*
X92592339Y-80306799D01*
X92816686Y-79971039D01*
X92971220Y-79597963D01*
X93050000Y-79201907D01*
X93050000Y-78798093D01*
X92971220Y-78402037D01*
X92816686Y-78028961D01*
X92592339Y-77693201D01*
X92306799Y-77407661D01*
X91971039Y-77183314D01*
X91597963Y-77028780D01*
X91201907Y-76950000D01*
X90798093Y-76950000D01*
X90402037Y-77028780D01*
X90028961Y-77183314D01*
X89693201Y-77407661D01*
X89407661Y-77693201D01*
X89183314Y-78028961D01*
X89028780Y-78402037D01*
X88950000Y-78798093D01*
X88150000Y-78798093D01*
X88150000Y-75726223D01*
X103187698Y-75726223D01*
X103267458Y-75921717D01*
X103489126Y-76028917D01*
X103727448Y-76090812D01*
X103973266Y-76105023D01*
X104217133Y-76071004D01*
X104449678Y-75990063D01*
X104577542Y-75921717D01*
X104657302Y-75726223D01*
X103922500Y-74991421D01*
X103187698Y-75726223D01*
X88150000Y-75726223D01*
X88150000Y-74900766D01*
X102667477Y-74900766D01*
X102701496Y-75144633D01*
X102782437Y-75377178D01*
X102850783Y-75505042D01*
X103046277Y-75584802D01*
X103781079Y-74850000D01*
X104063921Y-74850000D01*
X104798723Y-75584802D01*
X104994217Y-75505042D01*
X105101417Y-75283374D01*
X105163312Y-75045052D01*
X105177523Y-74799234D01*
X105143504Y-74555367D01*
X105062563Y-74322822D01*
X104994217Y-74194958D01*
X104798723Y-74115198D01*
X104063921Y-74850000D01*
X103781079Y-74850000D01*
X103046277Y-74115198D01*
X102850783Y-74194958D01*
X102743583Y-74416626D01*
X102681688Y-74654948D01*
X102667477Y-74900766D01*
X88150000Y-74900766D01*
X88150000Y-73973777D01*
X103187698Y-73973777D01*
X103922500Y-74708579D01*
X104657302Y-73973777D01*
X104577542Y-73778283D01*
X104355874Y-73671083D01*
X104117552Y-73609188D01*
X103871734Y-73594977D01*
X103627867Y-73628996D01*
X103395322Y-73709937D01*
X103267458Y-73778283D01*
X103187698Y-73973777D01*
X88150000Y-73973777D01*
X88150000Y-72956223D01*
X112295198Y-72956223D01*
X112374958Y-73151717D01*
X112596626Y-73258917D01*
X112834948Y-73320812D01*
X113080766Y-73335023D01*
X113324633Y-73301004D01*
X113557178Y-73220063D01*
X113685042Y-73151717D01*
X113764802Y-72956223D01*
X113030000Y-72221421D01*
X112295198Y-72956223D01*
X88150000Y-72956223D01*
X88150000Y-72130766D01*
X111774977Y-72130766D01*
X111808996Y-72374633D01*
X111889937Y-72607178D01*
X111958283Y-72735042D01*
X112153777Y-72814802D01*
X112888579Y-72080000D01*
X113171421Y-72080000D01*
X113906223Y-72814802D01*
X114101717Y-72735042D01*
X114208917Y-72513374D01*
X114270812Y-72275052D01*
X114285023Y-72029234D01*
X114251004Y-71785367D01*
X114170063Y-71552822D01*
X114101717Y-71424958D01*
X113906223Y-71345198D01*
X113171421Y-72080000D01*
X112888579Y-72080000D01*
X112153777Y-71345198D01*
X111958283Y-71424958D01*
X111851083Y-71646626D01*
X111789188Y-71884948D01*
X111774977Y-72130766D01*
X88150000Y-72130766D01*
X88150000Y-71203777D01*
X112295198Y-71203777D01*
X113030000Y-71938579D01*
X113764802Y-71203777D01*
X113685042Y-71008283D01*
X113463374Y-70901083D01*
X113225052Y-70839188D01*
X112979234Y-70824977D01*
X112735367Y-70858996D01*
X112502822Y-70939937D01*
X112374958Y-71008283D01*
X112295198Y-71203777D01*
X88150000Y-71203777D01*
X88150000Y-67230000D01*
X95088710Y-67230000D01*
X95113810Y-67484845D01*
X95188145Y-67729896D01*
X95308860Y-67955736D01*
X95471313Y-68153687D01*
X95669264Y-68316140D01*
X95895104Y-68436855D01*
X96140155Y-68511190D01*
X96331136Y-68530000D01*
X96708864Y-68530000D01*
X96899845Y-68511190D01*
X97144896Y-68436855D01*
X97288680Y-68360000D01*
X98373432Y-68360000D01*
X98425000Y-68365079D01*
X98476568Y-68360000D01*
X98476578Y-68360000D01*
X98630836Y-68344807D01*
X98828762Y-68284767D01*
X99011171Y-68187267D01*
X99171054Y-68056054D01*
X99203937Y-68015986D01*
X100129924Y-67090000D01*
X102904796Y-67090000D01*
X102963486Y-67161514D01*
X103069891Y-67248839D01*
X103072500Y-67250234D01*
X103072501Y-68932233D01*
X102951562Y-69053172D01*
X102814765Y-69257903D01*
X102720537Y-69485389D01*
X102672500Y-69726886D01*
X102672500Y-69973114D01*
X102720537Y-70214611D01*
X102814765Y-70442097D01*
X102951562Y-70646828D01*
X103125672Y-70820938D01*
X103330403Y-70957735D01*
X103557889Y-71051963D01*
X103799386Y-71100000D01*
X104045614Y-71100000D01*
X104287111Y-71051963D01*
X104514597Y-70957735D01*
X104719328Y-70820938D01*
X104760266Y-70780000D01*
X119322823Y-70780000D01*
X119331511Y-70868215D01*
X119357243Y-70953041D01*
X119399029Y-71031216D01*
X119455263Y-71099737D01*
X119523784Y-71155971D01*
X119601959Y-71197757D01*
X119686785Y-71223489D01*
X119775000Y-71232177D01*
X120437500Y-71230000D01*
X120550000Y-71117500D01*
X120550000Y-70167500D01*
X120750000Y-70167500D01*
X120750000Y-71117500D01*
X120862500Y-71230000D01*
X121525000Y-71232177D01*
X121613215Y-71223489D01*
X121698041Y-71197757D01*
X121776216Y-71155971D01*
X121844737Y-71099737D01*
X121900971Y-71031216D01*
X121942757Y-70953041D01*
X121968489Y-70868215D01*
X121977177Y-70780000D01*
X121975000Y-70280000D01*
X121862500Y-70167500D01*
X120750000Y-70167500D01*
X120550000Y-70167500D01*
X119437500Y-70167500D01*
X119325000Y-70280000D01*
X119322823Y-70780000D01*
X104760266Y-70780000D01*
X104893438Y-70646828D01*
X105030235Y-70442097D01*
X105124463Y-70214611D01*
X105172500Y-69973114D01*
X105172500Y-69726886D01*
X105124463Y-69485389D01*
X105030235Y-69257903D01*
X104893438Y-69053172D01*
X104772500Y-68932234D01*
X104772500Y-67250234D01*
X104775109Y-67248839D01*
X104881514Y-67161514D01*
X104968839Y-67055109D01*
X105033727Y-66933712D01*
X105073685Y-66801988D01*
X105087177Y-66665000D01*
X105087177Y-65415000D01*
X105073685Y-65278012D01*
X105033727Y-65146288D01*
X104968839Y-65024891D01*
X104881514Y-64918486D01*
X104775109Y-64831161D01*
X104653712Y-64766273D01*
X104521988Y-64726315D01*
X104385000Y-64712823D01*
X103460000Y-64712823D01*
X103323012Y-64726315D01*
X103191288Y-64766273D01*
X103069891Y-64831161D01*
X102963486Y-64918486D01*
X102904796Y-64990000D01*
X99746567Y-64990000D01*
X99694999Y-64984921D01*
X99643431Y-64990000D01*
X99643422Y-64990000D01*
X99489164Y-65005193D01*
X99291238Y-65065233D01*
X99108829Y-65162733D01*
X99088211Y-65179654D01*
X98989008Y-65261067D01*
X98989003Y-65261072D01*
X98948946Y-65293946D01*
X98916071Y-65334004D01*
X97990076Y-66260000D01*
X97512254Y-66260000D01*
X97370736Y-66143860D01*
X97144896Y-66023145D01*
X96995012Y-65977679D01*
X97071830Y-65959202D01*
X97303434Y-65852313D01*
X97509735Y-65702294D01*
X97682805Y-65514910D01*
X97815992Y-65297362D01*
X97904179Y-65058011D01*
X97909547Y-65031531D01*
X97828282Y-64830000D01*
X96620000Y-64830000D01*
X96620000Y-64850000D01*
X96420000Y-64850000D01*
X96420000Y-64830000D01*
X95211718Y-64830000D01*
X95130453Y-65031531D01*
X95135821Y-65058011D01*
X95224008Y-65297362D01*
X95357195Y-65514910D01*
X95530265Y-65702294D01*
X95736566Y-65852313D01*
X95968170Y-65959202D01*
X96044988Y-65977679D01*
X95895104Y-66023145D01*
X95669264Y-66143860D01*
X95471313Y-66306313D01*
X95308860Y-66504264D01*
X95188145Y-66730104D01*
X95113810Y-66975155D01*
X95088710Y-67230000D01*
X88150000Y-67230000D01*
X88150000Y-61630000D01*
X95092823Y-61630000D01*
X95092823Y-62830000D01*
X95106315Y-62966988D01*
X95146273Y-63098712D01*
X95211161Y-63220109D01*
X95298486Y-63326514D01*
X95404891Y-63413839D01*
X95526288Y-63478727D01*
X95658012Y-63518685D01*
X95795000Y-63532177D01*
X95900179Y-63532177D01*
X95736566Y-63607687D01*
X95530265Y-63757706D01*
X95357195Y-63945090D01*
X95224008Y-64162638D01*
X95135821Y-64401989D01*
X95130453Y-64428469D01*
X95211718Y-64630000D01*
X96420000Y-64630000D01*
X96420000Y-64610000D01*
X96620000Y-64610000D01*
X96620000Y-64630000D01*
X97828282Y-64630000D01*
X97909547Y-64428469D01*
X97904179Y-64401989D01*
X97815992Y-64162638D01*
X97682805Y-63945090D01*
X97509735Y-63757706D01*
X97303434Y-63607687D01*
X97139821Y-63532177D01*
X97245000Y-63532177D01*
X97381988Y-63518685D01*
X97513712Y-63478727D01*
X97635109Y-63413839D01*
X97741514Y-63326514D01*
X97779687Y-63280000D01*
X102904796Y-63280000D01*
X102963486Y-63351514D01*
X103069891Y-63438839D01*
X103191288Y-63503727D01*
X103323012Y-63543685D01*
X103460000Y-63557177D01*
X104385000Y-63557177D01*
X104521988Y-63543685D01*
X104653712Y-63503727D01*
X104775109Y-63438839D01*
X104881514Y-63351514D01*
X104968839Y-63245109D01*
X105033727Y-63123712D01*
X105073685Y-62991988D01*
X105087177Y-62855000D01*
X105087177Y-61605000D01*
X105073685Y-61468012D01*
X105033727Y-61336288D01*
X104968839Y-61214891D01*
X104881514Y-61108486D01*
X104775109Y-61021161D01*
X104772500Y-61019766D01*
X104772500Y-60185000D01*
X118052823Y-60185000D01*
X118061511Y-60273215D01*
X118087243Y-60358041D01*
X118129029Y-60436216D01*
X118185263Y-60504737D01*
X118253784Y-60560971D01*
X118331959Y-60602757D01*
X118416785Y-60628489D01*
X118505000Y-60637177D01*
X119167500Y-60635000D01*
X119280000Y-60522500D01*
X119280000Y-59572500D01*
X119480000Y-59572500D01*
X119480000Y-60522500D01*
X119592500Y-60635000D01*
X120255000Y-60637177D01*
X120343215Y-60628489D01*
X120428041Y-60602757D01*
X120506216Y-60560971D01*
X120574737Y-60504737D01*
X120630971Y-60436216D01*
X120672757Y-60358041D01*
X120698489Y-60273215D01*
X120707177Y-60185000D01*
X120705000Y-59685000D01*
X120592500Y-59572500D01*
X119480000Y-59572500D01*
X119280000Y-59572500D01*
X118167500Y-59572500D01*
X118055000Y-59685000D01*
X118052823Y-60185000D01*
X104772500Y-60185000D01*
X104772500Y-59337766D01*
X104893438Y-59216828D01*
X105030235Y-59012097D01*
X105124463Y-58784611D01*
X105129358Y-58760000D01*
X118052823Y-58760000D01*
X118055000Y-59260000D01*
X118167500Y-59372500D01*
X119280000Y-59372500D01*
X119280000Y-58422500D01*
X119480000Y-58422500D01*
X119480000Y-59372500D01*
X120592500Y-59372500D01*
X120705000Y-59260000D01*
X120707177Y-58760000D01*
X120698489Y-58671785D01*
X120672757Y-58586959D01*
X120630971Y-58508784D01*
X120574737Y-58440263D01*
X120506216Y-58384029D01*
X120428041Y-58342243D01*
X120343215Y-58316511D01*
X120255000Y-58307823D01*
X119592500Y-58310000D01*
X119480000Y-58422500D01*
X119280000Y-58422500D01*
X119167500Y-58310000D01*
X118505000Y-58307823D01*
X118416785Y-58316511D01*
X118331959Y-58342243D01*
X118253784Y-58384029D01*
X118185263Y-58440263D01*
X118129029Y-58508784D01*
X118087243Y-58586959D01*
X118061511Y-58671785D01*
X118052823Y-58760000D01*
X105129358Y-58760000D01*
X105172500Y-58543114D01*
X105172500Y-58296886D01*
X105124463Y-58055389D01*
X105030235Y-57827903D01*
X104893438Y-57623172D01*
X104719328Y-57449062D01*
X104514597Y-57312265D01*
X104287111Y-57218037D01*
X104045614Y-57170000D01*
X103799386Y-57170000D01*
X103557889Y-57218037D01*
X103330403Y-57312265D01*
X103125672Y-57449062D01*
X102951562Y-57623172D01*
X102814765Y-57827903D01*
X102720537Y-58055389D01*
X102672500Y-58296886D01*
X102672500Y-58543114D01*
X102720537Y-58784611D01*
X102814765Y-59012097D01*
X102951562Y-59216828D01*
X103072501Y-59337767D01*
X103072500Y-61019766D01*
X103069891Y-61021161D01*
X102963486Y-61108486D01*
X102904796Y-61180000D01*
X97779687Y-61180000D01*
X97741514Y-61133486D01*
X97635109Y-61046161D01*
X97513712Y-60981273D01*
X97381988Y-60941315D01*
X97245000Y-60927823D01*
X95795000Y-60927823D01*
X95658012Y-60941315D01*
X95526288Y-60981273D01*
X95404891Y-61046161D01*
X95298486Y-61133486D01*
X95211161Y-61239891D01*
X95146273Y-61361288D01*
X95106315Y-61493012D01*
X95092823Y-61630000D01*
X88150000Y-61630000D01*
X88150000Y-56755000D01*
X117997823Y-56755000D01*
X118006511Y-56843215D01*
X118032243Y-56928041D01*
X118074029Y-57006216D01*
X118130263Y-57074737D01*
X118198784Y-57130971D01*
X118276959Y-57172757D01*
X118361785Y-57198489D01*
X118450000Y-57207177D01*
X118950000Y-57205000D01*
X119062500Y-57092500D01*
X119062500Y-55980000D01*
X119262500Y-55980000D01*
X119262500Y-57092500D01*
X119375000Y-57205000D01*
X119875000Y-57207177D01*
X119963215Y-57198489D01*
X120048041Y-57172757D01*
X120126216Y-57130971D01*
X120194737Y-57074737D01*
X120250971Y-57006216D01*
X120292757Y-56928041D01*
X120318489Y-56843215D01*
X120327177Y-56755000D01*
X120325000Y-56092500D01*
X120212500Y-55980000D01*
X119262500Y-55980000D01*
X119062500Y-55980000D01*
X118112500Y-55980000D01*
X118000000Y-56092500D01*
X117997823Y-56755000D01*
X88150000Y-56755000D01*
X88150000Y-55005000D01*
X117997823Y-55005000D01*
X118000000Y-55667500D01*
X118112500Y-55780000D01*
X119062500Y-55780000D01*
X119062500Y-54667500D01*
X119262500Y-54667500D01*
X119262500Y-55780000D01*
X120212500Y-55780000D01*
X120325000Y-55667500D01*
X120327177Y-55005000D01*
X120318489Y-54916785D01*
X120292757Y-54831959D01*
X120250971Y-54753784D01*
X120194737Y-54685263D01*
X120126216Y-54629029D01*
X120048041Y-54587243D01*
X119963215Y-54561511D01*
X119875000Y-54552823D01*
X119375000Y-54555000D01*
X119262500Y-54667500D01*
X119062500Y-54667500D01*
X118950000Y-54555000D01*
X118450000Y-54552823D01*
X118361785Y-54561511D01*
X118276959Y-54587243D01*
X118198784Y-54629029D01*
X118130263Y-54685263D01*
X118074029Y-54753784D01*
X118032243Y-54831959D01*
X118006511Y-54916785D01*
X117997823Y-55005000D01*
X88150000Y-55005000D01*
X88150000Y-54296223D01*
X103187698Y-54296223D01*
X103267458Y-54491717D01*
X103489126Y-54598917D01*
X103727448Y-54660812D01*
X103973266Y-54675023D01*
X104217133Y-54641004D01*
X104449678Y-54560063D01*
X104577542Y-54491717D01*
X104657302Y-54296223D01*
X103922500Y-53561421D01*
X103187698Y-54296223D01*
X88150000Y-54296223D01*
X88150000Y-53470766D01*
X102667477Y-53470766D01*
X102701496Y-53714633D01*
X102782437Y-53947178D01*
X102850783Y-54075042D01*
X103046277Y-54154802D01*
X103781079Y-53420000D01*
X104063921Y-53420000D01*
X104798723Y-54154802D01*
X104994217Y-54075042D01*
X105101417Y-53853374D01*
X105163312Y-53615052D01*
X105177523Y-53369234D01*
X105143504Y-53125367D01*
X105062563Y-52892822D01*
X104994217Y-52764958D01*
X104798723Y-52685198D01*
X104063921Y-53420000D01*
X103781079Y-53420000D01*
X103046277Y-52685198D01*
X102850783Y-52764958D01*
X102743583Y-52986626D01*
X102681688Y-53224948D01*
X102667477Y-53470766D01*
X88150000Y-53470766D01*
X88150000Y-52543777D01*
X103187698Y-52543777D01*
X103922500Y-53278579D01*
X104657302Y-52543777D01*
X104577542Y-52348283D01*
X104355874Y-52241083D01*
X104117552Y-52179188D01*
X103871734Y-52164977D01*
X103627867Y-52198996D01*
X103395322Y-52279937D01*
X103267458Y-52348283D01*
X103187698Y-52543777D01*
X88150000Y-52543777D01*
X88150000Y-48521531D01*
X95105453Y-48521531D01*
X95115726Y-48572544D01*
X95208604Y-48810467D01*
X95346114Y-49025699D01*
X95522972Y-49209968D01*
X95732381Y-49356193D01*
X95966293Y-49458755D01*
X96215719Y-49513712D01*
X96420000Y-49409419D01*
X96420000Y-48320000D01*
X96620000Y-48320000D01*
X96620000Y-49409419D01*
X96824281Y-49513712D01*
X97073707Y-49458755D01*
X97307619Y-49356193D01*
X97517028Y-49209968D01*
X97587807Y-49136223D01*
X116415198Y-49136223D01*
X116494958Y-49331717D01*
X116716626Y-49438917D01*
X116954948Y-49500812D01*
X117200766Y-49515023D01*
X117444633Y-49481004D01*
X117677178Y-49400063D01*
X117805042Y-49331717D01*
X117884802Y-49136223D01*
X117150000Y-48401421D01*
X116415198Y-49136223D01*
X97587807Y-49136223D01*
X97693886Y-49025699D01*
X97831396Y-48810467D01*
X97924274Y-48572544D01*
X97934547Y-48521531D01*
X97853282Y-48320000D01*
X96620000Y-48320000D01*
X96420000Y-48320000D01*
X95186718Y-48320000D01*
X95105453Y-48521531D01*
X88150000Y-48521531D01*
X88150000Y-45120000D01*
X95067823Y-45120000D01*
X95067823Y-46320000D01*
X95081315Y-46456988D01*
X95121273Y-46588712D01*
X95186161Y-46710109D01*
X95273486Y-46816514D01*
X95379891Y-46903839D01*
X95501288Y-46968727D01*
X95633012Y-47008685D01*
X95770000Y-47022177D01*
X95872940Y-47022177D01*
X95732381Y-47083807D01*
X95522972Y-47230032D01*
X95346114Y-47414301D01*
X95208604Y-47629533D01*
X95115726Y-47867456D01*
X95105453Y-47918469D01*
X95186718Y-48120000D01*
X96420000Y-48120000D01*
X96420000Y-48100000D01*
X96620000Y-48100000D01*
X96620000Y-48120000D01*
X97853282Y-48120000D01*
X97934547Y-47918469D01*
X97924274Y-47867456D01*
X97831396Y-47629533D01*
X97693886Y-47414301D01*
X97517028Y-47230032D01*
X97307619Y-47083807D01*
X97167060Y-47022177D01*
X97270000Y-47022177D01*
X97406988Y-47008685D01*
X97538712Y-46968727D01*
X97660109Y-46903839D01*
X97766514Y-46816514D01*
X97804687Y-46770000D01*
X99008432Y-46770000D01*
X99060000Y-46775079D01*
X99111568Y-46770000D01*
X99111578Y-46770000D01*
X99265836Y-46754807D01*
X99463762Y-46694767D01*
X99646171Y-46597267D01*
X99806054Y-46466054D01*
X99838937Y-46425986D01*
X101035996Y-45228929D01*
X101076054Y-45196054D01*
X101108928Y-45155997D01*
X101108933Y-45155992D01*
X101207266Y-45036172D01*
X101304767Y-44853762D01*
X101308113Y-44842733D01*
X101364807Y-44655836D01*
X101380000Y-44501578D01*
X101380000Y-44501569D01*
X101385079Y-44450001D01*
X101380000Y-44398433D01*
X101380000Y-41875204D01*
X101451514Y-41816514D01*
X101506921Y-41749001D01*
X101999443Y-42241524D01*
X102026052Y-42273948D01*
X102058475Y-42300557D01*
X102058480Y-42300562D01*
X102155481Y-42380168D01*
X102303145Y-42459097D01*
X102463371Y-42507700D01*
X102588251Y-42520000D01*
X102588259Y-42520000D01*
X102630000Y-42524111D01*
X102671741Y-42520000D01*
X103360086Y-42520000D01*
X103382243Y-42593041D01*
X103424029Y-42671216D01*
X103480263Y-42739737D01*
X103548784Y-42795971D01*
X103626959Y-42837757D01*
X103711785Y-42863489D01*
X103800000Y-42872177D01*
X105800000Y-42872177D01*
X105888215Y-42863489D01*
X105973041Y-42837757D01*
X106051216Y-42795971D01*
X106119737Y-42739737D01*
X106175971Y-42671216D01*
X106217757Y-42593041D01*
X106243489Y-42508215D01*
X106252177Y-42420000D01*
X106252177Y-40920000D01*
X106243489Y-40831785D01*
X106217757Y-40746959D01*
X106175971Y-40668784D01*
X106119737Y-40600263D01*
X106051216Y-40544029D01*
X106006262Y-40520000D01*
X106051216Y-40495971D01*
X106119737Y-40439737D01*
X106175971Y-40371216D01*
X106217757Y-40293041D01*
X106239914Y-40220000D01*
X107500000Y-40220000D01*
X107500000Y-41693719D01*
X104617148Y-44000000D01*
X102870000Y-44000000D01*
X102782209Y-44008647D01*
X102697792Y-44034254D01*
X102619993Y-44075839D01*
X102551802Y-44131802D01*
X102495839Y-44199993D01*
X102454254Y-44277792D01*
X102428647Y-44362209D01*
X102420000Y-44450000D01*
X102420000Y-48260000D01*
X102428647Y-48347791D01*
X102454254Y-48432208D01*
X102495839Y-48510007D01*
X102551802Y-48578198D01*
X102619993Y-48634161D01*
X102697792Y-48675746D01*
X102782209Y-48701353D01*
X102870000Y-48710000D01*
X110490000Y-48710000D01*
X110577791Y-48701353D01*
X110662208Y-48675746D01*
X110740007Y-48634161D01*
X110808198Y-48578198D01*
X111075630Y-48310766D01*
X115894977Y-48310766D01*
X115928996Y-48554633D01*
X116009937Y-48787178D01*
X116078283Y-48915042D01*
X116273777Y-48994802D01*
X117008579Y-48260000D01*
X117291421Y-48260000D01*
X118026223Y-48994802D01*
X118221717Y-48915042D01*
X118328917Y-48693374D01*
X118390812Y-48455052D01*
X118405023Y-48209234D01*
X118371004Y-47965367D01*
X118290063Y-47732822D01*
X118221717Y-47604958D01*
X118026223Y-47525198D01*
X117291421Y-48260000D01*
X117008579Y-48260000D01*
X116273777Y-47525198D01*
X116078283Y-47604958D01*
X115971083Y-47826626D01*
X115909188Y-48064948D01*
X115894977Y-48310766D01*
X111075630Y-48310766D01*
X112002619Y-47383777D01*
X116415198Y-47383777D01*
X117150000Y-48118579D01*
X117884802Y-47383777D01*
X117805042Y-47188283D01*
X117583374Y-47081083D01*
X117345052Y-47019188D01*
X117099234Y-47004977D01*
X116855367Y-47038996D01*
X116622822Y-47119937D01*
X116494958Y-47188283D01*
X116415198Y-47383777D01*
X112002619Y-47383777D01*
X113348198Y-46038198D01*
X113404161Y-45970007D01*
X113445746Y-45892208D01*
X113471353Y-45807791D01*
X113480000Y-45720000D01*
X113480000Y-41022081D01*
X113886938Y-41429019D01*
X113913552Y-41461448D01*
X114042981Y-41567668D01*
X114190645Y-41646597D01*
X114350871Y-41695200D01*
X114353321Y-41695441D01*
X114361161Y-41710109D01*
X114448486Y-41816514D01*
X114520000Y-41875205D01*
X114520001Y-43231578D01*
X114535194Y-43385836D01*
X114595234Y-43583762D01*
X114692734Y-43766171D01*
X114823947Y-43926054D01*
X114983830Y-44057267D01*
X115166239Y-44154767D01*
X115364165Y-44214807D01*
X115570000Y-44235080D01*
X115775836Y-44214807D01*
X115973762Y-44154767D01*
X116156171Y-44057267D01*
X116316054Y-43926054D01*
X116447267Y-43766171D01*
X116544767Y-43583762D01*
X116604807Y-43385836D01*
X116620000Y-43231578D01*
X116620000Y-41875204D01*
X116667305Y-41836382D01*
X116851664Y-41892307D01*
X117005922Y-41907500D01*
X120701578Y-41907500D01*
X120855836Y-41892307D01*
X121053762Y-41832267D01*
X121236171Y-41734767D01*
X121396054Y-41603554D01*
X121527267Y-41443671D01*
X121624767Y-41261262D01*
X121684807Y-41063336D01*
X121705080Y-40857500D01*
X121684807Y-40651664D01*
X121624767Y-40453738D01*
X121527267Y-40271329D01*
X121396054Y-40111446D01*
X121236171Y-39980233D01*
X121053762Y-39882733D01*
X120855836Y-39822693D01*
X120701578Y-39807500D01*
X117005922Y-39807500D01*
X116851664Y-39822693D01*
X116667305Y-39878618D01*
X116585109Y-39811161D01*
X116463712Y-39746273D01*
X116331988Y-39706315D01*
X116195000Y-39692823D01*
X114945000Y-39692823D01*
X114808012Y-39706315D01*
X114676288Y-39746273D01*
X114632017Y-39769936D01*
X113660566Y-38798486D01*
X113633948Y-38766052D01*
X113504519Y-38659832D01*
X113480000Y-38646726D01*
X113480000Y-38595000D01*
X114242823Y-38595000D01*
X114251511Y-38683215D01*
X114277243Y-38768041D01*
X114319029Y-38846216D01*
X114375263Y-38914737D01*
X114443784Y-38970971D01*
X114521959Y-39012757D01*
X114606785Y-39038489D01*
X114695000Y-39047177D01*
X115357500Y-39045000D01*
X115470000Y-38932500D01*
X115470000Y-37982500D01*
X115670000Y-37982500D01*
X115670000Y-38932500D01*
X115782500Y-39045000D01*
X116445000Y-39047177D01*
X116533215Y-39038489D01*
X116618041Y-39012757D01*
X116696216Y-38970971D01*
X116764737Y-38914737D01*
X116820971Y-38846216D01*
X116862757Y-38768041D01*
X116888489Y-38683215D01*
X116897177Y-38595000D01*
X116895000Y-38095000D01*
X116782500Y-37982500D01*
X115670000Y-37982500D01*
X115470000Y-37982500D01*
X114357500Y-37982500D01*
X114245000Y-38095000D01*
X114242823Y-38595000D01*
X113480000Y-38595000D01*
X113480000Y-37170000D01*
X114242823Y-37170000D01*
X114245000Y-37670000D01*
X114357500Y-37782500D01*
X115470000Y-37782500D01*
X115470000Y-36832500D01*
X115670000Y-36832500D01*
X115670000Y-37782500D01*
X116782500Y-37782500D01*
X116895000Y-37670000D01*
X116897177Y-37170000D01*
X116888489Y-37081785D01*
X116862757Y-36996959D01*
X116820971Y-36918784D01*
X116764737Y-36850263D01*
X116696216Y-36794029D01*
X116618041Y-36752243D01*
X116533215Y-36726511D01*
X116445000Y-36717823D01*
X115782500Y-36720000D01*
X115670000Y-36832500D01*
X115470000Y-36832500D01*
X115357500Y-36720000D01*
X114695000Y-36717823D01*
X114606785Y-36726511D01*
X114521959Y-36752243D01*
X114443784Y-36794029D01*
X114375263Y-36850263D01*
X114319029Y-36918784D01*
X114277243Y-36996959D01*
X114251511Y-37081785D01*
X114242823Y-37170000D01*
X113480000Y-37170000D01*
X113480000Y-35560000D01*
X113471353Y-35472209D01*
X113445746Y-35387792D01*
X113404161Y-35309993D01*
X113348198Y-35241802D01*
X113280007Y-35185839D01*
X113202208Y-35144254D01*
X113117791Y-35118647D01*
X113030000Y-35110000D01*
X107950000Y-35110000D01*
X107862209Y-35118647D01*
X107777792Y-35144254D01*
X107699993Y-35185839D01*
X107631802Y-35241802D01*
X107575839Y-35309993D01*
X107534254Y-35387792D01*
X107508647Y-35472209D01*
X107500000Y-35560000D01*
X107500000Y-38520000D01*
X106239914Y-38520000D01*
X106217757Y-38446959D01*
X106175971Y-38368784D01*
X106119737Y-38300263D01*
X106051216Y-38244029D01*
X106006262Y-38220000D01*
X106051216Y-38195971D01*
X106119737Y-38139737D01*
X106175971Y-38071216D01*
X106217757Y-37993041D01*
X106243489Y-37908215D01*
X106252177Y-37820000D01*
X106250000Y-37282500D01*
X106137500Y-37170000D01*
X104900000Y-37170000D01*
X104900000Y-37190000D01*
X104700000Y-37190000D01*
X104700000Y-37170000D01*
X103462500Y-37170000D01*
X103350000Y-37282500D01*
X103347823Y-37820000D01*
X103356511Y-37908215D01*
X103382243Y-37993041D01*
X103424029Y-38071216D01*
X103480263Y-38139737D01*
X103548784Y-38195971D01*
X103593738Y-38220000D01*
X103548784Y-38244029D01*
X103480263Y-38300263D01*
X103424029Y-38368784D01*
X103382243Y-38446959D01*
X103356511Y-38531785D01*
X103347823Y-38620000D01*
X103347823Y-40120000D01*
X103356511Y-40208215D01*
X103382243Y-40293041D01*
X103424029Y-40371216D01*
X103480263Y-40439737D01*
X103548784Y-40495971D01*
X103593738Y-40520000D01*
X103548784Y-40544029D01*
X103480263Y-40600263D01*
X103424029Y-40668784D01*
X103382243Y-40746959D01*
X103360086Y-40820000D01*
X102982081Y-40820000D01*
X102448065Y-40285985D01*
X102421448Y-40253552D01*
X102292019Y-40147332D01*
X102144355Y-40068403D01*
X101984129Y-40019800D01*
X101859249Y-40007500D01*
X101859241Y-40007500D01*
X101817500Y-40003389D01*
X101775759Y-40007500D01*
X101540234Y-40007500D01*
X101538839Y-40004891D01*
X101451514Y-39898486D01*
X101345109Y-39811161D01*
X101223712Y-39746273D01*
X101091988Y-39706315D01*
X100955000Y-39692823D01*
X99705000Y-39692823D01*
X99568012Y-39706315D01*
X99436288Y-39746273D01*
X99314891Y-39811161D01*
X99208486Y-39898486D01*
X99121161Y-40004891D01*
X99056273Y-40126288D01*
X99016315Y-40258012D01*
X99002823Y-40395000D01*
X99002823Y-41320000D01*
X99016315Y-41456988D01*
X99056273Y-41588712D01*
X99121161Y-41710109D01*
X99208486Y-41816514D01*
X99280001Y-41875205D01*
X99280000Y-44015075D01*
X98625076Y-44670000D01*
X97804687Y-44670000D01*
X97766514Y-44623486D01*
X97660109Y-44536161D01*
X97538712Y-44471273D01*
X97406988Y-44431315D01*
X97270000Y-44417823D01*
X95770000Y-44417823D01*
X95633012Y-44431315D01*
X95501288Y-44471273D01*
X95379891Y-44536161D01*
X95273486Y-44623486D01*
X95186161Y-44729891D01*
X95121273Y-44851288D01*
X95081315Y-44983012D01*
X95067823Y-45120000D01*
X88150000Y-45120000D01*
X88150000Y-36798093D01*
X88950000Y-36798093D01*
X88950000Y-37201907D01*
X89028780Y-37597963D01*
X89183314Y-37971039D01*
X89407661Y-38306799D01*
X89693201Y-38592339D01*
X90028961Y-38816686D01*
X90402037Y-38971220D01*
X90798093Y-39050000D01*
X91201907Y-39050000D01*
X91597963Y-38971220D01*
X91971039Y-38816686D01*
X92302816Y-38595000D01*
X99002823Y-38595000D01*
X99011511Y-38683215D01*
X99037243Y-38768041D01*
X99079029Y-38846216D01*
X99135263Y-38914737D01*
X99203784Y-38970971D01*
X99281959Y-39012757D01*
X99366785Y-39038489D01*
X99455000Y-39047177D01*
X100117500Y-39045000D01*
X100230000Y-38932500D01*
X100230000Y-37982500D01*
X100430000Y-37982500D01*
X100430000Y-38932500D01*
X100542500Y-39045000D01*
X101205000Y-39047177D01*
X101293215Y-39038489D01*
X101378041Y-39012757D01*
X101456216Y-38970971D01*
X101524737Y-38914737D01*
X101580971Y-38846216D01*
X101622757Y-38768041D01*
X101648489Y-38683215D01*
X101657177Y-38595000D01*
X101655000Y-38095000D01*
X101542500Y-37982500D01*
X100430000Y-37982500D01*
X100230000Y-37982500D01*
X99117500Y-37982500D01*
X99005000Y-38095000D01*
X99002823Y-38595000D01*
X92302816Y-38595000D01*
X92306799Y-38592339D01*
X92592339Y-38306799D01*
X92816686Y-37971039D01*
X92971220Y-37597963D01*
X93050000Y-37201907D01*
X93050000Y-37170000D01*
X99002823Y-37170000D01*
X99005000Y-37670000D01*
X99117500Y-37782500D01*
X100230000Y-37782500D01*
X100230000Y-36832500D01*
X100430000Y-36832500D01*
X100430000Y-37782500D01*
X101542500Y-37782500D01*
X101655000Y-37670000D01*
X101657177Y-37170000D01*
X101648489Y-37081785D01*
X101622757Y-36996959D01*
X101580971Y-36918784D01*
X101524737Y-36850263D01*
X101456216Y-36794029D01*
X101378041Y-36752243D01*
X101293215Y-36726511D01*
X101205000Y-36717823D01*
X100542500Y-36720000D01*
X100430000Y-36832500D01*
X100230000Y-36832500D01*
X100117500Y-36720000D01*
X99455000Y-36717823D01*
X99366785Y-36726511D01*
X99281959Y-36752243D01*
X99203784Y-36794029D01*
X99135263Y-36850263D01*
X99079029Y-36918784D01*
X99037243Y-36996959D01*
X99011511Y-37081785D01*
X99002823Y-37170000D01*
X93050000Y-37170000D01*
X93050000Y-36798093D01*
X92971220Y-36402037D01*
X92937239Y-36320000D01*
X103347823Y-36320000D01*
X103350000Y-36857500D01*
X103462500Y-36970000D01*
X104700000Y-36970000D01*
X104700000Y-35982500D01*
X104900000Y-35982500D01*
X104900000Y-36970000D01*
X106137500Y-36970000D01*
X106250000Y-36857500D01*
X106252177Y-36320000D01*
X106243489Y-36231785D01*
X106217757Y-36146959D01*
X106175971Y-36068784D01*
X106119737Y-36000263D01*
X106051216Y-35944029D01*
X105973041Y-35902243D01*
X105888215Y-35876511D01*
X105800000Y-35867823D01*
X105012500Y-35870000D01*
X104900000Y-35982500D01*
X104700000Y-35982500D01*
X104587500Y-35870000D01*
X103800000Y-35867823D01*
X103711785Y-35876511D01*
X103626959Y-35902243D01*
X103548784Y-35944029D01*
X103480263Y-36000263D01*
X103424029Y-36068784D01*
X103382243Y-36146959D01*
X103356511Y-36231785D01*
X103347823Y-36320000D01*
X92937239Y-36320000D01*
X92816686Y-36028961D01*
X92592339Y-35693201D01*
X92306799Y-35407661D01*
X91971039Y-35183314D01*
X91597963Y-35028780D01*
X91201907Y-34950000D01*
X90798093Y-34950000D01*
X90402037Y-35028780D01*
X90028961Y-35183314D01*
X89693201Y-35407661D01*
X89407661Y-35693201D01*
X89183314Y-36028961D01*
X89028780Y-36402037D01*
X88950000Y-36798093D01*
X88150000Y-36798093D01*
X88150000Y-34150000D01*
X130360000Y-34150000D01*
X130360000Y-57667919D01*
G37*
X130360000Y-57667919D02*
X129337500Y-58690420D01*
X129337500Y-58360234D01*
X129340109Y-58358839D01*
X129446514Y-58271514D01*
X129533839Y-58165109D01*
X129598727Y-58043712D01*
X129638685Y-57911988D01*
X129652177Y-57775000D01*
X129652177Y-56525000D01*
X129638685Y-56388012D01*
X129598727Y-56256288D01*
X129533839Y-56134891D01*
X129446514Y-56028486D01*
X129340109Y-55941161D01*
X129218712Y-55876273D01*
X129086988Y-55836315D01*
X128950000Y-55822823D01*
X128025000Y-55822823D01*
X127888012Y-55836315D01*
X127756288Y-55876273D01*
X127634891Y-55941161D01*
X127528486Y-56028486D01*
X127441161Y-56134891D01*
X127376273Y-56256288D01*
X127336315Y-56388012D01*
X127322823Y-56525000D01*
X127322823Y-57775000D01*
X127336315Y-57911988D01*
X127376273Y-58043712D01*
X127441161Y-58165109D01*
X127528486Y-58271514D01*
X127634891Y-58358839D01*
X127637501Y-58360234D01*
X127637500Y-59949248D01*
X127649800Y-60074128D01*
X127698403Y-60234354D01*
X127777332Y-60382018D01*
X127883552Y-60511448D01*
X127895540Y-60521287D01*
X126466828Y-61950000D01*
X125237500Y-61950000D01*
X125212500Y-61925000D01*
X125005289Y-61925000D01*
X124986309Y-61914855D01*
X124882724Y-61883433D01*
X124797103Y-61875000D01*
X124882724Y-61866567D01*
X124986309Y-61835145D01*
X125005289Y-61825000D01*
X125212500Y-61825000D01*
X125235864Y-61801636D01*
X125247500Y-61802782D01*
X125275743Y-61800000D01*
X125275746Y-61800000D01*
X125360220Y-61791680D01*
X125468608Y-61758801D01*
X125568498Y-61705408D01*
X125656054Y-61633554D01*
X125674066Y-61611606D01*
X125899108Y-61386564D01*
X125921054Y-61368554D01*
X125992908Y-61280998D01*
X126046301Y-61181108D01*
X126079180Y-61072720D01*
X126087500Y-60988246D01*
X126087500Y-60988243D01*
X126090282Y-60960000D01*
X126087500Y-60931757D01*
X126087500Y-60535205D01*
X126116448Y-60511448D01*
X126222668Y-60382019D01*
X126301597Y-60234355D01*
X126350200Y-60074129D01*
X126362500Y-59949249D01*
X126362500Y-58360234D01*
X126365109Y-58358839D01*
X126471514Y-58271514D01*
X126558839Y-58165109D01*
X126623727Y-58043712D01*
X126663685Y-57911988D01*
X126677177Y-57775000D01*
X126677177Y-56525000D01*
X126663685Y-56388012D01*
X126623727Y-56256288D01*
X126558839Y-56134891D01*
X126471514Y-56028486D01*
X126365109Y-55941161D01*
X126243712Y-55876273D01*
X126111988Y-55836315D01*
X125975000Y-55822823D01*
X125050000Y-55822823D01*
X124913012Y-55836315D01*
X124781288Y-55876273D01*
X124659891Y-55941161D01*
X124553486Y-56028486D01*
X124466161Y-56134891D01*
X124401273Y-56256288D01*
X124361315Y-56388012D01*
X124347823Y-56525000D01*
X124347823Y-57775000D01*
X124361315Y-57911988D01*
X124401273Y-58043712D01*
X124466161Y-58165109D01*
X124553486Y-58271514D01*
X124659891Y-58358839D01*
X124662501Y-58360234D01*
X124662500Y-58690419D01*
X123029001Y-57056921D01*
X123096514Y-57001514D01*
X123183839Y-56895109D01*
X123248727Y-56773712D01*
X123288685Y-56641988D01*
X123302177Y-56505000D01*
X123302177Y-55255000D01*
X123288685Y-55118012D01*
X123248727Y-54986288D01*
X123183839Y-54864891D01*
X123096514Y-54758486D01*
X123047192Y-54718008D01*
X123112267Y-54596262D01*
X123172307Y-54398336D01*
X123187500Y-54244078D01*
X123187500Y-52339071D01*
X123192579Y-52287500D01*
X123187500Y-52235929D01*
X123187500Y-52235922D01*
X123172307Y-52081664D01*
X123112267Y-51883738D01*
X123014767Y-51701329D01*
X122883554Y-51541446D01*
X122843491Y-51508567D01*
X121700000Y-50365077D01*
X121700000Y-49436621D01*
X121701216Y-49435971D01*
X121769737Y-49379737D01*
X121825971Y-49311216D01*
X121867757Y-49233041D01*
X121893489Y-49148215D01*
X121902177Y-49060000D01*
X121902177Y-47460000D01*
X121893489Y-47371785D01*
X121867757Y-47286959D01*
X121825971Y-47208784D01*
X121769737Y-47140263D01*
X121701216Y-47084029D01*
X121623041Y-47042243D01*
X121538215Y-47016511D01*
X121450000Y-47007823D01*
X119850000Y-47007823D01*
X119761785Y-47016511D01*
X119676959Y-47042243D01*
X119598784Y-47084029D01*
X119530263Y-47140263D01*
X119474029Y-47208784D01*
X119432243Y-47286959D01*
X119406511Y-47371785D01*
X119397823Y-47460000D01*
X119397823Y-49060000D01*
X119406511Y-49148215D01*
X119432243Y-49233041D01*
X119474029Y-49311216D01*
X119530263Y-49379737D01*
X119598784Y-49435971D01*
X119600000Y-49436621D01*
X119600001Y-50748422D01*
X119594921Y-50800000D01*
X119615194Y-51005835D01*
X119675233Y-51203761D01*
X119772733Y-51386171D01*
X119871067Y-51505990D01*
X119903947Y-51546054D01*
X119944010Y-51578933D01*
X121087500Y-52722424D01*
X121087501Y-54244078D01*
X121102694Y-54398336D01*
X121162734Y-54596262D01*
X121227809Y-54718008D01*
X121178486Y-54758486D01*
X121091161Y-54864891D01*
X121026273Y-54986288D01*
X120986315Y-55118012D01*
X120972823Y-55255000D01*
X120972823Y-56505000D01*
X120986315Y-56641988D01*
X121026273Y-56773712D01*
X121091161Y-56895109D01*
X121178486Y-57001514D01*
X121284891Y-57088839D01*
X121287501Y-57090234D01*
X121287501Y-57325749D01*
X121283389Y-57367500D01*
X121299800Y-57534129D01*
X121348403Y-57694354D01*
X121356677Y-57709833D01*
X121427333Y-57842019D01*
X121533553Y-57971448D01*
X121565981Y-57998061D01*
X123287500Y-59719581D01*
X123287501Y-59965491D01*
X123193227Y-60015882D01*
X123109552Y-60084552D01*
X123040882Y-60168227D01*
X122989855Y-60263691D01*
X122958433Y-60367276D01*
X122947823Y-60475000D01*
X122947823Y-60675000D01*
X122958433Y-60782724D01*
X122989855Y-60886309D01*
X122997173Y-60900000D01*
X122989855Y-60913691D01*
X122958433Y-61017276D01*
X122947823Y-61125000D01*
X122947823Y-61325000D01*
X122958433Y-61432724D01*
X122980839Y-61506587D01*
X122956511Y-61586785D01*
X122947823Y-61675000D01*
X122950000Y-61712500D01*
X123062500Y-61825000D01*
X123269711Y-61825000D01*
X123288691Y-61835145D01*
X123392276Y-61866567D01*
X123477897Y-61875000D01*
X123392276Y-61883433D01*
X123288691Y-61914855D01*
X123269711Y-61925000D01*
X123062500Y-61925000D01*
X122950000Y-62037500D01*
X122947823Y-62075000D01*
X122956511Y-62163215D01*
X122980839Y-62243413D01*
X122958433Y-62317276D01*
X122947823Y-62425000D01*
X122947823Y-62444650D01*
X122564065Y-62060893D01*
X122546054Y-62038946D01*
X122458498Y-61967092D01*
X122358608Y-61913699D01*
X122250220Y-61880820D01*
X122165746Y-61872500D01*
X122165743Y-61872500D01*
X122137500Y-61869718D01*
X122128638Y-61870591D01*
X122106448Y-61843552D01*
X121977019Y-61737332D01*
X121829355Y-61658403D01*
X121669129Y-61609800D01*
X121544249Y-61597500D01*
X120590234Y-61597500D01*
X120588839Y-61594891D01*
X120501514Y-61488486D01*
X120395109Y-61401161D01*
X120273712Y-61336273D01*
X120141988Y-61296315D01*
X120005000Y-61282823D01*
X118755000Y-61282823D01*
X118618012Y-61296315D01*
X118486288Y-61336273D01*
X118364891Y-61401161D01*
X118258486Y-61488486D01*
X118171161Y-61594891D01*
X118106273Y-61716288D01*
X118066315Y-61848012D01*
X118052823Y-61985000D01*
X118052823Y-62910000D01*
X118066315Y-63046988D01*
X118106273Y-63178712D01*
X118144377Y-63250000D01*
X117403173Y-63250000D01*
X115996565Y-61843393D01*
X115978554Y-61821446D01*
X115890998Y-61749592D01*
X115791108Y-61696199D01*
X115682720Y-61663320D01*
X115598246Y-61655000D01*
X115598243Y-61655000D01*
X115570000Y-61652218D01*
X115541757Y-61655000D01*
X115183238Y-61655000D01*
X115177267Y-61643829D01*
X115046054Y-61483946D01*
X114886171Y-61352733D01*
X114703762Y-61255233D01*
X114505836Y-61195193D01*
X114351578Y-61180000D01*
X107915204Y-61180000D01*
X107856514Y-61108486D01*
X107750109Y-61021161D01*
X107628712Y-60956273D01*
X107496988Y-60916315D01*
X107360000Y-60902823D01*
X106435000Y-60902823D01*
X106298012Y-60916315D01*
X106166288Y-60956273D01*
X106044891Y-61021161D01*
X105938486Y-61108486D01*
X105851161Y-61214891D01*
X105786273Y-61336288D01*
X105746315Y-61468012D01*
X105732823Y-61605000D01*
X105732823Y-62855000D01*
X105746315Y-62991988D01*
X105786273Y-63123712D01*
X105851161Y-63245109D01*
X105938486Y-63351514D01*
X106044891Y-63438839D01*
X106166288Y-63503727D01*
X106298012Y-63543685D01*
X106435000Y-63557177D01*
X107360000Y-63557177D01*
X107496988Y-63543685D01*
X107628712Y-63503727D01*
X107750109Y-63438839D01*
X107856514Y-63351514D01*
X107915204Y-63280000D01*
X114351578Y-63280000D01*
X114505836Y-63264807D01*
X114703762Y-63204767D01*
X114886171Y-63107267D01*
X115046054Y-62976054D01*
X115177267Y-62816171D01*
X115183238Y-62805000D01*
X115331828Y-62805000D01*
X116661827Y-64135000D01*
X115331828Y-65465000D01*
X115183238Y-65465000D01*
X115177267Y-65453829D01*
X115046054Y-65293946D01*
X114886171Y-65162733D01*
X114703762Y-65065233D01*
X114505836Y-65005193D01*
X114351578Y-64990000D01*
X107915204Y-64990000D01*
X107856514Y-64918486D01*
X107750109Y-64831161D01*
X107628712Y-64766273D01*
X107496988Y-64726315D01*
X107360000Y-64712823D01*
X106435000Y-64712823D01*
X106298012Y-64726315D01*
X106166288Y-64766273D01*
X106044891Y-64831161D01*
X105938486Y-64918486D01*
X105851161Y-65024891D01*
X105786273Y-65146288D01*
X105746315Y-65278012D01*
X105732823Y-65415000D01*
X105732823Y-66665000D01*
X105746315Y-66801988D01*
X105786273Y-66933712D01*
X105851161Y-67055109D01*
X105938486Y-67161514D01*
X106044891Y-67248839D01*
X106166288Y-67313727D01*
X106298012Y-67353685D01*
X106435000Y-67367177D01*
X107360000Y-67367177D01*
X107496988Y-67353685D01*
X107628712Y-67313727D01*
X107750109Y-67248839D01*
X107856514Y-67161514D01*
X107915204Y-67090000D01*
X114351578Y-67090000D01*
X114505836Y-67074807D01*
X114703762Y-67014767D01*
X114886171Y-66917267D01*
X115046054Y-66786054D01*
X115177267Y-66626171D01*
X115183238Y-66615000D01*
X115541757Y-66615000D01*
X115570000Y-66617782D01*
X115598243Y-66615000D01*
X115598246Y-66615000D01*
X115682720Y-66606680D01*
X115791108Y-66573801D01*
X115890998Y-66520408D01*
X115978554Y-66448554D01*
X115996565Y-66426607D01*
X117373173Y-65050000D01*
X120718077Y-65050000D01*
X120263393Y-65504685D01*
X120241446Y-65522696D01*
X120198523Y-65575000D01*
X120169592Y-65610252D01*
X120130110Y-65684118D01*
X120116199Y-65710143D01*
X120083320Y-65818531D01*
X120076163Y-65891199D01*
X120072556Y-65927823D01*
X120025000Y-65927823D01*
X119888012Y-65941315D01*
X119756288Y-65981273D01*
X119634891Y-66046161D01*
X119528486Y-66133486D01*
X119441161Y-66239891D01*
X119439766Y-66242500D01*
X117099241Y-66242500D01*
X117057500Y-66238389D01*
X117015759Y-66242500D01*
X117015751Y-66242500D01*
X116890871Y-66254800D01*
X116730645Y-66303403D01*
X116582981Y-66382332D01*
X116453552Y-66488552D01*
X116426938Y-66520981D01*
X115217920Y-67730000D01*
X114277253Y-67730000D01*
X114273489Y-67691785D01*
X114247757Y-67606959D01*
X114205971Y-67528784D01*
X114149737Y-67460263D01*
X114081216Y-67404029D01*
X114003041Y-67362243D01*
X113918215Y-67336511D01*
X113830000Y-67327823D01*
X112230000Y-67327823D01*
X112141785Y-67336511D01*
X112056959Y-67362243D01*
X111978784Y-67404029D01*
X111910263Y-67460263D01*
X111854029Y-67528784D01*
X111812243Y-67606959D01*
X111786511Y-67691785D01*
X111777823Y-67780000D01*
X111777823Y-69380000D01*
X111786511Y-69468215D01*
X111812243Y-69553041D01*
X111854029Y-69631216D01*
X111910263Y-69699737D01*
X111978784Y-69755971D01*
X112056959Y-69797757D01*
X112141785Y-69823489D01*
X112230000Y-69832177D01*
X113830000Y-69832177D01*
X113918215Y-69823489D01*
X114003041Y-69797757D01*
X114081216Y-69755971D01*
X114149737Y-69699737D01*
X114205971Y-69631216D01*
X114247757Y-69553041D01*
X114273489Y-69468215D01*
X114277253Y-69430000D01*
X115528259Y-69430000D01*
X115570000Y-69434111D01*
X115611741Y-69430000D01*
X115611749Y-69430000D01*
X115736629Y-69417700D01*
X115896855Y-69369097D01*
X115923228Y-69355000D01*
X119322823Y-69355000D01*
X119325000Y-69855000D01*
X119437500Y-69967500D01*
X120550000Y-69967500D01*
X120550000Y-69017500D01*
X120750000Y-69017500D01*
X120750000Y-69967500D01*
X121862500Y-69967500D01*
X121975000Y-69855000D01*
X121977177Y-69355000D01*
X121968489Y-69266785D01*
X121942757Y-69181959D01*
X121900971Y-69103784D01*
X121844737Y-69035263D01*
X121776216Y-68979029D01*
X121698041Y-68937243D01*
X121613215Y-68911511D01*
X121525000Y-68902823D01*
X120862500Y-68905000D01*
X120750000Y-69017500D01*
X120550000Y-69017500D01*
X120437500Y-68905000D01*
X119775000Y-68902823D01*
X119686785Y-68911511D01*
X119601959Y-68937243D01*
X119523784Y-68979029D01*
X119455263Y-69035263D01*
X119399029Y-69103784D01*
X119357243Y-69181959D01*
X119331511Y-69266785D01*
X119322823Y-69355000D01*
X115923228Y-69355000D01*
X116044519Y-69290168D01*
X116173948Y-69183948D01*
X116200566Y-69151514D01*
X117409581Y-67942500D01*
X119439766Y-67942500D01*
X119441161Y-67945109D01*
X119528486Y-68051514D01*
X119634891Y-68138839D01*
X119756288Y-68203727D01*
X119888012Y-68243685D01*
X120025000Y-68257177D01*
X121275000Y-68257177D01*
X121411988Y-68243685D01*
X121543712Y-68203727D01*
X121665109Y-68138839D01*
X121771514Y-68051514D01*
X121858839Y-67945109D01*
X121923727Y-67823712D01*
X121963685Y-67691988D01*
X121977177Y-67555000D01*
X121977177Y-66630000D01*
X121963685Y-66493012D01*
X121923727Y-66361288D01*
X121858839Y-66239891D01*
X121771514Y-66133486D01*
X121665109Y-66046161D01*
X121543712Y-65981273D01*
X121443537Y-65950885D01*
X121694423Y-65700000D01*
X123037500Y-65700000D01*
X123062500Y-65725000D01*
X123269711Y-65725000D01*
X123288691Y-65735145D01*
X123392276Y-65766567D01*
X123477897Y-65775000D01*
X123392276Y-65783433D01*
X123288691Y-65814855D01*
X123269711Y-65825000D01*
X123062500Y-65825000D01*
X122950000Y-65937500D01*
X122947823Y-65975000D01*
X122956511Y-66063215D01*
X122980839Y-66143413D01*
X122958433Y-66217276D01*
X122947823Y-66325000D01*
X122947823Y-66525000D01*
X122958433Y-66632724D01*
X122989855Y-66736309D01*
X123040882Y-66831773D01*
X123109552Y-66915448D01*
X123193227Y-66984118D01*
X123288691Y-67035145D01*
X123392276Y-67066567D01*
X123500000Y-67077177D01*
X124775000Y-67077177D01*
X124882724Y-67066567D01*
X124986309Y-67035145D01*
X125052060Y-67000000D01*
X128364757Y-67000000D01*
X128393000Y-67002782D01*
X128421243Y-67000000D01*
X128947940Y-67000000D01*
X129012500Y-67034509D01*
X129012501Y-68075029D01*
X129008389Y-68116780D01*
X129024800Y-68283409D01*
X129073403Y-68443634D01*
X129086797Y-68468692D01*
X129152333Y-68591299D01*
X129258553Y-68720728D01*
X129290981Y-68747341D01*
X130360000Y-69816361D01*
X130360000Y-77320000D01*
X123190000Y-77320000D01*
X123160736Y-77322882D01*
X123132597Y-77331418D01*
X123106664Y-77345280D01*
X123083934Y-77363934D01*
X123065280Y-77386664D01*
X123051418Y-77412597D01*
X123042882Y-77440736D01*
X123040000Y-77470000D01*
X123040000Y-81850000D01*
X88150000Y-81850000D01*
X88150000Y-78798093D01*
X88950000Y-78798093D01*
X88950000Y-79201907D01*
X89028780Y-79597963D01*
X89183314Y-79971039D01*
X89407661Y-80306799D01*
X89693201Y-80592339D01*
X90028961Y-80816686D01*
X90402037Y-80971220D01*
X90798093Y-81050000D01*
X91201907Y-81050000D01*
X91597963Y-80971220D01*
X91971039Y-80816686D01*
X92306799Y-80592339D01*
X92592339Y-80306799D01*
X92816686Y-79971039D01*
X92971220Y-79597963D01*
X93050000Y-79201907D01*
X93050000Y-78798093D01*
X92971220Y-78402037D01*
X92816686Y-78028961D01*
X92592339Y-77693201D01*
X92306799Y-77407661D01*
X91971039Y-77183314D01*
X91597963Y-77028780D01*
X91201907Y-76950000D01*
X90798093Y-76950000D01*
X90402037Y-77028780D01*
X90028961Y-77183314D01*
X89693201Y-77407661D01*
X89407661Y-77693201D01*
X89183314Y-78028961D01*
X89028780Y-78402037D01*
X88950000Y-78798093D01*
X88150000Y-78798093D01*
X88150000Y-75726223D01*
X103187698Y-75726223D01*
X103267458Y-75921717D01*
X103489126Y-76028917D01*
X103727448Y-76090812D01*
X103973266Y-76105023D01*
X104217133Y-76071004D01*
X104449678Y-75990063D01*
X104577542Y-75921717D01*
X104657302Y-75726223D01*
X103922500Y-74991421D01*
X103187698Y-75726223D01*
X88150000Y-75726223D01*
X88150000Y-74900766D01*
X102667477Y-74900766D01*
X102701496Y-75144633D01*
X102782437Y-75377178D01*
X102850783Y-75505042D01*
X103046277Y-75584802D01*
X103781079Y-74850000D01*
X104063921Y-74850000D01*
X104798723Y-75584802D01*
X104994217Y-75505042D01*
X105101417Y-75283374D01*
X105163312Y-75045052D01*
X105177523Y-74799234D01*
X105143504Y-74555367D01*
X105062563Y-74322822D01*
X104994217Y-74194958D01*
X104798723Y-74115198D01*
X104063921Y-74850000D01*
X103781079Y-74850000D01*
X103046277Y-74115198D01*
X102850783Y-74194958D01*
X102743583Y-74416626D01*
X102681688Y-74654948D01*
X102667477Y-74900766D01*
X88150000Y-74900766D01*
X88150000Y-73973777D01*
X103187698Y-73973777D01*
X103922500Y-74708579D01*
X104657302Y-73973777D01*
X104577542Y-73778283D01*
X104355874Y-73671083D01*
X104117552Y-73609188D01*
X103871734Y-73594977D01*
X103627867Y-73628996D01*
X103395322Y-73709937D01*
X103267458Y-73778283D01*
X103187698Y-73973777D01*
X88150000Y-73973777D01*
X88150000Y-72956223D01*
X112295198Y-72956223D01*
X112374958Y-73151717D01*
X112596626Y-73258917D01*
X112834948Y-73320812D01*
X113080766Y-73335023D01*
X113324633Y-73301004D01*
X113557178Y-73220063D01*
X113685042Y-73151717D01*
X113764802Y-72956223D01*
X113030000Y-72221421D01*
X112295198Y-72956223D01*
X88150000Y-72956223D01*
X88150000Y-72130766D01*
X111774977Y-72130766D01*
X111808996Y-72374633D01*
X111889937Y-72607178D01*
X111958283Y-72735042D01*
X112153777Y-72814802D01*
X112888579Y-72080000D01*
X113171421Y-72080000D01*
X113906223Y-72814802D01*
X114101717Y-72735042D01*
X114208917Y-72513374D01*
X114270812Y-72275052D01*
X114285023Y-72029234D01*
X114251004Y-71785367D01*
X114170063Y-71552822D01*
X114101717Y-71424958D01*
X113906223Y-71345198D01*
X113171421Y-72080000D01*
X112888579Y-72080000D01*
X112153777Y-71345198D01*
X111958283Y-71424958D01*
X111851083Y-71646626D01*
X111789188Y-71884948D01*
X111774977Y-72130766D01*
X88150000Y-72130766D01*
X88150000Y-71203777D01*
X112295198Y-71203777D01*
X113030000Y-71938579D01*
X113764802Y-71203777D01*
X113685042Y-71008283D01*
X113463374Y-70901083D01*
X113225052Y-70839188D01*
X112979234Y-70824977D01*
X112735367Y-70858996D01*
X112502822Y-70939937D01*
X112374958Y-71008283D01*
X112295198Y-71203777D01*
X88150000Y-71203777D01*
X88150000Y-67230000D01*
X95088710Y-67230000D01*
X95113810Y-67484845D01*
X95188145Y-67729896D01*
X95308860Y-67955736D01*
X95471313Y-68153687D01*
X95669264Y-68316140D01*
X95895104Y-68436855D01*
X96140155Y-68511190D01*
X96331136Y-68530000D01*
X96708864Y-68530000D01*
X96899845Y-68511190D01*
X97144896Y-68436855D01*
X97288680Y-68360000D01*
X98373432Y-68360000D01*
X98425000Y-68365079D01*
X98476568Y-68360000D01*
X98476578Y-68360000D01*
X98630836Y-68344807D01*
X98828762Y-68284767D01*
X99011171Y-68187267D01*
X99171054Y-68056054D01*
X99203937Y-68015986D01*
X100129924Y-67090000D01*
X102904796Y-67090000D01*
X102963486Y-67161514D01*
X103069891Y-67248839D01*
X103072500Y-67250234D01*
X103072501Y-68932233D01*
X102951562Y-69053172D01*
X102814765Y-69257903D01*
X102720537Y-69485389D01*
X102672500Y-69726886D01*
X102672500Y-69973114D01*
X102720537Y-70214611D01*
X102814765Y-70442097D01*
X102951562Y-70646828D01*
X103125672Y-70820938D01*
X103330403Y-70957735D01*
X103557889Y-71051963D01*
X103799386Y-71100000D01*
X104045614Y-71100000D01*
X104287111Y-71051963D01*
X104514597Y-70957735D01*
X104719328Y-70820938D01*
X104760266Y-70780000D01*
X119322823Y-70780000D01*
X119331511Y-70868215D01*
X119357243Y-70953041D01*
X119399029Y-71031216D01*
X119455263Y-71099737D01*
X119523784Y-71155971D01*
X119601959Y-71197757D01*
X119686785Y-71223489D01*
X119775000Y-71232177D01*
X120437500Y-71230000D01*
X120550000Y-71117500D01*
X120550000Y-70167500D01*
X120750000Y-70167500D01*
X120750000Y-71117500D01*
X120862500Y-71230000D01*
X121525000Y-71232177D01*
X121613215Y-71223489D01*
X121698041Y-71197757D01*
X121776216Y-71155971D01*
X121844737Y-71099737D01*
X121900971Y-71031216D01*
X121942757Y-70953041D01*
X121968489Y-70868215D01*
X121977177Y-70780000D01*
X121975000Y-70280000D01*
X121862500Y-70167500D01*
X120750000Y-70167500D01*
X120550000Y-70167500D01*
X119437500Y-70167500D01*
X119325000Y-70280000D01*
X119322823Y-70780000D01*
X104760266Y-70780000D01*
X104893438Y-70646828D01*
X105030235Y-70442097D01*
X105124463Y-70214611D01*
X105172500Y-69973114D01*
X105172500Y-69726886D01*
X105124463Y-69485389D01*
X105030235Y-69257903D01*
X104893438Y-69053172D01*
X104772500Y-68932234D01*
X104772500Y-67250234D01*
X104775109Y-67248839D01*
X104881514Y-67161514D01*
X104968839Y-67055109D01*
X105033727Y-66933712D01*
X105073685Y-66801988D01*
X105087177Y-66665000D01*
X105087177Y-65415000D01*
X105073685Y-65278012D01*
X105033727Y-65146288D01*
X104968839Y-65024891D01*
X104881514Y-64918486D01*
X104775109Y-64831161D01*
X104653712Y-64766273D01*
X104521988Y-64726315D01*
X104385000Y-64712823D01*
X103460000Y-64712823D01*
X103323012Y-64726315D01*
X103191288Y-64766273D01*
X103069891Y-64831161D01*
X102963486Y-64918486D01*
X102904796Y-64990000D01*
X99746567Y-64990000D01*
X99694999Y-64984921D01*
X99643431Y-64990000D01*
X99643422Y-64990000D01*
X99489164Y-65005193D01*
X99291238Y-65065233D01*
X99108829Y-65162733D01*
X99088211Y-65179654D01*
X98989008Y-65261067D01*
X98989003Y-65261072D01*
X98948946Y-65293946D01*
X98916071Y-65334004D01*
X97990076Y-66260000D01*
X97512254Y-66260000D01*
X97370736Y-66143860D01*
X97144896Y-66023145D01*
X96995012Y-65977679D01*
X97071830Y-65959202D01*
X97303434Y-65852313D01*
X97509735Y-65702294D01*
X97682805Y-65514910D01*
X97815992Y-65297362D01*
X97904179Y-65058011D01*
X97909547Y-65031531D01*
X97828282Y-64830000D01*
X96620000Y-64830000D01*
X96620000Y-64850000D01*
X96420000Y-64850000D01*
X96420000Y-64830000D01*
X95211718Y-64830000D01*
X95130453Y-65031531D01*
X95135821Y-65058011D01*
X95224008Y-65297362D01*
X95357195Y-65514910D01*
X95530265Y-65702294D01*
X95736566Y-65852313D01*
X95968170Y-65959202D01*
X96044988Y-65977679D01*
X95895104Y-66023145D01*
X95669264Y-66143860D01*
X95471313Y-66306313D01*
X95308860Y-66504264D01*
X95188145Y-66730104D01*
X95113810Y-66975155D01*
X95088710Y-67230000D01*
X88150000Y-67230000D01*
X88150000Y-61630000D01*
X95092823Y-61630000D01*
X95092823Y-62830000D01*
X95106315Y-62966988D01*
X95146273Y-63098712D01*
X95211161Y-63220109D01*
X95298486Y-63326514D01*
X95404891Y-63413839D01*
X95526288Y-63478727D01*
X95658012Y-63518685D01*
X95795000Y-63532177D01*
X95900179Y-63532177D01*
X95736566Y-63607687D01*
X95530265Y-63757706D01*
X95357195Y-63945090D01*
X95224008Y-64162638D01*
X95135821Y-64401989D01*
X95130453Y-64428469D01*
X95211718Y-64630000D01*
X96420000Y-64630000D01*
X96420000Y-64610000D01*
X96620000Y-64610000D01*
X96620000Y-64630000D01*
X97828282Y-64630000D01*
X97909547Y-64428469D01*
X97904179Y-64401989D01*
X97815992Y-64162638D01*
X97682805Y-63945090D01*
X97509735Y-63757706D01*
X97303434Y-63607687D01*
X97139821Y-63532177D01*
X97245000Y-63532177D01*
X97381988Y-63518685D01*
X97513712Y-63478727D01*
X97635109Y-63413839D01*
X97741514Y-63326514D01*
X97779687Y-63280000D01*
X102904796Y-63280000D01*
X102963486Y-63351514D01*
X103069891Y-63438839D01*
X103191288Y-63503727D01*
X103323012Y-63543685D01*
X103460000Y-63557177D01*
X104385000Y-63557177D01*
X104521988Y-63543685D01*
X104653712Y-63503727D01*
X104775109Y-63438839D01*
X104881514Y-63351514D01*
X104968839Y-63245109D01*
X105033727Y-63123712D01*
X105073685Y-62991988D01*
X105087177Y-62855000D01*
X105087177Y-61605000D01*
X105073685Y-61468012D01*
X105033727Y-61336288D01*
X104968839Y-61214891D01*
X104881514Y-61108486D01*
X104775109Y-61021161D01*
X104772500Y-61019766D01*
X104772500Y-60185000D01*
X118052823Y-60185000D01*
X118061511Y-60273215D01*
X118087243Y-60358041D01*
X118129029Y-60436216D01*
X118185263Y-60504737D01*
X118253784Y-60560971D01*
X118331959Y-60602757D01*
X118416785Y-60628489D01*
X118505000Y-60637177D01*
X119167500Y-60635000D01*
X119280000Y-60522500D01*
X119280000Y-59572500D01*
X119480000Y-59572500D01*
X119480000Y-60522500D01*
X119592500Y-60635000D01*
X120255000Y-60637177D01*
X120343215Y-60628489D01*
X120428041Y-60602757D01*
X120506216Y-60560971D01*
X120574737Y-60504737D01*
X120630971Y-60436216D01*
X120672757Y-60358041D01*
X120698489Y-60273215D01*
X120707177Y-60185000D01*
X120705000Y-59685000D01*
X120592500Y-59572500D01*
X119480000Y-59572500D01*
X119280000Y-59572500D01*
X118167500Y-59572500D01*
X118055000Y-59685000D01*
X118052823Y-60185000D01*
X104772500Y-60185000D01*
X104772500Y-59337766D01*
X104893438Y-59216828D01*
X105030235Y-59012097D01*
X105124463Y-58784611D01*
X105129358Y-58760000D01*
X118052823Y-58760000D01*
X118055000Y-59260000D01*
X118167500Y-59372500D01*
X119280000Y-59372500D01*
X119280000Y-58422500D01*
X119480000Y-58422500D01*
X119480000Y-59372500D01*
X120592500Y-59372500D01*
X120705000Y-59260000D01*
X120707177Y-58760000D01*
X120698489Y-58671785D01*
X120672757Y-58586959D01*
X120630971Y-58508784D01*
X120574737Y-58440263D01*
X120506216Y-58384029D01*
X120428041Y-58342243D01*
X120343215Y-58316511D01*
X120255000Y-58307823D01*
X119592500Y-58310000D01*
X119480000Y-58422500D01*
X119280000Y-58422500D01*
X119167500Y-58310000D01*
X118505000Y-58307823D01*
X118416785Y-58316511D01*
X118331959Y-58342243D01*
X118253784Y-58384029D01*
X118185263Y-58440263D01*
X118129029Y-58508784D01*
X118087243Y-58586959D01*
X118061511Y-58671785D01*
X118052823Y-58760000D01*
X105129358Y-58760000D01*
X105172500Y-58543114D01*
X105172500Y-58296886D01*
X105124463Y-58055389D01*
X105030235Y-57827903D01*
X104893438Y-57623172D01*
X104719328Y-57449062D01*
X104514597Y-57312265D01*
X104287111Y-57218037D01*
X104045614Y-57170000D01*
X103799386Y-57170000D01*
X103557889Y-57218037D01*
X103330403Y-57312265D01*
X103125672Y-57449062D01*
X102951562Y-57623172D01*
X102814765Y-57827903D01*
X102720537Y-58055389D01*
X102672500Y-58296886D01*
X102672500Y-58543114D01*
X102720537Y-58784611D01*
X102814765Y-59012097D01*
X102951562Y-59216828D01*
X103072501Y-59337767D01*
X103072500Y-61019766D01*
X103069891Y-61021161D01*
X102963486Y-61108486D01*
X102904796Y-61180000D01*
X97779687Y-61180000D01*
X97741514Y-61133486D01*
X97635109Y-61046161D01*
X97513712Y-60981273D01*
X97381988Y-60941315D01*
X97245000Y-60927823D01*
X95795000Y-60927823D01*
X95658012Y-60941315D01*
X95526288Y-60981273D01*
X95404891Y-61046161D01*
X95298486Y-61133486D01*
X95211161Y-61239891D01*
X95146273Y-61361288D01*
X95106315Y-61493012D01*
X95092823Y-61630000D01*
X88150000Y-61630000D01*
X88150000Y-56755000D01*
X117997823Y-56755000D01*
X118006511Y-56843215D01*
X118032243Y-56928041D01*
X118074029Y-57006216D01*
X118130263Y-57074737D01*
X118198784Y-57130971D01*
X118276959Y-57172757D01*
X118361785Y-57198489D01*
X118450000Y-57207177D01*
X118950000Y-57205000D01*
X119062500Y-57092500D01*
X119062500Y-55980000D01*
X119262500Y-55980000D01*
X119262500Y-57092500D01*
X119375000Y-57205000D01*
X119875000Y-57207177D01*
X119963215Y-57198489D01*
X120048041Y-57172757D01*
X120126216Y-57130971D01*
X120194737Y-57074737D01*
X120250971Y-57006216D01*
X120292757Y-56928041D01*
X120318489Y-56843215D01*
X120327177Y-56755000D01*
X120325000Y-56092500D01*
X120212500Y-55980000D01*
X119262500Y-55980000D01*
X119062500Y-55980000D01*
X118112500Y-55980000D01*
X118000000Y-56092500D01*
X117997823Y-56755000D01*
X88150000Y-56755000D01*
X88150000Y-55005000D01*
X117997823Y-55005000D01*
X118000000Y-55667500D01*
X118112500Y-55780000D01*
X119062500Y-55780000D01*
X119062500Y-54667500D01*
X119262500Y-54667500D01*
X119262500Y-55780000D01*
X120212500Y-55780000D01*
X120325000Y-55667500D01*
X120327177Y-55005000D01*
X120318489Y-54916785D01*
X120292757Y-54831959D01*
X120250971Y-54753784D01*
X120194737Y-54685263D01*
X120126216Y-54629029D01*
X120048041Y-54587243D01*
X119963215Y-54561511D01*
X119875000Y-54552823D01*
X119375000Y-54555000D01*
X119262500Y-54667500D01*
X119062500Y-54667500D01*
X118950000Y-54555000D01*
X118450000Y-54552823D01*
X118361785Y-54561511D01*
X118276959Y-54587243D01*
X118198784Y-54629029D01*
X118130263Y-54685263D01*
X118074029Y-54753784D01*
X118032243Y-54831959D01*
X118006511Y-54916785D01*
X117997823Y-55005000D01*
X88150000Y-55005000D01*
X88150000Y-54296223D01*
X103187698Y-54296223D01*
X103267458Y-54491717D01*
X103489126Y-54598917D01*
X103727448Y-54660812D01*
X103973266Y-54675023D01*
X104217133Y-54641004D01*
X104449678Y-54560063D01*
X104577542Y-54491717D01*
X104657302Y-54296223D01*
X103922500Y-53561421D01*
X103187698Y-54296223D01*
X88150000Y-54296223D01*
X88150000Y-53470766D01*
X102667477Y-53470766D01*
X102701496Y-53714633D01*
X102782437Y-53947178D01*
X102850783Y-54075042D01*
X103046277Y-54154802D01*
X103781079Y-53420000D01*
X104063921Y-53420000D01*
X104798723Y-54154802D01*
X104994217Y-54075042D01*
X105101417Y-53853374D01*
X105163312Y-53615052D01*
X105177523Y-53369234D01*
X105143504Y-53125367D01*
X105062563Y-52892822D01*
X104994217Y-52764958D01*
X104798723Y-52685198D01*
X104063921Y-53420000D01*
X103781079Y-53420000D01*
X103046277Y-52685198D01*
X102850783Y-52764958D01*
X102743583Y-52986626D01*
X102681688Y-53224948D01*
X102667477Y-53470766D01*
X88150000Y-53470766D01*
X88150000Y-52543777D01*
X103187698Y-52543777D01*
X103922500Y-53278579D01*
X104657302Y-52543777D01*
X104577542Y-52348283D01*
X104355874Y-52241083D01*
X104117552Y-52179188D01*
X103871734Y-52164977D01*
X103627867Y-52198996D01*
X103395322Y-52279937D01*
X103267458Y-52348283D01*
X103187698Y-52543777D01*
X88150000Y-52543777D01*
X88150000Y-48521531D01*
X95105453Y-48521531D01*
X95115726Y-48572544D01*
X95208604Y-48810467D01*
X95346114Y-49025699D01*
X95522972Y-49209968D01*
X95732381Y-49356193D01*
X95966293Y-49458755D01*
X96215719Y-49513712D01*
X96420000Y-49409419D01*
X96420000Y-48320000D01*
X96620000Y-48320000D01*
X96620000Y-49409419D01*
X96824281Y-49513712D01*
X97073707Y-49458755D01*
X97307619Y-49356193D01*
X97517028Y-49209968D01*
X97587807Y-49136223D01*
X116415198Y-49136223D01*
X116494958Y-49331717D01*
X116716626Y-49438917D01*
X116954948Y-49500812D01*
X117200766Y-49515023D01*
X117444633Y-49481004D01*
X117677178Y-49400063D01*
X117805042Y-49331717D01*
X117884802Y-49136223D01*
X117150000Y-48401421D01*
X116415198Y-49136223D01*
X97587807Y-49136223D01*
X97693886Y-49025699D01*
X97831396Y-48810467D01*
X97924274Y-48572544D01*
X97934547Y-48521531D01*
X97853282Y-48320000D01*
X96620000Y-48320000D01*
X96420000Y-48320000D01*
X95186718Y-48320000D01*
X95105453Y-48521531D01*
X88150000Y-48521531D01*
X88150000Y-45120000D01*
X95067823Y-45120000D01*
X95067823Y-46320000D01*
X95081315Y-46456988D01*
X95121273Y-46588712D01*
X95186161Y-46710109D01*
X95273486Y-46816514D01*
X95379891Y-46903839D01*
X95501288Y-46968727D01*
X95633012Y-47008685D01*
X95770000Y-47022177D01*
X95872940Y-47022177D01*
X95732381Y-47083807D01*
X95522972Y-47230032D01*
X95346114Y-47414301D01*
X95208604Y-47629533D01*
X95115726Y-47867456D01*
X95105453Y-47918469D01*
X95186718Y-48120000D01*
X96420000Y-48120000D01*
X96420000Y-48100000D01*
X96620000Y-48100000D01*
X96620000Y-48120000D01*
X97853282Y-48120000D01*
X97934547Y-47918469D01*
X97924274Y-47867456D01*
X97831396Y-47629533D01*
X97693886Y-47414301D01*
X97517028Y-47230032D01*
X97307619Y-47083807D01*
X97167060Y-47022177D01*
X97270000Y-47022177D01*
X97406988Y-47008685D01*
X97538712Y-46968727D01*
X97660109Y-46903839D01*
X97766514Y-46816514D01*
X97804687Y-46770000D01*
X99008432Y-46770000D01*
X99060000Y-46775079D01*
X99111568Y-46770000D01*
X99111578Y-46770000D01*
X99265836Y-46754807D01*
X99463762Y-46694767D01*
X99646171Y-46597267D01*
X99806054Y-46466054D01*
X99838937Y-46425986D01*
X101035996Y-45228929D01*
X101076054Y-45196054D01*
X101108928Y-45155997D01*
X101108933Y-45155992D01*
X101207266Y-45036172D01*
X101304767Y-44853762D01*
X101308113Y-44842733D01*
X101364807Y-44655836D01*
X101380000Y-44501578D01*
X101380000Y-44501569D01*
X101385079Y-44450001D01*
X101380000Y-44398433D01*
X101380000Y-41875204D01*
X101451514Y-41816514D01*
X101506921Y-41749001D01*
X101999443Y-42241524D01*
X102026052Y-42273948D01*
X102058475Y-42300557D01*
X102058480Y-42300562D01*
X102155481Y-42380168D01*
X102303145Y-42459097D01*
X102463371Y-42507700D01*
X102588251Y-42520000D01*
X102588259Y-42520000D01*
X102630000Y-42524111D01*
X102671741Y-42520000D01*
X103360086Y-42520000D01*
X103382243Y-42593041D01*
X103424029Y-42671216D01*
X103480263Y-42739737D01*
X103548784Y-42795971D01*
X103626959Y-42837757D01*
X103711785Y-42863489D01*
X103800000Y-42872177D01*
X105800000Y-42872177D01*
X105888215Y-42863489D01*
X105973041Y-42837757D01*
X106051216Y-42795971D01*
X106119737Y-42739737D01*
X106175971Y-42671216D01*
X106217757Y-42593041D01*
X106243489Y-42508215D01*
X106252177Y-42420000D01*
X106252177Y-40920000D01*
X106243489Y-40831785D01*
X106217757Y-40746959D01*
X106175971Y-40668784D01*
X106119737Y-40600263D01*
X106051216Y-40544029D01*
X106006262Y-40520000D01*
X106051216Y-40495971D01*
X106119737Y-40439737D01*
X106175971Y-40371216D01*
X106217757Y-40293041D01*
X106239914Y-40220000D01*
X107500000Y-40220000D01*
X107500000Y-41693719D01*
X104617148Y-44000000D01*
X102870000Y-44000000D01*
X102782209Y-44008647D01*
X102697792Y-44034254D01*
X102619993Y-44075839D01*
X102551802Y-44131802D01*
X102495839Y-44199993D01*
X102454254Y-44277792D01*
X102428647Y-44362209D01*
X102420000Y-44450000D01*
X102420000Y-48260000D01*
X102428647Y-48347791D01*
X102454254Y-48432208D01*
X102495839Y-48510007D01*
X102551802Y-48578198D01*
X102619993Y-48634161D01*
X102697792Y-48675746D01*
X102782209Y-48701353D01*
X102870000Y-48710000D01*
X110490000Y-48710000D01*
X110577791Y-48701353D01*
X110662208Y-48675746D01*
X110740007Y-48634161D01*
X110808198Y-48578198D01*
X111075630Y-48310766D01*
X115894977Y-48310766D01*
X115928996Y-48554633D01*
X116009937Y-48787178D01*
X116078283Y-48915042D01*
X116273777Y-48994802D01*
X117008579Y-48260000D01*
X117291421Y-48260000D01*
X118026223Y-48994802D01*
X118221717Y-48915042D01*
X118328917Y-48693374D01*
X118390812Y-48455052D01*
X118405023Y-48209234D01*
X118371004Y-47965367D01*
X118290063Y-47732822D01*
X118221717Y-47604958D01*
X118026223Y-47525198D01*
X117291421Y-48260000D01*
X117008579Y-48260000D01*
X116273777Y-47525198D01*
X116078283Y-47604958D01*
X115971083Y-47826626D01*
X115909188Y-48064948D01*
X115894977Y-48310766D01*
X111075630Y-48310766D01*
X112002619Y-47383777D01*
X116415198Y-47383777D01*
X117150000Y-48118579D01*
X117884802Y-47383777D01*
X117805042Y-47188283D01*
X117583374Y-47081083D01*
X117345052Y-47019188D01*
X117099234Y-47004977D01*
X116855367Y-47038996D01*
X116622822Y-47119937D01*
X116494958Y-47188283D01*
X116415198Y-47383777D01*
X112002619Y-47383777D01*
X113348198Y-46038198D01*
X113404161Y-45970007D01*
X113445746Y-45892208D01*
X113471353Y-45807791D01*
X113480000Y-45720000D01*
X113480000Y-41022081D01*
X113886938Y-41429019D01*
X113913552Y-41461448D01*
X114042981Y-41567668D01*
X114190645Y-41646597D01*
X114350871Y-41695200D01*
X114353321Y-41695441D01*
X114361161Y-41710109D01*
X114448486Y-41816514D01*
X114520000Y-41875205D01*
X114520001Y-43231578D01*
X114535194Y-43385836D01*
X114595234Y-43583762D01*
X114692734Y-43766171D01*
X114823947Y-43926054D01*
X114983830Y-44057267D01*
X115166239Y-44154767D01*
X115364165Y-44214807D01*
X115570000Y-44235080D01*
X115775836Y-44214807D01*
X115973762Y-44154767D01*
X116156171Y-44057267D01*
X116316054Y-43926054D01*
X116447267Y-43766171D01*
X116544767Y-43583762D01*
X116604807Y-43385836D01*
X116620000Y-43231578D01*
X116620000Y-41875204D01*
X116667305Y-41836382D01*
X116851664Y-41892307D01*
X117005922Y-41907500D01*
X120701578Y-41907500D01*
X120855836Y-41892307D01*
X121053762Y-41832267D01*
X121236171Y-41734767D01*
X121396054Y-41603554D01*
X121527267Y-41443671D01*
X121624767Y-41261262D01*
X121684807Y-41063336D01*
X121705080Y-40857500D01*
X121684807Y-40651664D01*
X121624767Y-40453738D01*
X121527267Y-40271329D01*
X121396054Y-40111446D01*
X121236171Y-39980233D01*
X121053762Y-39882733D01*
X120855836Y-39822693D01*
X120701578Y-39807500D01*
X117005922Y-39807500D01*
X116851664Y-39822693D01*
X116667305Y-39878618D01*
X116585109Y-39811161D01*
X116463712Y-39746273D01*
X116331988Y-39706315D01*
X116195000Y-39692823D01*
X114945000Y-39692823D01*
X114808012Y-39706315D01*
X114676288Y-39746273D01*
X114632017Y-39769936D01*
X113660566Y-38798486D01*
X113633948Y-38766052D01*
X113504519Y-38659832D01*
X113480000Y-38646726D01*
X113480000Y-38595000D01*
X114242823Y-38595000D01*
X114251511Y-38683215D01*
X114277243Y-38768041D01*
X114319029Y-38846216D01*
X114375263Y-38914737D01*
X114443784Y-38970971D01*
X114521959Y-39012757D01*
X114606785Y-39038489D01*
X114695000Y-39047177D01*
X115357500Y-39045000D01*
X115470000Y-38932500D01*
X115470000Y-37982500D01*
X115670000Y-37982500D01*
X115670000Y-38932500D01*
X115782500Y-39045000D01*
X116445000Y-39047177D01*
X116533215Y-39038489D01*
X116618041Y-39012757D01*
X116696216Y-38970971D01*
X116764737Y-38914737D01*
X116820971Y-38846216D01*
X116862757Y-38768041D01*
X116888489Y-38683215D01*
X116897177Y-38595000D01*
X116895000Y-38095000D01*
X116782500Y-37982500D01*
X115670000Y-37982500D01*
X115470000Y-37982500D01*
X114357500Y-37982500D01*
X114245000Y-38095000D01*
X114242823Y-38595000D01*
X113480000Y-38595000D01*
X113480000Y-37170000D01*
X114242823Y-37170000D01*
X114245000Y-37670000D01*
X114357500Y-37782500D01*
X115470000Y-37782500D01*
X115470000Y-36832500D01*
X115670000Y-36832500D01*
X115670000Y-37782500D01*
X116782500Y-37782500D01*
X116895000Y-37670000D01*
X116897177Y-37170000D01*
X116888489Y-37081785D01*
X116862757Y-36996959D01*
X116820971Y-36918784D01*
X116764737Y-36850263D01*
X116696216Y-36794029D01*
X116618041Y-36752243D01*
X116533215Y-36726511D01*
X116445000Y-36717823D01*
X115782500Y-36720000D01*
X115670000Y-36832500D01*
X115470000Y-36832500D01*
X115357500Y-36720000D01*
X114695000Y-36717823D01*
X114606785Y-36726511D01*
X114521959Y-36752243D01*
X114443784Y-36794029D01*
X114375263Y-36850263D01*
X114319029Y-36918784D01*
X114277243Y-36996959D01*
X114251511Y-37081785D01*
X114242823Y-37170000D01*
X113480000Y-37170000D01*
X113480000Y-35560000D01*
X113471353Y-35472209D01*
X113445746Y-35387792D01*
X113404161Y-35309993D01*
X113348198Y-35241802D01*
X113280007Y-35185839D01*
X113202208Y-35144254D01*
X113117791Y-35118647D01*
X113030000Y-35110000D01*
X107950000Y-35110000D01*
X107862209Y-35118647D01*
X107777792Y-35144254D01*
X107699993Y-35185839D01*
X107631802Y-35241802D01*
X107575839Y-35309993D01*
X107534254Y-35387792D01*
X107508647Y-35472209D01*
X107500000Y-35560000D01*
X107500000Y-38520000D01*
X106239914Y-38520000D01*
X106217757Y-38446959D01*
X106175971Y-38368784D01*
X106119737Y-38300263D01*
X106051216Y-38244029D01*
X106006262Y-38220000D01*
X106051216Y-38195971D01*
X106119737Y-38139737D01*
X106175971Y-38071216D01*
X106217757Y-37993041D01*
X106243489Y-37908215D01*
X106252177Y-37820000D01*
X106250000Y-37282500D01*
X106137500Y-37170000D01*
X104900000Y-37170000D01*
X104900000Y-37190000D01*
X104700000Y-37190000D01*
X104700000Y-37170000D01*
X103462500Y-37170000D01*
X103350000Y-37282500D01*
X103347823Y-37820000D01*
X103356511Y-37908215D01*
X103382243Y-37993041D01*
X103424029Y-38071216D01*
X103480263Y-38139737D01*
X103548784Y-38195971D01*
X103593738Y-38220000D01*
X103548784Y-38244029D01*
X103480263Y-38300263D01*
X103424029Y-38368784D01*
X103382243Y-38446959D01*
X103356511Y-38531785D01*
X103347823Y-38620000D01*
X103347823Y-40120000D01*
X103356511Y-40208215D01*
X103382243Y-40293041D01*
X103424029Y-40371216D01*
X103480263Y-40439737D01*
X103548784Y-40495971D01*
X103593738Y-40520000D01*
X103548784Y-40544029D01*
X103480263Y-40600263D01*
X103424029Y-40668784D01*
X103382243Y-40746959D01*
X103360086Y-40820000D01*
X102982081Y-40820000D01*
X102448065Y-40285985D01*
X102421448Y-40253552D01*
X102292019Y-40147332D01*
X102144355Y-40068403D01*
X101984129Y-40019800D01*
X101859249Y-40007500D01*
X101859241Y-40007500D01*
X101817500Y-40003389D01*
X101775759Y-40007500D01*
X101540234Y-40007500D01*
X101538839Y-40004891D01*
X101451514Y-39898486D01*
X101345109Y-39811161D01*
X101223712Y-39746273D01*
X101091988Y-39706315D01*
X100955000Y-39692823D01*
X99705000Y-39692823D01*
X99568012Y-39706315D01*
X99436288Y-39746273D01*
X99314891Y-39811161D01*
X99208486Y-39898486D01*
X99121161Y-40004891D01*
X99056273Y-40126288D01*
X99016315Y-40258012D01*
X99002823Y-40395000D01*
X99002823Y-41320000D01*
X99016315Y-41456988D01*
X99056273Y-41588712D01*
X99121161Y-41710109D01*
X99208486Y-41816514D01*
X99280001Y-41875205D01*
X99280000Y-44015075D01*
X98625076Y-44670000D01*
X97804687Y-44670000D01*
X97766514Y-44623486D01*
X97660109Y-44536161D01*
X97538712Y-44471273D01*
X97406988Y-44431315D01*
X97270000Y-44417823D01*
X95770000Y-44417823D01*
X95633012Y-44431315D01*
X95501288Y-44471273D01*
X95379891Y-44536161D01*
X95273486Y-44623486D01*
X95186161Y-44729891D01*
X95121273Y-44851288D01*
X95081315Y-44983012D01*
X95067823Y-45120000D01*
X88150000Y-45120000D01*
X88150000Y-36798093D01*
X88950000Y-36798093D01*
X88950000Y-37201907D01*
X89028780Y-37597963D01*
X89183314Y-37971039D01*
X89407661Y-38306799D01*
X89693201Y-38592339D01*
X90028961Y-38816686D01*
X90402037Y-38971220D01*
X90798093Y-39050000D01*
X91201907Y-39050000D01*
X91597963Y-38971220D01*
X91971039Y-38816686D01*
X92302816Y-38595000D01*
X99002823Y-38595000D01*
X99011511Y-38683215D01*
X99037243Y-38768041D01*
X99079029Y-38846216D01*
X99135263Y-38914737D01*
X99203784Y-38970971D01*
X99281959Y-39012757D01*
X99366785Y-39038489D01*
X99455000Y-39047177D01*
X100117500Y-39045000D01*
X100230000Y-38932500D01*
X100230000Y-37982500D01*
X100430000Y-37982500D01*
X100430000Y-38932500D01*
X100542500Y-39045000D01*
X101205000Y-39047177D01*
X101293215Y-39038489D01*
X101378041Y-39012757D01*
X101456216Y-38970971D01*
X101524737Y-38914737D01*
X101580971Y-38846216D01*
X101622757Y-38768041D01*
X101648489Y-38683215D01*
X101657177Y-38595000D01*
X101655000Y-38095000D01*
X101542500Y-37982500D01*
X100430000Y-37982500D01*
X100230000Y-37982500D01*
X99117500Y-37982500D01*
X99005000Y-38095000D01*
X99002823Y-38595000D01*
X92302816Y-38595000D01*
X92306799Y-38592339D01*
X92592339Y-38306799D01*
X92816686Y-37971039D01*
X92971220Y-37597963D01*
X93050000Y-37201907D01*
X93050000Y-37170000D01*
X99002823Y-37170000D01*
X99005000Y-37670000D01*
X99117500Y-37782500D01*
X100230000Y-37782500D01*
X100230000Y-36832500D01*
X100430000Y-36832500D01*
X100430000Y-37782500D01*
X101542500Y-37782500D01*
X101655000Y-37670000D01*
X101657177Y-37170000D01*
X101648489Y-37081785D01*
X101622757Y-36996959D01*
X101580971Y-36918784D01*
X101524737Y-36850263D01*
X101456216Y-36794029D01*
X101378041Y-36752243D01*
X101293215Y-36726511D01*
X101205000Y-36717823D01*
X100542500Y-36720000D01*
X100430000Y-36832500D01*
X100230000Y-36832500D01*
X100117500Y-36720000D01*
X99455000Y-36717823D01*
X99366785Y-36726511D01*
X99281959Y-36752243D01*
X99203784Y-36794029D01*
X99135263Y-36850263D01*
X99079029Y-36918784D01*
X99037243Y-36996959D01*
X99011511Y-37081785D01*
X99002823Y-37170000D01*
X93050000Y-37170000D01*
X93050000Y-36798093D01*
X92971220Y-36402037D01*
X92937239Y-36320000D01*
X103347823Y-36320000D01*
X103350000Y-36857500D01*
X103462500Y-36970000D01*
X104700000Y-36970000D01*
X104700000Y-35982500D01*
X104900000Y-35982500D01*
X104900000Y-36970000D01*
X106137500Y-36970000D01*
X106250000Y-36857500D01*
X106252177Y-36320000D01*
X106243489Y-36231785D01*
X106217757Y-36146959D01*
X106175971Y-36068784D01*
X106119737Y-36000263D01*
X106051216Y-35944029D01*
X105973041Y-35902243D01*
X105888215Y-35876511D01*
X105800000Y-35867823D01*
X105012500Y-35870000D01*
X104900000Y-35982500D01*
X104700000Y-35982500D01*
X104587500Y-35870000D01*
X103800000Y-35867823D01*
X103711785Y-35876511D01*
X103626959Y-35902243D01*
X103548784Y-35944029D01*
X103480263Y-36000263D01*
X103424029Y-36068784D01*
X103382243Y-36146959D01*
X103356511Y-36231785D01*
X103347823Y-36320000D01*
X92937239Y-36320000D01*
X92816686Y-36028961D01*
X92592339Y-35693201D01*
X92306799Y-35407661D01*
X91971039Y-35183314D01*
X91597963Y-35028780D01*
X91201907Y-34950000D01*
X90798093Y-34950000D01*
X90402037Y-35028780D01*
X90028961Y-35183314D01*
X89693201Y-35407661D01*
X89407661Y-35693201D01*
X89183314Y-36028961D01*
X89028780Y-36402037D01*
X88950000Y-36798093D01*
X88150000Y-36798093D01*
X88150000Y-34150000D01*
X130360000Y-34150000D01*
X130360000Y-57667919D01*
G36*
X127822001Y-65850000D02*
G01*
X125237500Y-65850000D01*
X125212500Y-65825000D01*
X125005289Y-65825000D01*
X124986309Y-65814855D01*
X124882724Y-65783433D01*
X124797103Y-65775000D01*
X124882724Y-65766567D01*
X124986309Y-65735145D01*
X125005289Y-65725000D01*
X125212500Y-65725000D01*
X125237500Y-65700000D01*
X125346757Y-65700000D01*
X125375000Y-65702782D01*
X125403243Y-65700000D01*
X125403246Y-65700000D01*
X125487720Y-65691680D01*
X125596108Y-65658801D01*
X125695998Y-65605408D01*
X125783554Y-65533554D01*
X125801565Y-65511607D01*
X127822000Y-63491173D01*
X127822001Y-65850000D01*
G37*
X127822001Y-65850000D02*
X125237500Y-65850000D01*
X125212500Y-65825000D01*
X125005289Y-65825000D01*
X124986309Y-65814855D01*
X124882724Y-65783433D01*
X124797103Y-65775000D01*
X124882724Y-65766567D01*
X124986309Y-65735145D01*
X125005289Y-65725000D01*
X125212500Y-65725000D01*
X125237500Y-65700000D01*
X125346757Y-65700000D01*
X125375000Y-65702782D01*
X125403243Y-65700000D01*
X125403246Y-65700000D01*
X125487720Y-65691680D01*
X125596108Y-65658801D01*
X125695998Y-65605408D01*
X125783554Y-65533554D01*
X125801565Y-65511607D01*
X127822000Y-63491173D01*
X127822001Y-65850000D01*
%TO.N,+3.3VA*%
G36*
X112880000Y-45657868D02*
G01*
X110427868Y-48110000D01*
X103020000Y-48110000D01*
X103020000Y-44600000D01*
X104775000Y-44600000D01*
X104804264Y-44597118D01*
X104832403Y-44588582D01*
X104868704Y-44567130D01*
X108043704Y-42027130D01*
X108064755Y-42006599D01*
X108081395Y-41982355D01*
X108092986Y-41955331D01*
X108099083Y-41926565D01*
X108100000Y-41910000D01*
X108100000Y-41270000D01*
X109647823Y-41270000D01*
X109656511Y-41358215D01*
X109682243Y-41443041D01*
X109724029Y-41521216D01*
X109780263Y-41589737D01*
X109848784Y-41645971D01*
X109926959Y-41687757D01*
X110011785Y-41713489D01*
X110100000Y-41722177D01*
X110887500Y-41720000D01*
X111000000Y-41607500D01*
X111000000Y-39470000D01*
X111200000Y-39470000D01*
X111200000Y-41607500D01*
X111312500Y-41720000D01*
X112100000Y-41722177D01*
X112188215Y-41713489D01*
X112273041Y-41687757D01*
X112351216Y-41645971D01*
X112419737Y-41589737D01*
X112475971Y-41521216D01*
X112517757Y-41443041D01*
X112543489Y-41358215D01*
X112552177Y-41270000D01*
X112550000Y-39582500D01*
X112437500Y-39470000D01*
X111200000Y-39470000D01*
X111000000Y-39470000D01*
X109762500Y-39470000D01*
X109650000Y-39582500D01*
X109647823Y-41270000D01*
X108100000Y-41270000D01*
X108100000Y-37470000D01*
X109647823Y-37470000D01*
X109650000Y-39157500D01*
X109762500Y-39270000D01*
X111000000Y-39270000D01*
X111000000Y-37132500D01*
X111200000Y-37132500D01*
X111200000Y-39270000D01*
X112437500Y-39270000D01*
X112550000Y-39157500D01*
X112552177Y-37470000D01*
X112543489Y-37381785D01*
X112517757Y-37296959D01*
X112475971Y-37218784D01*
X112419737Y-37150263D01*
X112351216Y-37094029D01*
X112273041Y-37052243D01*
X112188215Y-37026511D01*
X112100000Y-37017823D01*
X111312500Y-37020000D01*
X111200000Y-37132500D01*
X111000000Y-37132500D01*
X110887500Y-37020000D01*
X110100000Y-37017823D01*
X110011785Y-37026511D01*
X109926959Y-37052243D01*
X109848784Y-37094029D01*
X109780263Y-37150263D01*
X109724029Y-37218784D01*
X109682243Y-37296959D01*
X109656511Y-37381785D01*
X109647823Y-37470000D01*
X108100000Y-37470000D01*
X108100000Y-35710000D01*
X112880000Y-35710000D01*
X112880000Y-45657868D01*
G37*
X112880000Y-45657868D02*
X110427868Y-48110000D01*
X103020000Y-48110000D01*
X103020000Y-44600000D01*
X104775000Y-44600000D01*
X104804264Y-44597118D01*
X104832403Y-44588582D01*
X104868704Y-44567130D01*
X108043704Y-42027130D01*
X108064755Y-42006599D01*
X108081395Y-41982355D01*
X108092986Y-41955331D01*
X108099083Y-41926565D01*
X108100000Y-41910000D01*
X108100000Y-41270000D01*
X109647823Y-41270000D01*
X109656511Y-41358215D01*
X109682243Y-41443041D01*
X109724029Y-41521216D01*
X109780263Y-41589737D01*
X109848784Y-41645971D01*
X109926959Y-41687757D01*
X110011785Y-41713489D01*
X110100000Y-41722177D01*
X110887500Y-41720000D01*
X111000000Y-41607500D01*
X111000000Y-39470000D01*
X111200000Y-39470000D01*
X111200000Y-41607500D01*
X111312500Y-41720000D01*
X112100000Y-41722177D01*
X112188215Y-41713489D01*
X112273041Y-41687757D01*
X112351216Y-41645971D01*
X112419737Y-41589737D01*
X112475971Y-41521216D01*
X112517757Y-41443041D01*
X112543489Y-41358215D01*
X112552177Y-41270000D01*
X112550000Y-39582500D01*
X112437500Y-39470000D01*
X111200000Y-39470000D01*
X111000000Y-39470000D01*
X109762500Y-39470000D01*
X109650000Y-39582500D01*
X109647823Y-41270000D01*
X108100000Y-41270000D01*
X108100000Y-37470000D01*
X109647823Y-37470000D01*
X109650000Y-39157500D01*
X109762500Y-39270000D01*
X111000000Y-39270000D01*
X111000000Y-37132500D01*
X111200000Y-37132500D01*
X111200000Y-39270000D01*
X112437500Y-39270000D01*
X112550000Y-39157500D01*
X112552177Y-37470000D01*
X112543489Y-37381785D01*
X112517757Y-37296959D01*
X112475971Y-37218784D01*
X112419737Y-37150263D01*
X112351216Y-37094029D01*
X112273041Y-37052243D01*
X112188215Y-37026511D01*
X112100000Y-37017823D01*
X111312500Y-37020000D01*
X111200000Y-37132500D01*
X111000000Y-37132500D01*
X110887500Y-37020000D01*
X110100000Y-37017823D01*
X110011785Y-37026511D01*
X109926959Y-37052243D01*
X109848784Y-37094029D01*
X109780263Y-37150263D01*
X109724029Y-37218784D01*
X109682243Y-37296959D01*
X109656511Y-37381785D01*
X109647823Y-37470000D01*
X108100000Y-37470000D01*
X108100000Y-35710000D01*
X112880000Y-35710000D01*
X112880000Y-45657868D01*
%TD*%
M02*
