M48
; DRILL file {KiCad (5.1.6)-1} date 11/10/20 02:07:58
; FORMAT={-:-/ absolute / metric / decimal}
; #@! TF.CreationDate,2020-11-10T02:07:58+03:00
; #@! TF.GenerationSoftware,Kicad,Pcbnew,(5.1.6)-1
; #@! TF.FileFunction,Plated,1,2,PTH
FMAT,2
METRIC
T1C0.400
T2C0.800
T3C0.950
T4C1.000
%
G90
G05
T1
X95.25Y-35.56
X97.79Y-35.56
X100.33Y-35.56
X115.57Y-35.56
X115.57Y-43.18
X116.84Y-54.61
X116.84Y-57.15
X118.11Y-35.56
X120.65Y-35.56
X120.65Y-40.857
X121.92Y-59.69
X121.92Y-72.39
X121.92Y-73.66
X121.92Y-74.93
X126.746Y-65.024
X127.0Y-80.01
T2
X133.35Y-48.26
X136.85Y-48.26
X103.922Y-53.42
X103.922Y-58.42
X117.15Y-48.26
X120.65Y-48.26
X113.03Y-68.58
X113.03Y-72.08
X103.922Y-69.85
X103.922Y-74.85
T3
X96.52Y-62.23
X96.52Y-64.73
X96.52Y-67.23
X147.32Y-58.42
X147.32Y-60.92
X147.32Y-63.42
X147.32Y-65.92
X147.32Y-68.42
X147.32Y-70.92
T4
X96.52Y-45.72
X96.52Y-48.22
T0
M30
