%TF.GenerationSoftware,KiCad,Pcbnew,(5.1.6)-1*%
%TF.CreationDate,2020-11-10T02:08:11+03:00*%
%TF.ProjectId,dac-001s,6461632d-3030-4317-932e-6b696361645f,rev?*%
%TF.SameCoordinates,Original*%
%TF.FileFunction,Copper,L2,Bot*%
%TF.FilePolarity,Positive*%
%FSLAX46Y46*%
G04 Gerber Fmt 4.6, Leading zero omitted, Abs format (unit mm)*
G04 Created by KiCad (PCBNEW (5.1.6)-1) date 2020-11-10 02:08:11*
%MOMM*%
%LPD*%
G01*
G04 APERTURE LIST*
%TA.AperFunction,ComponentPad*%
%ADD10O,1.950000X1.700000*%
%TD*%
%TA.AperFunction,ComponentPad*%
%ADD11O,2.000000X1.700000*%
%TD*%
%TA.AperFunction,ComponentPad*%
%ADD12C,1.600000*%
%TD*%
%TA.AperFunction,ComponentPad*%
%ADD13R,1.600000X1.600000*%
%TD*%
%TA.AperFunction,ViaPad*%
%ADD14C,0.800000*%
%TD*%
%TA.AperFunction,Conductor*%
%ADD15C,1.200000*%
%TD*%
%TA.AperFunction,Conductor*%
%ADD16C,0.300000*%
%TD*%
G04 APERTURE END LIST*
D10*
%TO.P,J3,6*%
%TO.N,MCK*%
X147320000Y-70920000D03*
%TO.P,J3,5*%
%TO.N,CK*%
X147320000Y-68420000D03*
%TO.P,J3,4*%
%TO.N,SD*%
X147320000Y-65920000D03*
%TO.P,J3,3*%
%TO.N,WS*%
X147320000Y-63420000D03*
%TO.P,J3,2*%
%TO.N,GNDD*%
X147320000Y-60920000D03*
%TO.P,J3,1*%
%TO.N,+3V3*%
%TA.AperFunction,ComponentPad*%
G36*
G01*
X146595000Y-57570000D02*
X148045000Y-57570000D01*
G75*
G02*
X148295000Y-57820000I0J-250000D01*
G01*
X148295000Y-59020000D01*
G75*
G02*
X148045000Y-59270000I-250000J0D01*
G01*
X146595000Y-59270000D01*
G75*
G02*
X146345000Y-59020000I0J250000D01*
G01*
X146345000Y-57820000D01*
G75*
G02*
X146595000Y-57570000I250000J0D01*
G01*
G37*
%TD.AperFunction*%
%TD*%
%TO.P,J2,3*%
%TO.N,OUTR*%
X96520000Y-67230000D03*
%TO.P,J2,2*%
%TO.N,GNDA*%
X96520000Y-64730000D03*
%TO.P,J2,1*%
%TO.N,OUTL*%
%TA.AperFunction,ComponentPad*%
G36*
G01*
X95795000Y-61380000D02*
X97245000Y-61380000D01*
G75*
G02*
X97495000Y-61630000I0J-250000D01*
G01*
X97495000Y-62830000D01*
G75*
G02*
X97245000Y-63080000I-250000J0D01*
G01*
X95795000Y-63080000D01*
G75*
G02*
X95545000Y-62830000I0J250000D01*
G01*
X95545000Y-61630000D01*
G75*
G02*
X95795000Y-61380000I250000J0D01*
G01*
G37*
%TD.AperFunction*%
%TD*%
D11*
%TO.P,J1,2*%
%TO.N,GNDA*%
X96520000Y-48220000D03*
%TO.P,J1,1*%
%TO.N,+5VA*%
%TA.AperFunction,ComponentPad*%
G36*
G01*
X95770000Y-44870000D02*
X97270000Y-44870000D01*
G75*
G02*
X97520000Y-45120000I0J-250000D01*
G01*
X97520000Y-46320000D01*
G75*
G02*
X97270000Y-46570000I-250000J0D01*
G01*
X95770000Y-46570000D01*
G75*
G02*
X95520000Y-46320000I0J250000D01*
G01*
X95520000Y-45120000D01*
G75*
G02*
X95770000Y-44870000I250000J0D01*
G01*
G37*
%TD.AperFunction*%
%TD*%
D12*
%TO.P,C1,2*%
%TO.N,GNDD*%
X136850000Y-48260000D03*
D13*
%TO.P,C1,1*%
%TO.N,+3V3*%
X133350000Y-48260000D03*
%TD*%
D12*
%TO.P,C11,2*%
%TO.N,GNDA*%
X103922500Y-74850000D03*
%TO.P,C11,1*%
%TO.N,OUTR*%
X103922500Y-69850000D03*
%TD*%
%TO.P,C9,2*%
%TO.N,GNDA*%
X103922500Y-53420000D03*
%TO.P,C9,1*%
%TO.N,OUTL*%
X103922500Y-58420000D03*
%TD*%
%TO.P,C8,2*%
%TO.N,GNDA*%
X113030000Y-72080000D03*
D13*
%TO.P,C8,1*%
%TO.N,+3.3VA*%
X113030000Y-68580000D03*
%TD*%
D12*
%TO.P,C5,2*%
%TO.N,GNDA*%
X117150000Y-48260000D03*
D13*
%TO.P,C5,1*%
%TO.N,+3.3VA*%
X120650000Y-48260000D03*
%TD*%
D14*
%TO.N,GNDA*%
X127000000Y-80010000D03*
X115570000Y-35560000D03*
X118110000Y-35560000D03*
X120650000Y-35560000D03*
X100330000Y-35560000D03*
X97790000Y-35560000D03*
X95250000Y-35560000D03*
X121920000Y-59690000D03*
X121920000Y-72390000D03*
X121920000Y-73660000D03*
X121920000Y-74930000D03*
X116840000Y-54610000D03*
X116840000Y-57150000D03*
X126746000Y-65024000D03*
%TO.N,+3.3VA*%
X115570000Y-43180000D03*
X120650000Y-40857500D03*
%TD*%
D15*
%TO.N,+3.3VA*%
X120650000Y-48260000D02*
X120650000Y-45720000D01*
X118110000Y-43180000D02*
X115570000Y-43180000D01*
X120650000Y-45720000D02*
X118110000Y-43180000D01*
X113030000Y-64770000D02*
X113030000Y-68580000D01*
X120650000Y-57150000D02*
X113030000Y-64770000D01*
X120650000Y-40857500D02*
X125512500Y-45720000D01*
X120650000Y-57150000D02*
X124460000Y-53340000D01*
X125512500Y-52287500D02*
X124460000Y-53340000D01*
X125512500Y-45720000D02*
X125512500Y-52287500D01*
%TD*%
D16*
%TO.N,GNDA*%
G36*
X155850000Y-81850000D02*
G01*
X88150000Y-81850000D01*
X88150000Y-78798093D01*
X88950000Y-78798093D01*
X88950000Y-79201907D01*
X89028780Y-79597963D01*
X89183314Y-79971039D01*
X89407661Y-80306799D01*
X89693201Y-80592339D01*
X90028961Y-80816686D01*
X90402037Y-80971220D01*
X90798093Y-81050000D01*
X91201907Y-81050000D01*
X91597963Y-80971220D01*
X91971039Y-80816686D01*
X92306799Y-80592339D01*
X92592339Y-80306799D01*
X92816686Y-79971039D01*
X92971220Y-79597963D01*
X93050000Y-79201907D01*
X93050000Y-78798093D01*
X150950000Y-78798093D01*
X150950000Y-79201907D01*
X151028780Y-79597963D01*
X151183314Y-79971039D01*
X151407661Y-80306799D01*
X151693201Y-80592339D01*
X152028961Y-80816686D01*
X152402037Y-80971220D01*
X152798093Y-81050000D01*
X153201907Y-81050000D01*
X153597963Y-80971220D01*
X153971039Y-80816686D01*
X154306799Y-80592339D01*
X154592339Y-80306799D01*
X154816686Y-79971039D01*
X154971220Y-79597963D01*
X155050000Y-79201907D01*
X155050000Y-78798093D01*
X154971220Y-78402037D01*
X154816686Y-78028961D01*
X154592339Y-77693201D01*
X154306799Y-77407661D01*
X153971039Y-77183314D01*
X153597963Y-77028780D01*
X153201907Y-76950000D01*
X152798093Y-76950000D01*
X152402037Y-77028780D01*
X152028961Y-77183314D01*
X151693201Y-77407661D01*
X151407661Y-77693201D01*
X151183314Y-78028961D01*
X151028780Y-78402037D01*
X150950000Y-78798093D01*
X93050000Y-78798093D01*
X92971220Y-78402037D01*
X92816686Y-78028961D01*
X92592339Y-77693201D01*
X92306799Y-77407661D01*
X91971039Y-77183314D01*
X91597963Y-77028780D01*
X91201907Y-76950000D01*
X90798093Y-76950000D01*
X90402037Y-77028780D01*
X90028961Y-77183314D01*
X89693201Y-77407661D01*
X89407661Y-77693201D01*
X89183314Y-78028961D01*
X89028780Y-78402037D01*
X88950000Y-78798093D01*
X88150000Y-78798093D01*
X88150000Y-75726223D01*
X103187698Y-75726223D01*
X103267458Y-75921717D01*
X103489126Y-76028917D01*
X103727448Y-76090812D01*
X103973266Y-76105023D01*
X104217133Y-76071004D01*
X104449678Y-75990063D01*
X104577542Y-75921717D01*
X104657302Y-75726223D01*
X103922500Y-74991421D01*
X103187698Y-75726223D01*
X88150000Y-75726223D01*
X88150000Y-74900766D01*
X102667477Y-74900766D01*
X102701496Y-75144633D01*
X102782437Y-75377178D01*
X102850783Y-75505042D01*
X103046277Y-75584802D01*
X103781079Y-74850000D01*
X104063921Y-74850000D01*
X104798723Y-75584802D01*
X104994217Y-75505042D01*
X105101417Y-75283374D01*
X105163312Y-75045052D01*
X105177523Y-74799234D01*
X105143504Y-74555367D01*
X105062563Y-74322822D01*
X104994217Y-74194958D01*
X104798723Y-74115198D01*
X104063921Y-74850000D01*
X103781079Y-74850000D01*
X103046277Y-74115198D01*
X102850783Y-74194958D01*
X102743583Y-74416626D01*
X102681688Y-74654948D01*
X102667477Y-74900766D01*
X88150000Y-74900766D01*
X88150000Y-73973777D01*
X103187698Y-73973777D01*
X103922500Y-74708579D01*
X104657302Y-73973777D01*
X104577542Y-73778283D01*
X104355874Y-73671083D01*
X104117552Y-73609188D01*
X103871734Y-73594977D01*
X103627867Y-73628996D01*
X103395322Y-73709937D01*
X103267458Y-73778283D01*
X103187698Y-73973777D01*
X88150000Y-73973777D01*
X88150000Y-72956223D01*
X112295198Y-72956223D01*
X112374958Y-73151717D01*
X112596626Y-73258917D01*
X112834948Y-73320812D01*
X113080766Y-73335023D01*
X113324633Y-73301004D01*
X113557178Y-73220063D01*
X113685042Y-73151717D01*
X113764802Y-72956223D01*
X113030000Y-72221421D01*
X112295198Y-72956223D01*
X88150000Y-72956223D01*
X88150000Y-72130766D01*
X111774977Y-72130766D01*
X111808996Y-72374633D01*
X111889937Y-72607178D01*
X111958283Y-72735042D01*
X112153777Y-72814802D01*
X112888579Y-72080000D01*
X113171421Y-72080000D01*
X113906223Y-72814802D01*
X114101717Y-72735042D01*
X114208917Y-72513374D01*
X114270812Y-72275052D01*
X114285023Y-72029234D01*
X114251004Y-71785367D01*
X114170063Y-71552822D01*
X114101717Y-71424958D01*
X113906223Y-71345198D01*
X113171421Y-72080000D01*
X112888579Y-72080000D01*
X112153777Y-71345198D01*
X111958283Y-71424958D01*
X111851083Y-71646626D01*
X111789188Y-71884948D01*
X111774977Y-72130766D01*
X88150000Y-72130766D01*
X88150000Y-71203777D01*
X112295198Y-71203777D01*
X113030000Y-71938579D01*
X113764802Y-71203777D01*
X113685042Y-71008283D01*
X113463374Y-70901083D01*
X113225052Y-70839188D01*
X112979234Y-70824977D01*
X112735367Y-70858996D01*
X112502822Y-70939937D01*
X112374958Y-71008283D01*
X112295198Y-71203777D01*
X88150000Y-71203777D01*
X88150000Y-69726886D01*
X102672500Y-69726886D01*
X102672500Y-69973114D01*
X102720537Y-70214611D01*
X102814765Y-70442097D01*
X102951562Y-70646828D01*
X103125672Y-70820938D01*
X103330403Y-70957735D01*
X103557889Y-71051963D01*
X103799386Y-71100000D01*
X104045614Y-71100000D01*
X104287111Y-71051963D01*
X104514597Y-70957735D01*
X104719328Y-70820938D01*
X104893438Y-70646828D01*
X105030235Y-70442097D01*
X105124463Y-70214611D01*
X105172500Y-69973114D01*
X105172500Y-69726886D01*
X105124463Y-69485389D01*
X105030235Y-69257903D01*
X104893438Y-69053172D01*
X104719328Y-68879062D01*
X104514597Y-68742265D01*
X104287111Y-68648037D01*
X104045614Y-68600000D01*
X103799386Y-68600000D01*
X103557889Y-68648037D01*
X103330403Y-68742265D01*
X103125672Y-68879062D01*
X102951562Y-69053172D01*
X102814765Y-69257903D01*
X102720537Y-69485389D01*
X102672500Y-69726886D01*
X88150000Y-69726886D01*
X88150000Y-67230000D01*
X95088710Y-67230000D01*
X95113810Y-67484845D01*
X95188145Y-67729896D01*
X95308860Y-67955736D01*
X95471313Y-68153687D01*
X95669264Y-68316140D01*
X95895104Y-68436855D01*
X96140155Y-68511190D01*
X96331136Y-68530000D01*
X96708864Y-68530000D01*
X96899845Y-68511190D01*
X97144896Y-68436855D01*
X97370736Y-68316140D01*
X97568687Y-68153687D01*
X97731140Y-67955736D01*
X97825073Y-67780000D01*
X111777823Y-67780000D01*
X111777823Y-69380000D01*
X111786511Y-69468215D01*
X111812243Y-69553041D01*
X111854029Y-69631216D01*
X111910263Y-69699737D01*
X111978784Y-69755971D01*
X112056959Y-69797757D01*
X112141785Y-69823489D01*
X112230000Y-69832177D01*
X113830000Y-69832177D01*
X113918215Y-69823489D01*
X114003041Y-69797757D01*
X114081216Y-69755971D01*
X114149737Y-69699737D01*
X114205971Y-69631216D01*
X114247757Y-69553041D01*
X114273489Y-69468215D01*
X114282177Y-69380000D01*
X114282177Y-67780000D01*
X114273489Y-67691785D01*
X114247757Y-67606959D01*
X114205971Y-67528784D01*
X114149737Y-67460263D01*
X114081216Y-67404029D01*
X114080000Y-67403379D01*
X114080000Y-65204923D01*
X118364924Y-60920000D01*
X145888710Y-60920000D01*
X145913810Y-61174845D01*
X145988145Y-61419896D01*
X146108860Y-61645736D01*
X146271313Y-61843687D01*
X146469264Y-62006140D01*
X146695104Y-62126855D01*
X146837335Y-62170000D01*
X146695104Y-62213145D01*
X146469264Y-62333860D01*
X146271313Y-62496313D01*
X146108860Y-62694264D01*
X145988145Y-62920104D01*
X145913810Y-63165155D01*
X145888710Y-63420000D01*
X145913810Y-63674845D01*
X145988145Y-63919896D01*
X146108860Y-64145736D01*
X146271313Y-64343687D01*
X146469264Y-64506140D01*
X146695104Y-64626855D01*
X146837335Y-64670000D01*
X146695104Y-64713145D01*
X146469264Y-64833860D01*
X146271313Y-64996313D01*
X146108860Y-65194264D01*
X145988145Y-65420104D01*
X145913810Y-65665155D01*
X145888710Y-65920000D01*
X145913810Y-66174845D01*
X145988145Y-66419896D01*
X146108860Y-66645736D01*
X146271313Y-66843687D01*
X146469264Y-67006140D01*
X146695104Y-67126855D01*
X146837335Y-67170000D01*
X146695104Y-67213145D01*
X146469264Y-67333860D01*
X146271313Y-67496313D01*
X146108860Y-67694264D01*
X145988145Y-67920104D01*
X145913810Y-68165155D01*
X145888710Y-68420000D01*
X145913810Y-68674845D01*
X145988145Y-68919896D01*
X146108860Y-69145736D01*
X146271313Y-69343687D01*
X146469264Y-69506140D01*
X146695104Y-69626855D01*
X146837335Y-69670000D01*
X146695104Y-69713145D01*
X146469264Y-69833860D01*
X146271313Y-69996313D01*
X146108860Y-70194264D01*
X145988145Y-70420104D01*
X145913810Y-70665155D01*
X145888710Y-70920000D01*
X145913810Y-71174845D01*
X145988145Y-71419896D01*
X146108860Y-71645736D01*
X146271313Y-71843687D01*
X146469264Y-72006140D01*
X146695104Y-72126855D01*
X146940155Y-72201190D01*
X147131136Y-72220000D01*
X147508864Y-72220000D01*
X147699845Y-72201190D01*
X147944896Y-72126855D01*
X148170736Y-72006140D01*
X148368687Y-71843687D01*
X148531140Y-71645736D01*
X148651855Y-71419896D01*
X148726190Y-71174845D01*
X148751290Y-70920000D01*
X148726190Y-70665155D01*
X148651855Y-70420104D01*
X148531140Y-70194264D01*
X148368687Y-69996313D01*
X148170736Y-69833860D01*
X147944896Y-69713145D01*
X147802665Y-69670000D01*
X147944896Y-69626855D01*
X148170736Y-69506140D01*
X148368687Y-69343687D01*
X148531140Y-69145736D01*
X148651855Y-68919896D01*
X148726190Y-68674845D01*
X148751290Y-68420000D01*
X148726190Y-68165155D01*
X148651855Y-67920104D01*
X148531140Y-67694264D01*
X148368687Y-67496313D01*
X148170736Y-67333860D01*
X147944896Y-67213145D01*
X147802665Y-67170000D01*
X147944896Y-67126855D01*
X148170736Y-67006140D01*
X148368687Y-66843687D01*
X148531140Y-66645736D01*
X148651855Y-66419896D01*
X148726190Y-66174845D01*
X148751290Y-65920000D01*
X148726190Y-65665155D01*
X148651855Y-65420104D01*
X148531140Y-65194264D01*
X148368687Y-64996313D01*
X148170736Y-64833860D01*
X147944896Y-64713145D01*
X147802665Y-64670000D01*
X147944896Y-64626855D01*
X148170736Y-64506140D01*
X148368687Y-64343687D01*
X148531140Y-64145736D01*
X148651855Y-63919896D01*
X148726190Y-63674845D01*
X148751290Y-63420000D01*
X148726190Y-63165155D01*
X148651855Y-62920104D01*
X148531140Y-62694264D01*
X148368687Y-62496313D01*
X148170736Y-62333860D01*
X147944896Y-62213145D01*
X147802665Y-62170000D01*
X147944896Y-62126855D01*
X148170736Y-62006140D01*
X148368687Y-61843687D01*
X148531140Y-61645736D01*
X148651855Y-61419896D01*
X148726190Y-61174845D01*
X148751290Y-60920000D01*
X148726190Y-60665155D01*
X148651855Y-60420104D01*
X148531140Y-60194264D01*
X148368687Y-59996313D01*
X148170736Y-59833860D01*
X147961794Y-59722177D01*
X148045000Y-59722177D01*
X148181988Y-59708685D01*
X148313712Y-59668727D01*
X148435109Y-59603839D01*
X148541514Y-59516514D01*
X148628839Y-59410109D01*
X148693727Y-59288712D01*
X148733685Y-59156988D01*
X148747177Y-59020000D01*
X148747177Y-57820000D01*
X148733685Y-57683012D01*
X148693727Y-57551288D01*
X148628839Y-57429891D01*
X148541514Y-57323486D01*
X148435109Y-57236161D01*
X148313712Y-57171273D01*
X148181988Y-57131315D01*
X148045000Y-57117823D01*
X146595000Y-57117823D01*
X146458012Y-57131315D01*
X146326288Y-57171273D01*
X146204891Y-57236161D01*
X146098486Y-57323486D01*
X146011161Y-57429891D01*
X145946273Y-57551288D01*
X145906315Y-57683012D01*
X145892823Y-57820000D01*
X145892823Y-59020000D01*
X145906315Y-59156988D01*
X145946273Y-59288712D01*
X146011161Y-59410109D01*
X146098486Y-59516514D01*
X146204891Y-59603839D01*
X146326288Y-59668727D01*
X146458012Y-59708685D01*
X146595000Y-59722177D01*
X146678206Y-59722177D01*
X146469264Y-59833860D01*
X146271313Y-59996313D01*
X146108860Y-60194264D01*
X145988145Y-60420104D01*
X145913810Y-60665155D01*
X145888710Y-60920000D01*
X118364924Y-60920000D01*
X121428933Y-57855992D01*
X121428942Y-57855981D01*
X125238933Y-54045991D01*
X125238937Y-54045986D01*
X126218491Y-53066433D01*
X126258554Y-53033554D01*
X126389767Y-52873671D01*
X126487267Y-52691262D01*
X126547307Y-52493336D01*
X126562500Y-52339078D01*
X126562500Y-52339071D01*
X126567579Y-52287500D01*
X126562500Y-52235929D01*
X126562500Y-47460000D01*
X132097823Y-47460000D01*
X132097823Y-49060000D01*
X132106511Y-49148215D01*
X132132243Y-49233041D01*
X132174029Y-49311216D01*
X132230263Y-49379737D01*
X132298784Y-49435971D01*
X132376959Y-49477757D01*
X132461785Y-49503489D01*
X132550000Y-49512177D01*
X134150000Y-49512177D01*
X134238215Y-49503489D01*
X134323041Y-49477757D01*
X134401216Y-49435971D01*
X134469737Y-49379737D01*
X134525971Y-49311216D01*
X134567757Y-49233041D01*
X134593489Y-49148215D01*
X134602177Y-49060000D01*
X134602177Y-48136886D01*
X135600000Y-48136886D01*
X135600000Y-48383114D01*
X135648037Y-48624611D01*
X135742265Y-48852097D01*
X135879062Y-49056828D01*
X136053172Y-49230938D01*
X136257903Y-49367735D01*
X136485389Y-49461963D01*
X136726886Y-49510000D01*
X136973114Y-49510000D01*
X137214611Y-49461963D01*
X137442097Y-49367735D01*
X137646828Y-49230938D01*
X137820938Y-49056828D01*
X137957735Y-48852097D01*
X138051963Y-48624611D01*
X138100000Y-48383114D01*
X138100000Y-48136886D01*
X138051963Y-47895389D01*
X137957735Y-47667903D01*
X137820938Y-47463172D01*
X137646828Y-47289062D01*
X137442097Y-47152265D01*
X137214611Y-47058037D01*
X136973114Y-47010000D01*
X136726886Y-47010000D01*
X136485389Y-47058037D01*
X136257903Y-47152265D01*
X136053172Y-47289062D01*
X135879062Y-47463172D01*
X135742265Y-47667903D01*
X135648037Y-47895389D01*
X135600000Y-48136886D01*
X134602177Y-48136886D01*
X134602177Y-47460000D01*
X134593489Y-47371785D01*
X134567757Y-47286959D01*
X134525971Y-47208784D01*
X134469737Y-47140263D01*
X134401216Y-47084029D01*
X134323041Y-47042243D01*
X134238215Y-47016511D01*
X134150000Y-47007823D01*
X132550000Y-47007823D01*
X132461785Y-47016511D01*
X132376959Y-47042243D01*
X132298784Y-47084029D01*
X132230263Y-47140263D01*
X132174029Y-47208784D01*
X132132243Y-47286959D01*
X132106511Y-47371785D01*
X132097823Y-47460000D01*
X126562500Y-47460000D01*
X126562500Y-45771567D01*
X126567579Y-45719999D01*
X126562500Y-45668431D01*
X126562500Y-45668422D01*
X126547307Y-45514164D01*
X126487267Y-45316238D01*
X126389767Y-45133829D01*
X126258554Y-44973946D01*
X126218491Y-44941067D01*
X121355990Y-40078567D01*
X121236171Y-39980233D01*
X121053761Y-39882733D01*
X120855835Y-39822694D01*
X120650000Y-39802421D01*
X120444165Y-39822694D01*
X120246239Y-39882733D01*
X120063829Y-39980233D01*
X119903946Y-40111446D01*
X119772733Y-40271329D01*
X119675233Y-40453739D01*
X119615194Y-40651665D01*
X119594921Y-40857500D01*
X119615194Y-41063335D01*
X119675233Y-41261261D01*
X119772733Y-41443671D01*
X119871067Y-41563490D01*
X124462500Y-46154924D01*
X124462501Y-51852575D01*
X123754014Y-52561063D01*
X123754009Y-52561067D01*
X119944019Y-56371058D01*
X119944008Y-56371067D01*
X112324014Y-63991063D01*
X112283946Y-64023946D01*
X112152733Y-64183829D01*
X112055233Y-64366239D01*
X111995193Y-64564165D01*
X111980000Y-64718423D01*
X111980000Y-64718432D01*
X111974921Y-64770000D01*
X111980000Y-64821568D01*
X111980001Y-67403379D01*
X111978784Y-67404029D01*
X111910263Y-67460263D01*
X111854029Y-67528784D01*
X111812243Y-67606959D01*
X111786511Y-67691785D01*
X111777823Y-67780000D01*
X97825073Y-67780000D01*
X97851855Y-67729896D01*
X97926190Y-67484845D01*
X97951290Y-67230000D01*
X97926190Y-66975155D01*
X97851855Y-66730104D01*
X97731140Y-66504264D01*
X97568687Y-66306313D01*
X97370736Y-66143860D01*
X97144896Y-66023145D01*
X96995012Y-65977679D01*
X97071830Y-65959202D01*
X97303434Y-65852313D01*
X97509735Y-65702294D01*
X97682805Y-65514910D01*
X97815992Y-65297362D01*
X97904179Y-65058011D01*
X97909547Y-65031531D01*
X97828282Y-64830000D01*
X96620000Y-64830000D01*
X96620000Y-64850000D01*
X96420000Y-64850000D01*
X96420000Y-64830000D01*
X95211718Y-64830000D01*
X95130453Y-65031531D01*
X95135821Y-65058011D01*
X95224008Y-65297362D01*
X95357195Y-65514910D01*
X95530265Y-65702294D01*
X95736566Y-65852313D01*
X95968170Y-65959202D01*
X96044988Y-65977679D01*
X95895104Y-66023145D01*
X95669264Y-66143860D01*
X95471313Y-66306313D01*
X95308860Y-66504264D01*
X95188145Y-66730104D01*
X95113810Y-66975155D01*
X95088710Y-67230000D01*
X88150000Y-67230000D01*
X88150000Y-61630000D01*
X95092823Y-61630000D01*
X95092823Y-62830000D01*
X95106315Y-62966988D01*
X95146273Y-63098712D01*
X95211161Y-63220109D01*
X95298486Y-63326514D01*
X95404891Y-63413839D01*
X95526288Y-63478727D01*
X95658012Y-63518685D01*
X95795000Y-63532177D01*
X95900179Y-63532177D01*
X95736566Y-63607687D01*
X95530265Y-63757706D01*
X95357195Y-63945090D01*
X95224008Y-64162638D01*
X95135821Y-64401989D01*
X95130453Y-64428469D01*
X95211718Y-64630000D01*
X96420000Y-64630000D01*
X96420000Y-64610000D01*
X96620000Y-64610000D01*
X96620000Y-64630000D01*
X97828282Y-64630000D01*
X97909547Y-64428469D01*
X97904179Y-64401989D01*
X97815992Y-64162638D01*
X97682805Y-63945090D01*
X97509735Y-63757706D01*
X97303434Y-63607687D01*
X97139821Y-63532177D01*
X97245000Y-63532177D01*
X97381988Y-63518685D01*
X97513712Y-63478727D01*
X97635109Y-63413839D01*
X97741514Y-63326514D01*
X97828839Y-63220109D01*
X97893727Y-63098712D01*
X97933685Y-62966988D01*
X97947177Y-62830000D01*
X97947177Y-61630000D01*
X97933685Y-61493012D01*
X97893727Y-61361288D01*
X97828839Y-61239891D01*
X97741514Y-61133486D01*
X97635109Y-61046161D01*
X97513712Y-60981273D01*
X97381988Y-60941315D01*
X97245000Y-60927823D01*
X95795000Y-60927823D01*
X95658012Y-60941315D01*
X95526288Y-60981273D01*
X95404891Y-61046161D01*
X95298486Y-61133486D01*
X95211161Y-61239891D01*
X95146273Y-61361288D01*
X95106315Y-61493012D01*
X95092823Y-61630000D01*
X88150000Y-61630000D01*
X88150000Y-58296886D01*
X102672500Y-58296886D01*
X102672500Y-58543114D01*
X102720537Y-58784611D01*
X102814765Y-59012097D01*
X102951562Y-59216828D01*
X103125672Y-59390938D01*
X103330403Y-59527735D01*
X103557889Y-59621963D01*
X103799386Y-59670000D01*
X104045614Y-59670000D01*
X104287111Y-59621963D01*
X104514597Y-59527735D01*
X104719328Y-59390938D01*
X104893438Y-59216828D01*
X105030235Y-59012097D01*
X105124463Y-58784611D01*
X105172500Y-58543114D01*
X105172500Y-58296886D01*
X105124463Y-58055389D01*
X105030235Y-57827903D01*
X104893438Y-57623172D01*
X104719328Y-57449062D01*
X104514597Y-57312265D01*
X104287111Y-57218037D01*
X104045614Y-57170000D01*
X103799386Y-57170000D01*
X103557889Y-57218037D01*
X103330403Y-57312265D01*
X103125672Y-57449062D01*
X102951562Y-57623172D01*
X102814765Y-57827903D01*
X102720537Y-58055389D01*
X102672500Y-58296886D01*
X88150000Y-58296886D01*
X88150000Y-54296223D01*
X103187698Y-54296223D01*
X103267458Y-54491717D01*
X103489126Y-54598917D01*
X103727448Y-54660812D01*
X103973266Y-54675023D01*
X104217133Y-54641004D01*
X104449678Y-54560063D01*
X104577542Y-54491717D01*
X104657302Y-54296223D01*
X103922500Y-53561421D01*
X103187698Y-54296223D01*
X88150000Y-54296223D01*
X88150000Y-53470766D01*
X102667477Y-53470766D01*
X102701496Y-53714633D01*
X102782437Y-53947178D01*
X102850783Y-54075042D01*
X103046277Y-54154802D01*
X103781079Y-53420000D01*
X104063921Y-53420000D01*
X104798723Y-54154802D01*
X104994217Y-54075042D01*
X105101417Y-53853374D01*
X105163312Y-53615052D01*
X105177523Y-53369234D01*
X105143504Y-53125367D01*
X105062563Y-52892822D01*
X104994217Y-52764958D01*
X104798723Y-52685198D01*
X104063921Y-53420000D01*
X103781079Y-53420000D01*
X103046277Y-52685198D01*
X102850783Y-52764958D01*
X102743583Y-52986626D01*
X102681688Y-53224948D01*
X102667477Y-53470766D01*
X88150000Y-53470766D01*
X88150000Y-52543777D01*
X103187698Y-52543777D01*
X103922500Y-53278579D01*
X104657302Y-52543777D01*
X104577542Y-52348283D01*
X104355874Y-52241083D01*
X104117552Y-52179188D01*
X103871734Y-52164977D01*
X103627867Y-52198996D01*
X103395322Y-52279937D01*
X103267458Y-52348283D01*
X103187698Y-52543777D01*
X88150000Y-52543777D01*
X88150000Y-48521531D01*
X95105453Y-48521531D01*
X95115726Y-48572544D01*
X95208604Y-48810467D01*
X95346114Y-49025699D01*
X95522972Y-49209968D01*
X95732381Y-49356193D01*
X95966293Y-49458755D01*
X96215719Y-49513712D01*
X96420000Y-49409419D01*
X96420000Y-48320000D01*
X96620000Y-48320000D01*
X96620000Y-49409419D01*
X96824281Y-49513712D01*
X97073707Y-49458755D01*
X97307619Y-49356193D01*
X97517028Y-49209968D01*
X97587807Y-49136223D01*
X116415198Y-49136223D01*
X116494958Y-49331717D01*
X116716626Y-49438917D01*
X116954948Y-49500812D01*
X117200766Y-49515023D01*
X117444633Y-49481004D01*
X117677178Y-49400063D01*
X117805042Y-49331717D01*
X117884802Y-49136223D01*
X117150000Y-48401421D01*
X116415198Y-49136223D01*
X97587807Y-49136223D01*
X97693886Y-49025699D01*
X97831396Y-48810467D01*
X97924274Y-48572544D01*
X97934547Y-48521531D01*
X97853282Y-48320000D01*
X96620000Y-48320000D01*
X96420000Y-48320000D01*
X95186718Y-48320000D01*
X95105453Y-48521531D01*
X88150000Y-48521531D01*
X88150000Y-48310766D01*
X115894977Y-48310766D01*
X115928996Y-48554633D01*
X116009937Y-48787178D01*
X116078283Y-48915042D01*
X116273777Y-48994802D01*
X117008579Y-48260000D01*
X117291421Y-48260000D01*
X118026223Y-48994802D01*
X118221717Y-48915042D01*
X118328917Y-48693374D01*
X118390812Y-48455052D01*
X118405023Y-48209234D01*
X118371004Y-47965367D01*
X118290063Y-47732822D01*
X118221717Y-47604958D01*
X118026223Y-47525198D01*
X117291421Y-48260000D01*
X117008579Y-48260000D01*
X116273777Y-47525198D01*
X116078283Y-47604958D01*
X115971083Y-47826626D01*
X115909188Y-48064948D01*
X115894977Y-48310766D01*
X88150000Y-48310766D01*
X88150000Y-45120000D01*
X95067823Y-45120000D01*
X95067823Y-46320000D01*
X95081315Y-46456988D01*
X95121273Y-46588712D01*
X95186161Y-46710109D01*
X95273486Y-46816514D01*
X95379891Y-46903839D01*
X95501288Y-46968727D01*
X95633012Y-47008685D01*
X95770000Y-47022177D01*
X95872940Y-47022177D01*
X95732381Y-47083807D01*
X95522972Y-47230032D01*
X95346114Y-47414301D01*
X95208604Y-47629533D01*
X95115726Y-47867456D01*
X95105453Y-47918469D01*
X95186718Y-48120000D01*
X96420000Y-48120000D01*
X96420000Y-48100000D01*
X96620000Y-48100000D01*
X96620000Y-48120000D01*
X97853282Y-48120000D01*
X97934547Y-47918469D01*
X97924274Y-47867456D01*
X97831396Y-47629533D01*
X97693886Y-47414301D01*
X97664590Y-47383777D01*
X116415198Y-47383777D01*
X117150000Y-48118579D01*
X117884802Y-47383777D01*
X117805042Y-47188283D01*
X117583374Y-47081083D01*
X117345052Y-47019188D01*
X117099234Y-47004977D01*
X116855367Y-47038996D01*
X116622822Y-47119937D01*
X116494958Y-47188283D01*
X116415198Y-47383777D01*
X97664590Y-47383777D01*
X97517028Y-47230032D01*
X97307619Y-47083807D01*
X97167060Y-47022177D01*
X97270000Y-47022177D01*
X97406988Y-47008685D01*
X97538712Y-46968727D01*
X97660109Y-46903839D01*
X97766514Y-46816514D01*
X97853839Y-46710109D01*
X97918727Y-46588712D01*
X97958685Y-46456988D01*
X97972177Y-46320000D01*
X97972177Y-45120000D01*
X97958685Y-44983012D01*
X97918727Y-44851288D01*
X97853839Y-44729891D01*
X97766514Y-44623486D01*
X97660109Y-44536161D01*
X97538712Y-44471273D01*
X97406988Y-44431315D01*
X97270000Y-44417823D01*
X95770000Y-44417823D01*
X95633012Y-44431315D01*
X95501288Y-44471273D01*
X95379891Y-44536161D01*
X95273486Y-44623486D01*
X95186161Y-44729891D01*
X95121273Y-44851288D01*
X95081315Y-44983012D01*
X95067823Y-45120000D01*
X88150000Y-45120000D01*
X88150000Y-43180000D01*
X114514920Y-43180000D01*
X114535193Y-43385836D01*
X114595233Y-43583762D01*
X114692733Y-43766171D01*
X114823946Y-43926054D01*
X114983829Y-44057267D01*
X115166238Y-44154767D01*
X115364164Y-44214807D01*
X115518422Y-44230000D01*
X117675077Y-44230000D01*
X119600001Y-46154925D01*
X119600000Y-47083379D01*
X119598784Y-47084029D01*
X119530263Y-47140263D01*
X119474029Y-47208784D01*
X119432243Y-47286959D01*
X119406511Y-47371785D01*
X119397823Y-47460000D01*
X119397823Y-49060000D01*
X119406511Y-49148215D01*
X119432243Y-49233041D01*
X119474029Y-49311216D01*
X119530263Y-49379737D01*
X119598784Y-49435971D01*
X119676959Y-49477757D01*
X119761785Y-49503489D01*
X119850000Y-49512177D01*
X121450000Y-49512177D01*
X121538215Y-49503489D01*
X121623041Y-49477757D01*
X121701216Y-49435971D01*
X121769737Y-49379737D01*
X121825971Y-49311216D01*
X121867757Y-49233041D01*
X121893489Y-49148215D01*
X121902177Y-49060000D01*
X121902177Y-47460000D01*
X121893489Y-47371785D01*
X121867757Y-47286959D01*
X121825971Y-47208784D01*
X121769737Y-47140263D01*
X121701216Y-47084029D01*
X121700000Y-47083379D01*
X121700000Y-45771567D01*
X121705079Y-45719999D01*
X121700000Y-45668431D01*
X121700000Y-45668422D01*
X121684807Y-45514164D01*
X121624767Y-45316238D01*
X121527267Y-45133829D01*
X121396054Y-44973946D01*
X121355991Y-44941067D01*
X118888937Y-42474014D01*
X118856054Y-42433946D01*
X118696171Y-42302733D01*
X118513762Y-42205233D01*
X118315836Y-42145193D01*
X118161578Y-42130000D01*
X118161568Y-42130000D01*
X118110000Y-42124921D01*
X118058432Y-42130000D01*
X115518422Y-42130000D01*
X115364164Y-42145193D01*
X115166238Y-42205233D01*
X114983829Y-42302733D01*
X114823946Y-42433946D01*
X114692733Y-42593829D01*
X114595233Y-42776238D01*
X114535193Y-42974164D01*
X114514920Y-43180000D01*
X88150000Y-43180000D01*
X88150000Y-36798093D01*
X88950000Y-36798093D01*
X88950000Y-37201907D01*
X89028780Y-37597963D01*
X89183314Y-37971039D01*
X89407661Y-38306799D01*
X89693201Y-38592339D01*
X90028961Y-38816686D01*
X90402037Y-38971220D01*
X90798093Y-39050000D01*
X91201907Y-39050000D01*
X91597963Y-38971220D01*
X91971039Y-38816686D01*
X92306799Y-38592339D01*
X92592339Y-38306799D01*
X92816686Y-37971039D01*
X92971220Y-37597963D01*
X93050000Y-37201907D01*
X93050000Y-36798093D01*
X150950000Y-36798093D01*
X150950000Y-37201907D01*
X151028780Y-37597963D01*
X151183314Y-37971039D01*
X151407661Y-38306799D01*
X151693201Y-38592339D01*
X152028961Y-38816686D01*
X152402037Y-38971220D01*
X152798093Y-39050000D01*
X153201907Y-39050000D01*
X153597963Y-38971220D01*
X153971039Y-38816686D01*
X154306799Y-38592339D01*
X154592339Y-38306799D01*
X154816686Y-37971039D01*
X154971220Y-37597963D01*
X155050000Y-37201907D01*
X155050000Y-36798093D01*
X154971220Y-36402037D01*
X154816686Y-36028961D01*
X154592339Y-35693201D01*
X154306799Y-35407661D01*
X153971039Y-35183314D01*
X153597963Y-35028780D01*
X153201907Y-34950000D01*
X152798093Y-34950000D01*
X152402037Y-35028780D01*
X152028961Y-35183314D01*
X151693201Y-35407661D01*
X151407661Y-35693201D01*
X151183314Y-36028961D01*
X151028780Y-36402037D01*
X150950000Y-36798093D01*
X93050000Y-36798093D01*
X92971220Y-36402037D01*
X92816686Y-36028961D01*
X92592339Y-35693201D01*
X92306799Y-35407661D01*
X91971039Y-35183314D01*
X91597963Y-35028780D01*
X91201907Y-34950000D01*
X90798093Y-34950000D01*
X90402037Y-35028780D01*
X90028961Y-35183314D01*
X89693201Y-35407661D01*
X89407661Y-35693201D01*
X89183314Y-36028961D01*
X89028780Y-36402037D01*
X88950000Y-36798093D01*
X88150000Y-36798093D01*
X88150000Y-34150000D01*
X155850000Y-34150000D01*
X155850000Y-81850000D01*
G37*
X155850000Y-81850000D02*
X88150000Y-81850000D01*
X88150000Y-78798093D01*
X88950000Y-78798093D01*
X88950000Y-79201907D01*
X89028780Y-79597963D01*
X89183314Y-79971039D01*
X89407661Y-80306799D01*
X89693201Y-80592339D01*
X90028961Y-80816686D01*
X90402037Y-80971220D01*
X90798093Y-81050000D01*
X91201907Y-81050000D01*
X91597963Y-80971220D01*
X91971039Y-80816686D01*
X92306799Y-80592339D01*
X92592339Y-80306799D01*
X92816686Y-79971039D01*
X92971220Y-79597963D01*
X93050000Y-79201907D01*
X93050000Y-78798093D01*
X150950000Y-78798093D01*
X150950000Y-79201907D01*
X151028780Y-79597963D01*
X151183314Y-79971039D01*
X151407661Y-80306799D01*
X151693201Y-80592339D01*
X152028961Y-80816686D01*
X152402037Y-80971220D01*
X152798093Y-81050000D01*
X153201907Y-81050000D01*
X153597963Y-80971220D01*
X153971039Y-80816686D01*
X154306799Y-80592339D01*
X154592339Y-80306799D01*
X154816686Y-79971039D01*
X154971220Y-79597963D01*
X155050000Y-79201907D01*
X155050000Y-78798093D01*
X154971220Y-78402037D01*
X154816686Y-78028961D01*
X154592339Y-77693201D01*
X154306799Y-77407661D01*
X153971039Y-77183314D01*
X153597963Y-77028780D01*
X153201907Y-76950000D01*
X152798093Y-76950000D01*
X152402037Y-77028780D01*
X152028961Y-77183314D01*
X151693201Y-77407661D01*
X151407661Y-77693201D01*
X151183314Y-78028961D01*
X151028780Y-78402037D01*
X150950000Y-78798093D01*
X93050000Y-78798093D01*
X92971220Y-78402037D01*
X92816686Y-78028961D01*
X92592339Y-77693201D01*
X92306799Y-77407661D01*
X91971039Y-77183314D01*
X91597963Y-77028780D01*
X91201907Y-76950000D01*
X90798093Y-76950000D01*
X90402037Y-77028780D01*
X90028961Y-77183314D01*
X89693201Y-77407661D01*
X89407661Y-77693201D01*
X89183314Y-78028961D01*
X89028780Y-78402037D01*
X88950000Y-78798093D01*
X88150000Y-78798093D01*
X88150000Y-75726223D01*
X103187698Y-75726223D01*
X103267458Y-75921717D01*
X103489126Y-76028917D01*
X103727448Y-76090812D01*
X103973266Y-76105023D01*
X104217133Y-76071004D01*
X104449678Y-75990063D01*
X104577542Y-75921717D01*
X104657302Y-75726223D01*
X103922500Y-74991421D01*
X103187698Y-75726223D01*
X88150000Y-75726223D01*
X88150000Y-74900766D01*
X102667477Y-74900766D01*
X102701496Y-75144633D01*
X102782437Y-75377178D01*
X102850783Y-75505042D01*
X103046277Y-75584802D01*
X103781079Y-74850000D01*
X104063921Y-74850000D01*
X104798723Y-75584802D01*
X104994217Y-75505042D01*
X105101417Y-75283374D01*
X105163312Y-75045052D01*
X105177523Y-74799234D01*
X105143504Y-74555367D01*
X105062563Y-74322822D01*
X104994217Y-74194958D01*
X104798723Y-74115198D01*
X104063921Y-74850000D01*
X103781079Y-74850000D01*
X103046277Y-74115198D01*
X102850783Y-74194958D01*
X102743583Y-74416626D01*
X102681688Y-74654948D01*
X102667477Y-74900766D01*
X88150000Y-74900766D01*
X88150000Y-73973777D01*
X103187698Y-73973777D01*
X103922500Y-74708579D01*
X104657302Y-73973777D01*
X104577542Y-73778283D01*
X104355874Y-73671083D01*
X104117552Y-73609188D01*
X103871734Y-73594977D01*
X103627867Y-73628996D01*
X103395322Y-73709937D01*
X103267458Y-73778283D01*
X103187698Y-73973777D01*
X88150000Y-73973777D01*
X88150000Y-72956223D01*
X112295198Y-72956223D01*
X112374958Y-73151717D01*
X112596626Y-73258917D01*
X112834948Y-73320812D01*
X113080766Y-73335023D01*
X113324633Y-73301004D01*
X113557178Y-73220063D01*
X113685042Y-73151717D01*
X113764802Y-72956223D01*
X113030000Y-72221421D01*
X112295198Y-72956223D01*
X88150000Y-72956223D01*
X88150000Y-72130766D01*
X111774977Y-72130766D01*
X111808996Y-72374633D01*
X111889937Y-72607178D01*
X111958283Y-72735042D01*
X112153777Y-72814802D01*
X112888579Y-72080000D01*
X113171421Y-72080000D01*
X113906223Y-72814802D01*
X114101717Y-72735042D01*
X114208917Y-72513374D01*
X114270812Y-72275052D01*
X114285023Y-72029234D01*
X114251004Y-71785367D01*
X114170063Y-71552822D01*
X114101717Y-71424958D01*
X113906223Y-71345198D01*
X113171421Y-72080000D01*
X112888579Y-72080000D01*
X112153777Y-71345198D01*
X111958283Y-71424958D01*
X111851083Y-71646626D01*
X111789188Y-71884948D01*
X111774977Y-72130766D01*
X88150000Y-72130766D01*
X88150000Y-71203777D01*
X112295198Y-71203777D01*
X113030000Y-71938579D01*
X113764802Y-71203777D01*
X113685042Y-71008283D01*
X113463374Y-70901083D01*
X113225052Y-70839188D01*
X112979234Y-70824977D01*
X112735367Y-70858996D01*
X112502822Y-70939937D01*
X112374958Y-71008283D01*
X112295198Y-71203777D01*
X88150000Y-71203777D01*
X88150000Y-69726886D01*
X102672500Y-69726886D01*
X102672500Y-69973114D01*
X102720537Y-70214611D01*
X102814765Y-70442097D01*
X102951562Y-70646828D01*
X103125672Y-70820938D01*
X103330403Y-70957735D01*
X103557889Y-71051963D01*
X103799386Y-71100000D01*
X104045614Y-71100000D01*
X104287111Y-71051963D01*
X104514597Y-70957735D01*
X104719328Y-70820938D01*
X104893438Y-70646828D01*
X105030235Y-70442097D01*
X105124463Y-70214611D01*
X105172500Y-69973114D01*
X105172500Y-69726886D01*
X105124463Y-69485389D01*
X105030235Y-69257903D01*
X104893438Y-69053172D01*
X104719328Y-68879062D01*
X104514597Y-68742265D01*
X104287111Y-68648037D01*
X104045614Y-68600000D01*
X103799386Y-68600000D01*
X103557889Y-68648037D01*
X103330403Y-68742265D01*
X103125672Y-68879062D01*
X102951562Y-69053172D01*
X102814765Y-69257903D01*
X102720537Y-69485389D01*
X102672500Y-69726886D01*
X88150000Y-69726886D01*
X88150000Y-67230000D01*
X95088710Y-67230000D01*
X95113810Y-67484845D01*
X95188145Y-67729896D01*
X95308860Y-67955736D01*
X95471313Y-68153687D01*
X95669264Y-68316140D01*
X95895104Y-68436855D01*
X96140155Y-68511190D01*
X96331136Y-68530000D01*
X96708864Y-68530000D01*
X96899845Y-68511190D01*
X97144896Y-68436855D01*
X97370736Y-68316140D01*
X97568687Y-68153687D01*
X97731140Y-67955736D01*
X97825073Y-67780000D01*
X111777823Y-67780000D01*
X111777823Y-69380000D01*
X111786511Y-69468215D01*
X111812243Y-69553041D01*
X111854029Y-69631216D01*
X111910263Y-69699737D01*
X111978784Y-69755971D01*
X112056959Y-69797757D01*
X112141785Y-69823489D01*
X112230000Y-69832177D01*
X113830000Y-69832177D01*
X113918215Y-69823489D01*
X114003041Y-69797757D01*
X114081216Y-69755971D01*
X114149737Y-69699737D01*
X114205971Y-69631216D01*
X114247757Y-69553041D01*
X114273489Y-69468215D01*
X114282177Y-69380000D01*
X114282177Y-67780000D01*
X114273489Y-67691785D01*
X114247757Y-67606959D01*
X114205971Y-67528784D01*
X114149737Y-67460263D01*
X114081216Y-67404029D01*
X114080000Y-67403379D01*
X114080000Y-65204923D01*
X118364924Y-60920000D01*
X145888710Y-60920000D01*
X145913810Y-61174845D01*
X145988145Y-61419896D01*
X146108860Y-61645736D01*
X146271313Y-61843687D01*
X146469264Y-62006140D01*
X146695104Y-62126855D01*
X146837335Y-62170000D01*
X146695104Y-62213145D01*
X146469264Y-62333860D01*
X146271313Y-62496313D01*
X146108860Y-62694264D01*
X145988145Y-62920104D01*
X145913810Y-63165155D01*
X145888710Y-63420000D01*
X145913810Y-63674845D01*
X145988145Y-63919896D01*
X146108860Y-64145736D01*
X146271313Y-64343687D01*
X146469264Y-64506140D01*
X146695104Y-64626855D01*
X146837335Y-64670000D01*
X146695104Y-64713145D01*
X146469264Y-64833860D01*
X146271313Y-64996313D01*
X146108860Y-65194264D01*
X145988145Y-65420104D01*
X145913810Y-65665155D01*
X145888710Y-65920000D01*
X145913810Y-66174845D01*
X145988145Y-66419896D01*
X146108860Y-66645736D01*
X146271313Y-66843687D01*
X146469264Y-67006140D01*
X146695104Y-67126855D01*
X146837335Y-67170000D01*
X146695104Y-67213145D01*
X146469264Y-67333860D01*
X146271313Y-67496313D01*
X146108860Y-67694264D01*
X145988145Y-67920104D01*
X145913810Y-68165155D01*
X145888710Y-68420000D01*
X145913810Y-68674845D01*
X145988145Y-68919896D01*
X146108860Y-69145736D01*
X146271313Y-69343687D01*
X146469264Y-69506140D01*
X146695104Y-69626855D01*
X146837335Y-69670000D01*
X146695104Y-69713145D01*
X146469264Y-69833860D01*
X146271313Y-69996313D01*
X146108860Y-70194264D01*
X145988145Y-70420104D01*
X145913810Y-70665155D01*
X145888710Y-70920000D01*
X145913810Y-71174845D01*
X145988145Y-71419896D01*
X146108860Y-71645736D01*
X146271313Y-71843687D01*
X146469264Y-72006140D01*
X146695104Y-72126855D01*
X146940155Y-72201190D01*
X147131136Y-72220000D01*
X147508864Y-72220000D01*
X147699845Y-72201190D01*
X147944896Y-72126855D01*
X148170736Y-72006140D01*
X148368687Y-71843687D01*
X148531140Y-71645736D01*
X148651855Y-71419896D01*
X148726190Y-71174845D01*
X148751290Y-70920000D01*
X148726190Y-70665155D01*
X148651855Y-70420104D01*
X148531140Y-70194264D01*
X148368687Y-69996313D01*
X148170736Y-69833860D01*
X147944896Y-69713145D01*
X147802665Y-69670000D01*
X147944896Y-69626855D01*
X148170736Y-69506140D01*
X148368687Y-69343687D01*
X148531140Y-69145736D01*
X148651855Y-68919896D01*
X148726190Y-68674845D01*
X148751290Y-68420000D01*
X148726190Y-68165155D01*
X148651855Y-67920104D01*
X148531140Y-67694264D01*
X148368687Y-67496313D01*
X148170736Y-67333860D01*
X147944896Y-67213145D01*
X147802665Y-67170000D01*
X147944896Y-67126855D01*
X148170736Y-67006140D01*
X148368687Y-66843687D01*
X148531140Y-66645736D01*
X148651855Y-66419896D01*
X148726190Y-66174845D01*
X148751290Y-65920000D01*
X148726190Y-65665155D01*
X148651855Y-65420104D01*
X148531140Y-65194264D01*
X148368687Y-64996313D01*
X148170736Y-64833860D01*
X147944896Y-64713145D01*
X147802665Y-64670000D01*
X147944896Y-64626855D01*
X148170736Y-64506140D01*
X148368687Y-64343687D01*
X148531140Y-64145736D01*
X148651855Y-63919896D01*
X148726190Y-63674845D01*
X148751290Y-63420000D01*
X148726190Y-63165155D01*
X148651855Y-62920104D01*
X148531140Y-62694264D01*
X148368687Y-62496313D01*
X148170736Y-62333860D01*
X147944896Y-62213145D01*
X147802665Y-62170000D01*
X147944896Y-62126855D01*
X148170736Y-62006140D01*
X148368687Y-61843687D01*
X148531140Y-61645736D01*
X148651855Y-61419896D01*
X148726190Y-61174845D01*
X148751290Y-60920000D01*
X148726190Y-60665155D01*
X148651855Y-60420104D01*
X148531140Y-60194264D01*
X148368687Y-59996313D01*
X148170736Y-59833860D01*
X147961794Y-59722177D01*
X148045000Y-59722177D01*
X148181988Y-59708685D01*
X148313712Y-59668727D01*
X148435109Y-59603839D01*
X148541514Y-59516514D01*
X148628839Y-59410109D01*
X148693727Y-59288712D01*
X148733685Y-59156988D01*
X148747177Y-59020000D01*
X148747177Y-57820000D01*
X148733685Y-57683012D01*
X148693727Y-57551288D01*
X148628839Y-57429891D01*
X148541514Y-57323486D01*
X148435109Y-57236161D01*
X148313712Y-57171273D01*
X148181988Y-57131315D01*
X148045000Y-57117823D01*
X146595000Y-57117823D01*
X146458012Y-57131315D01*
X146326288Y-57171273D01*
X146204891Y-57236161D01*
X146098486Y-57323486D01*
X146011161Y-57429891D01*
X145946273Y-57551288D01*
X145906315Y-57683012D01*
X145892823Y-57820000D01*
X145892823Y-59020000D01*
X145906315Y-59156988D01*
X145946273Y-59288712D01*
X146011161Y-59410109D01*
X146098486Y-59516514D01*
X146204891Y-59603839D01*
X146326288Y-59668727D01*
X146458012Y-59708685D01*
X146595000Y-59722177D01*
X146678206Y-59722177D01*
X146469264Y-59833860D01*
X146271313Y-59996313D01*
X146108860Y-60194264D01*
X145988145Y-60420104D01*
X145913810Y-60665155D01*
X145888710Y-60920000D01*
X118364924Y-60920000D01*
X121428933Y-57855992D01*
X121428942Y-57855981D01*
X125238933Y-54045991D01*
X125238937Y-54045986D01*
X126218491Y-53066433D01*
X126258554Y-53033554D01*
X126389767Y-52873671D01*
X126487267Y-52691262D01*
X126547307Y-52493336D01*
X126562500Y-52339078D01*
X126562500Y-52339071D01*
X126567579Y-52287500D01*
X126562500Y-52235929D01*
X126562500Y-47460000D01*
X132097823Y-47460000D01*
X132097823Y-49060000D01*
X132106511Y-49148215D01*
X132132243Y-49233041D01*
X132174029Y-49311216D01*
X132230263Y-49379737D01*
X132298784Y-49435971D01*
X132376959Y-49477757D01*
X132461785Y-49503489D01*
X132550000Y-49512177D01*
X134150000Y-49512177D01*
X134238215Y-49503489D01*
X134323041Y-49477757D01*
X134401216Y-49435971D01*
X134469737Y-49379737D01*
X134525971Y-49311216D01*
X134567757Y-49233041D01*
X134593489Y-49148215D01*
X134602177Y-49060000D01*
X134602177Y-48136886D01*
X135600000Y-48136886D01*
X135600000Y-48383114D01*
X135648037Y-48624611D01*
X135742265Y-48852097D01*
X135879062Y-49056828D01*
X136053172Y-49230938D01*
X136257903Y-49367735D01*
X136485389Y-49461963D01*
X136726886Y-49510000D01*
X136973114Y-49510000D01*
X137214611Y-49461963D01*
X137442097Y-49367735D01*
X137646828Y-49230938D01*
X137820938Y-49056828D01*
X137957735Y-48852097D01*
X138051963Y-48624611D01*
X138100000Y-48383114D01*
X138100000Y-48136886D01*
X138051963Y-47895389D01*
X137957735Y-47667903D01*
X137820938Y-47463172D01*
X137646828Y-47289062D01*
X137442097Y-47152265D01*
X137214611Y-47058037D01*
X136973114Y-47010000D01*
X136726886Y-47010000D01*
X136485389Y-47058037D01*
X136257903Y-47152265D01*
X136053172Y-47289062D01*
X135879062Y-47463172D01*
X135742265Y-47667903D01*
X135648037Y-47895389D01*
X135600000Y-48136886D01*
X134602177Y-48136886D01*
X134602177Y-47460000D01*
X134593489Y-47371785D01*
X134567757Y-47286959D01*
X134525971Y-47208784D01*
X134469737Y-47140263D01*
X134401216Y-47084029D01*
X134323041Y-47042243D01*
X134238215Y-47016511D01*
X134150000Y-47007823D01*
X132550000Y-47007823D01*
X132461785Y-47016511D01*
X132376959Y-47042243D01*
X132298784Y-47084029D01*
X132230263Y-47140263D01*
X132174029Y-47208784D01*
X132132243Y-47286959D01*
X132106511Y-47371785D01*
X132097823Y-47460000D01*
X126562500Y-47460000D01*
X126562500Y-45771567D01*
X126567579Y-45719999D01*
X126562500Y-45668431D01*
X126562500Y-45668422D01*
X126547307Y-45514164D01*
X126487267Y-45316238D01*
X126389767Y-45133829D01*
X126258554Y-44973946D01*
X126218491Y-44941067D01*
X121355990Y-40078567D01*
X121236171Y-39980233D01*
X121053761Y-39882733D01*
X120855835Y-39822694D01*
X120650000Y-39802421D01*
X120444165Y-39822694D01*
X120246239Y-39882733D01*
X120063829Y-39980233D01*
X119903946Y-40111446D01*
X119772733Y-40271329D01*
X119675233Y-40453739D01*
X119615194Y-40651665D01*
X119594921Y-40857500D01*
X119615194Y-41063335D01*
X119675233Y-41261261D01*
X119772733Y-41443671D01*
X119871067Y-41563490D01*
X124462500Y-46154924D01*
X124462501Y-51852575D01*
X123754014Y-52561063D01*
X123754009Y-52561067D01*
X119944019Y-56371058D01*
X119944008Y-56371067D01*
X112324014Y-63991063D01*
X112283946Y-64023946D01*
X112152733Y-64183829D01*
X112055233Y-64366239D01*
X111995193Y-64564165D01*
X111980000Y-64718423D01*
X111980000Y-64718432D01*
X111974921Y-64770000D01*
X111980000Y-64821568D01*
X111980001Y-67403379D01*
X111978784Y-67404029D01*
X111910263Y-67460263D01*
X111854029Y-67528784D01*
X111812243Y-67606959D01*
X111786511Y-67691785D01*
X111777823Y-67780000D01*
X97825073Y-67780000D01*
X97851855Y-67729896D01*
X97926190Y-67484845D01*
X97951290Y-67230000D01*
X97926190Y-66975155D01*
X97851855Y-66730104D01*
X97731140Y-66504264D01*
X97568687Y-66306313D01*
X97370736Y-66143860D01*
X97144896Y-66023145D01*
X96995012Y-65977679D01*
X97071830Y-65959202D01*
X97303434Y-65852313D01*
X97509735Y-65702294D01*
X97682805Y-65514910D01*
X97815992Y-65297362D01*
X97904179Y-65058011D01*
X97909547Y-65031531D01*
X97828282Y-64830000D01*
X96620000Y-64830000D01*
X96620000Y-64850000D01*
X96420000Y-64850000D01*
X96420000Y-64830000D01*
X95211718Y-64830000D01*
X95130453Y-65031531D01*
X95135821Y-65058011D01*
X95224008Y-65297362D01*
X95357195Y-65514910D01*
X95530265Y-65702294D01*
X95736566Y-65852313D01*
X95968170Y-65959202D01*
X96044988Y-65977679D01*
X95895104Y-66023145D01*
X95669264Y-66143860D01*
X95471313Y-66306313D01*
X95308860Y-66504264D01*
X95188145Y-66730104D01*
X95113810Y-66975155D01*
X95088710Y-67230000D01*
X88150000Y-67230000D01*
X88150000Y-61630000D01*
X95092823Y-61630000D01*
X95092823Y-62830000D01*
X95106315Y-62966988D01*
X95146273Y-63098712D01*
X95211161Y-63220109D01*
X95298486Y-63326514D01*
X95404891Y-63413839D01*
X95526288Y-63478727D01*
X95658012Y-63518685D01*
X95795000Y-63532177D01*
X95900179Y-63532177D01*
X95736566Y-63607687D01*
X95530265Y-63757706D01*
X95357195Y-63945090D01*
X95224008Y-64162638D01*
X95135821Y-64401989D01*
X95130453Y-64428469D01*
X95211718Y-64630000D01*
X96420000Y-64630000D01*
X96420000Y-64610000D01*
X96620000Y-64610000D01*
X96620000Y-64630000D01*
X97828282Y-64630000D01*
X97909547Y-64428469D01*
X97904179Y-64401989D01*
X97815992Y-64162638D01*
X97682805Y-63945090D01*
X97509735Y-63757706D01*
X97303434Y-63607687D01*
X97139821Y-63532177D01*
X97245000Y-63532177D01*
X97381988Y-63518685D01*
X97513712Y-63478727D01*
X97635109Y-63413839D01*
X97741514Y-63326514D01*
X97828839Y-63220109D01*
X97893727Y-63098712D01*
X97933685Y-62966988D01*
X97947177Y-62830000D01*
X97947177Y-61630000D01*
X97933685Y-61493012D01*
X97893727Y-61361288D01*
X97828839Y-61239891D01*
X97741514Y-61133486D01*
X97635109Y-61046161D01*
X97513712Y-60981273D01*
X97381988Y-60941315D01*
X97245000Y-60927823D01*
X95795000Y-60927823D01*
X95658012Y-60941315D01*
X95526288Y-60981273D01*
X95404891Y-61046161D01*
X95298486Y-61133486D01*
X95211161Y-61239891D01*
X95146273Y-61361288D01*
X95106315Y-61493012D01*
X95092823Y-61630000D01*
X88150000Y-61630000D01*
X88150000Y-58296886D01*
X102672500Y-58296886D01*
X102672500Y-58543114D01*
X102720537Y-58784611D01*
X102814765Y-59012097D01*
X102951562Y-59216828D01*
X103125672Y-59390938D01*
X103330403Y-59527735D01*
X103557889Y-59621963D01*
X103799386Y-59670000D01*
X104045614Y-59670000D01*
X104287111Y-59621963D01*
X104514597Y-59527735D01*
X104719328Y-59390938D01*
X104893438Y-59216828D01*
X105030235Y-59012097D01*
X105124463Y-58784611D01*
X105172500Y-58543114D01*
X105172500Y-58296886D01*
X105124463Y-58055389D01*
X105030235Y-57827903D01*
X104893438Y-57623172D01*
X104719328Y-57449062D01*
X104514597Y-57312265D01*
X104287111Y-57218037D01*
X104045614Y-57170000D01*
X103799386Y-57170000D01*
X103557889Y-57218037D01*
X103330403Y-57312265D01*
X103125672Y-57449062D01*
X102951562Y-57623172D01*
X102814765Y-57827903D01*
X102720537Y-58055389D01*
X102672500Y-58296886D01*
X88150000Y-58296886D01*
X88150000Y-54296223D01*
X103187698Y-54296223D01*
X103267458Y-54491717D01*
X103489126Y-54598917D01*
X103727448Y-54660812D01*
X103973266Y-54675023D01*
X104217133Y-54641004D01*
X104449678Y-54560063D01*
X104577542Y-54491717D01*
X104657302Y-54296223D01*
X103922500Y-53561421D01*
X103187698Y-54296223D01*
X88150000Y-54296223D01*
X88150000Y-53470766D01*
X102667477Y-53470766D01*
X102701496Y-53714633D01*
X102782437Y-53947178D01*
X102850783Y-54075042D01*
X103046277Y-54154802D01*
X103781079Y-53420000D01*
X104063921Y-53420000D01*
X104798723Y-54154802D01*
X104994217Y-54075042D01*
X105101417Y-53853374D01*
X105163312Y-53615052D01*
X105177523Y-53369234D01*
X105143504Y-53125367D01*
X105062563Y-52892822D01*
X104994217Y-52764958D01*
X104798723Y-52685198D01*
X104063921Y-53420000D01*
X103781079Y-53420000D01*
X103046277Y-52685198D01*
X102850783Y-52764958D01*
X102743583Y-52986626D01*
X102681688Y-53224948D01*
X102667477Y-53470766D01*
X88150000Y-53470766D01*
X88150000Y-52543777D01*
X103187698Y-52543777D01*
X103922500Y-53278579D01*
X104657302Y-52543777D01*
X104577542Y-52348283D01*
X104355874Y-52241083D01*
X104117552Y-52179188D01*
X103871734Y-52164977D01*
X103627867Y-52198996D01*
X103395322Y-52279937D01*
X103267458Y-52348283D01*
X103187698Y-52543777D01*
X88150000Y-52543777D01*
X88150000Y-48521531D01*
X95105453Y-48521531D01*
X95115726Y-48572544D01*
X95208604Y-48810467D01*
X95346114Y-49025699D01*
X95522972Y-49209968D01*
X95732381Y-49356193D01*
X95966293Y-49458755D01*
X96215719Y-49513712D01*
X96420000Y-49409419D01*
X96420000Y-48320000D01*
X96620000Y-48320000D01*
X96620000Y-49409419D01*
X96824281Y-49513712D01*
X97073707Y-49458755D01*
X97307619Y-49356193D01*
X97517028Y-49209968D01*
X97587807Y-49136223D01*
X116415198Y-49136223D01*
X116494958Y-49331717D01*
X116716626Y-49438917D01*
X116954948Y-49500812D01*
X117200766Y-49515023D01*
X117444633Y-49481004D01*
X117677178Y-49400063D01*
X117805042Y-49331717D01*
X117884802Y-49136223D01*
X117150000Y-48401421D01*
X116415198Y-49136223D01*
X97587807Y-49136223D01*
X97693886Y-49025699D01*
X97831396Y-48810467D01*
X97924274Y-48572544D01*
X97934547Y-48521531D01*
X97853282Y-48320000D01*
X96620000Y-48320000D01*
X96420000Y-48320000D01*
X95186718Y-48320000D01*
X95105453Y-48521531D01*
X88150000Y-48521531D01*
X88150000Y-48310766D01*
X115894977Y-48310766D01*
X115928996Y-48554633D01*
X116009937Y-48787178D01*
X116078283Y-48915042D01*
X116273777Y-48994802D01*
X117008579Y-48260000D01*
X117291421Y-48260000D01*
X118026223Y-48994802D01*
X118221717Y-48915042D01*
X118328917Y-48693374D01*
X118390812Y-48455052D01*
X118405023Y-48209234D01*
X118371004Y-47965367D01*
X118290063Y-47732822D01*
X118221717Y-47604958D01*
X118026223Y-47525198D01*
X117291421Y-48260000D01*
X117008579Y-48260000D01*
X116273777Y-47525198D01*
X116078283Y-47604958D01*
X115971083Y-47826626D01*
X115909188Y-48064948D01*
X115894977Y-48310766D01*
X88150000Y-48310766D01*
X88150000Y-45120000D01*
X95067823Y-45120000D01*
X95067823Y-46320000D01*
X95081315Y-46456988D01*
X95121273Y-46588712D01*
X95186161Y-46710109D01*
X95273486Y-46816514D01*
X95379891Y-46903839D01*
X95501288Y-46968727D01*
X95633012Y-47008685D01*
X95770000Y-47022177D01*
X95872940Y-47022177D01*
X95732381Y-47083807D01*
X95522972Y-47230032D01*
X95346114Y-47414301D01*
X95208604Y-47629533D01*
X95115726Y-47867456D01*
X95105453Y-47918469D01*
X95186718Y-48120000D01*
X96420000Y-48120000D01*
X96420000Y-48100000D01*
X96620000Y-48100000D01*
X96620000Y-48120000D01*
X97853282Y-48120000D01*
X97934547Y-47918469D01*
X97924274Y-47867456D01*
X97831396Y-47629533D01*
X97693886Y-47414301D01*
X97664590Y-47383777D01*
X116415198Y-47383777D01*
X117150000Y-48118579D01*
X117884802Y-47383777D01*
X117805042Y-47188283D01*
X117583374Y-47081083D01*
X117345052Y-47019188D01*
X117099234Y-47004977D01*
X116855367Y-47038996D01*
X116622822Y-47119937D01*
X116494958Y-47188283D01*
X116415198Y-47383777D01*
X97664590Y-47383777D01*
X97517028Y-47230032D01*
X97307619Y-47083807D01*
X97167060Y-47022177D01*
X97270000Y-47022177D01*
X97406988Y-47008685D01*
X97538712Y-46968727D01*
X97660109Y-46903839D01*
X97766514Y-46816514D01*
X97853839Y-46710109D01*
X97918727Y-46588712D01*
X97958685Y-46456988D01*
X97972177Y-46320000D01*
X97972177Y-45120000D01*
X97958685Y-44983012D01*
X97918727Y-44851288D01*
X97853839Y-44729891D01*
X97766514Y-44623486D01*
X97660109Y-44536161D01*
X97538712Y-44471273D01*
X97406988Y-44431315D01*
X97270000Y-44417823D01*
X95770000Y-44417823D01*
X95633012Y-44431315D01*
X95501288Y-44471273D01*
X95379891Y-44536161D01*
X95273486Y-44623486D01*
X95186161Y-44729891D01*
X95121273Y-44851288D01*
X95081315Y-44983012D01*
X95067823Y-45120000D01*
X88150000Y-45120000D01*
X88150000Y-43180000D01*
X114514920Y-43180000D01*
X114535193Y-43385836D01*
X114595233Y-43583762D01*
X114692733Y-43766171D01*
X114823946Y-43926054D01*
X114983829Y-44057267D01*
X115166238Y-44154767D01*
X115364164Y-44214807D01*
X115518422Y-44230000D01*
X117675077Y-44230000D01*
X119600001Y-46154925D01*
X119600000Y-47083379D01*
X119598784Y-47084029D01*
X119530263Y-47140263D01*
X119474029Y-47208784D01*
X119432243Y-47286959D01*
X119406511Y-47371785D01*
X119397823Y-47460000D01*
X119397823Y-49060000D01*
X119406511Y-49148215D01*
X119432243Y-49233041D01*
X119474029Y-49311216D01*
X119530263Y-49379737D01*
X119598784Y-49435971D01*
X119676959Y-49477757D01*
X119761785Y-49503489D01*
X119850000Y-49512177D01*
X121450000Y-49512177D01*
X121538215Y-49503489D01*
X121623041Y-49477757D01*
X121701216Y-49435971D01*
X121769737Y-49379737D01*
X121825971Y-49311216D01*
X121867757Y-49233041D01*
X121893489Y-49148215D01*
X121902177Y-49060000D01*
X121902177Y-47460000D01*
X121893489Y-47371785D01*
X121867757Y-47286959D01*
X121825971Y-47208784D01*
X121769737Y-47140263D01*
X121701216Y-47084029D01*
X121700000Y-47083379D01*
X121700000Y-45771567D01*
X121705079Y-45719999D01*
X121700000Y-45668431D01*
X121700000Y-45668422D01*
X121684807Y-45514164D01*
X121624767Y-45316238D01*
X121527267Y-45133829D01*
X121396054Y-44973946D01*
X121355991Y-44941067D01*
X118888937Y-42474014D01*
X118856054Y-42433946D01*
X118696171Y-42302733D01*
X118513762Y-42205233D01*
X118315836Y-42145193D01*
X118161578Y-42130000D01*
X118161568Y-42130000D01*
X118110000Y-42124921D01*
X118058432Y-42130000D01*
X115518422Y-42130000D01*
X115364164Y-42145193D01*
X115166238Y-42205233D01*
X114983829Y-42302733D01*
X114823946Y-42433946D01*
X114692733Y-42593829D01*
X114595233Y-42776238D01*
X114535193Y-42974164D01*
X114514920Y-43180000D01*
X88150000Y-43180000D01*
X88150000Y-36798093D01*
X88950000Y-36798093D01*
X88950000Y-37201907D01*
X89028780Y-37597963D01*
X89183314Y-37971039D01*
X89407661Y-38306799D01*
X89693201Y-38592339D01*
X90028961Y-38816686D01*
X90402037Y-38971220D01*
X90798093Y-39050000D01*
X91201907Y-39050000D01*
X91597963Y-38971220D01*
X91971039Y-38816686D01*
X92306799Y-38592339D01*
X92592339Y-38306799D01*
X92816686Y-37971039D01*
X92971220Y-37597963D01*
X93050000Y-37201907D01*
X93050000Y-36798093D01*
X150950000Y-36798093D01*
X150950000Y-37201907D01*
X151028780Y-37597963D01*
X151183314Y-37971039D01*
X151407661Y-38306799D01*
X151693201Y-38592339D01*
X152028961Y-38816686D01*
X152402037Y-38971220D01*
X152798093Y-39050000D01*
X153201907Y-39050000D01*
X153597963Y-38971220D01*
X153971039Y-38816686D01*
X154306799Y-38592339D01*
X154592339Y-38306799D01*
X154816686Y-37971039D01*
X154971220Y-37597963D01*
X155050000Y-37201907D01*
X155050000Y-36798093D01*
X154971220Y-36402037D01*
X154816686Y-36028961D01*
X154592339Y-35693201D01*
X154306799Y-35407661D01*
X153971039Y-35183314D01*
X153597963Y-35028780D01*
X153201907Y-34950000D01*
X152798093Y-34950000D01*
X152402037Y-35028780D01*
X152028961Y-35183314D01*
X151693201Y-35407661D01*
X151407661Y-35693201D01*
X151183314Y-36028961D01*
X151028780Y-36402037D01*
X150950000Y-36798093D01*
X93050000Y-36798093D01*
X92971220Y-36402037D01*
X92816686Y-36028961D01*
X92592339Y-35693201D01*
X92306799Y-35407661D01*
X91971039Y-35183314D01*
X91597963Y-35028780D01*
X91201907Y-34950000D01*
X90798093Y-34950000D01*
X90402037Y-35028780D01*
X90028961Y-35183314D01*
X89693201Y-35407661D01*
X89407661Y-35693201D01*
X89183314Y-36028961D01*
X89028780Y-36402037D01*
X88950000Y-36798093D01*
X88150000Y-36798093D01*
X88150000Y-34150000D01*
X155850000Y-34150000D01*
X155850000Y-81850000D01*
%TD*%
M02*
