%TF.GenerationSoftware,KiCad,Pcbnew,(5.1.6)-1*%
%TF.CreationDate,2020-11-10T02:08:12+03:00*%
%TF.ProjectId,dac-001s,6461632d-3030-4317-932e-6b696361645f,rev?*%
%TF.SameCoordinates,Original*%
%TF.FileFunction,Legend,Top*%
%TF.FilePolarity,Positive*%
%FSLAX46Y46*%
G04 Gerber Fmt 4.6, Leading zero omitted, Abs format (unit mm)*
G04 Created by KiCad (PCBNEW (5.1.6)-1) date 2020-11-10 02:08:12*
%MOMM*%
%LPD*%
G01*
G04 APERTURE LIST*
%ADD10C,0.150000*%
%ADD11C,0.120000*%
G04 APERTURE END LIST*
D10*
X104235714Y-78367380D02*
X104235714Y-77367380D01*
X104473809Y-77367380D01*
X104616666Y-77415000D01*
X104711904Y-77510238D01*
X104759523Y-77605476D01*
X104807142Y-77795952D01*
X104807142Y-77938809D01*
X104759523Y-78129285D01*
X104711904Y-78224523D01*
X104616666Y-78319761D01*
X104473809Y-78367380D01*
X104235714Y-78367380D01*
X105188095Y-78081666D02*
X105664285Y-78081666D01*
X105092857Y-78367380D02*
X105426190Y-77367380D01*
X105759523Y-78367380D01*
X106664285Y-78272142D02*
X106616666Y-78319761D01*
X106473809Y-78367380D01*
X106378571Y-78367380D01*
X106235714Y-78319761D01*
X106140476Y-78224523D01*
X106092857Y-78129285D01*
X106045238Y-77938809D01*
X106045238Y-77795952D01*
X106092857Y-77605476D01*
X106140476Y-77510238D01*
X106235714Y-77415000D01*
X106378571Y-77367380D01*
X106473809Y-77367380D01*
X106616666Y-77415000D01*
X106664285Y-77462619D01*
X107092857Y-77986428D02*
X107854761Y-77986428D01*
X108521428Y-77367380D02*
X108616666Y-77367380D01*
X108711904Y-77415000D01*
X108759523Y-77462619D01*
X108807142Y-77557857D01*
X108854761Y-77748333D01*
X108854761Y-77986428D01*
X108807142Y-78176904D01*
X108759523Y-78272142D01*
X108711904Y-78319761D01*
X108616666Y-78367380D01*
X108521428Y-78367380D01*
X108426190Y-78319761D01*
X108378571Y-78272142D01*
X108330952Y-78176904D01*
X108283333Y-77986428D01*
X108283333Y-77748333D01*
X108330952Y-77557857D01*
X108378571Y-77462619D01*
X108426190Y-77415000D01*
X108521428Y-77367380D01*
X109473809Y-77367380D02*
X109569047Y-77367380D01*
X109664285Y-77415000D01*
X109711904Y-77462619D01*
X109759523Y-77557857D01*
X109807142Y-77748333D01*
X109807142Y-77986428D01*
X109759523Y-78176904D01*
X109711904Y-78272142D01*
X109664285Y-78319761D01*
X109569047Y-78367380D01*
X109473809Y-78367380D01*
X109378571Y-78319761D01*
X109330952Y-78272142D01*
X109283333Y-78176904D01*
X109235714Y-77986428D01*
X109235714Y-77748333D01*
X109283333Y-77557857D01*
X109330952Y-77462619D01*
X109378571Y-77415000D01*
X109473809Y-77367380D01*
X110759523Y-78367380D02*
X110188095Y-78367380D01*
X110473809Y-78367380D02*
X110473809Y-77367380D01*
X110378571Y-77510238D01*
X110283333Y-77605476D01*
X110188095Y-77653095D01*
X111140476Y-78319761D02*
X111283333Y-78367380D01*
X111521428Y-78367380D01*
X111616666Y-78319761D01*
X111664285Y-78272142D01*
X111711904Y-78176904D01*
X111711904Y-78081666D01*
X111664285Y-77986428D01*
X111616666Y-77938809D01*
X111521428Y-77891190D01*
X111330952Y-77843571D01*
X111235714Y-77795952D01*
X111188095Y-77748333D01*
X111140476Y-77653095D01*
X111140476Y-77557857D01*
X111188095Y-77462619D01*
X111235714Y-77415000D01*
X111330952Y-77367380D01*
X111569047Y-77367380D01*
X111711904Y-77415000D01*
X94664285Y-79112619D02*
X94711904Y-79065000D01*
X94807142Y-79017380D01*
X95045238Y-79017380D01*
X95140476Y-79065000D01*
X95188095Y-79112619D01*
X95235714Y-79207857D01*
X95235714Y-79303095D01*
X95188095Y-79445952D01*
X94616666Y-80017380D01*
X95235714Y-80017380D01*
X95664285Y-79922142D02*
X95711904Y-79969761D01*
X95664285Y-80017380D01*
X95616666Y-79969761D01*
X95664285Y-79922142D01*
X95664285Y-80017380D01*
X96664285Y-80017380D02*
X96092857Y-80017380D01*
X96378571Y-80017380D02*
X96378571Y-79017380D01*
X96283333Y-79160238D01*
X96188095Y-79255476D01*
X96092857Y-79303095D01*
X97711904Y-79017380D02*
X98045238Y-80017380D01*
X98378571Y-79017380D01*
X99283333Y-80017380D02*
X98950000Y-79541190D01*
X98711904Y-80017380D02*
X98711904Y-79017380D01*
X99092857Y-79017380D01*
X99188095Y-79065000D01*
X99235714Y-79112619D01*
X99283333Y-79207857D01*
X99283333Y-79350714D01*
X99235714Y-79445952D01*
X99188095Y-79493571D01*
X99092857Y-79541190D01*
X98711904Y-79541190D01*
X99711904Y-80017380D02*
X99711904Y-79017380D01*
X100045238Y-79731666D01*
X100378571Y-79017380D01*
X100378571Y-80017380D01*
X100807142Y-79969761D02*
X100950000Y-80017380D01*
X101188095Y-80017380D01*
X101283333Y-79969761D01*
X101330952Y-79922142D01*
X101378571Y-79826904D01*
X101378571Y-79731666D01*
X101330952Y-79636428D01*
X101283333Y-79588809D01*
X101188095Y-79541190D01*
X100997619Y-79493571D01*
X100902380Y-79445952D01*
X100854761Y-79398333D01*
X100807142Y-79303095D01*
X100807142Y-79207857D01*
X100854761Y-79112619D01*
X100902380Y-79065000D01*
X100997619Y-79017380D01*
X101235714Y-79017380D01*
X101378571Y-79065000D01*
X101854761Y-79969761D02*
X101854761Y-80017380D01*
X101807142Y-80112619D01*
X101759523Y-80160238D01*
X102950000Y-79017380D02*
X103569047Y-79017380D01*
X103235714Y-79398333D01*
X103378571Y-79398333D01*
X103473809Y-79445952D01*
X103521428Y-79493571D01*
X103569047Y-79588809D01*
X103569047Y-79826904D01*
X103521428Y-79922142D01*
X103473809Y-79969761D01*
X103378571Y-80017380D01*
X103092857Y-80017380D01*
X102997619Y-79969761D01*
X102950000Y-79922142D01*
X103950000Y-79112619D02*
X103997619Y-79065000D01*
X104092857Y-79017380D01*
X104330952Y-79017380D01*
X104426190Y-79065000D01*
X104473809Y-79112619D01*
X104521428Y-79207857D01*
X104521428Y-79303095D01*
X104473809Y-79445952D01*
X103902380Y-80017380D01*
X104521428Y-80017380D01*
X104950000Y-79636428D02*
X105711904Y-79636428D01*
X106188095Y-80017380D02*
X106188095Y-79017380D01*
X106188095Y-79398333D02*
X106283333Y-79350714D01*
X106473809Y-79350714D01*
X106569047Y-79398333D01*
X106616666Y-79445952D01*
X106664285Y-79541190D01*
X106664285Y-79826904D01*
X106616666Y-79922142D01*
X106569047Y-79969761D01*
X106473809Y-80017380D01*
X106283333Y-80017380D01*
X106188095Y-79969761D01*
X107092857Y-80017380D02*
X107092857Y-79350714D01*
X107092857Y-79017380D02*
X107045238Y-79065000D01*
X107092857Y-79112619D01*
X107140476Y-79065000D01*
X107092857Y-79017380D01*
X107092857Y-79112619D01*
X107426190Y-79350714D02*
X107807142Y-79350714D01*
X107569047Y-79017380D02*
X107569047Y-79874523D01*
X107616666Y-79969761D01*
X107711904Y-80017380D01*
X107807142Y-80017380D01*
X108188095Y-79969761D02*
X108188095Y-80017380D01*
X108140476Y-80112619D01*
X108092857Y-80160238D01*
X109283333Y-79017380D02*
X109902380Y-79017380D01*
X109569047Y-79398333D01*
X109711904Y-79398333D01*
X109807142Y-79445952D01*
X109854761Y-79493571D01*
X109902380Y-79588809D01*
X109902380Y-79826904D01*
X109854761Y-79922142D01*
X109807142Y-79969761D01*
X109711904Y-80017380D01*
X109426190Y-80017380D01*
X109330952Y-79969761D01*
X109283333Y-79922142D01*
X110473809Y-79445952D02*
X110378571Y-79398333D01*
X110330952Y-79350714D01*
X110283333Y-79255476D01*
X110283333Y-79207857D01*
X110330952Y-79112619D01*
X110378571Y-79065000D01*
X110473809Y-79017380D01*
X110664285Y-79017380D01*
X110759523Y-79065000D01*
X110807142Y-79112619D01*
X110854761Y-79207857D01*
X110854761Y-79255476D01*
X110807142Y-79350714D01*
X110759523Y-79398333D01*
X110664285Y-79445952D01*
X110473809Y-79445952D01*
X110378571Y-79493571D01*
X110330952Y-79541190D01*
X110283333Y-79636428D01*
X110283333Y-79826904D01*
X110330952Y-79922142D01*
X110378571Y-79969761D01*
X110473809Y-80017380D01*
X110664285Y-80017380D01*
X110759523Y-79969761D01*
X110807142Y-79922142D01*
X110854761Y-79826904D01*
X110854761Y-79636428D01*
X110807142Y-79541190D01*
X110759523Y-79493571D01*
X110664285Y-79445952D01*
X111711904Y-79350714D02*
X111711904Y-80017380D01*
X111473809Y-78969761D02*
X111235714Y-79684047D01*
X111854761Y-79684047D01*
X112997619Y-80017380D02*
X112997619Y-79017380D01*
X113092857Y-79636428D02*
X113378571Y-80017380D01*
X113378571Y-79350714D02*
X112997619Y-79731666D01*
X113807142Y-80017380D02*
X113807142Y-79017380D01*
X113807142Y-79493571D02*
X114378571Y-79493571D01*
X114378571Y-80017380D02*
X114378571Y-79017380D01*
X114759523Y-79350714D02*
X115283333Y-79350714D01*
X114759523Y-80017380D01*
X115283333Y-80017380D01*
X115711904Y-79969761D02*
X115711904Y-80017380D01*
X115664285Y-80112619D01*
X115616666Y-80160238D01*
X116854761Y-79969761D02*
X116997619Y-80017380D01*
X117235714Y-80017380D01*
X117330952Y-79969761D01*
X117378571Y-79922142D01*
X117426190Y-79826904D01*
X117426190Y-79731666D01*
X117378571Y-79636428D01*
X117330952Y-79588809D01*
X117235714Y-79541190D01*
X117045238Y-79493571D01*
X116950000Y-79445952D01*
X116902380Y-79398333D01*
X116854761Y-79303095D01*
X116854761Y-79207857D01*
X116902380Y-79112619D01*
X116950000Y-79065000D01*
X117045238Y-79017380D01*
X117283333Y-79017380D01*
X117426190Y-79065000D01*
X117711904Y-79350714D02*
X118092857Y-79350714D01*
X117854761Y-79017380D02*
X117854761Y-79874523D01*
X117902380Y-79969761D01*
X117997619Y-80017380D01*
X118092857Y-80017380D01*
X118807142Y-79969761D02*
X118711904Y-80017380D01*
X118521428Y-80017380D01*
X118426190Y-79969761D01*
X118378571Y-79874523D01*
X118378571Y-79493571D01*
X118426190Y-79398333D01*
X118521428Y-79350714D01*
X118711904Y-79350714D01*
X118807142Y-79398333D01*
X118854761Y-79493571D01*
X118854761Y-79588809D01*
X118378571Y-79684047D01*
X119283333Y-80017380D02*
X119283333Y-79350714D01*
X119283333Y-79541190D02*
X119330952Y-79445952D01*
X119378571Y-79398333D01*
X119473809Y-79350714D01*
X119569047Y-79350714D01*
X120283333Y-79969761D02*
X120188095Y-80017380D01*
X119997619Y-80017380D01*
X119902380Y-79969761D01*
X119854761Y-79874523D01*
X119854761Y-79493571D01*
X119902380Y-79398333D01*
X119997619Y-79350714D01*
X120188095Y-79350714D01*
X120283333Y-79398333D01*
X120330952Y-79493571D01*
X120330952Y-79588809D01*
X119854761Y-79684047D01*
X120902380Y-80017380D02*
X120807142Y-79969761D01*
X120759523Y-79922142D01*
X120711904Y-79826904D01*
X120711904Y-79541190D01*
X120759523Y-79445952D01*
X120807142Y-79398333D01*
X120902380Y-79350714D01*
X121045238Y-79350714D01*
X121140476Y-79398333D01*
X121188095Y-79445952D01*
X121235714Y-79541190D01*
X121235714Y-79826904D01*
X121188095Y-79922142D01*
X121140476Y-79969761D01*
X121045238Y-80017380D01*
X120902380Y-80017380D01*
X89802976Y-45791428D02*
X90564880Y-45791428D01*
X90183928Y-46172380D02*
X90183928Y-45410476D01*
X91517261Y-45172380D02*
X91041071Y-45172380D01*
X90993452Y-45648571D01*
X91041071Y-45600952D01*
X91136309Y-45553333D01*
X91374404Y-45553333D01*
X91469642Y-45600952D01*
X91517261Y-45648571D01*
X91564880Y-45743809D01*
X91564880Y-45981904D01*
X91517261Y-46077142D01*
X91469642Y-46124761D01*
X91374404Y-46172380D01*
X91136309Y-46172380D01*
X91041071Y-46124761D01*
X90993452Y-46077142D01*
X91850595Y-45172380D02*
X92183928Y-46172380D01*
X92517261Y-45172380D01*
X89469642Y-47720000D02*
X89374404Y-47672380D01*
X89231547Y-47672380D01*
X89088690Y-47720000D01*
X88993452Y-47815238D01*
X88945833Y-47910476D01*
X88898214Y-48100952D01*
X88898214Y-48243809D01*
X88945833Y-48434285D01*
X88993452Y-48529523D01*
X89088690Y-48624761D01*
X89231547Y-48672380D01*
X89326785Y-48672380D01*
X89469642Y-48624761D01*
X89517261Y-48577142D01*
X89517261Y-48243809D01*
X89326785Y-48243809D01*
X89945833Y-48672380D02*
X89945833Y-47672380D01*
X90517261Y-48672380D01*
X90517261Y-47672380D01*
X90993452Y-48672380D02*
X90993452Y-47672380D01*
X91231547Y-47672380D01*
X91374404Y-47720000D01*
X91469642Y-47815238D01*
X91517261Y-47910476D01*
X91564880Y-48100952D01*
X91564880Y-48243809D01*
X91517261Y-48434285D01*
X91469642Y-48529523D01*
X91374404Y-48624761D01*
X91231547Y-48672380D01*
X90993452Y-48672380D01*
X91945833Y-48386666D02*
X92422023Y-48386666D01*
X91850595Y-48672380D02*
X92183928Y-47672380D01*
X92517261Y-48672380D01*
X150195595Y-71372380D02*
X150195595Y-70372380D01*
X150528928Y-71086666D01*
X150862261Y-70372380D01*
X150862261Y-71372380D01*
X151909880Y-71277142D02*
X151862261Y-71324761D01*
X151719404Y-71372380D01*
X151624166Y-71372380D01*
X151481309Y-71324761D01*
X151386071Y-71229523D01*
X151338452Y-71134285D01*
X151290833Y-70943809D01*
X151290833Y-70800952D01*
X151338452Y-70610476D01*
X151386071Y-70515238D01*
X151481309Y-70420000D01*
X151624166Y-70372380D01*
X151719404Y-70372380D01*
X151862261Y-70420000D01*
X151909880Y-70467619D01*
X152338452Y-71372380D02*
X152338452Y-70372380D01*
X152909880Y-71372380D02*
X152481309Y-70800952D01*
X152909880Y-70372380D02*
X152338452Y-70943809D01*
X150767023Y-68777142D02*
X150719404Y-68824761D01*
X150576547Y-68872380D01*
X150481309Y-68872380D01*
X150338452Y-68824761D01*
X150243214Y-68729523D01*
X150195595Y-68634285D01*
X150147976Y-68443809D01*
X150147976Y-68300952D01*
X150195595Y-68110476D01*
X150243214Y-68015238D01*
X150338452Y-67920000D01*
X150481309Y-67872380D01*
X150576547Y-67872380D01*
X150719404Y-67920000D01*
X150767023Y-67967619D01*
X151195595Y-68872380D02*
X151195595Y-67872380D01*
X151767023Y-68872380D02*
X151338452Y-68300952D01*
X151767023Y-67872380D02*
X151195595Y-68443809D01*
X150147976Y-66324761D02*
X150290833Y-66372380D01*
X150528928Y-66372380D01*
X150624166Y-66324761D01*
X150671785Y-66277142D01*
X150719404Y-66181904D01*
X150719404Y-66086666D01*
X150671785Y-65991428D01*
X150624166Y-65943809D01*
X150528928Y-65896190D01*
X150338452Y-65848571D01*
X150243214Y-65800952D01*
X150195595Y-65753333D01*
X150147976Y-65658095D01*
X150147976Y-65562857D01*
X150195595Y-65467619D01*
X150243214Y-65420000D01*
X150338452Y-65372380D01*
X150576547Y-65372380D01*
X150719404Y-65420000D01*
X151147976Y-66372380D02*
X151147976Y-65372380D01*
X151386071Y-65372380D01*
X151528928Y-65420000D01*
X151624166Y-65515238D01*
X151671785Y-65610476D01*
X151719404Y-65800952D01*
X151719404Y-65943809D01*
X151671785Y-66134285D01*
X151624166Y-66229523D01*
X151528928Y-66324761D01*
X151386071Y-66372380D01*
X151147976Y-66372380D01*
X150100357Y-62872380D02*
X150338452Y-63872380D01*
X150528928Y-63158095D01*
X150719404Y-63872380D01*
X150957500Y-62872380D01*
X151290833Y-63824761D02*
X151433690Y-63872380D01*
X151671785Y-63872380D01*
X151767023Y-63824761D01*
X151814642Y-63777142D01*
X151862261Y-63681904D01*
X151862261Y-63586666D01*
X151814642Y-63491428D01*
X151767023Y-63443809D01*
X151671785Y-63396190D01*
X151481309Y-63348571D01*
X151386071Y-63300952D01*
X151338452Y-63253333D01*
X151290833Y-63158095D01*
X151290833Y-63062857D01*
X151338452Y-62967619D01*
X151386071Y-62920000D01*
X151481309Y-62872380D01*
X151719404Y-62872380D01*
X151862261Y-62920000D01*
X150719404Y-60420000D02*
X150624166Y-60372380D01*
X150481309Y-60372380D01*
X150338452Y-60420000D01*
X150243214Y-60515238D01*
X150195595Y-60610476D01*
X150147976Y-60800952D01*
X150147976Y-60943809D01*
X150195595Y-61134285D01*
X150243214Y-61229523D01*
X150338452Y-61324761D01*
X150481309Y-61372380D01*
X150576547Y-61372380D01*
X150719404Y-61324761D01*
X150767023Y-61277142D01*
X150767023Y-60943809D01*
X150576547Y-60943809D01*
X151195595Y-61372380D02*
X151195595Y-60372380D01*
X151767023Y-61372380D01*
X151767023Y-60372380D01*
X152243214Y-61372380D02*
X152243214Y-60372380D01*
X152481309Y-60372380D01*
X152624166Y-60420000D01*
X152719404Y-60515238D01*
X152767023Y-60610476D01*
X152814642Y-60800952D01*
X152814642Y-60943809D01*
X152767023Y-61134285D01*
X152719404Y-61229523D01*
X152624166Y-61324761D01*
X152481309Y-61372380D01*
X152243214Y-61372380D01*
X153243214Y-61372380D02*
X153243214Y-60372380D01*
X153481309Y-60372380D01*
X153624166Y-60420000D01*
X153719404Y-60515238D01*
X153767023Y-60610476D01*
X153814642Y-60800952D01*
X153814642Y-60943809D01*
X153767023Y-61134285D01*
X153719404Y-61229523D01*
X153624166Y-61324761D01*
X153481309Y-61372380D01*
X153243214Y-61372380D01*
X150195595Y-58491428D02*
X150957500Y-58491428D01*
X150576547Y-58872380D02*
X150576547Y-58110476D01*
X151338452Y-57872380D02*
X151957500Y-57872380D01*
X151624166Y-58253333D01*
X151767023Y-58253333D01*
X151862261Y-58300952D01*
X151909880Y-58348571D01*
X151957500Y-58443809D01*
X151957500Y-58681904D01*
X151909880Y-58777142D01*
X151862261Y-58824761D01*
X151767023Y-58872380D01*
X151481309Y-58872380D01*
X151386071Y-58824761D01*
X151338452Y-58777142D01*
X152386071Y-58777142D02*
X152433690Y-58824761D01*
X152386071Y-58872380D01*
X152338452Y-58824761D01*
X152386071Y-58777142D01*
X152386071Y-58872380D01*
X152767023Y-57872380D02*
X153386071Y-57872380D01*
X153052738Y-58253333D01*
X153195595Y-58253333D01*
X153290833Y-58300952D01*
X153338452Y-58348571D01*
X153386071Y-58443809D01*
X153386071Y-58681904D01*
X153338452Y-58777142D01*
X153290833Y-58824761D01*
X153195595Y-58872380D01*
X152909880Y-58872380D01*
X152814642Y-58824761D01*
X152767023Y-58777142D01*
X153671785Y-57872380D02*
X154005119Y-58872380D01*
X154338452Y-57872380D01*
X89183928Y-66682380D02*
X89374404Y-66682380D01*
X89469642Y-66730000D01*
X89564880Y-66825238D01*
X89612500Y-67015714D01*
X89612500Y-67349047D01*
X89564880Y-67539523D01*
X89469642Y-67634761D01*
X89374404Y-67682380D01*
X89183928Y-67682380D01*
X89088690Y-67634761D01*
X88993452Y-67539523D01*
X88945833Y-67349047D01*
X88945833Y-67015714D01*
X88993452Y-66825238D01*
X89088690Y-66730000D01*
X89183928Y-66682380D01*
X90041071Y-66682380D02*
X90041071Y-67491904D01*
X90088690Y-67587142D01*
X90136309Y-67634761D01*
X90231547Y-67682380D01*
X90422023Y-67682380D01*
X90517261Y-67634761D01*
X90564880Y-67587142D01*
X90612500Y-67491904D01*
X90612500Y-66682380D01*
X90945833Y-66682380D02*
X91517261Y-66682380D01*
X91231547Y-67682380D02*
X91231547Y-66682380D01*
X92422023Y-67682380D02*
X92088690Y-67206190D01*
X91850595Y-67682380D02*
X91850595Y-66682380D01*
X92231547Y-66682380D01*
X92326785Y-66730000D01*
X92374404Y-66777619D01*
X92422023Y-66872857D01*
X92422023Y-67015714D01*
X92374404Y-67110952D01*
X92326785Y-67158571D01*
X92231547Y-67206190D01*
X91850595Y-67206190D01*
X89469642Y-64230000D02*
X89374404Y-64182380D01*
X89231547Y-64182380D01*
X89088690Y-64230000D01*
X88993452Y-64325238D01*
X88945833Y-64420476D01*
X88898214Y-64610952D01*
X88898214Y-64753809D01*
X88945833Y-64944285D01*
X88993452Y-65039523D01*
X89088690Y-65134761D01*
X89231547Y-65182380D01*
X89326785Y-65182380D01*
X89469642Y-65134761D01*
X89517261Y-65087142D01*
X89517261Y-64753809D01*
X89326785Y-64753809D01*
X89945833Y-65182380D02*
X89945833Y-64182380D01*
X90517261Y-65182380D01*
X90517261Y-64182380D01*
X90993452Y-65182380D02*
X90993452Y-64182380D01*
X91231547Y-64182380D01*
X91374404Y-64230000D01*
X91469642Y-64325238D01*
X91517261Y-64420476D01*
X91564880Y-64610952D01*
X91564880Y-64753809D01*
X91517261Y-64944285D01*
X91469642Y-65039523D01*
X91374404Y-65134761D01*
X91231547Y-65182380D01*
X90993452Y-65182380D01*
X91945833Y-64896666D02*
X92422023Y-64896666D01*
X91850595Y-65182380D02*
X92183928Y-64182380D01*
X92517261Y-65182380D01*
X89374404Y-61682380D02*
X89564880Y-61682380D01*
X89660119Y-61730000D01*
X89755357Y-61825238D01*
X89802976Y-62015714D01*
X89802976Y-62349047D01*
X89755357Y-62539523D01*
X89660119Y-62634761D01*
X89564880Y-62682380D01*
X89374404Y-62682380D01*
X89279166Y-62634761D01*
X89183928Y-62539523D01*
X89136309Y-62349047D01*
X89136309Y-62015714D01*
X89183928Y-61825238D01*
X89279166Y-61730000D01*
X89374404Y-61682380D01*
X90231547Y-61682380D02*
X90231547Y-62491904D01*
X90279166Y-62587142D01*
X90326785Y-62634761D01*
X90422023Y-62682380D01*
X90612500Y-62682380D01*
X90707738Y-62634761D01*
X90755357Y-62587142D01*
X90802976Y-62491904D01*
X90802976Y-61682380D01*
X91136309Y-61682380D02*
X91707738Y-61682380D01*
X91422023Y-62682380D02*
X91422023Y-61682380D01*
X92517261Y-62682380D02*
X92041071Y-62682380D01*
X92041071Y-61682380D01*
D11*
%TO.C,J3*%
X150070000Y-55570000D02*
X148820000Y-55570000D01*
X150070000Y-56820000D02*
X150070000Y-55570000D01*
X144570000Y-72720000D02*
X144570000Y-64670000D01*
X147520000Y-72720000D02*
X144570000Y-72720000D01*
X147520000Y-73470000D02*
X147520000Y-72720000D01*
X144570000Y-56620000D02*
X144570000Y-64670000D01*
X147520000Y-56620000D02*
X144570000Y-56620000D01*
X147520000Y-55870000D02*
X147520000Y-56620000D01*
X149770000Y-73470000D02*
X149770000Y-71670000D01*
X149020000Y-73470000D02*
X149770000Y-73470000D01*
X149020000Y-71670000D02*
X149020000Y-73470000D01*
X149770000Y-71670000D02*
X149020000Y-71670000D01*
X149770000Y-57670000D02*
X149770000Y-55870000D01*
X149020000Y-57670000D02*
X149770000Y-57670000D01*
X149020000Y-55870000D02*
X149020000Y-57670000D01*
X149770000Y-55870000D02*
X149020000Y-55870000D01*
X149770000Y-70170000D02*
X149770000Y-59170000D01*
X149020000Y-70170000D02*
X149770000Y-70170000D01*
X149020000Y-59170000D02*
X149020000Y-70170000D01*
X149770000Y-59170000D02*
X149020000Y-59170000D01*
X149780000Y-73480000D02*
X149780000Y-55860000D01*
X143810000Y-73480000D02*
X149780000Y-73480000D01*
X143810000Y-55860000D02*
X143810000Y-73480000D01*
X149780000Y-55860000D02*
X143810000Y-55860000D01*
%TO.C,J2*%
X99270000Y-59380000D02*
X98020000Y-59380000D01*
X99270000Y-60630000D02*
X99270000Y-59380000D01*
X93770000Y-69030000D02*
X93770000Y-64730000D01*
X96720000Y-69030000D02*
X93770000Y-69030000D01*
X96720000Y-69780000D02*
X96720000Y-69030000D01*
X93770000Y-60430000D02*
X93770000Y-64730000D01*
X96720000Y-60430000D02*
X93770000Y-60430000D01*
X96720000Y-59680000D02*
X96720000Y-60430000D01*
X98970000Y-69780000D02*
X98970000Y-67980000D01*
X98220000Y-69780000D02*
X98970000Y-69780000D01*
X98220000Y-67980000D02*
X98220000Y-69780000D01*
X98970000Y-67980000D02*
X98220000Y-67980000D01*
X98970000Y-61480000D02*
X98970000Y-59680000D01*
X98220000Y-61480000D02*
X98970000Y-61480000D01*
X98220000Y-59680000D02*
X98220000Y-61480000D01*
X98970000Y-59680000D02*
X98220000Y-59680000D01*
X98970000Y-66480000D02*
X98970000Y-62980000D01*
X98220000Y-66480000D02*
X98970000Y-66480000D01*
X98220000Y-62980000D02*
X98220000Y-66480000D01*
X98970000Y-62980000D02*
X98220000Y-62980000D01*
X98980000Y-69790000D02*
X98980000Y-59670000D01*
X93010000Y-69790000D02*
X98980000Y-69790000D01*
X93010000Y-59670000D02*
X93010000Y-69790000D01*
X98980000Y-59670000D02*
X93010000Y-59670000D01*
%TO.C,J1*%
X99270000Y-42870000D02*
X98020000Y-42870000D01*
X99270000Y-44120000D02*
X99270000Y-42870000D01*
X93770000Y-50020000D02*
X93770000Y-46970000D01*
X96720000Y-50020000D02*
X93770000Y-50020000D01*
X96720000Y-50770000D02*
X96720000Y-50020000D01*
X93770000Y-43920000D02*
X93770000Y-46970000D01*
X96720000Y-43920000D02*
X93770000Y-43920000D01*
X96720000Y-43170000D02*
X96720000Y-43920000D01*
X98970000Y-50770000D02*
X98970000Y-48970000D01*
X98220000Y-50770000D02*
X98970000Y-50770000D01*
X98220000Y-48970000D02*
X98220000Y-50770000D01*
X98970000Y-48970000D02*
X98220000Y-48970000D01*
X98970000Y-44970000D02*
X98970000Y-43170000D01*
X98220000Y-44970000D02*
X98970000Y-44970000D01*
X98220000Y-43170000D02*
X98220000Y-44970000D01*
X98970000Y-43170000D02*
X98220000Y-43170000D01*
X98970000Y-47470000D02*
X98970000Y-46470000D01*
X98220000Y-47470000D02*
X98970000Y-47470000D01*
X98220000Y-46470000D02*
X98220000Y-47470000D01*
X98970000Y-46470000D02*
X98220000Y-46470000D01*
X98980000Y-50780000D02*
X98980000Y-43160000D01*
X93010000Y-50780000D02*
X98980000Y-50780000D01*
X93010000Y-43160000D02*
X93010000Y-50780000D01*
X98980000Y-43160000D02*
X93010000Y-43160000D01*
%TO.C,R6*%
X139032064Y-78380000D02*
X137827936Y-78380000D01*
X139032064Y-76560000D02*
X137827936Y-76560000D01*
%TO.C,R4*%
X139032064Y-74570000D02*
X137827936Y-74570000D01*
X139032064Y-72750000D02*
X137827936Y-72750000D01*
%TO.C,R3*%
X139032064Y-70760000D02*
X137827936Y-70760000D01*
X139032064Y-68940000D02*
X137827936Y-68940000D01*
%TO.C,R1*%
X139032064Y-66950000D02*
X137827936Y-66950000D01*
X139032064Y-65130000D02*
X137827936Y-65130000D01*
%TO.C,C1*%
X131090302Y-45545000D02*
X131090302Y-46345000D01*
X130690302Y-45945000D02*
X131490302Y-45945000D01*
X139181000Y-47727000D02*
X139181000Y-48793000D01*
X139141000Y-47492000D02*
X139141000Y-49028000D01*
X139101000Y-47312000D02*
X139101000Y-49208000D01*
X139061000Y-47162000D02*
X139061000Y-49358000D01*
X139021000Y-47031000D02*
X139021000Y-49489000D01*
X138981000Y-46914000D02*
X138981000Y-49606000D01*
X138941000Y-46807000D02*
X138941000Y-49713000D01*
X138901000Y-46708000D02*
X138901000Y-49812000D01*
X138861000Y-46615000D02*
X138861000Y-49905000D01*
X138821000Y-46529000D02*
X138821000Y-49991000D01*
X138781000Y-46447000D02*
X138781000Y-50073000D01*
X138741000Y-46370000D02*
X138741000Y-50150000D01*
X138701000Y-46296000D02*
X138701000Y-50224000D01*
X138661000Y-46226000D02*
X138661000Y-50294000D01*
X138621000Y-46158000D02*
X138621000Y-50362000D01*
X138581000Y-46094000D02*
X138581000Y-50426000D01*
X138541000Y-46032000D02*
X138541000Y-50488000D01*
X138501000Y-45973000D02*
X138501000Y-50547000D01*
X138461000Y-45915000D02*
X138461000Y-50605000D01*
X138421000Y-45860000D02*
X138421000Y-50660000D01*
X138381000Y-45806000D02*
X138381000Y-50714000D01*
X138341000Y-45755000D02*
X138341000Y-50765000D01*
X138301000Y-45704000D02*
X138301000Y-50816000D01*
X138261000Y-45656000D02*
X138261000Y-50864000D01*
X138221000Y-45609000D02*
X138221000Y-50911000D01*
X138181000Y-45563000D02*
X138181000Y-50957000D01*
X138141000Y-45519000D02*
X138141000Y-51001000D01*
X138101000Y-45476000D02*
X138101000Y-51044000D01*
X138061000Y-45434000D02*
X138061000Y-51086000D01*
X138021000Y-45393000D02*
X138021000Y-51127000D01*
X137981000Y-45353000D02*
X137981000Y-51167000D01*
X137941000Y-45315000D02*
X137941000Y-51205000D01*
X137901000Y-45277000D02*
X137901000Y-51243000D01*
X137861000Y-49300000D02*
X137861000Y-51279000D01*
X137861000Y-45241000D02*
X137861000Y-47220000D01*
X137821000Y-49300000D02*
X137821000Y-51315000D01*
X137821000Y-45205000D02*
X137821000Y-47220000D01*
X137781000Y-49300000D02*
X137781000Y-51350000D01*
X137781000Y-45170000D02*
X137781000Y-47220000D01*
X137741000Y-49300000D02*
X137741000Y-51384000D01*
X137741000Y-45136000D02*
X137741000Y-47220000D01*
X137701000Y-49300000D02*
X137701000Y-51416000D01*
X137701000Y-45104000D02*
X137701000Y-47220000D01*
X137661000Y-49300000D02*
X137661000Y-51449000D01*
X137661000Y-45071000D02*
X137661000Y-47220000D01*
X137621000Y-49300000D02*
X137621000Y-51480000D01*
X137621000Y-45040000D02*
X137621000Y-47220000D01*
X137581000Y-49300000D02*
X137581000Y-51510000D01*
X137581000Y-45010000D02*
X137581000Y-47220000D01*
X137541000Y-49300000D02*
X137541000Y-51540000D01*
X137541000Y-44980000D02*
X137541000Y-47220000D01*
X137501000Y-49300000D02*
X137501000Y-51569000D01*
X137501000Y-44951000D02*
X137501000Y-47220000D01*
X137461000Y-49300000D02*
X137461000Y-51598000D01*
X137461000Y-44922000D02*
X137461000Y-47220000D01*
X137421000Y-49300000D02*
X137421000Y-51625000D01*
X137421000Y-44895000D02*
X137421000Y-47220000D01*
X137381000Y-49300000D02*
X137381000Y-51652000D01*
X137381000Y-44868000D02*
X137381000Y-47220000D01*
X137341000Y-49300000D02*
X137341000Y-51678000D01*
X137341000Y-44842000D02*
X137341000Y-47220000D01*
X137301000Y-49300000D02*
X137301000Y-51704000D01*
X137301000Y-44816000D02*
X137301000Y-47220000D01*
X137261000Y-49300000D02*
X137261000Y-51729000D01*
X137261000Y-44791000D02*
X137261000Y-47220000D01*
X137221000Y-49300000D02*
X137221000Y-51753000D01*
X137221000Y-44767000D02*
X137221000Y-47220000D01*
X137181000Y-49300000D02*
X137181000Y-51777000D01*
X137181000Y-44743000D02*
X137181000Y-47220000D01*
X137141000Y-49300000D02*
X137141000Y-51800000D01*
X137141000Y-44720000D02*
X137141000Y-47220000D01*
X137101000Y-49300000D02*
X137101000Y-51822000D01*
X137101000Y-44698000D02*
X137101000Y-47220000D01*
X137061000Y-49300000D02*
X137061000Y-51844000D01*
X137061000Y-44676000D02*
X137061000Y-47220000D01*
X137021000Y-49300000D02*
X137021000Y-51866000D01*
X137021000Y-44654000D02*
X137021000Y-47220000D01*
X136981000Y-49300000D02*
X136981000Y-51887000D01*
X136981000Y-44633000D02*
X136981000Y-47220000D01*
X136941000Y-49300000D02*
X136941000Y-51907000D01*
X136941000Y-44613000D02*
X136941000Y-47220000D01*
X136901000Y-49300000D02*
X136901000Y-51926000D01*
X136901000Y-44594000D02*
X136901000Y-47220000D01*
X136861000Y-49300000D02*
X136861000Y-51946000D01*
X136861000Y-44574000D02*
X136861000Y-47220000D01*
X136821000Y-49300000D02*
X136821000Y-51964000D01*
X136821000Y-44556000D02*
X136821000Y-47220000D01*
X136781000Y-49300000D02*
X136781000Y-51982000D01*
X136781000Y-44538000D02*
X136781000Y-47220000D01*
X136741000Y-49300000D02*
X136741000Y-52000000D01*
X136741000Y-44520000D02*
X136741000Y-47220000D01*
X136701000Y-49300000D02*
X136701000Y-52017000D01*
X136701000Y-44503000D02*
X136701000Y-47220000D01*
X136661000Y-49300000D02*
X136661000Y-52034000D01*
X136661000Y-44486000D02*
X136661000Y-47220000D01*
X136621000Y-49300000D02*
X136621000Y-52050000D01*
X136621000Y-44470000D02*
X136621000Y-47220000D01*
X136581000Y-49300000D02*
X136581000Y-52065000D01*
X136581000Y-44455000D02*
X136581000Y-47220000D01*
X136541000Y-49300000D02*
X136541000Y-52081000D01*
X136541000Y-44439000D02*
X136541000Y-47220000D01*
X136501000Y-49300000D02*
X136501000Y-52095000D01*
X136501000Y-44425000D02*
X136501000Y-47220000D01*
X136461000Y-49300000D02*
X136461000Y-52110000D01*
X136461000Y-44410000D02*
X136461000Y-47220000D01*
X136421000Y-49300000D02*
X136421000Y-52123000D01*
X136421000Y-44397000D02*
X136421000Y-47220000D01*
X136381000Y-49300000D02*
X136381000Y-52137000D01*
X136381000Y-44383000D02*
X136381000Y-47220000D01*
X136341000Y-49300000D02*
X136341000Y-52149000D01*
X136341000Y-44371000D02*
X136341000Y-47220000D01*
X136301000Y-49300000D02*
X136301000Y-52162000D01*
X136301000Y-44358000D02*
X136301000Y-47220000D01*
X136261000Y-49300000D02*
X136261000Y-52174000D01*
X136261000Y-44346000D02*
X136261000Y-47220000D01*
X136221000Y-49300000D02*
X136221000Y-52185000D01*
X136221000Y-44335000D02*
X136221000Y-47220000D01*
X136181000Y-49300000D02*
X136181000Y-52196000D01*
X136181000Y-44324000D02*
X136181000Y-47220000D01*
X136141000Y-49300000D02*
X136141000Y-52207000D01*
X136141000Y-44313000D02*
X136141000Y-47220000D01*
X136101000Y-49300000D02*
X136101000Y-52217000D01*
X136101000Y-44303000D02*
X136101000Y-47220000D01*
X136061000Y-49300000D02*
X136061000Y-52227000D01*
X136061000Y-44293000D02*
X136061000Y-47220000D01*
X136021000Y-49300000D02*
X136021000Y-52236000D01*
X136021000Y-44284000D02*
X136021000Y-47220000D01*
X135981000Y-49300000D02*
X135981000Y-52245000D01*
X135981000Y-44275000D02*
X135981000Y-47220000D01*
X135941000Y-49300000D02*
X135941000Y-52254000D01*
X135941000Y-44266000D02*
X135941000Y-47220000D01*
X135901000Y-49300000D02*
X135901000Y-52262000D01*
X135901000Y-44258000D02*
X135901000Y-47220000D01*
X135861000Y-49300000D02*
X135861000Y-52270000D01*
X135861000Y-44250000D02*
X135861000Y-47220000D01*
X135821000Y-49300000D02*
X135821000Y-52277000D01*
X135821000Y-44243000D02*
X135821000Y-47220000D01*
X135780000Y-44236000D02*
X135780000Y-52284000D01*
X135740000Y-44230000D02*
X135740000Y-52290000D01*
X135700000Y-44223000D02*
X135700000Y-52297000D01*
X135660000Y-44218000D02*
X135660000Y-52302000D01*
X135620000Y-44212000D02*
X135620000Y-52308000D01*
X135580000Y-44208000D02*
X135580000Y-52312000D01*
X135540000Y-44203000D02*
X135540000Y-52317000D01*
X135500000Y-44199000D02*
X135500000Y-52321000D01*
X135460000Y-44195000D02*
X135460000Y-52325000D01*
X135420000Y-44192000D02*
X135420000Y-52328000D01*
X135380000Y-44189000D02*
X135380000Y-52331000D01*
X135340000Y-44186000D02*
X135340000Y-52334000D01*
X135300000Y-44184000D02*
X135300000Y-52336000D01*
X135260000Y-44183000D02*
X135260000Y-52337000D01*
X135220000Y-44181000D02*
X135220000Y-52339000D01*
X135180000Y-44180000D02*
X135180000Y-52340000D01*
X135140000Y-44180000D02*
X135140000Y-52340000D01*
X135100000Y-44180000D02*
X135100000Y-52340000D01*
X139220000Y-48260000D02*
G75*
G03*
X139220000Y-48260000I-4120000J0D01*
G01*
%TO.C,C4*%
X116480000Y-39972064D02*
X116480000Y-38767936D01*
X114660000Y-39972064D02*
X114660000Y-38767936D01*
%TO.C,C3*%
X101240000Y-39972064D02*
X101240000Y-38767936D01*
X99420000Y-39972064D02*
X99420000Y-38767936D01*
%TO.C,U1*%
X109860000Y-42780000D02*
X109860000Y-41520000D01*
X109860000Y-35960000D02*
X109860000Y-37220000D01*
X106100000Y-42780000D02*
X109860000Y-42780000D01*
X103850000Y-35960000D02*
X109860000Y-35960000D01*
%TO.C,R5*%
X106012064Y-65130000D02*
X104807936Y-65130000D01*
X106012064Y-66950000D02*
X104807936Y-66950000D01*
%TO.C,R2*%
X106012064Y-63140000D02*
X104807936Y-63140000D01*
X106012064Y-61320000D02*
X104807936Y-61320000D01*
%TO.C,C11*%
X105292500Y-76070000D02*
X102552500Y-76070000D01*
X105292500Y-68630000D02*
X102552500Y-68630000D01*
X102552500Y-68630000D02*
X102552500Y-76070000D01*
X105292500Y-68630000D02*
X105292500Y-76070000D01*
%TO.C,C9*%
X102552500Y-52200000D02*
X105292500Y-52200000D01*
X102552500Y-59640000D02*
X105292500Y-59640000D01*
X105292500Y-59640000D02*
X105292500Y-52200000D01*
X102552500Y-59640000D02*
X102552500Y-52200000D01*
%TO.C,C13*%
X133710000Y-61562064D02*
X133710000Y-60357936D01*
X135530000Y-61562064D02*
X135530000Y-60357936D01*
%TO.C,C12*%
X120290000Y-61562064D02*
X120290000Y-60357936D01*
X118470000Y-61562064D02*
X118470000Y-60357936D01*
%TO.C,C8*%
X115745000Y-66320302D02*
X114945000Y-66320302D01*
X115345000Y-65920302D02*
X115345000Y-66720302D01*
X113563000Y-74411000D02*
X112497000Y-74411000D01*
X113798000Y-74371000D02*
X112262000Y-74371000D01*
X113978000Y-74331000D02*
X112082000Y-74331000D01*
X114128000Y-74291000D02*
X111932000Y-74291000D01*
X114259000Y-74251000D02*
X111801000Y-74251000D01*
X114376000Y-74211000D02*
X111684000Y-74211000D01*
X114483000Y-74171000D02*
X111577000Y-74171000D01*
X114582000Y-74131000D02*
X111478000Y-74131000D01*
X114675000Y-74091000D02*
X111385000Y-74091000D01*
X114761000Y-74051000D02*
X111299000Y-74051000D01*
X114843000Y-74011000D02*
X111217000Y-74011000D01*
X114920000Y-73971000D02*
X111140000Y-73971000D01*
X114994000Y-73931000D02*
X111066000Y-73931000D01*
X115064000Y-73891000D02*
X110996000Y-73891000D01*
X115132000Y-73851000D02*
X110928000Y-73851000D01*
X115196000Y-73811000D02*
X110864000Y-73811000D01*
X115258000Y-73771000D02*
X110802000Y-73771000D01*
X115317000Y-73731000D02*
X110743000Y-73731000D01*
X115375000Y-73691000D02*
X110685000Y-73691000D01*
X115430000Y-73651000D02*
X110630000Y-73651000D01*
X115484000Y-73611000D02*
X110576000Y-73611000D01*
X115535000Y-73571000D02*
X110525000Y-73571000D01*
X115586000Y-73531000D02*
X110474000Y-73531000D01*
X115634000Y-73491000D02*
X110426000Y-73491000D01*
X115681000Y-73451000D02*
X110379000Y-73451000D01*
X115727000Y-73411000D02*
X110333000Y-73411000D01*
X115771000Y-73371000D02*
X110289000Y-73371000D01*
X115814000Y-73331000D02*
X110246000Y-73331000D01*
X115856000Y-73291000D02*
X110204000Y-73291000D01*
X115897000Y-73251000D02*
X110163000Y-73251000D01*
X115937000Y-73211000D02*
X110123000Y-73211000D01*
X115975000Y-73171000D02*
X110085000Y-73171000D01*
X116013000Y-73131000D02*
X110047000Y-73131000D01*
X111990000Y-73091000D02*
X110011000Y-73091000D01*
X116049000Y-73091000D02*
X114070000Y-73091000D01*
X111990000Y-73051000D02*
X109975000Y-73051000D01*
X116085000Y-73051000D02*
X114070000Y-73051000D01*
X111990000Y-73011000D02*
X109940000Y-73011000D01*
X116120000Y-73011000D02*
X114070000Y-73011000D01*
X111990000Y-72971000D02*
X109906000Y-72971000D01*
X116154000Y-72971000D02*
X114070000Y-72971000D01*
X111990000Y-72931000D02*
X109874000Y-72931000D01*
X116186000Y-72931000D02*
X114070000Y-72931000D01*
X111990000Y-72891000D02*
X109841000Y-72891000D01*
X116219000Y-72891000D02*
X114070000Y-72891000D01*
X111990000Y-72851000D02*
X109810000Y-72851000D01*
X116250000Y-72851000D02*
X114070000Y-72851000D01*
X111990000Y-72811000D02*
X109780000Y-72811000D01*
X116280000Y-72811000D02*
X114070000Y-72811000D01*
X111990000Y-72771000D02*
X109750000Y-72771000D01*
X116310000Y-72771000D02*
X114070000Y-72771000D01*
X111990000Y-72731000D02*
X109721000Y-72731000D01*
X116339000Y-72731000D02*
X114070000Y-72731000D01*
X111990000Y-72691000D02*
X109692000Y-72691000D01*
X116368000Y-72691000D02*
X114070000Y-72691000D01*
X111990000Y-72651000D02*
X109665000Y-72651000D01*
X116395000Y-72651000D02*
X114070000Y-72651000D01*
X111990000Y-72611000D02*
X109638000Y-72611000D01*
X116422000Y-72611000D02*
X114070000Y-72611000D01*
X111990000Y-72571000D02*
X109612000Y-72571000D01*
X116448000Y-72571000D02*
X114070000Y-72571000D01*
X111990000Y-72531000D02*
X109586000Y-72531000D01*
X116474000Y-72531000D02*
X114070000Y-72531000D01*
X111990000Y-72491000D02*
X109561000Y-72491000D01*
X116499000Y-72491000D02*
X114070000Y-72491000D01*
X111990000Y-72451000D02*
X109537000Y-72451000D01*
X116523000Y-72451000D02*
X114070000Y-72451000D01*
X111990000Y-72411000D02*
X109513000Y-72411000D01*
X116547000Y-72411000D02*
X114070000Y-72411000D01*
X111990000Y-72371000D02*
X109490000Y-72371000D01*
X116570000Y-72371000D02*
X114070000Y-72371000D01*
X111990000Y-72331000D02*
X109468000Y-72331000D01*
X116592000Y-72331000D02*
X114070000Y-72331000D01*
X111990000Y-72291000D02*
X109446000Y-72291000D01*
X116614000Y-72291000D02*
X114070000Y-72291000D01*
X111990000Y-72251000D02*
X109424000Y-72251000D01*
X116636000Y-72251000D02*
X114070000Y-72251000D01*
X111990000Y-72211000D02*
X109403000Y-72211000D01*
X116657000Y-72211000D02*
X114070000Y-72211000D01*
X111990000Y-72171000D02*
X109383000Y-72171000D01*
X116677000Y-72171000D02*
X114070000Y-72171000D01*
X111990000Y-72131000D02*
X109364000Y-72131000D01*
X116696000Y-72131000D02*
X114070000Y-72131000D01*
X111990000Y-72091000D02*
X109344000Y-72091000D01*
X116716000Y-72091000D02*
X114070000Y-72091000D01*
X111990000Y-72051000D02*
X109326000Y-72051000D01*
X116734000Y-72051000D02*
X114070000Y-72051000D01*
X111990000Y-72011000D02*
X109308000Y-72011000D01*
X116752000Y-72011000D02*
X114070000Y-72011000D01*
X111990000Y-71971000D02*
X109290000Y-71971000D01*
X116770000Y-71971000D02*
X114070000Y-71971000D01*
X111990000Y-71931000D02*
X109273000Y-71931000D01*
X116787000Y-71931000D02*
X114070000Y-71931000D01*
X111990000Y-71891000D02*
X109256000Y-71891000D01*
X116804000Y-71891000D02*
X114070000Y-71891000D01*
X111990000Y-71851000D02*
X109240000Y-71851000D01*
X116820000Y-71851000D02*
X114070000Y-71851000D01*
X111990000Y-71811000D02*
X109225000Y-71811000D01*
X116835000Y-71811000D02*
X114070000Y-71811000D01*
X111990000Y-71771000D02*
X109209000Y-71771000D01*
X116851000Y-71771000D02*
X114070000Y-71771000D01*
X111990000Y-71731000D02*
X109195000Y-71731000D01*
X116865000Y-71731000D02*
X114070000Y-71731000D01*
X111990000Y-71691000D02*
X109180000Y-71691000D01*
X116880000Y-71691000D02*
X114070000Y-71691000D01*
X111990000Y-71651000D02*
X109167000Y-71651000D01*
X116893000Y-71651000D02*
X114070000Y-71651000D01*
X111990000Y-71611000D02*
X109153000Y-71611000D01*
X116907000Y-71611000D02*
X114070000Y-71611000D01*
X111990000Y-71571000D02*
X109141000Y-71571000D01*
X116919000Y-71571000D02*
X114070000Y-71571000D01*
X111990000Y-71531000D02*
X109128000Y-71531000D01*
X116932000Y-71531000D02*
X114070000Y-71531000D01*
X111990000Y-71491000D02*
X109116000Y-71491000D01*
X116944000Y-71491000D02*
X114070000Y-71491000D01*
X111990000Y-71451000D02*
X109105000Y-71451000D01*
X116955000Y-71451000D02*
X114070000Y-71451000D01*
X111990000Y-71411000D02*
X109094000Y-71411000D01*
X116966000Y-71411000D02*
X114070000Y-71411000D01*
X111990000Y-71371000D02*
X109083000Y-71371000D01*
X116977000Y-71371000D02*
X114070000Y-71371000D01*
X111990000Y-71331000D02*
X109073000Y-71331000D01*
X116987000Y-71331000D02*
X114070000Y-71331000D01*
X111990000Y-71291000D02*
X109063000Y-71291000D01*
X116997000Y-71291000D02*
X114070000Y-71291000D01*
X111990000Y-71251000D02*
X109054000Y-71251000D01*
X117006000Y-71251000D02*
X114070000Y-71251000D01*
X111990000Y-71211000D02*
X109045000Y-71211000D01*
X117015000Y-71211000D02*
X114070000Y-71211000D01*
X111990000Y-71171000D02*
X109036000Y-71171000D01*
X117024000Y-71171000D02*
X114070000Y-71171000D01*
X111990000Y-71131000D02*
X109028000Y-71131000D01*
X117032000Y-71131000D02*
X114070000Y-71131000D01*
X111990000Y-71091000D02*
X109020000Y-71091000D01*
X117040000Y-71091000D02*
X114070000Y-71091000D01*
X111990000Y-71051000D02*
X109013000Y-71051000D01*
X117047000Y-71051000D02*
X114070000Y-71051000D01*
X117054000Y-71010000D02*
X109006000Y-71010000D01*
X117060000Y-70970000D02*
X109000000Y-70970000D01*
X117067000Y-70930000D02*
X108993000Y-70930000D01*
X117072000Y-70890000D02*
X108988000Y-70890000D01*
X117078000Y-70850000D02*
X108982000Y-70850000D01*
X117082000Y-70810000D02*
X108978000Y-70810000D01*
X117087000Y-70770000D02*
X108973000Y-70770000D01*
X117091000Y-70730000D02*
X108969000Y-70730000D01*
X117095000Y-70690000D02*
X108965000Y-70690000D01*
X117098000Y-70650000D02*
X108962000Y-70650000D01*
X117101000Y-70610000D02*
X108959000Y-70610000D01*
X117104000Y-70570000D02*
X108956000Y-70570000D01*
X117106000Y-70530000D02*
X108954000Y-70530000D01*
X117107000Y-70490000D02*
X108953000Y-70490000D01*
X117109000Y-70450000D02*
X108951000Y-70450000D01*
X117110000Y-70410000D02*
X108950000Y-70410000D01*
X117110000Y-70370000D02*
X108950000Y-70370000D01*
X117110000Y-70330000D02*
X108950000Y-70330000D01*
X117150000Y-70330000D02*
G75*
G03*
X117150000Y-70330000I-4120000J0D01*
G01*
%TO.C,C5*%
X122909698Y-50975000D02*
X122909698Y-50175000D01*
X123309698Y-50575000D02*
X122509698Y-50575000D01*
X114819000Y-48793000D02*
X114819000Y-47727000D01*
X114859000Y-49028000D02*
X114859000Y-47492000D01*
X114899000Y-49208000D02*
X114899000Y-47312000D01*
X114939000Y-49358000D02*
X114939000Y-47162000D01*
X114979000Y-49489000D02*
X114979000Y-47031000D01*
X115019000Y-49606000D02*
X115019000Y-46914000D01*
X115059000Y-49713000D02*
X115059000Y-46807000D01*
X115099000Y-49812000D02*
X115099000Y-46708000D01*
X115139000Y-49905000D02*
X115139000Y-46615000D01*
X115179000Y-49991000D02*
X115179000Y-46529000D01*
X115219000Y-50073000D02*
X115219000Y-46447000D01*
X115259000Y-50150000D02*
X115259000Y-46370000D01*
X115299000Y-50224000D02*
X115299000Y-46296000D01*
X115339000Y-50294000D02*
X115339000Y-46226000D01*
X115379000Y-50362000D02*
X115379000Y-46158000D01*
X115419000Y-50426000D02*
X115419000Y-46094000D01*
X115459000Y-50488000D02*
X115459000Y-46032000D01*
X115499000Y-50547000D02*
X115499000Y-45973000D01*
X115539000Y-50605000D02*
X115539000Y-45915000D01*
X115579000Y-50660000D02*
X115579000Y-45860000D01*
X115619000Y-50714000D02*
X115619000Y-45806000D01*
X115659000Y-50765000D02*
X115659000Y-45755000D01*
X115699000Y-50816000D02*
X115699000Y-45704000D01*
X115739000Y-50864000D02*
X115739000Y-45656000D01*
X115779000Y-50911000D02*
X115779000Y-45609000D01*
X115819000Y-50957000D02*
X115819000Y-45563000D01*
X115859000Y-51001000D02*
X115859000Y-45519000D01*
X115899000Y-51044000D02*
X115899000Y-45476000D01*
X115939000Y-51086000D02*
X115939000Y-45434000D01*
X115979000Y-51127000D02*
X115979000Y-45393000D01*
X116019000Y-51167000D02*
X116019000Y-45353000D01*
X116059000Y-51205000D02*
X116059000Y-45315000D01*
X116099000Y-51243000D02*
X116099000Y-45277000D01*
X116139000Y-47220000D02*
X116139000Y-45241000D01*
X116139000Y-51279000D02*
X116139000Y-49300000D01*
X116179000Y-47220000D02*
X116179000Y-45205000D01*
X116179000Y-51315000D02*
X116179000Y-49300000D01*
X116219000Y-47220000D02*
X116219000Y-45170000D01*
X116219000Y-51350000D02*
X116219000Y-49300000D01*
X116259000Y-47220000D02*
X116259000Y-45136000D01*
X116259000Y-51384000D02*
X116259000Y-49300000D01*
X116299000Y-47220000D02*
X116299000Y-45104000D01*
X116299000Y-51416000D02*
X116299000Y-49300000D01*
X116339000Y-47220000D02*
X116339000Y-45071000D01*
X116339000Y-51449000D02*
X116339000Y-49300000D01*
X116379000Y-47220000D02*
X116379000Y-45040000D01*
X116379000Y-51480000D02*
X116379000Y-49300000D01*
X116419000Y-47220000D02*
X116419000Y-45010000D01*
X116419000Y-51510000D02*
X116419000Y-49300000D01*
X116459000Y-47220000D02*
X116459000Y-44980000D01*
X116459000Y-51540000D02*
X116459000Y-49300000D01*
X116499000Y-47220000D02*
X116499000Y-44951000D01*
X116499000Y-51569000D02*
X116499000Y-49300000D01*
X116539000Y-47220000D02*
X116539000Y-44922000D01*
X116539000Y-51598000D02*
X116539000Y-49300000D01*
X116579000Y-47220000D02*
X116579000Y-44895000D01*
X116579000Y-51625000D02*
X116579000Y-49300000D01*
X116619000Y-47220000D02*
X116619000Y-44868000D01*
X116619000Y-51652000D02*
X116619000Y-49300000D01*
X116659000Y-47220000D02*
X116659000Y-44842000D01*
X116659000Y-51678000D02*
X116659000Y-49300000D01*
X116699000Y-47220000D02*
X116699000Y-44816000D01*
X116699000Y-51704000D02*
X116699000Y-49300000D01*
X116739000Y-47220000D02*
X116739000Y-44791000D01*
X116739000Y-51729000D02*
X116739000Y-49300000D01*
X116779000Y-47220000D02*
X116779000Y-44767000D01*
X116779000Y-51753000D02*
X116779000Y-49300000D01*
X116819000Y-47220000D02*
X116819000Y-44743000D01*
X116819000Y-51777000D02*
X116819000Y-49300000D01*
X116859000Y-47220000D02*
X116859000Y-44720000D01*
X116859000Y-51800000D02*
X116859000Y-49300000D01*
X116899000Y-47220000D02*
X116899000Y-44698000D01*
X116899000Y-51822000D02*
X116899000Y-49300000D01*
X116939000Y-47220000D02*
X116939000Y-44676000D01*
X116939000Y-51844000D02*
X116939000Y-49300000D01*
X116979000Y-47220000D02*
X116979000Y-44654000D01*
X116979000Y-51866000D02*
X116979000Y-49300000D01*
X117019000Y-47220000D02*
X117019000Y-44633000D01*
X117019000Y-51887000D02*
X117019000Y-49300000D01*
X117059000Y-47220000D02*
X117059000Y-44613000D01*
X117059000Y-51907000D02*
X117059000Y-49300000D01*
X117099000Y-47220000D02*
X117099000Y-44594000D01*
X117099000Y-51926000D02*
X117099000Y-49300000D01*
X117139000Y-47220000D02*
X117139000Y-44574000D01*
X117139000Y-51946000D02*
X117139000Y-49300000D01*
X117179000Y-47220000D02*
X117179000Y-44556000D01*
X117179000Y-51964000D02*
X117179000Y-49300000D01*
X117219000Y-47220000D02*
X117219000Y-44538000D01*
X117219000Y-51982000D02*
X117219000Y-49300000D01*
X117259000Y-47220000D02*
X117259000Y-44520000D01*
X117259000Y-52000000D02*
X117259000Y-49300000D01*
X117299000Y-47220000D02*
X117299000Y-44503000D01*
X117299000Y-52017000D02*
X117299000Y-49300000D01*
X117339000Y-47220000D02*
X117339000Y-44486000D01*
X117339000Y-52034000D02*
X117339000Y-49300000D01*
X117379000Y-47220000D02*
X117379000Y-44470000D01*
X117379000Y-52050000D02*
X117379000Y-49300000D01*
X117419000Y-47220000D02*
X117419000Y-44455000D01*
X117419000Y-52065000D02*
X117419000Y-49300000D01*
X117459000Y-47220000D02*
X117459000Y-44439000D01*
X117459000Y-52081000D02*
X117459000Y-49300000D01*
X117499000Y-47220000D02*
X117499000Y-44425000D01*
X117499000Y-52095000D02*
X117499000Y-49300000D01*
X117539000Y-47220000D02*
X117539000Y-44410000D01*
X117539000Y-52110000D02*
X117539000Y-49300000D01*
X117579000Y-47220000D02*
X117579000Y-44397000D01*
X117579000Y-52123000D02*
X117579000Y-49300000D01*
X117619000Y-47220000D02*
X117619000Y-44383000D01*
X117619000Y-52137000D02*
X117619000Y-49300000D01*
X117659000Y-47220000D02*
X117659000Y-44371000D01*
X117659000Y-52149000D02*
X117659000Y-49300000D01*
X117699000Y-47220000D02*
X117699000Y-44358000D01*
X117699000Y-52162000D02*
X117699000Y-49300000D01*
X117739000Y-47220000D02*
X117739000Y-44346000D01*
X117739000Y-52174000D02*
X117739000Y-49300000D01*
X117779000Y-47220000D02*
X117779000Y-44335000D01*
X117779000Y-52185000D02*
X117779000Y-49300000D01*
X117819000Y-47220000D02*
X117819000Y-44324000D01*
X117819000Y-52196000D02*
X117819000Y-49300000D01*
X117859000Y-47220000D02*
X117859000Y-44313000D01*
X117859000Y-52207000D02*
X117859000Y-49300000D01*
X117899000Y-47220000D02*
X117899000Y-44303000D01*
X117899000Y-52217000D02*
X117899000Y-49300000D01*
X117939000Y-47220000D02*
X117939000Y-44293000D01*
X117939000Y-52227000D02*
X117939000Y-49300000D01*
X117979000Y-47220000D02*
X117979000Y-44284000D01*
X117979000Y-52236000D02*
X117979000Y-49300000D01*
X118019000Y-47220000D02*
X118019000Y-44275000D01*
X118019000Y-52245000D02*
X118019000Y-49300000D01*
X118059000Y-47220000D02*
X118059000Y-44266000D01*
X118059000Y-52254000D02*
X118059000Y-49300000D01*
X118099000Y-47220000D02*
X118099000Y-44258000D01*
X118099000Y-52262000D02*
X118099000Y-49300000D01*
X118139000Y-47220000D02*
X118139000Y-44250000D01*
X118139000Y-52270000D02*
X118139000Y-49300000D01*
X118179000Y-47220000D02*
X118179000Y-44243000D01*
X118179000Y-52277000D02*
X118179000Y-49300000D01*
X118220000Y-52284000D02*
X118220000Y-44236000D01*
X118260000Y-52290000D02*
X118260000Y-44230000D01*
X118300000Y-52297000D02*
X118300000Y-44223000D01*
X118340000Y-52302000D02*
X118340000Y-44218000D01*
X118380000Y-52308000D02*
X118380000Y-44212000D01*
X118420000Y-52312000D02*
X118420000Y-44208000D01*
X118460000Y-52317000D02*
X118460000Y-44203000D01*
X118500000Y-52321000D02*
X118500000Y-44199000D01*
X118540000Y-52325000D02*
X118540000Y-44195000D01*
X118580000Y-52328000D02*
X118580000Y-44192000D01*
X118620000Y-52331000D02*
X118620000Y-44189000D01*
X118660000Y-52334000D02*
X118660000Y-44186000D01*
X118700000Y-52336000D02*
X118700000Y-44184000D01*
X118740000Y-52337000D02*
X118740000Y-44183000D01*
X118780000Y-52339000D02*
X118780000Y-44181000D01*
X118820000Y-52340000D02*
X118820000Y-44180000D01*
X118860000Y-52340000D02*
X118860000Y-44180000D01*
X118900000Y-52340000D02*
X118900000Y-44180000D01*
X123020000Y-48260000D02*
G75*
G03*
X123020000Y-48260000I-4120000J0D01*
G01*
%TO.C,C7*%
X121560000Y-67977936D02*
X121560000Y-69182064D01*
X119740000Y-67977936D02*
X119740000Y-69182064D01*
%TO.C,C2*%
X132747936Y-54970000D02*
X133952064Y-54970000D01*
X132747936Y-56790000D02*
X133952064Y-56790000D01*
%TO.C,C6*%
X121252064Y-56790000D02*
X120047936Y-56790000D01*
X121252064Y-54970000D02*
X120047936Y-54970000D01*
%TO.C,C10*%
X126397936Y-58060000D02*
X127602064Y-58060000D01*
X126397936Y-56240000D02*
X127602064Y-56240000D01*
%TO.C,U2*%
X127000000Y-60115000D02*
X123400000Y-60115000D01*
X127000000Y-60115000D02*
X129200000Y-60115000D01*
X127000000Y-66885000D02*
X124800000Y-66885000D01*
X127000000Y-66885000D02*
X129200000Y-66885000D01*
%TO.C,J3*%
D10*
X146986666Y-54062380D02*
X146986666Y-54776666D01*
X146939047Y-54919523D01*
X146843809Y-55014761D01*
X146700952Y-55062380D01*
X146605714Y-55062380D01*
X147367619Y-54062380D02*
X147986666Y-54062380D01*
X147653333Y-54443333D01*
X147796190Y-54443333D01*
X147891428Y-54490952D01*
X147939047Y-54538571D01*
X147986666Y-54633809D01*
X147986666Y-54871904D01*
X147939047Y-54967142D01*
X147891428Y-55014761D01*
X147796190Y-55062380D01*
X147510476Y-55062380D01*
X147415238Y-55014761D01*
X147367619Y-54967142D01*
%TO.C,J2*%
X96186666Y-57872380D02*
X96186666Y-58586666D01*
X96139047Y-58729523D01*
X96043809Y-58824761D01*
X95900952Y-58872380D01*
X95805714Y-58872380D01*
X96615238Y-57967619D02*
X96662857Y-57920000D01*
X96758095Y-57872380D01*
X96996190Y-57872380D01*
X97091428Y-57920000D01*
X97139047Y-57967619D01*
X97186666Y-58062857D01*
X97186666Y-58158095D01*
X97139047Y-58300952D01*
X96567619Y-58872380D01*
X97186666Y-58872380D01*
%TO.C,J1*%
X96186666Y-41362380D02*
X96186666Y-42076666D01*
X96139047Y-42219523D01*
X96043809Y-42314761D01*
X95900952Y-42362380D01*
X95805714Y-42362380D01*
X97186666Y-42362380D02*
X96615238Y-42362380D01*
X96900952Y-42362380D02*
X96900952Y-41362380D01*
X96805714Y-41505238D01*
X96710476Y-41600476D01*
X96615238Y-41648095D01*
%TO.C,R6*%
X138263333Y-79742380D02*
X137930000Y-79266190D01*
X137691904Y-79742380D02*
X137691904Y-78742380D01*
X138072857Y-78742380D01*
X138168095Y-78790000D01*
X138215714Y-78837619D01*
X138263333Y-78932857D01*
X138263333Y-79075714D01*
X138215714Y-79170952D01*
X138168095Y-79218571D01*
X138072857Y-79266190D01*
X137691904Y-79266190D01*
X139120476Y-78742380D02*
X138930000Y-78742380D01*
X138834761Y-78790000D01*
X138787142Y-78837619D01*
X138691904Y-78980476D01*
X138644285Y-79170952D01*
X138644285Y-79551904D01*
X138691904Y-79647142D01*
X138739523Y-79694761D01*
X138834761Y-79742380D01*
X139025238Y-79742380D01*
X139120476Y-79694761D01*
X139168095Y-79647142D01*
X139215714Y-79551904D01*
X139215714Y-79313809D01*
X139168095Y-79218571D01*
X139120476Y-79170952D01*
X139025238Y-79123333D01*
X138834761Y-79123333D01*
X138739523Y-79170952D01*
X138691904Y-79218571D01*
X138644285Y-79313809D01*
%TO.C,R4*%
X138263333Y-75932380D02*
X137930000Y-75456190D01*
X137691904Y-75932380D02*
X137691904Y-74932380D01*
X138072857Y-74932380D01*
X138168095Y-74980000D01*
X138215714Y-75027619D01*
X138263333Y-75122857D01*
X138263333Y-75265714D01*
X138215714Y-75360952D01*
X138168095Y-75408571D01*
X138072857Y-75456190D01*
X137691904Y-75456190D01*
X139120476Y-75265714D02*
X139120476Y-75932380D01*
X138882380Y-74884761D02*
X138644285Y-75599047D01*
X139263333Y-75599047D01*
%TO.C,R3*%
X138263333Y-72122380D02*
X137930000Y-71646190D01*
X137691904Y-72122380D02*
X137691904Y-71122380D01*
X138072857Y-71122380D01*
X138168095Y-71170000D01*
X138215714Y-71217619D01*
X138263333Y-71312857D01*
X138263333Y-71455714D01*
X138215714Y-71550952D01*
X138168095Y-71598571D01*
X138072857Y-71646190D01*
X137691904Y-71646190D01*
X138596666Y-71122380D02*
X139215714Y-71122380D01*
X138882380Y-71503333D01*
X139025238Y-71503333D01*
X139120476Y-71550952D01*
X139168095Y-71598571D01*
X139215714Y-71693809D01*
X139215714Y-71931904D01*
X139168095Y-72027142D01*
X139120476Y-72074761D01*
X139025238Y-72122380D01*
X138739523Y-72122380D01*
X138644285Y-72074761D01*
X138596666Y-72027142D01*
%TO.C,R1*%
X138263333Y-68312380D02*
X137930000Y-67836190D01*
X137691904Y-68312380D02*
X137691904Y-67312380D01*
X138072857Y-67312380D01*
X138168095Y-67360000D01*
X138215714Y-67407619D01*
X138263333Y-67502857D01*
X138263333Y-67645714D01*
X138215714Y-67740952D01*
X138168095Y-67788571D01*
X138072857Y-67836190D01*
X137691904Y-67836190D01*
X139215714Y-68312380D02*
X138644285Y-68312380D01*
X138930000Y-68312380D02*
X138930000Y-67312380D01*
X138834761Y-67455238D01*
X138739523Y-67550476D01*
X138644285Y-67598095D01*
%TO.C,C1*%
X134933333Y-43367142D02*
X134885714Y-43414761D01*
X134742857Y-43462380D01*
X134647619Y-43462380D01*
X134504761Y-43414761D01*
X134409523Y-43319523D01*
X134361904Y-43224285D01*
X134314285Y-43033809D01*
X134314285Y-42890952D01*
X134361904Y-42700476D01*
X134409523Y-42605238D01*
X134504761Y-42510000D01*
X134647619Y-42462380D01*
X134742857Y-42462380D01*
X134885714Y-42510000D01*
X134933333Y-42557619D01*
X135885714Y-43462380D02*
X135314285Y-43462380D01*
X135600000Y-43462380D02*
X135600000Y-42462380D01*
X135504761Y-42605238D01*
X135409523Y-42700476D01*
X135314285Y-42748095D01*
%TO.C,C4*%
X114107142Y-39536666D02*
X114154761Y-39584285D01*
X114202380Y-39727142D01*
X114202380Y-39822380D01*
X114154761Y-39965238D01*
X114059523Y-40060476D01*
X113964285Y-40108095D01*
X113773809Y-40155714D01*
X113630952Y-40155714D01*
X113440476Y-40108095D01*
X113345238Y-40060476D01*
X113250000Y-39965238D01*
X113202380Y-39822380D01*
X113202380Y-39727142D01*
X113250000Y-39584285D01*
X113297619Y-39536666D01*
X113535714Y-38679523D02*
X114202380Y-38679523D01*
X113154761Y-38917619D02*
X113869047Y-39155714D01*
X113869047Y-38536666D01*
%TO.C,C3*%
X98867142Y-39536666D02*
X98914761Y-39584285D01*
X98962380Y-39727142D01*
X98962380Y-39822380D01*
X98914761Y-39965238D01*
X98819523Y-40060476D01*
X98724285Y-40108095D01*
X98533809Y-40155714D01*
X98390952Y-40155714D01*
X98200476Y-40108095D01*
X98105238Y-40060476D01*
X98010000Y-39965238D01*
X97962380Y-39822380D01*
X97962380Y-39727142D01*
X98010000Y-39584285D01*
X98057619Y-39536666D01*
X97962380Y-39203333D02*
X97962380Y-38584285D01*
X98343333Y-38917619D01*
X98343333Y-38774761D01*
X98390952Y-38679523D01*
X98438571Y-38631904D01*
X98533809Y-38584285D01*
X98771904Y-38584285D01*
X98867142Y-38631904D01*
X98914761Y-38679523D01*
X98962380Y-38774761D01*
X98962380Y-39060476D01*
X98914761Y-39155714D01*
X98867142Y-39203333D01*
%TO.C,U1*%
X107188095Y-34322380D02*
X107188095Y-35131904D01*
X107235714Y-35227142D01*
X107283333Y-35274761D01*
X107378571Y-35322380D01*
X107569047Y-35322380D01*
X107664285Y-35274761D01*
X107711904Y-35227142D01*
X107759523Y-35131904D01*
X107759523Y-34322380D01*
X108759523Y-35322380D02*
X108188095Y-35322380D01*
X108473809Y-35322380D02*
X108473809Y-34322380D01*
X108378571Y-34465238D01*
X108283333Y-34560476D01*
X108188095Y-34608095D01*
%TO.C,R5*%
X105243333Y-68312380D02*
X104910000Y-67836190D01*
X104671904Y-68312380D02*
X104671904Y-67312380D01*
X105052857Y-67312380D01*
X105148095Y-67360000D01*
X105195714Y-67407619D01*
X105243333Y-67502857D01*
X105243333Y-67645714D01*
X105195714Y-67740952D01*
X105148095Y-67788571D01*
X105052857Y-67836190D01*
X104671904Y-67836190D01*
X106148095Y-67312380D02*
X105671904Y-67312380D01*
X105624285Y-67788571D01*
X105671904Y-67740952D01*
X105767142Y-67693333D01*
X106005238Y-67693333D01*
X106100476Y-67740952D01*
X106148095Y-67788571D01*
X106195714Y-67883809D01*
X106195714Y-68121904D01*
X106148095Y-68217142D01*
X106100476Y-68264761D01*
X106005238Y-68312380D01*
X105767142Y-68312380D01*
X105671904Y-68264761D01*
X105624285Y-68217142D01*
%TO.C,R2*%
X105243333Y-64502380D02*
X104910000Y-64026190D01*
X104671904Y-64502380D02*
X104671904Y-63502380D01*
X105052857Y-63502380D01*
X105148095Y-63550000D01*
X105195714Y-63597619D01*
X105243333Y-63692857D01*
X105243333Y-63835714D01*
X105195714Y-63930952D01*
X105148095Y-63978571D01*
X105052857Y-64026190D01*
X104671904Y-64026190D01*
X105624285Y-63597619D02*
X105671904Y-63550000D01*
X105767142Y-63502380D01*
X106005238Y-63502380D01*
X106100476Y-63550000D01*
X106148095Y-63597619D01*
X106195714Y-63692857D01*
X106195714Y-63788095D01*
X106148095Y-63930952D01*
X105576666Y-64502380D01*
X106195714Y-64502380D01*
%TO.C,C11*%
X106779642Y-72992857D02*
X106827261Y-73040476D01*
X106874880Y-73183333D01*
X106874880Y-73278571D01*
X106827261Y-73421428D01*
X106732023Y-73516666D01*
X106636785Y-73564285D01*
X106446309Y-73611904D01*
X106303452Y-73611904D01*
X106112976Y-73564285D01*
X106017738Y-73516666D01*
X105922500Y-73421428D01*
X105874880Y-73278571D01*
X105874880Y-73183333D01*
X105922500Y-73040476D01*
X105970119Y-72992857D01*
X106874880Y-72040476D02*
X106874880Y-72611904D01*
X106874880Y-72326190D02*
X105874880Y-72326190D01*
X106017738Y-72421428D01*
X106112976Y-72516666D01*
X106160595Y-72611904D01*
X106874880Y-71088095D02*
X106874880Y-71659523D01*
X106874880Y-71373809D02*
X105874880Y-71373809D01*
X106017738Y-71469047D01*
X106112976Y-71564285D01*
X106160595Y-71659523D01*
%TO.C,C9*%
X106779642Y-56086666D02*
X106827261Y-56134285D01*
X106874880Y-56277142D01*
X106874880Y-56372380D01*
X106827261Y-56515238D01*
X106732023Y-56610476D01*
X106636785Y-56658095D01*
X106446309Y-56705714D01*
X106303452Y-56705714D01*
X106112976Y-56658095D01*
X106017738Y-56610476D01*
X105922500Y-56515238D01*
X105874880Y-56372380D01*
X105874880Y-56277142D01*
X105922500Y-56134285D01*
X105970119Y-56086666D01*
X106874880Y-55610476D02*
X106874880Y-55420000D01*
X106827261Y-55324761D01*
X106779642Y-55277142D01*
X106636785Y-55181904D01*
X106446309Y-55134285D01*
X106065357Y-55134285D01*
X105970119Y-55181904D01*
X105922500Y-55229523D01*
X105874880Y-55324761D01*
X105874880Y-55515238D01*
X105922500Y-55610476D01*
X105970119Y-55658095D01*
X106065357Y-55705714D01*
X106303452Y-55705714D01*
X106398690Y-55658095D01*
X106446309Y-55610476D01*
X106493928Y-55515238D01*
X106493928Y-55324761D01*
X106446309Y-55229523D01*
X106398690Y-55181904D01*
X106303452Y-55134285D01*
%TO.C,C13*%
X133157142Y-61602857D02*
X133204761Y-61650476D01*
X133252380Y-61793333D01*
X133252380Y-61888571D01*
X133204761Y-62031428D01*
X133109523Y-62126666D01*
X133014285Y-62174285D01*
X132823809Y-62221904D01*
X132680952Y-62221904D01*
X132490476Y-62174285D01*
X132395238Y-62126666D01*
X132300000Y-62031428D01*
X132252380Y-61888571D01*
X132252380Y-61793333D01*
X132300000Y-61650476D01*
X132347619Y-61602857D01*
X133252380Y-60650476D02*
X133252380Y-61221904D01*
X133252380Y-60936190D02*
X132252380Y-60936190D01*
X132395238Y-61031428D01*
X132490476Y-61126666D01*
X132538095Y-61221904D01*
X132252380Y-60317142D02*
X132252380Y-59698095D01*
X132633333Y-60031428D01*
X132633333Y-59888571D01*
X132680952Y-59793333D01*
X132728571Y-59745714D01*
X132823809Y-59698095D01*
X133061904Y-59698095D01*
X133157142Y-59745714D01*
X133204761Y-59793333D01*
X133252380Y-59888571D01*
X133252380Y-60174285D01*
X133204761Y-60269523D01*
X133157142Y-60317142D01*
%TO.C,C12*%
X117917142Y-61602857D02*
X117964761Y-61650476D01*
X118012380Y-61793333D01*
X118012380Y-61888571D01*
X117964761Y-62031428D01*
X117869523Y-62126666D01*
X117774285Y-62174285D01*
X117583809Y-62221904D01*
X117440952Y-62221904D01*
X117250476Y-62174285D01*
X117155238Y-62126666D01*
X117060000Y-62031428D01*
X117012380Y-61888571D01*
X117012380Y-61793333D01*
X117060000Y-61650476D01*
X117107619Y-61602857D01*
X118012380Y-60650476D02*
X118012380Y-61221904D01*
X118012380Y-60936190D02*
X117012380Y-60936190D01*
X117155238Y-61031428D01*
X117250476Y-61126666D01*
X117298095Y-61221904D01*
X117107619Y-60269523D02*
X117060000Y-60221904D01*
X117012380Y-60126666D01*
X117012380Y-59888571D01*
X117060000Y-59793333D01*
X117107619Y-59745714D01*
X117202857Y-59698095D01*
X117298095Y-59698095D01*
X117440952Y-59745714D01*
X118012380Y-60317142D01*
X118012380Y-59698095D01*
%TO.C,C8*%
X118637142Y-70496666D02*
X118684761Y-70544285D01*
X118732380Y-70687142D01*
X118732380Y-70782380D01*
X118684761Y-70925238D01*
X118589523Y-71020476D01*
X118494285Y-71068095D01*
X118303809Y-71115714D01*
X118160952Y-71115714D01*
X117970476Y-71068095D01*
X117875238Y-71020476D01*
X117780000Y-70925238D01*
X117732380Y-70782380D01*
X117732380Y-70687142D01*
X117780000Y-70544285D01*
X117827619Y-70496666D01*
X118160952Y-69925238D02*
X118113333Y-70020476D01*
X118065714Y-70068095D01*
X117970476Y-70115714D01*
X117922857Y-70115714D01*
X117827619Y-70068095D01*
X117780000Y-70020476D01*
X117732380Y-69925238D01*
X117732380Y-69734761D01*
X117780000Y-69639523D01*
X117827619Y-69591904D01*
X117922857Y-69544285D01*
X117970476Y-69544285D01*
X118065714Y-69591904D01*
X118113333Y-69639523D01*
X118160952Y-69734761D01*
X118160952Y-69925238D01*
X118208571Y-70020476D01*
X118256190Y-70068095D01*
X118351428Y-70115714D01*
X118541904Y-70115714D01*
X118637142Y-70068095D01*
X118684761Y-70020476D01*
X118732380Y-69925238D01*
X118732380Y-69734761D01*
X118684761Y-69639523D01*
X118637142Y-69591904D01*
X118541904Y-69544285D01*
X118351428Y-69544285D01*
X118256190Y-69591904D01*
X118208571Y-69639523D01*
X118160952Y-69734761D01*
%TO.C,C5*%
X118733333Y-43367142D02*
X118685714Y-43414761D01*
X118542857Y-43462380D01*
X118447619Y-43462380D01*
X118304761Y-43414761D01*
X118209523Y-43319523D01*
X118161904Y-43224285D01*
X118114285Y-43033809D01*
X118114285Y-42890952D01*
X118161904Y-42700476D01*
X118209523Y-42605238D01*
X118304761Y-42510000D01*
X118447619Y-42462380D01*
X118542857Y-42462380D01*
X118685714Y-42510000D01*
X118733333Y-42557619D01*
X119638095Y-42462380D02*
X119161904Y-42462380D01*
X119114285Y-42938571D01*
X119161904Y-42890952D01*
X119257142Y-42843333D01*
X119495238Y-42843333D01*
X119590476Y-42890952D01*
X119638095Y-42938571D01*
X119685714Y-43033809D01*
X119685714Y-43271904D01*
X119638095Y-43367142D01*
X119590476Y-43414761D01*
X119495238Y-43462380D01*
X119257142Y-43462380D01*
X119161904Y-43414761D01*
X119114285Y-43367142D01*
%TO.C,C7*%
X122827142Y-68746666D02*
X122874761Y-68794285D01*
X122922380Y-68937142D01*
X122922380Y-69032380D01*
X122874761Y-69175238D01*
X122779523Y-69270476D01*
X122684285Y-69318095D01*
X122493809Y-69365714D01*
X122350952Y-69365714D01*
X122160476Y-69318095D01*
X122065238Y-69270476D01*
X121970000Y-69175238D01*
X121922380Y-69032380D01*
X121922380Y-68937142D01*
X121970000Y-68794285D01*
X122017619Y-68746666D01*
X121922380Y-68413333D02*
X121922380Y-67746666D01*
X122922380Y-68175238D01*
%TO.C,C2*%
X133183333Y-54417142D02*
X133135714Y-54464761D01*
X132992857Y-54512380D01*
X132897619Y-54512380D01*
X132754761Y-54464761D01*
X132659523Y-54369523D01*
X132611904Y-54274285D01*
X132564285Y-54083809D01*
X132564285Y-53940952D01*
X132611904Y-53750476D01*
X132659523Y-53655238D01*
X132754761Y-53560000D01*
X132897619Y-53512380D01*
X132992857Y-53512380D01*
X133135714Y-53560000D01*
X133183333Y-53607619D01*
X133564285Y-53607619D02*
X133611904Y-53560000D01*
X133707142Y-53512380D01*
X133945238Y-53512380D01*
X134040476Y-53560000D01*
X134088095Y-53607619D01*
X134135714Y-53702857D01*
X134135714Y-53798095D01*
X134088095Y-53940952D01*
X133516666Y-54512380D01*
X134135714Y-54512380D01*
%TO.C,C6*%
X120483333Y-54417142D02*
X120435714Y-54464761D01*
X120292857Y-54512380D01*
X120197619Y-54512380D01*
X120054761Y-54464761D01*
X119959523Y-54369523D01*
X119911904Y-54274285D01*
X119864285Y-54083809D01*
X119864285Y-53940952D01*
X119911904Y-53750476D01*
X119959523Y-53655238D01*
X120054761Y-53560000D01*
X120197619Y-53512380D01*
X120292857Y-53512380D01*
X120435714Y-53560000D01*
X120483333Y-53607619D01*
X121340476Y-53512380D02*
X121150000Y-53512380D01*
X121054761Y-53560000D01*
X121007142Y-53607619D01*
X120911904Y-53750476D01*
X120864285Y-53940952D01*
X120864285Y-54321904D01*
X120911904Y-54417142D01*
X120959523Y-54464761D01*
X121054761Y-54512380D01*
X121245238Y-54512380D01*
X121340476Y-54464761D01*
X121388095Y-54417142D01*
X121435714Y-54321904D01*
X121435714Y-54083809D01*
X121388095Y-53988571D01*
X121340476Y-53940952D01*
X121245238Y-53893333D01*
X121054761Y-53893333D01*
X120959523Y-53940952D01*
X120911904Y-53988571D01*
X120864285Y-54083809D01*
%TO.C,C10*%
X126357142Y-55687142D02*
X126309523Y-55734761D01*
X126166666Y-55782380D01*
X126071428Y-55782380D01*
X125928571Y-55734761D01*
X125833333Y-55639523D01*
X125785714Y-55544285D01*
X125738095Y-55353809D01*
X125738095Y-55210952D01*
X125785714Y-55020476D01*
X125833333Y-54925238D01*
X125928571Y-54830000D01*
X126071428Y-54782380D01*
X126166666Y-54782380D01*
X126309523Y-54830000D01*
X126357142Y-54877619D01*
X127309523Y-55782380D02*
X126738095Y-55782380D01*
X127023809Y-55782380D02*
X127023809Y-54782380D01*
X126928571Y-54925238D01*
X126833333Y-55020476D01*
X126738095Y-55068095D01*
X127928571Y-54782380D02*
X128023809Y-54782380D01*
X128119047Y-54830000D01*
X128166666Y-54877619D01*
X128214285Y-54972857D01*
X128261904Y-55163333D01*
X128261904Y-55401428D01*
X128214285Y-55591904D01*
X128166666Y-55687142D01*
X128119047Y-55734761D01*
X128023809Y-55782380D01*
X127928571Y-55782380D01*
X127833333Y-55734761D01*
X127785714Y-55687142D01*
X127738095Y-55591904D01*
X127690476Y-55401428D01*
X127690476Y-55163333D01*
X127738095Y-54972857D01*
X127785714Y-54877619D01*
X127833333Y-54830000D01*
X127928571Y-54782380D01*
%TO.C,U2*%
X126238095Y-58752380D02*
X126238095Y-59561904D01*
X126285714Y-59657142D01*
X126333333Y-59704761D01*
X126428571Y-59752380D01*
X126619047Y-59752380D01*
X126714285Y-59704761D01*
X126761904Y-59657142D01*
X126809523Y-59561904D01*
X126809523Y-58752380D01*
X127238095Y-58847619D02*
X127285714Y-58800000D01*
X127380952Y-58752380D01*
X127619047Y-58752380D01*
X127714285Y-58800000D01*
X127761904Y-58847619D01*
X127809523Y-58942857D01*
X127809523Y-59038095D01*
X127761904Y-59180952D01*
X127190476Y-59752380D01*
X127809523Y-59752380D01*
%TD*%
M02*
