%TF.GenerationSoftware,KiCad,Pcbnew,(5.1.6)-1*%
%TF.CreationDate,2020-11-10T02:08:12+03:00*%
%TF.ProjectId,dac-001s,6461632d-3030-4317-932e-6b696361645f,rev?*%
%TF.SameCoordinates,Original*%
%TF.FileFunction,Soldermask,Top*%
%TF.FilePolarity,Negative*%
%FSLAX46Y46*%
G04 Gerber Fmt 4.6, Leading zero omitted, Abs format (unit mm)*
G04 Created by KiCad (PCBNEW (5.1.6)-1) date 2020-11-10 02:08:12*
%MOMM*%
%LPD*%
G01*
G04 APERTURE LIST*
%ADD10O,2.050000X1.800000*%
%ADD11O,2.100000X1.800000*%
%ADD12C,3.300000*%
%ADD13C,1.700000*%
%ADD14R,1.700000X1.700000*%
%ADD15R,2.100000X1.600000*%
%ADD16R,2.100000X3.900000*%
G04 APERTURE END LIST*
D10*
%TO.C,J3*%
X147320000Y-70920000D03*
X147320000Y-68420000D03*
X147320000Y-65920000D03*
X147320000Y-63420000D03*
X147320000Y-60920000D03*
G36*
G01*
X146559706Y-57520000D02*
X148080294Y-57520000D01*
G75*
G02*
X148345000Y-57784706I0J-264706D01*
G01*
X148345000Y-59055294D01*
G75*
G02*
X148080294Y-59320000I-264706J0D01*
G01*
X146559706Y-59320000D01*
G75*
G02*
X146295000Y-59055294I0J264706D01*
G01*
X146295000Y-57784706D01*
G75*
G02*
X146559706Y-57520000I264706J0D01*
G01*
G37*
%TD*%
%TO.C,J2*%
X96520000Y-67230000D03*
X96520000Y-64730000D03*
G36*
G01*
X95759706Y-61330000D02*
X97280294Y-61330000D01*
G75*
G02*
X97545000Y-61594706I0J-264706D01*
G01*
X97545000Y-62865294D01*
G75*
G02*
X97280294Y-63130000I-264706J0D01*
G01*
X95759706Y-63130000D01*
G75*
G02*
X95495000Y-62865294I0J264706D01*
G01*
X95495000Y-61594706D01*
G75*
G02*
X95759706Y-61330000I264706J0D01*
G01*
G37*
%TD*%
D11*
%TO.C,J1*%
X96520000Y-48220000D03*
G36*
G01*
X95734706Y-44820000D02*
X97305294Y-44820000D01*
G75*
G02*
X97570000Y-45084706I0J-264706D01*
G01*
X97570000Y-46355294D01*
G75*
G02*
X97305294Y-46620000I-264706J0D01*
G01*
X95734706Y-46620000D01*
G75*
G02*
X95470000Y-46355294I0J264706D01*
G01*
X95470000Y-45084706D01*
G75*
G02*
X95734706Y-44820000I264706J0D01*
G01*
G37*
%TD*%
D12*
%TO.C,H4*%
X153000000Y-79000000D03*
%TD*%
%TO.C,H3*%
X91000000Y-79000000D03*
%TD*%
%TO.C,H2*%
X153000000Y-37000000D03*
%TD*%
%TO.C,H1*%
X91000000Y-37000000D03*
%TD*%
%TO.C,R6*%
G36*
G01*
X137705000Y-76812544D02*
X137705000Y-78127456D01*
G75*
G02*
X137437456Y-78395000I-267544J0D01*
G01*
X136447544Y-78395000D01*
G75*
G02*
X136180000Y-78127456I0J267544D01*
G01*
X136180000Y-76812544D01*
G75*
G02*
X136447544Y-76545000I267544J0D01*
G01*
X137437456Y-76545000D01*
G75*
G02*
X137705000Y-76812544I0J-267544D01*
G01*
G37*
G36*
G01*
X140680000Y-76812544D02*
X140680000Y-78127456D01*
G75*
G02*
X140412456Y-78395000I-267544J0D01*
G01*
X139422544Y-78395000D01*
G75*
G02*
X139155000Y-78127456I0J267544D01*
G01*
X139155000Y-76812544D01*
G75*
G02*
X139422544Y-76545000I267544J0D01*
G01*
X140412456Y-76545000D01*
G75*
G02*
X140680000Y-76812544I0J-267544D01*
G01*
G37*
%TD*%
%TO.C,R4*%
G36*
G01*
X137705000Y-73002544D02*
X137705000Y-74317456D01*
G75*
G02*
X137437456Y-74585000I-267544J0D01*
G01*
X136447544Y-74585000D01*
G75*
G02*
X136180000Y-74317456I0J267544D01*
G01*
X136180000Y-73002544D01*
G75*
G02*
X136447544Y-72735000I267544J0D01*
G01*
X137437456Y-72735000D01*
G75*
G02*
X137705000Y-73002544I0J-267544D01*
G01*
G37*
G36*
G01*
X140680000Y-73002544D02*
X140680000Y-74317456D01*
G75*
G02*
X140412456Y-74585000I-267544J0D01*
G01*
X139422544Y-74585000D01*
G75*
G02*
X139155000Y-74317456I0J267544D01*
G01*
X139155000Y-73002544D01*
G75*
G02*
X139422544Y-72735000I267544J0D01*
G01*
X140412456Y-72735000D01*
G75*
G02*
X140680000Y-73002544I0J-267544D01*
G01*
G37*
%TD*%
%TO.C,R3*%
G36*
G01*
X137705000Y-69192544D02*
X137705000Y-70507456D01*
G75*
G02*
X137437456Y-70775000I-267544J0D01*
G01*
X136447544Y-70775000D01*
G75*
G02*
X136180000Y-70507456I0J267544D01*
G01*
X136180000Y-69192544D01*
G75*
G02*
X136447544Y-68925000I267544J0D01*
G01*
X137437456Y-68925000D01*
G75*
G02*
X137705000Y-69192544I0J-267544D01*
G01*
G37*
G36*
G01*
X140680000Y-69192544D02*
X140680000Y-70507456D01*
G75*
G02*
X140412456Y-70775000I-267544J0D01*
G01*
X139422544Y-70775000D01*
G75*
G02*
X139155000Y-70507456I0J267544D01*
G01*
X139155000Y-69192544D01*
G75*
G02*
X139422544Y-68925000I267544J0D01*
G01*
X140412456Y-68925000D01*
G75*
G02*
X140680000Y-69192544I0J-267544D01*
G01*
G37*
%TD*%
%TO.C,R1*%
G36*
G01*
X137705000Y-65382544D02*
X137705000Y-66697456D01*
G75*
G02*
X137437456Y-66965000I-267544J0D01*
G01*
X136447544Y-66965000D01*
G75*
G02*
X136180000Y-66697456I0J267544D01*
G01*
X136180000Y-65382544D01*
G75*
G02*
X136447544Y-65115000I267544J0D01*
G01*
X137437456Y-65115000D01*
G75*
G02*
X137705000Y-65382544I0J-267544D01*
G01*
G37*
G36*
G01*
X140680000Y-65382544D02*
X140680000Y-66697456D01*
G75*
G02*
X140412456Y-66965000I-267544J0D01*
G01*
X139422544Y-66965000D01*
G75*
G02*
X139155000Y-66697456I0J267544D01*
G01*
X139155000Y-65382544D01*
G75*
G02*
X139422544Y-65115000I267544J0D01*
G01*
X140412456Y-65115000D01*
G75*
G02*
X140680000Y-65382544I0J-267544D01*
G01*
G37*
%TD*%
D13*
%TO.C,C1*%
X136850000Y-48260000D03*
D14*
X133350000Y-48260000D03*
%TD*%
%TO.C,C4*%
G36*
G01*
X116227456Y-38645000D02*
X114912544Y-38645000D01*
G75*
G02*
X114645000Y-38377456I0J267544D01*
G01*
X114645000Y-37387544D01*
G75*
G02*
X114912544Y-37120000I267544J0D01*
G01*
X116227456Y-37120000D01*
G75*
G02*
X116495000Y-37387544I0J-267544D01*
G01*
X116495000Y-38377456D01*
G75*
G02*
X116227456Y-38645000I-267544J0D01*
G01*
G37*
G36*
G01*
X116227456Y-41620000D02*
X114912544Y-41620000D01*
G75*
G02*
X114645000Y-41352456I0J267544D01*
G01*
X114645000Y-40362544D01*
G75*
G02*
X114912544Y-40095000I267544J0D01*
G01*
X116227456Y-40095000D01*
G75*
G02*
X116495000Y-40362544I0J-267544D01*
G01*
X116495000Y-41352456D01*
G75*
G02*
X116227456Y-41620000I-267544J0D01*
G01*
G37*
%TD*%
%TO.C,C3*%
G36*
G01*
X100987456Y-38645000D02*
X99672544Y-38645000D01*
G75*
G02*
X99405000Y-38377456I0J267544D01*
G01*
X99405000Y-37387544D01*
G75*
G02*
X99672544Y-37120000I267544J0D01*
G01*
X100987456Y-37120000D01*
G75*
G02*
X101255000Y-37387544I0J-267544D01*
G01*
X101255000Y-38377456D01*
G75*
G02*
X100987456Y-38645000I-267544J0D01*
G01*
G37*
G36*
G01*
X100987456Y-41620000D02*
X99672544Y-41620000D01*
G75*
G02*
X99405000Y-41352456I0J267544D01*
G01*
X99405000Y-40362544D01*
G75*
G02*
X99672544Y-40095000I267544J0D01*
G01*
X100987456Y-40095000D01*
G75*
G02*
X101255000Y-40362544I0J-267544D01*
G01*
X101255000Y-41352456D01*
G75*
G02*
X100987456Y-41620000I-267544J0D01*
G01*
G37*
%TD*%
D15*
%TO.C,U1*%
X104800000Y-37070000D03*
X104800000Y-41670000D03*
X104800000Y-39370000D03*
D16*
X111100000Y-39370000D03*
%TD*%
%TO.C,R5*%
G36*
G01*
X104685000Y-65382544D02*
X104685000Y-66697456D01*
G75*
G02*
X104417456Y-66965000I-267544J0D01*
G01*
X103427544Y-66965000D01*
G75*
G02*
X103160000Y-66697456I0J267544D01*
G01*
X103160000Y-65382544D01*
G75*
G02*
X103427544Y-65115000I267544J0D01*
G01*
X104417456Y-65115000D01*
G75*
G02*
X104685000Y-65382544I0J-267544D01*
G01*
G37*
G36*
G01*
X107660000Y-65382544D02*
X107660000Y-66697456D01*
G75*
G02*
X107392456Y-66965000I-267544J0D01*
G01*
X106402544Y-66965000D01*
G75*
G02*
X106135000Y-66697456I0J267544D01*
G01*
X106135000Y-65382544D01*
G75*
G02*
X106402544Y-65115000I267544J0D01*
G01*
X107392456Y-65115000D01*
G75*
G02*
X107660000Y-65382544I0J-267544D01*
G01*
G37*
%TD*%
%TO.C,R2*%
G36*
G01*
X107660000Y-61572544D02*
X107660000Y-62887456D01*
G75*
G02*
X107392456Y-63155000I-267544J0D01*
G01*
X106402544Y-63155000D01*
G75*
G02*
X106135000Y-62887456I0J267544D01*
G01*
X106135000Y-61572544D01*
G75*
G02*
X106402544Y-61305000I267544J0D01*
G01*
X107392456Y-61305000D01*
G75*
G02*
X107660000Y-61572544I0J-267544D01*
G01*
G37*
G36*
G01*
X104685000Y-61572544D02*
X104685000Y-62887456D01*
G75*
G02*
X104417456Y-63155000I-267544J0D01*
G01*
X103427544Y-63155000D01*
G75*
G02*
X103160000Y-62887456I0J267544D01*
G01*
X103160000Y-61572544D01*
G75*
G02*
X103427544Y-61305000I267544J0D01*
G01*
X104417456Y-61305000D01*
G75*
G02*
X104685000Y-61572544I0J-267544D01*
G01*
G37*
%TD*%
D13*
%TO.C,C11*%
X103922500Y-74850000D03*
X103922500Y-69850000D03*
%TD*%
%TO.C,C9*%
X103922500Y-53420000D03*
X103922500Y-58420000D03*
%TD*%
%TO.C,C13*%
G36*
G01*
X135277456Y-60235000D02*
X133962544Y-60235000D01*
G75*
G02*
X133695000Y-59967456I0J267544D01*
G01*
X133695000Y-58977544D01*
G75*
G02*
X133962544Y-58710000I267544J0D01*
G01*
X135277456Y-58710000D01*
G75*
G02*
X135545000Y-58977544I0J-267544D01*
G01*
X135545000Y-59967456D01*
G75*
G02*
X135277456Y-60235000I-267544J0D01*
G01*
G37*
G36*
G01*
X135277456Y-63210000D02*
X133962544Y-63210000D01*
G75*
G02*
X133695000Y-62942456I0J267544D01*
G01*
X133695000Y-61952544D01*
G75*
G02*
X133962544Y-61685000I267544J0D01*
G01*
X135277456Y-61685000D01*
G75*
G02*
X135545000Y-61952544I0J-267544D01*
G01*
X135545000Y-62942456D01*
G75*
G02*
X135277456Y-63210000I-267544J0D01*
G01*
G37*
%TD*%
%TO.C,C12*%
G36*
G01*
X120037456Y-60235000D02*
X118722544Y-60235000D01*
G75*
G02*
X118455000Y-59967456I0J267544D01*
G01*
X118455000Y-58977544D01*
G75*
G02*
X118722544Y-58710000I267544J0D01*
G01*
X120037456Y-58710000D01*
G75*
G02*
X120305000Y-58977544I0J-267544D01*
G01*
X120305000Y-59967456D01*
G75*
G02*
X120037456Y-60235000I-267544J0D01*
G01*
G37*
G36*
G01*
X120037456Y-63210000D02*
X118722544Y-63210000D01*
G75*
G02*
X118455000Y-62942456I0J267544D01*
G01*
X118455000Y-61952544D01*
G75*
G02*
X118722544Y-61685000I267544J0D01*
G01*
X120037456Y-61685000D01*
G75*
G02*
X120305000Y-61952544I0J-267544D01*
G01*
X120305000Y-62942456D01*
G75*
G02*
X120037456Y-63210000I-267544J0D01*
G01*
G37*
%TD*%
%TO.C,C8*%
X113030000Y-72080000D03*
D14*
X113030000Y-68580000D03*
%TD*%
D13*
%TO.C,C5*%
X117150000Y-48260000D03*
D14*
X120650000Y-48260000D03*
%TD*%
%TO.C,C7*%
G36*
G01*
X119992544Y-69305000D02*
X121307456Y-69305000D01*
G75*
G02*
X121575000Y-69572544I0J-267544D01*
G01*
X121575000Y-70562456D01*
G75*
G02*
X121307456Y-70830000I-267544J0D01*
G01*
X119992544Y-70830000D01*
G75*
G02*
X119725000Y-70562456I0J267544D01*
G01*
X119725000Y-69572544D01*
G75*
G02*
X119992544Y-69305000I267544J0D01*
G01*
G37*
G36*
G01*
X119992544Y-66330000D02*
X121307456Y-66330000D01*
G75*
G02*
X121575000Y-66597544I0J-267544D01*
G01*
X121575000Y-67587456D01*
G75*
G02*
X121307456Y-67855000I-267544J0D01*
G01*
X119992544Y-67855000D01*
G75*
G02*
X119725000Y-67587456I0J267544D01*
G01*
X119725000Y-66597544D01*
G75*
G02*
X119992544Y-66330000I267544J0D01*
G01*
G37*
%TD*%
%TO.C,C2*%
G36*
G01*
X134075000Y-56537456D02*
X134075000Y-55222544D01*
G75*
G02*
X134342544Y-54955000I267544J0D01*
G01*
X135332456Y-54955000D01*
G75*
G02*
X135600000Y-55222544I0J-267544D01*
G01*
X135600000Y-56537456D01*
G75*
G02*
X135332456Y-56805000I-267544J0D01*
G01*
X134342544Y-56805000D01*
G75*
G02*
X134075000Y-56537456I0J267544D01*
G01*
G37*
G36*
G01*
X131100000Y-56537456D02*
X131100000Y-55222544D01*
G75*
G02*
X131367544Y-54955000I267544J0D01*
G01*
X132357456Y-54955000D01*
G75*
G02*
X132625000Y-55222544I0J-267544D01*
G01*
X132625000Y-56537456D01*
G75*
G02*
X132357456Y-56805000I-267544J0D01*
G01*
X131367544Y-56805000D01*
G75*
G02*
X131100000Y-56537456I0J267544D01*
G01*
G37*
%TD*%
%TO.C,C6*%
G36*
G01*
X119925000Y-55222544D02*
X119925000Y-56537456D01*
G75*
G02*
X119657456Y-56805000I-267544J0D01*
G01*
X118667544Y-56805000D01*
G75*
G02*
X118400000Y-56537456I0J267544D01*
G01*
X118400000Y-55222544D01*
G75*
G02*
X118667544Y-54955000I267544J0D01*
G01*
X119657456Y-54955000D01*
G75*
G02*
X119925000Y-55222544I0J-267544D01*
G01*
G37*
G36*
G01*
X122900000Y-55222544D02*
X122900000Y-56537456D01*
G75*
G02*
X122632456Y-56805000I-267544J0D01*
G01*
X121642544Y-56805000D01*
G75*
G02*
X121375000Y-56537456I0J267544D01*
G01*
X121375000Y-55222544D01*
G75*
G02*
X121642544Y-54955000I267544J0D01*
G01*
X122632456Y-54955000D01*
G75*
G02*
X122900000Y-55222544I0J-267544D01*
G01*
G37*
%TD*%
%TO.C,C10*%
G36*
G01*
X127725000Y-57807456D02*
X127725000Y-56492544D01*
G75*
G02*
X127992544Y-56225000I267544J0D01*
G01*
X128982456Y-56225000D01*
G75*
G02*
X129250000Y-56492544I0J-267544D01*
G01*
X129250000Y-57807456D01*
G75*
G02*
X128982456Y-58075000I-267544J0D01*
G01*
X127992544Y-58075000D01*
G75*
G02*
X127725000Y-57807456I0J267544D01*
G01*
G37*
G36*
G01*
X124750000Y-57807456D02*
X124750000Y-56492544D01*
G75*
G02*
X125017544Y-56225000I267544J0D01*
G01*
X126007456Y-56225000D01*
G75*
G02*
X126275000Y-56492544I0J-267544D01*
G01*
X126275000Y-57807456D01*
G75*
G02*
X126007456Y-58075000I-267544J0D01*
G01*
X125017544Y-58075000D01*
G75*
G02*
X124750000Y-57807456I0J267544D01*
G01*
G37*
%TD*%
%TO.C,U2*%
G36*
G01*
X129075000Y-60700000D02*
X129075000Y-60450000D01*
G75*
G02*
X129200000Y-60325000I125000J0D01*
G01*
X130525000Y-60325000D01*
G75*
G02*
X130650000Y-60450000I0J-125000D01*
G01*
X130650000Y-60700000D01*
G75*
G02*
X130525000Y-60825000I-125000J0D01*
G01*
X129200000Y-60825000D01*
G75*
G02*
X129075000Y-60700000I0J125000D01*
G01*
G37*
G36*
G01*
X129075000Y-61350000D02*
X129075000Y-61100000D01*
G75*
G02*
X129200000Y-60975000I125000J0D01*
G01*
X130525000Y-60975000D01*
G75*
G02*
X130650000Y-61100000I0J-125000D01*
G01*
X130650000Y-61350000D01*
G75*
G02*
X130525000Y-61475000I-125000J0D01*
G01*
X129200000Y-61475000D01*
G75*
G02*
X129075000Y-61350000I0J125000D01*
G01*
G37*
G36*
G01*
X129075000Y-62000000D02*
X129075000Y-61750000D01*
G75*
G02*
X129200000Y-61625000I125000J0D01*
G01*
X130525000Y-61625000D01*
G75*
G02*
X130650000Y-61750000I0J-125000D01*
G01*
X130650000Y-62000000D01*
G75*
G02*
X130525000Y-62125000I-125000J0D01*
G01*
X129200000Y-62125000D01*
G75*
G02*
X129075000Y-62000000I0J125000D01*
G01*
G37*
G36*
G01*
X129075000Y-62650000D02*
X129075000Y-62400000D01*
G75*
G02*
X129200000Y-62275000I125000J0D01*
G01*
X130525000Y-62275000D01*
G75*
G02*
X130650000Y-62400000I0J-125000D01*
G01*
X130650000Y-62650000D01*
G75*
G02*
X130525000Y-62775000I-125000J0D01*
G01*
X129200000Y-62775000D01*
G75*
G02*
X129075000Y-62650000I0J125000D01*
G01*
G37*
G36*
G01*
X129075000Y-63300000D02*
X129075000Y-63050000D01*
G75*
G02*
X129200000Y-62925000I125000J0D01*
G01*
X130525000Y-62925000D01*
G75*
G02*
X130650000Y-63050000I0J-125000D01*
G01*
X130650000Y-63300000D01*
G75*
G02*
X130525000Y-63425000I-125000J0D01*
G01*
X129200000Y-63425000D01*
G75*
G02*
X129075000Y-63300000I0J125000D01*
G01*
G37*
G36*
G01*
X129075000Y-63950000D02*
X129075000Y-63700000D01*
G75*
G02*
X129200000Y-63575000I125000J0D01*
G01*
X130525000Y-63575000D01*
G75*
G02*
X130650000Y-63700000I0J-125000D01*
G01*
X130650000Y-63950000D01*
G75*
G02*
X130525000Y-64075000I-125000J0D01*
G01*
X129200000Y-64075000D01*
G75*
G02*
X129075000Y-63950000I0J125000D01*
G01*
G37*
G36*
G01*
X129075000Y-64600000D02*
X129075000Y-64350000D01*
G75*
G02*
X129200000Y-64225000I125000J0D01*
G01*
X130525000Y-64225000D01*
G75*
G02*
X130650000Y-64350000I0J-125000D01*
G01*
X130650000Y-64600000D01*
G75*
G02*
X130525000Y-64725000I-125000J0D01*
G01*
X129200000Y-64725000D01*
G75*
G02*
X129075000Y-64600000I0J125000D01*
G01*
G37*
G36*
G01*
X129075000Y-65250000D02*
X129075000Y-65000000D01*
G75*
G02*
X129200000Y-64875000I125000J0D01*
G01*
X130525000Y-64875000D01*
G75*
G02*
X130650000Y-65000000I0J-125000D01*
G01*
X130650000Y-65250000D01*
G75*
G02*
X130525000Y-65375000I-125000J0D01*
G01*
X129200000Y-65375000D01*
G75*
G02*
X129075000Y-65250000I0J125000D01*
G01*
G37*
G36*
G01*
X129075000Y-65900000D02*
X129075000Y-65650000D01*
G75*
G02*
X129200000Y-65525000I125000J0D01*
G01*
X130525000Y-65525000D01*
G75*
G02*
X130650000Y-65650000I0J-125000D01*
G01*
X130650000Y-65900000D01*
G75*
G02*
X130525000Y-66025000I-125000J0D01*
G01*
X129200000Y-66025000D01*
G75*
G02*
X129075000Y-65900000I0J125000D01*
G01*
G37*
G36*
G01*
X129075000Y-66550000D02*
X129075000Y-66300000D01*
G75*
G02*
X129200000Y-66175000I125000J0D01*
G01*
X130525000Y-66175000D01*
G75*
G02*
X130650000Y-66300000I0J-125000D01*
G01*
X130650000Y-66550000D01*
G75*
G02*
X130525000Y-66675000I-125000J0D01*
G01*
X129200000Y-66675000D01*
G75*
G02*
X129075000Y-66550000I0J125000D01*
G01*
G37*
G36*
G01*
X123350000Y-66550000D02*
X123350000Y-66300000D01*
G75*
G02*
X123475000Y-66175000I125000J0D01*
G01*
X124800000Y-66175000D01*
G75*
G02*
X124925000Y-66300000I0J-125000D01*
G01*
X124925000Y-66550000D01*
G75*
G02*
X124800000Y-66675000I-125000J0D01*
G01*
X123475000Y-66675000D01*
G75*
G02*
X123350000Y-66550000I0J125000D01*
G01*
G37*
G36*
G01*
X123350000Y-65900000D02*
X123350000Y-65650000D01*
G75*
G02*
X123475000Y-65525000I125000J0D01*
G01*
X124800000Y-65525000D01*
G75*
G02*
X124925000Y-65650000I0J-125000D01*
G01*
X124925000Y-65900000D01*
G75*
G02*
X124800000Y-66025000I-125000J0D01*
G01*
X123475000Y-66025000D01*
G75*
G02*
X123350000Y-65900000I0J125000D01*
G01*
G37*
G36*
G01*
X123350000Y-65250000D02*
X123350000Y-65000000D01*
G75*
G02*
X123475000Y-64875000I125000J0D01*
G01*
X124800000Y-64875000D01*
G75*
G02*
X124925000Y-65000000I0J-125000D01*
G01*
X124925000Y-65250000D01*
G75*
G02*
X124800000Y-65375000I-125000J0D01*
G01*
X123475000Y-65375000D01*
G75*
G02*
X123350000Y-65250000I0J125000D01*
G01*
G37*
G36*
G01*
X123350000Y-64600000D02*
X123350000Y-64350000D01*
G75*
G02*
X123475000Y-64225000I125000J0D01*
G01*
X124800000Y-64225000D01*
G75*
G02*
X124925000Y-64350000I0J-125000D01*
G01*
X124925000Y-64600000D01*
G75*
G02*
X124800000Y-64725000I-125000J0D01*
G01*
X123475000Y-64725000D01*
G75*
G02*
X123350000Y-64600000I0J125000D01*
G01*
G37*
G36*
G01*
X123350000Y-63950000D02*
X123350000Y-63700000D01*
G75*
G02*
X123475000Y-63575000I125000J0D01*
G01*
X124800000Y-63575000D01*
G75*
G02*
X124925000Y-63700000I0J-125000D01*
G01*
X124925000Y-63950000D01*
G75*
G02*
X124800000Y-64075000I-125000J0D01*
G01*
X123475000Y-64075000D01*
G75*
G02*
X123350000Y-63950000I0J125000D01*
G01*
G37*
G36*
G01*
X123350000Y-63300000D02*
X123350000Y-63050000D01*
G75*
G02*
X123475000Y-62925000I125000J0D01*
G01*
X124800000Y-62925000D01*
G75*
G02*
X124925000Y-63050000I0J-125000D01*
G01*
X124925000Y-63300000D01*
G75*
G02*
X124800000Y-63425000I-125000J0D01*
G01*
X123475000Y-63425000D01*
G75*
G02*
X123350000Y-63300000I0J125000D01*
G01*
G37*
G36*
G01*
X123350000Y-62650000D02*
X123350000Y-62400000D01*
G75*
G02*
X123475000Y-62275000I125000J0D01*
G01*
X124800000Y-62275000D01*
G75*
G02*
X124925000Y-62400000I0J-125000D01*
G01*
X124925000Y-62650000D01*
G75*
G02*
X124800000Y-62775000I-125000J0D01*
G01*
X123475000Y-62775000D01*
G75*
G02*
X123350000Y-62650000I0J125000D01*
G01*
G37*
G36*
G01*
X123350000Y-62000000D02*
X123350000Y-61750000D01*
G75*
G02*
X123475000Y-61625000I125000J0D01*
G01*
X124800000Y-61625000D01*
G75*
G02*
X124925000Y-61750000I0J-125000D01*
G01*
X124925000Y-62000000D01*
G75*
G02*
X124800000Y-62125000I-125000J0D01*
G01*
X123475000Y-62125000D01*
G75*
G02*
X123350000Y-62000000I0J125000D01*
G01*
G37*
G36*
G01*
X123350000Y-61350000D02*
X123350000Y-61100000D01*
G75*
G02*
X123475000Y-60975000I125000J0D01*
G01*
X124800000Y-60975000D01*
G75*
G02*
X124925000Y-61100000I0J-125000D01*
G01*
X124925000Y-61350000D01*
G75*
G02*
X124800000Y-61475000I-125000J0D01*
G01*
X123475000Y-61475000D01*
G75*
G02*
X123350000Y-61350000I0J125000D01*
G01*
G37*
G36*
G01*
X123350000Y-60700000D02*
X123350000Y-60450000D01*
G75*
G02*
X123475000Y-60325000I125000J0D01*
G01*
X124800000Y-60325000D01*
G75*
G02*
X124925000Y-60450000I0J-125000D01*
G01*
X124925000Y-60700000D01*
G75*
G02*
X124800000Y-60825000I-125000J0D01*
G01*
X123475000Y-60825000D01*
G75*
G02*
X123350000Y-60700000I0J125000D01*
G01*
G37*
%TD*%
M02*
