<svg width="710.35" height="285.59" version="1.1" viewBox="0 0 73995 29749" xmlns="http://www.w3.org/2000/svg">
 <desc>Picture generated by Eeschema-SVG</desc>
 <g fill-opacity="0">
  <g transform="translate(-25900,-12290)" stroke-width="0">
   <g fill-opacity="0" stroke="#000" stroke-linecap="round" stroke-linejoin="round" stroke-width="60">
    <path d="m74000 27500v500h500l-500 500-500-500h500" fill="none" stroke="#000" stroke-linecap="round" stroke-linejoin="round" stroke-width="60"/>
    <text x="74050" y="29500" font-size="660px" opacity="0" text-anchor="middle" lengthAdjust="spacingAndGlyphs" textLength="2010">GNDA</text>
    <path d="m73450 29000-50-30h-70l-70 30-50 40-20 50-30 100v70l30 90 20 50 50 50 70 20h50l70-20 20-30v-160h-90"/>
    <path d="m73690 29470v-500l280 500v-500"/>
    <path d="m74210 29470v-500h120l70 30 50 40 20 50 30 100v70l-30 90-20 50-50 50-70 20h-120"/>
    <path d="m74690 29330h240"/>
    <path d="m74640 29470 170-500 160 500"/>
   </g>
  </g>
  <g transform="translate(-25900,-12290)" stroke="#000" stroke-linecap="round" stroke-linejoin="round">
   <g stroke-width="100">
    <rect x="29500" y="26100" width="2e3" height="800" rx="0"/>
   </g>
   <g stroke-width="60">
    <path d="m29500 26500h-500"/>
    <path d="m31500 26500h500"/>
    <text x="30500" y="24650" font-size="660px" opacity="0" text-anchor="middle" lengthAdjust="spacingAndGlyphs" textLength="1040">R3</text>
    <path d="m30410 24620-160-240"/>
    <path d="m30130 24620v-500h190l40 30 30 20 20 50v70l-20 50-30 20-40 20h-190"/>
    <path d="m30580 24120h310l-170 190h70l50 30 20 20 30 50v120l-30 40-20 30-50 20h-140l-50-20-20-30"/>
    <text x="30490" y="25560" font-size="660px" opacity="0" text-anchor="middle" lengthAdjust="spacingAndGlyphs" textLength="1510">22R</text>
    <path d="m29850 25080 30-20 50-30h110l50 30 30 20 20 50v40l-20 80-290 280h310"/>
    <path d="m30330 25080 20-20 50-30h120l50 30 20 20 30 50v40l-30 80-280 280h310"/>
    <path d="m31120 25530-170-240"/>
    <path d="m30830 25530v-500h190l50 30 20 20 30 50v70l-30 50-20 20-50 20h-190"/>
   </g>
  </g>
  <g transform="translate(-25900,-12290)" stroke="#000" stroke-linecap="round" stroke-linejoin="round">
   <g stroke-width="100">
    <rect x="29500" y="22100" width="2e3" height="800" rx="0"/>
   </g>
   <g stroke-width="60">
    <path d="m29500 22500h-500"/>
    <path d="m31500 22500h500"/>
    <text x="30500" y="20650" font-size="660px" opacity="0" text-anchor="middle" lengthAdjust="spacingAndGlyphs" textLength="1040">R1</text>
    <path d="m30410 20620-160-240"/>
    <path d="m30130 20620v-500h190l40 30 30 20 20 50v70l-20 50-30 20-40 20h-190"/>
    <path d="m30890 20620h-290"/>
    <path d="m30750 20620v-500l-50 70-50 50-50 20"/>
    <text x="30490" y="21560" font-size="660px" opacity="0" text-anchor="middle" lengthAdjust="spacingAndGlyphs" textLength="1510">22R</text>
    <path d="m29850 21080 30-20 50-30h110l50 30 30 20 20 50v40l-20 80-290 280h310"/>
    <path d="m30330 21080 20-20 50-30h120l50 30 20 20 30 50v40l-30 80-280 280h310"/>
    <path d="m31120 21530-170-240"/>
    <path d="m30830 21530v-500h190l50 30 20 20 30 50v70l-30 50-20 20-50 20h-190"/>
   </g>
  </g>
  <g transform="translate(-25900,-12290)" stroke="#000" stroke-linecap="round" stroke-linejoin="round">
   <g fill="none" stroke-width="200">
    <path d="m81700 16800h1600"/>
    <path d="m81700 16200h1600"/>
   </g>
   <g stroke-width="60">
    <path d="m82500 16100v-1100"/>
    <path d="m82500 16900v1100"/>
    <text x="84170" y="16310" font-size="660px" opacity="0" text-anchor="middle" lengthAdjust="spacingAndGlyphs" textLength="1040">C4</text>
    <path d="m84080 16230-20 30-70 20h-50l-70-20-50-50-20-50-30-90v-70l30-100 20-50 50-40 70-30h50l70 30 20 20"/>
    <path d="m84510 15950v330"/>
    <path d="m84390 15760-120 350h310"/>
    <text x="84710" y="17220" font-size="660px" opacity="0" text-anchor="middle" lengthAdjust="spacingAndGlyphs" textLength="2130">2.2uF</text>
    <path d="m83760 16740 30-20 50-30h120l40 30 30 20 20 50v40l-20 80-290 280h310"/>
    <path d="m84260 17140 30 30-30 20-20-20 20-30v50"/>
    <path d="m84480 16740 20-20 50-30h120l50 30 20 20 20 50v40l-20 80-280 280h300"/>
    <path d="m85190 16860v330"/>
    <path d="m84980 16860v260l20 50 50 20h70l50-20 20-30"/>
    <path d="m85600 16930h-170"/>
    <path d="m85430 17190v-500h240"/>
   </g>
  </g>
  <g transform="translate(-25900,-12290)" stroke-width="0">
   <g fill-opacity="0" stroke="#000" stroke-linecap="round" stroke-linejoin="round" stroke-width="60">
    <g fill="none" stroke="#000" stroke-linecap="round" stroke-linejoin="round" stroke-width="60">
     <path d="m82200 14500 300-500"/>
     <path d="m82500 15000v-1e3"/>
     <path d="m82500 14000 300 500"/>
    </g>
    <text x="82650" y="13540" font-size="660px" opacity="0" text-anchor="middle" lengthAdjust="spacingAndGlyphs" textLength="2730">+3.3VA</text>
    <path d="m81430 13320h380"/>
    <path d="m81620 13510v-380"/>
    <path d="m82000 13010h310l-160 190h70l40 30 30 20 20 50v120l-20 40-30 30-40 20h-150l-40-20-30-30"/>
    <path d="m82530 13460 20 30-20 20-30-20 30-30v50"/>
    <path d="m82720 13010h310l-170 190h70l50 30 20 20 30 50v120l-30 40-20 30-50 20h-140l-50-20-20-30"/>
    <path d="m83170 13010 170 500 160-500"/>
    <path d="m83650 13370h230"/>
    <path d="m83600 13510 160-500 170 500"/>
   </g>
  </g>
  <g transform="translate(-25900,-12290)" stroke="#000" stroke-linecap="round" stroke-linejoin="round">
   <g stroke-width="100">
    <rect x="74500" y="14250" width="4e3" height="2750" rx="0"/>
    <rect x="74500" y="14250" width="4e3" height="2750" rx="0"/>
   </g>
   <g stroke-width="60">
    <path d="m76500 17000v1e3"/>
    <g transform="rotate(-90,76500,16900)">
     <text x="76500" y="17150" font-size="660px" opacity="0" lengthAdjust="spacingAndGlyphs" textLength="1580">GND</text>
    </g>
    <path d="m76250 16480-30 50v70l30 70 40 50 50 30 100 20h70l90-20 50-30 50-50 20-70v-40l-20-80-30-20h-160v100"/>
    <path d="m76720 16250h-500l500-290h-500"/>
    <path d="m76720 15720h-500v-120l30-70 40-50 50-20 100-20h70l90 20 50 20 50 50 20 70v120"/>
    <g transform="rotate(-90,76400,17500)">
     <text x="76400" y="17500" font-size="660px" opacity="0" text-anchor="middle" lengthAdjust="spacingAndGlyphs" textLength="540">1</text>
    </g>
    <path d="m76370 17350v290"/>
    <path d="m76370 17500h-500l70 40 50 50 20 50"/>
    <path d="m78500 15000h1e3"/>
    <text x="78400" y="15250" font-size="660px" opacity="0" text-anchor="end" lengthAdjust="spacingAndGlyphs" textLength="1010">VO</text>
    <path d="m77460 14720 170 500 160-500"/>
    <path d="m78060 14720h90l50 30 50 40 20 100v160l-20 100-50 50-50 20h-90l-50-20-50-50-20-100v-160l20-100 50-40 50-30"/>
    <text x="79000" y="14900" font-size="660px" opacity="0" text-anchor="middle" lengthAdjust="spacingAndGlyphs" textLength="540">2</text>
    <path d="m78850 14420 30-20 40-30h120l50 30 20 20 30 50v40l-30 80-280 280h310"/>
    <path d="m74500 15000h-1e3"/>
    <text x="74600" y="15250" font-size="660px" opacity="0" lengthAdjust="spacingAndGlyphs" textLength="730">VI</text>
    <path d="m74670 14720 170 500 170-500"/>
    <path d="m75170 15220v-500"/>
    <text x="74000" y="14900" font-size="660px" opacity="0" text-anchor="middle" lengthAdjust="spacingAndGlyphs" textLength="540">3</text>
    <path d="m73830 14370h310l-170 190h70l50 30 20 20 30 50v120l-30 40-20 30-50 20h-140l-50-20-20-30"/>
    <text x="76500" y="12850" font-size="660px" opacity="0" text-anchor="middle" lengthAdjust="spacingAndGlyphs" textLength="1060">U1</text>
    <path d="m76110 12320v410l30 40 20 30 50 20h90l50-20 30-30 20-40v-410"/>
    <path d="m76900 12820h-290"/>
    <path d="m76760 12820v-500l-50 70-50 50-50 20"/>
    <text x="76500" y="13760" font-size="660px" opacity="0" text-anchor="middle" lengthAdjust="spacingAndGlyphs" textLength="8490">ADP3338AKCZ-3.3RL7</text>
    <path d="m72380 13590h230"/>
    <path d="m72330 13730 170-500 160 500"/>
    <path d="m72830 13730v-500h120l70 30 50 40 20 50 20 100v70l-20 90-20 50-50 50-70 20h-120"/>
    <path d="m73330 13730v-500h190l50 30 20 20 20 50v70l-20 50-20 20-50 20h-190"/>
    <path d="m73780 13230h310l-170 190h80l40 30 30 20 20 50v120l-20 40-30 30-40 20h-150l-50-20-20-30"/>
    <path d="m74260 13230h310l-170 190h70l50 30 20 20 30 50v120l-30 40-20 30-50 20h-140l-50-20-20-30"/>
    <path d="m74730 13230h310l-160 190h70l50 30 20 20 20 50v120l-20 40-20 30-50 20h-150l-40-20-30-30"/>
    <path d="m75330 13450-50-30-20-20-30-50v-20l30-50 20-20 50-30h90l50 30 30 20 20 50v20l-20 50-30 20-50 30h-90l-50 20-20 20-30 50v100l30 40 20 30 50 20h90l50-20 30-30 20-40v-100l-20-50-30-20-50-20"/>
    <path d="m75710 13590h240"/>
    <path d="m75660 13730 170-500 170 500"/>
    <path d="m76160 13730v-500"/>
    <path d="m76450 13730-220-280"/>
    <path d="m76450 13230-290 290"/>
    <path d="m76950 13680-30 30-70 20h-50l-70-20-40-50-30-50-20-90v-70l20-100 30-50 40-40 70-30h50l70 30 30 20"/>
    <path d="m77110 13230h340l-340 500h340"/>
    <path d="m77640 13540h380"/>
    <path d="m78210 13230h310l-170 190h70l50 30 30 20 20 50v120l-20 40-30 30-50 20h-140l-50-20-20-30"/>
    <path d="m78730 13680 30 30-30 20-20-20 20-30v50"/>
    <path d="m78920 13230h310l-160 190h70l50 30 20 20 20 50v120l-20 40-20 30-50 20h-140l-50-20-30-30"/>
    <path d="m79730 13730-160-240"/>
    <path d="m79450 13730v-500h190l50 30 20 20 20 50v70l-20 50-20 20-50 20h-190"/>
    <path d="m80190 13730h-240v-500"/>
    <path d="m80300 13230h340l-220 500"/>
   </g>
  </g>
  <g transform="translate(-25900,-12290)" stroke="#000" stroke-linecap="round" stroke-linejoin="round">
   <g fill-opacity="1" stroke-width="100">
    <rect x="43500" y="36600" width="1e3" height="200" rx="0"/>
   </g>
   <g fill-opacity="0" stroke-width="60">
    <path d="m44000 36000v600" fill="none" stroke="#000" stroke-linecap="round" stroke-linejoin="round" stroke-width="60"/>
    <text x="44040" y="37820" font-size="660px" opacity="0" text-anchor="middle" lengthAdjust="spacingAndGlyphs" textLength="2080">GNDD</text>
    <path d="m43400 37320-40-30h-70l-80 30-40 40-30 50-20 100v70l20 90 30 50 40 50 80 20h40l70-20 30-30v-160h-100"/>
    <path d="m43640 37790v-500l290 500v-500"/>
    <path d="m44170 37790v-500h120l70 30 40 40 30 50 20 100v70l-20 90-30 50-40 50-70 20h-120"/>
    <path d="m44670 37790v-500h120l70 30 40 40 30 50 20 100v70l-20 90-30 50-40 50-70 20h-120"/>
   </g>
  </g>
  <g transform="translate(-25900,-12290)" stroke-width="0">
   <g fill-opacity="0" stroke="#000" stroke-linecap="round" stroke-linejoin="round" stroke-width="60">
    <g fill="none" stroke="#000" stroke-linecap="round" stroke-linejoin="round" stroke-width="60">
     <path d="m41700 33500 300-500"/>
     <path d="m42000 34000v-1e3"/>
     <path d="m42000 33000 300 500"/>
    </g>
    <text x="42150" y="32540" font-size="660px" opacity="0" text-anchor="middle" lengthAdjust="spacingAndGlyphs" textLength="2730">+3.3VA</text>
    <path d="m40930 32320h380"/>
    <path d="m41120 32510v-380"/>
    <path d="m41500 32010h310l-160 190h70l40 30 30 20 20 50v120l-20 40-30 30-40 20h-150l-40-20-30-30"/>
    <path d="m42030 32460 20 30-20 20-30-20 30-30v50"/>
    <path d="m42220 32010h310l-170 190h70l50 30 20 20 30 50v120l-30 40-20 30-50 20h-140l-50-20-20-30"/>
    <path d="m42670 32010 170 500 160-500"/>
    <path d="m43150 32370h230"/>
    <path d="m43100 32510 160-500 170 500"/>
   </g>
  </g>
  <g transform="translate(-25900,-12290)" stroke-width="0">
   <g fill-opacity="0" stroke="#000" stroke-linecap="round" stroke-linejoin="round" stroke-width="60">
    <path d="m74000 33500v500h500l-500 500-500-500h500" fill="none" stroke="#000" stroke-linecap="round" stroke-linejoin="round" stroke-width="60"/>
    <text x="74050" y="35500" font-size="660px" opacity="0" text-anchor="middle" lengthAdjust="spacingAndGlyphs" textLength="2010">GNDA</text>
    <path d="m73450 35000-50-30h-70l-70 30-50 40-20 50-30 100v70l30 90 20 50 50 50 70 20h50l70-20 20-30v-160h-90"/>
    <path d="m73690 35470v-500l280 500v-500"/>
    <path d="m74210 35470v-500h120l70 30 50 40 20 50 30 100v70l-30 90-20 50-50 50-70 20h-120"/>
    <path d="m74690 35330h240"/>
    <path d="m74640 35470 170-500 160 500"/>
   </g>
  </g>
  <g transform="translate(-25900,-12290)" stroke="#000" stroke-linecap="round" stroke-linejoin="round">
   <g fill="none" stroke-width="200">
    <path d="m73200 32300h1600"/>
    <path d="m73200 31700h1600"/>
   </g>
   <g stroke-width="60">
    <path d="m74000 31600v-1100"/>
    <path d="m74000 32400v1100"/>
    <text x="75900" y="31810" font-size="660px" opacity="0" text-anchor="middle" lengthAdjust="spacingAndGlyphs" textLength="1510">C11</text>
    <path d="m75570 31730-20 30-70 20h-50l-70-20-50-50-20-50-30-90v-70l30-100 20-50 50-40 70-30h50l70 30 20 20"/>
    <path d="m76050 31780h-290"/>
    <path d="m75910 31780v-500l-50 70-50 50-50 20"/>
    <path d="m76530 31780h-290"/>
    <path d="m76380 31780v-500l-40 70-50 50-50 20"/>
    <text x="76210" y="32720" font-size="660px" opacity="0" text-anchor="middle" lengthAdjust="spacingAndGlyphs" textLength="2130">2.2nF</text>
    <path d="m75260 32240 30-20 50-30h120l40 30 30 20 20 50v40l-20 80-290 280h310"/>
    <path d="m75760 32640 30 30-30 20-20-20 20-30v50"/>
    <path d="m75980 32240 20-20 50-30h120l50 30 20 20 20 50v40l-20 80-280 280h300"/>
    <path d="m76480 32360v330"/>
    <path d="m76480 32410 20-30 50-20h70l50 20 20 50v260"/>
    <path d="m77100 32430h-170"/>
    <path d="m76930 32690v-500h240"/>
   </g>
  </g>
  <g transform="translate(-25900,-12290)" stroke="#000" stroke-linecap="round" stroke-linejoin="round">
   <g stroke-width="100">
    <rect x="29500" y="30100" width="2e3" height="800" rx="0"/>
   </g>
   <g stroke-width="60">
    <path d="m29500 30500h-500"/>
    <path d="m31500 30500h500"/>
    <text x="30500" y="28650" font-size="660px" opacity="0" text-anchor="middle" lengthAdjust="spacingAndGlyphs" textLength="1040">R4</text>
    <path d="m30410 28620-160-240"/>
    <path d="m30130 28620v-500h190l40 30 30 20 20 50v70l-20 50-30 20-40 20h-190"/>
    <path d="m30840 28290v330"/>
    <path d="m30720 28100-120 350h310"/>
    <text x="30490" y="29560" font-size="660px" opacity="0" text-anchor="middle" lengthAdjust="spacingAndGlyphs" textLength="1510">22R</text>
    <path d="m29850 29080 30-20 50-30h110l50 30 30 20 20 50v40l-20 80-290 280h310"/>
    <path d="m30330 29080 20-20 50-30h120l50 30 20 20 30 50v40l-30 80-280 280h310"/>
    <path d="m31120 29530-170-240"/>
    <path d="m30830 29530v-500h190l50 30 20 20 30 50v70l-30 50-20 20-50 20h-190"/>
   </g>
  </g>
  <g transform="translate(-25900,-12290)" stroke="#000" stroke-linecap="round" stroke-linejoin="round">
   <g fill="none" stroke-width="200">
    <path d="m73200 26300h1600"/>
    <path d="m73200 25700h1600"/>
   </g>
   <g stroke-width="60">
    <path d="m74000 25600v-1100"/>
    <path d="m74000 26400v1100"/>
    <text x="75670" y="25810" font-size="660px" opacity="0" text-anchor="middle" lengthAdjust="spacingAndGlyphs" textLength="1040">C9</text>
    <path d="m75580 25730-20 30-70 20h-50l-70-20-50-50-20-50-30-90v-70l30-100 20-50 50-40 70-30h50l70 30 20 20"/>
    <path d="m75820 25780h100l40-20 30-30 40-70 30-90v-190l-30-50-20-20-50-30h-90l-50 30-20 20-30 50v120l30 40 20 30 50 20h90l50-20 20-30 30-40"/>
    <text x="76210" y="26720" font-size="660px" opacity="0" text-anchor="middle" lengthAdjust="spacingAndGlyphs" textLength="2130">2.2nF</text>
    <path d="m75260 26240 30-20 50-30h120l40 30 30 20 20 50v40l-20 80-290 280h310"/>
    <path d="m75760 26640 30 30-30 20-20-20 20-30v50"/>
    <path d="m75980 26240 20-20 50-30h120l50 30 20 20 20 50v40l-20 80-280 280h300"/>
    <path d="m76480 26360v330"/>
    <path d="m76480 26410 20-30 50-20h70l50 20 20 50v260"/>
    <path d="m77100 26430h-170"/>
    <path d="m76930 26690v-500h240"/>
   </g>
  </g>
  <g transform="translate(-25900,-12290)" stroke="#000" stroke-linecap="round" stroke-linejoin="round">
   <g stroke-width="100">
    <rect x="69000" y="30100" width="2e3" height="800" rx="0"/>
   </g>
   <g stroke-width="60">
    <path d="m69000 30500h-500"/>
    <path d="m71000 30500h500"/>
    <text x="70000" y="28650" font-size="660px" opacity="0" text-anchor="middle" lengthAdjust="spacingAndGlyphs" textLength="1040">R5</text>
    <path d="m69910 28620-160-240"/>
    <path d="m69630 28620v-500h190l40 30 30 20 20 50v70l-20 50-30 20-40 20h-190"/>
    <path d="m70360 28120h-230l-30 240 30-20 40-30h120l50 30 20 20 30 50v120l-30 40-20 30-50 20h-120l-40-20-30-30"/>
    <text x="69990" y="29560" font-size="660px" opacity="0" text-anchor="middle" lengthAdjust="spacingAndGlyphs" textLength="1990">470R</text>
    <path d="m69350 29200v330"/>
    <path d="m69240 29010-120 350h310"/>
    <path d="m69570 29030h330l-210 500"/>
    <path d="m70190 29030h50l40 30 30 20 20 50 20 90v120l-20 100-20 40-30 30-40 20h-50l-50-20-20-30-30-40-20-100v-120l20-90 30-50 20-20 50-30"/>
    <path d="m70850 29530-160-240"/>
    <path d="m70570 29530v-500h190l50 30 20 20 20 50v70l-20 50-20 20-50 20h-190"/>
   </g>
  </g>
  <g transform="translate(-25900,-12290)" stroke="#000" stroke-linecap="round" stroke-linejoin="round">
   <g stroke-width="100">
    <rect x="69000" y="24100" width="2e3" height="800" rx="0"/>
   </g>
   <g stroke-width="60">
    <path d="m69000 24500h-500"/>
    <path d="m71000 24500h500"/>
    <text x="70000" y="22650" font-size="660px" opacity="0" text-anchor="middle" lengthAdjust="spacingAndGlyphs" textLength="1040">R2</text>
    <path d="m69910 22620-160-240"/>
    <path d="m69630 22620v-500h190l40 30 30 20 20 50v70l-20 50-30 20-40 20h-190"/>
    <path d="m70100 22170 30-20 40-30h120l50 30 20 20 30 50v40l-30 80-280 280h310"/>
    <text x="69990" y="23560" font-size="660px" opacity="0" text-anchor="middle" lengthAdjust="spacingAndGlyphs" textLength="1990">470R</text>
    <path d="m69350 23200v330"/>
    <path d="m69240 23010-120 350h310"/>
    <path d="m69570 23030h330l-210 500"/>
    <path d="m70190 23030h50l40 30 30 20 20 50 20 90v120l-20 100-20 40-30 30-40 20h-50l-50-20-20-30-30-40-20-100v-120l20-90 30-50 20-20 50-30"/>
    <path d="m70850 23530-160-240"/>
    <path d="m70570 23530v-500h190l50 30 20 20 20 50v70l-20 50-20 20-50 20h-190"/>
   </g>
  </g>
  <g transform="translate(-25900,-12290)" stroke="#000" stroke-linecap="round" stroke-linejoin="round">
   <g fill-opacity="1" stroke-width="100">
    <rect x="6e4" y="40600" width="1e3" height="200" rx="0"/>
   </g>
   <g fill-opacity="0" stroke-width="60">
    <path d="m60500 4e4v600" fill="none" stroke="#000" stroke-linecap="round" stroke-linejoin="round" stroke-width="60"/>
    <text x="60540" y="41820" font-size="660px" opacity="0" text-anchor="middle" lengthAdjust="spacingAndGlyphs" textLength="2080">GNDD</text>
    <path d="m59900 41320-40-30h-70l-80 30-40 40-30 50-20 100v70l20 90 30 50 40 50 80 20h40l70-20 30-30v-160h-100"/>
    <path d="m60140 41790v-500l290 500v-500"/>
    <path d="m60670 41790v-500h120l70 30 40 40 30 50 20 100v70l-20 90-30 50-40 50-70 20h-120"/>
    <path d="m61170 41790v-500h120l70 30 40 40 30 50 20 100v70l-20 90-30 50-40 50-70 20h-120"/>
   </g>
  </g>
  <g transform="translate(-25900,-12290)" stroke="#000" stroke-linecap="round" stroke-linejoin="round">
   <g fill="none" stroke-width="200">
    <path d="m59700 37800h1600"/>
    <path d="m59700 37200h1600"/>
   </g>
   <g stroke-width="60">
    <path d="m60500 37100v-1100"/>
    <path d="m60500 37900v1100"/>
    <text x="62400" y="37310" font-size="660px" opacity="0" text-anchor="middle" lengthAdjust="spacingAndGlyphs" textLength="1510">C13</text>
    <path d="m62070 37230-20 30-70 20h-50l-70-20-50-50-20-50-30-90v-70l30-100 20-50 50-40 70-30h50l70 30 20 20"/>
    <path d="m62550 37280h-290"/>
    <path d="m62410 37280v-500l-50 70-50 50-50 20"/>
    <path d="m62720 36780h310l-170 190h70l50 30 20 20 30 50v120l-30 40-20 30-50 20h-140l-50-20-20-30"/>
    <text x="62710" y="38220" font-size="660px" opacity="0" text-anchor="middle" lengthAdjust="spacingAndGlyphs" textLength="2130">0.1uF</text>
    <path d="m61880 37690h50l50 30 20 20 30 50 20 90v120l-20 100-30 40-20 30-50 20h-50l-40-20-30-30-20-40-30-100v-120l30-90 20-50 30-20 40-30"/>
    <path d="m62260 38140 30 30-30 20-20-20 20-30v50"/>
    <path d="m62760 38190h-280"/>
    <path d="m62620 38190v-500l-50 70-40 50-50 20"/>
    <path d="m63190 37860v330"/>
    <path d="m62980 37860v260l20 50 50 20h70l50-20 20-30"/>
    <path d="m63600 37930h-170"/>
    <path d="m63430 38190v-500h240"/>
   </g>
  </g>
  <g transform="translate(-25900,-12290)" stroke="#000" stroke-linecap="round" stroke-linejoin="round">
   <g fill="none" stroke-width="200">
    <path d="m55200 37800h1600"/>
    <path d="m55200 37200h1600"/>
   </g>
   <g stroke-width="60">
    <path d="m56000 37100v-1100"/>
    <path d="m56000 37900v1100"/>
    <text x="57900" y="37310" font-size="660px" opacity="0" text-anchor="middle" lengthAdjust="spacingAndGlyphs" textLength="1510">C12</text>
    <path d="m57570 37230-20 30-70 20h-50l-70-20-50-50-20-50-30-90v-70l30-100 20-50 50-40 70-30h50l70 30 20 20"/>
    <path d="m58050 37280h-290"/>
    <path d="m57910 37280v-500l-50 70-50 50-50 20"/>
    <path d="m58240 36830 20-20 50-30h120l50 30 20 20 30 50v40l-30 80-280 280h310"/>
    <text x="58210" y="38220" font-size="660px" opacity="0" text-anchor="middle" lengthAdjust="spacingAndGlyphs" textLength="2130">2.2uF</text>
    <path d="m57260 37740 30-20 50-30h120l40 30 30 20 20 50v40l-20 80-290 280h310"/>
    <path d="m57760 38140 30 30-30 20-20-20 20-30v50"/>
    <path d="m57980 37740 20-20 50-30h120l50 30 20 20 20 50v40l-20 80-280 280h300"/>
    <path d="m58690 37860v330"/>
    <path d="m58480 37860v260l20 50 50 20h70l50-20 20-30"/>
    <path d="m59100 37930h-170"/>
    <path d="m58930 38190v-500h240"/>
   </g>
  </g>
  <g transform="translate(-25900,-12290)" stroke-width="0">
   <g fill-opacity="0" stroke="#000" stroke-linecap="round" stroke-linejoin="round" stroke-width="60">
    <g fill="none" stroke="#000" stroke-linecap="round" stroke-linejoin="round" stroke-width="60">
     <path d="m33700 14000 300-500"/>
     <path d="m34000 14500v-1e3"/>
     <path d="m34000 13500 300 500"/>
    </g>
    <text x="34150" y="13040" font-size="660px" opacity="0" text-anchor="middle" lengthAdjust="spacingAndGlyphs" textLength="2300">+3.3V</text>
    <path d="m33150 12820h380"/>
    <path d="m33340 13010v-380"/>
    <path d="m33720 12510h310l-170 190h70l50 30 20 20 30 50v120l-30 40-20 30-50 20h-140l-50-20-20-30"/>
    <path d="m34240 12960 20 30-20 20-20-20 20-30v50"/>
    <path d="m34430 12510h310l-170 190h80l40 30 30 20 20 50v120l-20 40-30 30-40 20h-150l-50-20-20-30"/>
    <path d="m34880 12510 170 500 170-500"/>
   </g>
  </g>
  <g transform="translate(-25900,-12290)" stroke-width="0">
   <g fill-opacity="0" stroke="#000" stroke-linecap="round" stroke-linejoin="round" stroke-width="60">
    <g fill="none" stroke="#000" stroke-linecap="round" stroke-linejoin="round" stroke-width="60">
     <path d="m33700 19500 300-500"/>
     <path d="m34000 2e4v-1e3"/>
     <path d="m34000 19000 300 500"/>
    </g>
    <text x="34150" y="18540" font-size="660px" opacity="0" text-anchor="middle" lengthAdjust="spacingAndGlyphs" textLength="2730">+3.3VA</text>
    <path d="m32930 18320h380"/>
    <path d="m33120 18510v-380"/>
    <path d="m33500 18010h310l-160 190h70l40 30 30 20 20 50v120l-20 40-30 30-40 20h-150l-40-20-30-30"/>
    <path d="m34030 18460 20 30-20 20-30-20 30-30v50"/>
    <path d="m34220 18010h310l-170 190h70l50 30 20 20 30 50v120l-30 40-20 30-50 20h-140l-50-20-20-30"/>
    <path d="m34670 18010 170 500 160-500"/>
    <path d="m35150 18370h230"/>
    <path d="m35100 18510 160-500 170 500"/>
   </g>
  </g>
  <g transform="translate(-25900,-12290)" stroke-width="0">
   <g fill-opacity="0" stroke="#000" stroke-linecap="round" stroke-linejoin="round" stroke-width="60">
    <g fill="none" stroke="#000" stroke-linecap="round" stroke-linejoin="round" stroke-width="60">
     <path d="m65700 19500 300-500"/>
     <path d="m66000 2e4v-1e3"/>
     <path d="m66000 19000 300 500"/>
    </g>
    <text x="66150" y="18540" font-size="660px" opacity="0" text-anchor="middle" lengthAdjust="spacingAndGlyphs" textLength="2730">+3.3VA</text>
    <path d="m64930 18320h380"/>
    <path d="m65120 18510v-380"/>
    <path d="m65500 18010h310l-160 190h70l40 30 30 20 20 50v120l-20 40-30 30-40 20h-150l-40-20-30-30"/>
    <path d="m66030 18460 20 30-20 20-30-20 30-30v50"/>
    <path d="m66220 18010h310l-170 190h70l50 30 20 20 30 50v120l-30 40-20 30-50 20h-140l-50-20-20-30"/>
    <path d="m66670 18010 170 500 160-500"/>
    <path d="m67150 18370h230"/>
    <path d="m67100 18510 160-500 170 500"/>
   </g>
  </g>
  <g transform="translate(-25900,-12290)" stroke="#000" stroke-linecap="round" stroke-linejoin="round">
   <g stroke-width="100">
    <rect x="94000" y="27500" width="1e3" height="6e3" rx="0"/>
   </g>
   <g stroke-width="60">
    <rect x="94000" y="31950" width="500" height="100" rx="0"/>
    <rect x="94000" y="32950" width="500" height="100" rx="0"/>
    <rect x="94000" y="30950" width="500" height="100" rx="0"/>
    <rect x="94000" y="28950" width="500" height="100" rx="0"/>
    <rect x="94000" y="27950" width="500" height="100" rx="0"/>
   </g>
   <g stroke-width="100">
    <rect x="94000" y="27500" width="1e3" height="6e3" rx="0"/>
   </g>
   <g stroke-width="60">
    <rect x="94000" y="29950" width="500" height="100" rx="0"/>
    <path d="m94000 28000h-1500"/>
    <text x="93250" y="27900" font-size="660px" opacity="0" text-anchor="middle" lengthAdjust="spacingAndGlyphs" textLength="540">1</text>
    <path d="m93390 27870h-290"/>
    <path d="m93250 27870v-500l-50 70-50 50-50 20"/>
    <path d="m94000 29000h-1500"/>
    <text x="93250" y="28900" font-size="660px" opacity="0" text-anchor="middle" lengthAdjust="spacingAndGlyphs" textLength="540">2</text>
    <path d="m93100 28420 30-20 40-30h120l50 30 20 20 30 50v40l-30 80-280 280h310"/>
    <path d="m94000 3e4h-1500"/>
    <text x="93250" y="29900" font-size="660px" opacity="0" text-anchor="middle" lengthAdjust="spacingAndGlyphs" textLength="540">3</text>
    <path d="m93080 29370h310l-170 190h70l50 30 20 20 30 50v120l-30 40-20 30-50 20h-140l-50-20-20-30"/>
    <path d="m94000 31000h-1500"/>
    <text x="93250" y="30900" font-size="660px" opacity="0" text-anchor="middle" lengthAdjust="spacingAndGlyphs" textLength="540">4</text>
    <path d="m93340 30540v330"/>
    <path d="m93220 30350-120 350h310"/>
    <path d="m94000 32000h-1500"/>
    <text x="93250" y="31900" font-size="660px" opacity="0" text-anchor="middle" lengthAdjust="spacingAndGlyphs" textLength="540">5</text>
    <path d="m93360 31370h-230l-30 240 30-20 40-30h120l50 30 20 20 30 50v120l-30 40-20 30-50 20h-120l-40-20-30-30"/>
    <path d="m94000 33000h-1500"/>
    <text x="93250" y="32900" font-size="660px" opacity="0" text-anchor="middle" lengthAdjust="spacingAndGlyphs" textLength="540">6</text>
    <path d="m93340 32370h-90l-50 30-30 20-40 70-30 100v190l30 40 20 30 50 20h90l50-20 20-30 30-40v-120l-30-50-20-20-50-30h-90l-50 30-20 20-30 50"/>
    <text x="95760" y="30350" font-size="660px" opacity="0" text-anchor="middle" lengthAdjust="spacingAndGlyphs" textLength="920">J3</text>
    <path d="m95590 29820v360l-30 70-40 50-70 20h-50"/>
    <path d="m95780 29820h310l-170 190h70l50 30 20 20 30 50v120l-30 40-20 30-50 20h-140l-50-20-20-30"/>
    <text x="97600" y="31260" font-size="660px" opacity="0" text-anchor="middle" lengthAdjust="spacingAndGlyphs" textLength="4610">Conn_01x06</text>
    <path d="m95730 31180-30 30-70 20h-50l-70-20-50-50-20-50-20-90v-70l20-100 20-50 50-40 70-30h50l70 30 30 20"/>
    <path d="m96010 31230-50-20-20-30-20-40v-150l20-40 20-30 50-20h70l50 20 20 30 30 40v150l-30 40-20 30-50 20h-70"/>
    <path d="m96390 30900v330"/>
    <path d="m96390 30950 30-30 40-20h80l40 20 30 50v260"/>
    <path d="m96850 30900v330"/>
    <path d="m96850 30950 20-30 50-20h70l50 20 20 50v260"/>
    <path d="m97180 31280h380"/>
    <path d="m97770 30730h50l50 30 20 20 30 50 20 90v120l-20 100-30 40-20 30-50 20h-50l-40-20-30-30-20-40-30-100v-120l30-90 20-50 30-20 40-30"/>
    <path d="m98420 31230h-290"/>
    <path d="m98270 31230v-500l-40 70-50 50-50 20"/>
    <path d="m98580 31230 270-330"/>
    <path d="m98580 30900 270 330"/>
    <path d="m99130 30730h50l50 30 20 20 20 50 30 90v120l-30 100-20 40-20 30-50 20h-50l-50-20-20-30-20-40-30-100v-120l30-90 20-50 20-20 50-30"/>
    <path d="m99730 30730h-100l-50 30-20 20-50 70-20 100v190l20 40 30 30 40 20h100l50-20 20-30 20-40v-120l-20-50-20-20-50-30h-100l-40 30-30 20-20 50"/>
   </g>
  </g>
  <g transform="translate(-25900,-12290)" stroke="#000" stroke-linecap="round" stroke-linejoin="round">
   <g fill-opacity="1" stroke-width="100">
    <rect x="87000" y="29600" width="1e3" height="200" rx="0"/>
   </g>
   <g fill-opacity="0" stroke-width="60">
    <path d="m87500 29000v600" fill="none" stroke="#000" stroke-linecap="round" stroke-linejoin="round" stroke-width="60"/>
    <text x="87540" y="30820" font-size="660px" opacity="0" text-anchor="middle" lengthAdjust="spacingAndGlyphs" textLength="2080">GNDD</text>
    <path d="m86900 30320-40-30h-70l-80 30-40 40-30 50-20 100v70l20 90 30 50 40 50 80 20h40l70-20 30-30v-160h-100"/>
    <path d="m87140 30790v-500l290 500v-500"/>
    <path d="m87670 30790v-500h120l70 30 40 40 30 50 20 100v70l-20 90-30 50-40 50-70 20h-120"/>
    <path d="m88170 30790v-500h120l70 30 40 40 30 50 20 100v70l-20 90-30 50-40 50-70 20h-120"/>
   </g>
  </g>
  <g transform="translate(-25900,-12290)" stroke-width="0">
   <g fill-opacity="0" stroke="#000" stroke-linecap="round" stroke-linejoin="round" stroke-width="60">
    <path d="m69000 4e4v500h500l-500 500-500-500h500" fill="none" stroke="#000" stroke-linecap="round" stroke-linejoin="round" stroke-width="60"/>
    <text x="69050" y="42000" font-size="660px" opacity="0" text-anchor="middle" lengthAdjust="spacingAndGlyphs" textLength="2010">GNDA</text>
    <path d="m68450 41500-50-30h-70l-70 30-50 40-20 50-30 100v70l30 90 20 50 50 50 70 20h50l70-20 20-30v-160h-90"/>
    <path d="m68690 41970v-500l280 500v-500"/>
    <path d="m69210 41970v-500h120l70 30 50 40 20 50 30 100v70l-30 90-20 50-50 50-70 20h-120"/>
    <path d="m69690 41830h240"/>
    <path d="m69640 41970 170-500 160 500"/>
   </g>
  </g>
  <g transform="translate(-25900,-12290)" stroke="#000" stroke-linecap="round" stroke-linejoin="round">
   <g fill-opacity="1" stroke-width="100">
    <rect x="73500" y="40600" width="1e3" height="200" rx="0"/>
   </g>
   <g fill-opacity="0" stroke-width="60">
    <path d="m74000 4e4v600" fill="none" stroke="#000" stroke-linecap="round" stroke-linejoin="round" stroke-width="60"/>
    <text x="74040" y="41820" font-size="660px" opacity="0" text-anchor="middle" lengthAdjust="spacingAndGlyphs" textLength="2080">GNDD</text>
    <path d="m73400 41320-40-30h-70l-80 30-40 40-30 50-20 100v70l20 90 30 50 40 50 80 20h40l70-20 30-30v-160h-100"/>
    <path d="m73640 41790v-500l290 500v-500"/>
    <path d="m74170 41790v-500h120l70 30 40 40 30 50 20 100v70l-20 90-30 50-40 50-70 20h-120"/>
    <path d="m74670 41790v-500h120l70 30 40 40 30 50 20 100v70l-20 90-30 50-40 50-70 20h-120"/>
   </g>
  </g>
  <g transform="translate(-25900,-12290)" stroke="#000" stroke-linecap="round" stroke-linejoin="round">
   <g stroke-width="100">
    <path d="m71000 4e4h1e3" fill="none" stroke="#000" stroke-linecap="round" stroke-linejoin="round" stroke-width="100"/>
   </g>
   <g stroke-width="60">
    <path d="m71500 4e4h-1e3"/>
    <path d="m71500 4e4h1e3"/>
    <text x="71500" y="38460" font-size="660px" opacity="0" text-anchor="middle" lengthAdjust="spacingAndGlyphs" textLength="1440">NT1</text>
    <path d="m70920 38430v-500l290 500v-500"/>
    <path d="m71380 37930h280"/>
    <path d="m71520 38430v-500"/>
    <path d="m72090 38430h-290"/>
    <path d="m71950 38430v-500l-50 70-50 50-50 20"/>
    <text x="71500" y="39370" font-size="660px" opacity="0" text-anchor="middle" lengthAdjust="spacingAndGlyphs" textLength="3820">Net-Tie_2</text>
    <path d="m69730 39340v-500l290 500v-500"/>
    <path d="m70450 39320-50 20h-100l-40-20-30-50v-190l30-50 40-20h100l50 20 20 50v50l-240 40"/>
    <path d="m70610 39010h190"/>
    <path d="m70690 38840v430l20 50 50 20h40"/>
    <path d="m70970 39150h380"/>
    <path d="m71520 38840h280"/>
    <path d="m71660 39340v-500"/>
    <path d="m71970 39340v-330"/>
    <path d="m71970 38840-20 30 20 20 30-20-30-30v50"/>
    <path d="m72400 39320-50 20h-90l-50-20-20-50v-190l20-50 50-20h90l50 20 20 50v50l-230 40"/>
    <path d="m72520 39390h380"/>
    <path d="m72990 38890 30-20 50-30h120l40 30 30 20 20 50v40l-20 80-290 280h310"/>
   </g>
  </g>
  <g transform="translate(-25900,-12290)" stroke-width="0">
   <g fill-opacity="0" stroke="#000" stroke-linecap="round" stroke-linejoin="round" stroke-width="60">
    <path d="m87500 22500v500h500l-500 500-500-500h500" fill="none" stroke="#000" stroke-linecap="round" stroke-linejoin="round" stroke-width="60"/>
    <text x="87550" y="24500" font-size="660px" opacity="0" text-anchor="middle" lengthAdjust="spacingAndGlyphs" textLength="2010">GNDA</text>
    <path d="m86950 24000-50-30h-70l-70 30-50 40-20 50-30 100v70l30 90 20 50 50 50 70 20h50l70-20 20-30v-160h-90"/>
    <path d="m87190 24470v-500l280 500v-500"/>
    <path d="m87710 24470v-500h120l70 30 50 40 20 50 30 100v70l-30 90-20 50-50 50-70 20h-120"/>
    <path d="m88190 24330h240"/>
    <path d="m88140 24470 170-500 160 500"/>
   </g>
  </g>
  <g transform="translate(-25900,-12290)" stroke="#000" stroke-linecap="round" stroke-linejoin="round">
   <g stroke-width="100">
    <rect x="94000" y="21000" width="1e3" height="3e3" rx="0"/>
   </g>
   <g stroke-width="60">
    <rect x="94000" y="23450" width="500" height="100" rx="0"/>
    <rect x="94000" y="21450" width="500" height="100" rx="0"/>
   </g>
   <g stroke-width="100">
    <rect x="94000" y="21000" width="1e3" height="3e3" rx="0"/>
   </g>
   <g stroke-width="60">
    <rect x="94000" y="22450" width="500" height="100" rx="0"/>
    <path d="m94000 21500h-1500"/>
    <text x="93250" y="21400" font-size="660px" opacity="0" text-anchor="middle" lengthAdjust="spacingAndGlyphs" textLength="540">1</text>
    <path d="m93390 21370h-290"/>
    <path d="m93250 21370v-500l-50 70-50 50-50 20"/>
    <path d="m94000 22500h-1500"/>
    <text x="93250" y="22400" font-size="660px" opacity="0" text-anchor="middle" lengthAdjust="spacingAndGlyphs" textLength="540">2</text>
    <path d="m93100 21920 30-20 40-30h120l50 30 20 20 30 50v40l-30 80-280 280h310"/>
    <path d="m94000 23500h-1500"/>
    <text x="93250" y="23400" font-size="660px" opacity="0" text-anchor="middle" lengthAdjust="spacingAndGlyphs" textLength="540">3</text>
    <path d="m93080 22870h310l-170 190h70l50 30 20 20 30 50v120l-30 40-20 30-50 20h-140l-50-20-20-30"/>
    <text x="95760" y="22350" font-size="660px" opacity="0" text-anchor="middle" lengthAdjust="spacingAndGlyphs" textLength="920">J2</text>
    <path d="m95590 21820v360l-30 70-40 50-70 20h-50"/>
    <path d="m95800 21870 30-20 40-30h120l50 30 20 20 30 50v40l-30 80-280 280h310"/>
    <text x="97600" y="23260" font-size="660px" opacity="0" text-anchor="middle" lengthAdjust="spacingAndGlyphs" textLength="4610">Conn_01x03</text>
    <path d="m95730 23180-30 30-70 20h-50l-70-20-50-50-20-50-20-90v-70l20-100 20-50 50-40 70-30h50l70 30 30 20"/>
    <path d="m96010 23230-50-20-20-30-20-40v-150l20-40 20-30 50-20h70l50 20 20 30 30 40v150l-30 40-20 30-50 20h-70"/>
    <path d="m96390 22900v330"/>
    <path d="m96390 22950 30-30 40-20h80l40 20 30 50v260"/>
    <path d="m96850 22900v330"/>
    <path d="m96850 22950 20-30 50-20h70l50 20 20 50v260"/>
    <path d="m97180 23280h380"/>
    <path d="m97770 22730h50l50 30 20 20 30 50 20 90v120l-20 100-30 40-20 30-50 20h-50l-40-20-30-30-20-40-30-100v-120l30-90 20-50 30-20 40-30"/>
    <path d="m98420 23230h-290"/>
    <path d="m98270 23230v-500l-40 70-50 50-50 20"/>
    <path d="m98580 23230 270-330"/>
    <path d="m98580 22900 270 330"/>
    <path d="m99130 22730h50l50 30 20 20 20 50 30 90v120l-30 100-20 40-20 30-50 20h-50l-50-20-20-30-20-40-30-100v-120l30-90 20-50 20-20 50-30"/>
    <path d="m99460 22730h310l-160 190h70l50 30 20 20 20 50v120l-20 40-20 30-50 20h-140l-50-20-30-30"/>
   </g>
  </g>
  <g transform="translate(-25900,-12290)" stroke-width="0">
   <g fill-opacity="0" stroke="#000" stroke-linecap="round" stroke-linejoin="round" stroke-width="60">
    <g fill="none" stroke="#000" stroke-linecap="round" stroke-linejoin="round" stroke-width="60">
     <path d="m91200 14500 300-500"/>
     <path d="m91500 15000v-1e3"/>
     <path d="m91500 14000 300 500"/>
    </g>
    <text x="91650" y="13540" font-size="660px" opacity="0" text-anchor="middle" lengthAdjust="spacingAndGlyphs" textLength="2010">+5VA</text>
    <path d="m90790 13320h380"/>
    <path d="m90980 13510v-380"/>
    <path d="m91650 13010h-240l-30 240 30-20 40-30h120l50 30 30 20 20 50v120l-20 40-30 30-50 20h-120l-40-20-30-30"/>
    <path d="m91810 13010 170 500 170-500"/>
    <path d="m92290 13370h240"/>
    <path d="m92240 13510 170-500 160 500"/>
   </g>
  </g>
  <g transform="translate(-25900,-12290)" stroke="#000" stroke-linecap="round" stroke-linejoin="round">
   <g stroke-width="100">
    <rect x="94000" y="15500" width="1e3" height="2e3" rx="0"/>
   </g>
   <g stroke-width="60">
    <rect x="94000" y="16950" width="500" height="100" rx="0"/>
    <rect x="94000" y="15950" width="500" height="100" rx="0"/>
   </g>
   <g stroke-width="100">
    <rect x="94000" y="15500" width="1e3" height="2e3" rx="0"/>
   </g>
   <g stroke-width="60">
    <path d="m94000 16000h-1500"/>
    <text x="93250" y="15900" font-size="660px" opacity="0" text-anchor="middle" lengthAdjust="spacingAndGlyphs" textLength="540">1</text>
    <path d="m93390 15870h-290"/>
    <path d="m93250 15870v-500l-50 70-50 50-50 20"/>
    <path d="m94000 17000h-1500"/>
    <text x="93250" y="16900" font-size="660px" opacity="0" text-anchor="middle" lengthAdjust="spacingAndGlyphs" textLength="540">2</text>
    <path d="m93100 16420 30-20 40-30h120l50 30 20 20 30 50v40l-30 80-280 280h310"/>
    <text x="95760" y="16350" font-size="660px" opacity="0" text-anchor="middle" lengthAdjust="spacingAndGlyphs" textLength="920">J1</text>
    <path d="m95590 15820v360l-30 70-40 50-70 20h-50"/>
    <path d="m96090 16320h-290"/>
    <path d="m95950 16320v-500l-50 70-50 50-50 20"/>
    <text x="97600" y="17260" font-size="660px" opacity="0" text-anchor="middle" lengthAdjust="spacingAndGlyphs" textLength="4610">Conn_01x02</text>
    <path d="m95730 17180-30 30-70 20h-50l-70-20-50-50-20-50-20-90v-70l20-100 20-50 50-40 70-30h50l70 30 30 20"/>
    <path d="m96010 17230-50-20-20-30-20-40v-150l20-40 20-30 50-20h70l50 20 20 30 30 40v150l-30 40-20 30-50 20h-70"/>
    <path d="m96390 16900v330"/>
    <path d="m96390 16950 30-30 40-20h80l40 20 30 50v260"/>
    <path d="m96850 16900v330"/>
    <path d="m96850 16950 20-30 50-20h70l50 20 20 50v260"/>
    <path d="m97180 17280h380"/>
    <path d="m97770 16730h50l50 30 20 20 30 50 20 90v120l-20 100-30 40-20 30-50 20h-50l-40-20-30-30-20-40-30-100v-120l30-90 20-50 30-20 40-30"/>
    <path d="m98420 17230h-290"/>
    <path d="m98270 17230v-500l-40 70-50 50-50 20"/>
    <path d="m98580 17230 270-330"/>
    <path d="m98580 16900 270 330"/>
    <path d="m99130 16730h50l50 30 20 20 20 50 30 90v120l-30 100-20 40-20 30-50 20h-50l-50-20-20-30-20-40-30-100v-120l30-90 20-50 20-20 50-30"/>
    <path d="m99490 16780 20-20 50-30h120l50 30 20 20 20 50v40l-20 80-290 280h310"/>
   </g>
  </g>
  <g transform="translate(-25900,-12290)" stroke-width="0">
   <g fill-opacity="0" stroke="#000" stroke-linecap="round" stroke-linejoin="round" stroke-width="60">
    <g fill="none" stroke="#000" stroke-linecap="round" stroke-linejoin="round" stroke-width="60">
     <path d="m91200 26500 300-500"/>
     <path d="m91500 27000v-1e3"/>
     <path d="m91500 26000 300 500"/>
    </g>
    <text x="91650" y="25540" font-size="660px" opacity="0" text-anchor="middle" lengthAdjust="spacingAndGlyphs" textLength="2300">+3.3V</text>
    <path d="m90650 25320h380"/>
    <path d="m90840 25510v-380"/>
    <path d="m91220 25010h310l-170 190h70l50 30 20 20 30 50v120l-30 40-20 30-50 20h-140l-50-20-20-30"/>
    <path d="m91740 25460 20 30-20 20-20-20 20-30v50"/>
    <path d="m91930 25010h310l-170 190h80l40 30 30 20 20 50v120l-20 40-30 30-40 20h-150l-50-20-20-30"/>
    <path d="m92380 25010 170 500 170-500"/>
   </g>
  </g>
  <g transform="translate(-25900,-12290)" stroke-width="0">
   <g fill-opacity="0" stroke="#000" stroke-linecap="round" stroke-linejoin="round" stroke-width="60">
    <path d="m57000 39000v500h500l-500 500-500-500h500" fill="none" stroke="#000" stroke-linecap="round" stroke-linejoin="round" stroke-width="60"/>
    <text x="57050" y="41000" font-size="660px" opacity="0" text-anchor="middle" lengthAdjust="spacingAndGlyphs" textLength="2010">GNDA</text>
    <path d="m56450 40500-50-30h-70l-70 30-50 40-20 50-30 100v70l30 90 20 50 50 50 70 20h50l70-20 20-30v-160h-90"/>
    <path d="m56690 40970v-500l280 500v-500"/>
    <path d="m57210 40970v-500h120l70 30 50 40 20 50 30 100v70l-30 90-20 50-50 50-70 20h-120"/>
    <path d="m57690 40830h240"/>
    <path d="m57640 40970 170-500 160 500"/>
   </g>
  </g>
  <g transform="translate(-25900,-12290)" stroke-width="0">
   <g fill-opacity="0" stroke="#000" stroke-linecap="round" stroke-linejoin="round" stroke-width="60">
    <path d="m76500 18000v500h500l-500 500-500-500h500" fill="none" stroke="#000" stroke-linecap="round" stroke-linejoin="round" stroke-width="60"/>
    <text x="76550" y="20000" font-size="660px" opacity="0" text-anchor="middle" lengthAdjust="spacingAndGlyphs" textLength="2010">GNDA</text>
    <path d="m75950 19500-50-30h-70l-70 30-50 40-20 50-30 100v70l30 90 20 50 50 50 70 20h50l70-20 20-30v-160h-90"/>
    <path d="m76190 19970v-500l280 500v-500"/>
    <path d="m76710 19970v-500h120l70 30 50 40 20 50 30 100v70l-30 90-20 50-50 50-70 20h-120"/>
    <path d="m77190 19830h240"/>
    <path d="m77140 19970 170-500 160 500"/>
   </g>
  </g>
  <g transform="translate(-25900,-12290)" stroke-width="0">
   <g fill-opacity="0" stroke="#000" stroke-linecap="round" stroke-linejoin="round" stroke-width="60">
    <g fill="none" stroke="#000" stroke-linecap="round" stroke-linejoin="round" stroke-width="60">
     <path d="m70200 14500 300-500"/>
     <path d="m70500 15000v-1e3"/>
     <path d="m70500 14000 300 500"/>
    </g>
    <text x="70650" y="13540" font-size="660px" opacity="0" text-anchor="middle" lengthAdjust="spacingAndGlyphs" textLength="2010">+5VA</text>
    <path d="m69790 13320h380"/>
    <path d="m69980 13510v-380"/>
    <path d="m70650 13010h-240l-30 240 30-20 40-30h120l50 30 30 20 20 50v120l-20 40-30 30-50 20h-120l-40-20-30-30"/>
    <path d="m70810 13010 170 500 170-500"/>
    <path d="m71290 13370h240"/>
    <path d="m71240 13510 170-500 160 500"/>
   </g>
  </g>
  <g transform="translate(-25900,-12290)" stroke="#000" stroke-linecap="round" stroke-linejoin="round">
   <g fill="none" stroke-width="200">
    <path d="m69700 16800h1600"/>
    <path d="m69700 16200h1600"/>
   </g>
   <g stroke-width="60">
    <path d="m70500 16100v-1100"/>
    <path d="m70500 16900v1100"/>
    <text x="72170" y="16310" font-size="660px" opacity="0" text-anchor="middle" lengthAdjust="spacingAndGlyphs" textLength="1040">C3</text>
    <path d="m72080 16230-20 30-70 20h-50l-70-20-50-50-20-50-30-90v-70l30-100 20-50 50-40 70-30h50l70 30 20 20"/>
    <path d="m72250 15780h310l-170 190h70l50 30 20 20 30 50v120l-30 40-20 30-50 20h-140l-50-20-20-30"/>
    <text x="72710" y="17220" font-size="660px" opacity="0" text-anchor="middle" lengthAdjust="spacingAndGlyphs" textLength="2130">2.2uF</text>
    <path d="m71760 16740 30-20 50-30h120l40 30 30 20 20 50v40l-20 80-290 280h310"/>
    <path d="m72260 17140 30 30-30 20-20-20 20-30v50"/>
    <path d="m72480 16740 20-20 50-30h120l50 30 20 20 20 50v40l-20 80-280 280h300"/>
    <path d="m73190 16860v330"/>
    <path d="m72980 16860v260l20 50 50 20h70l50-20 20-30"/>
    <path d="m73600 16930h-170"/>
    <path d="m73430 17190v-500h240"/>
   </g>
  </g>
  <g transform="translate(-25900,-12290)" stroke="#000" stroke-linecap="round" stroke-linejoin="round">
   <g stroke-width="100">
    <rect x="29500" y="34100" width="2e3" height="800" rx="0"/>
   </g>
   <g stroke-width="60">
    <path d="m29500 34500h-500"/>
    <path d="m31500 34500h500"/>
    <text x="30500" y="32650" font-size="660px" opacity="0" text-anchor="middle" lengthAdjust="spacingAndGlyphs" textLength="1040">R6</text>
    <path d="m30410 32620-160-240"/>
    <path d="m30130 32620v-500h190l40 30 30 20 20 50v70l-20 50-30 20-40 20h-190"/>
    <path d="m30840 32120h-90l-50 30-30 20-40 70-30 100v190l30 40 20 30 50 20h90l50-20 20-30 30-40v-120l-30-50-20-20-50-30h-90l-50 30-20 20-30 50"/>
    <text x="30490" y="33560" font-size="660px" opacity="0" text-anchor="middle" lengthAdjust="spacingAndGlyphs" textLength="1510">22R</text>
    <path d="m29850 33080 30-20 50-30h110l50 30 30 20 20 50v40l-20 80-290 280h310"/>
    <path d="m30330 33080 20-20 50-30h120l50 30 20 20 30 50v40l-30 80-280 280h310"/>
    <path d="m31120 33530-170-240"/>
    <path d="m30830 33530v-500h190l50 30 20 20 30 50v70l-30 50-20 20-50 20h-190"/>
   </g>
  </g>
  <g transform="translate(-25900,-12290)" stroke="#000" stroke-linecap="round" stroke-linejoin="round">
   <g fill="none" stroke-width="200">
    <path d="m55200 31800h1600"/>
    <path d="m55200 31200h1600"/>
   </g>
   <g stroke-width="60">
    <path d="m56000 31100v-1100"/>
    <path d="m56000 31900v1100"/>
    <text x="57900" y="31310" font-size="660px" opacity="0" text-anchor="middle" lengthAdjust="spacingAndGlyphs" textLength="1510">C10</text>
    <path d="m57570 31230-20 30-70 20h-50l-70-20-50-50-20-50-30-90v-70l30-100 20-50 50-40 70-30h50l70 30 20 20"/>
    <path d="m58050 31280h-290"/>
    <path d="m57910 31280v-500l-50 70-50 50-50 20"/>
    <path d="m58360 30780h50l40 30 30 20 20 50 30 90v120l-30 100-20 40-30 30-40 20h-50l-50-20-20-30-30-40-20-100v-120l20-90 30-50 20-20 50-30"/>
    <text x="58210" y="32220" font-size="660px" opacity="0" text-anchor="middle" lengthAdjust="spacingAndGlyphs" textLength="2130">2.2uF</text>
    <path d="m57260 31740 30-20 50-30h120l40 30 30 20 20 50v40l-20 80-290 280h310"/>
    <path d="m57760 32140 30 30-30 20-20-20 20-30v50"/>
    <path d="m57980 31740 20-20 50-30h120l50 30 20 20 20 50v40l-20 80-280 280h300"/>
    <path d="m58690 31860v330"/>
    <path d="m58480 31860v260l20 50 50 20h70l50-20 20-30"/>
    <path d="m59100 31930h-170"/>
    <path d="m58930 32190v-500h240"/>
   </g>
  </g>
  <g transform="translate(-25900,-12290)" stroke="#000" stroke-linecap="round" stroke-linejoin="round">
   <g fill-opacity="1" stroke-width="100">
    <rect x="41000" y="18100" width="1e3" height="200" rx="0"/>
   </g>
   <g fill-opacity="0" stroke-width="60">
    <path d="m41500 17500v600" fill="none" stroke="#000" stroke-linecap="round" stroke-linejoin="round" stroke-width="60"/>
    <text x="41540" y="19320" font-size="660px" opacity="0" text-anchor="middle" lengthAdjust="spacingAndGlyphs" textLength="2080">GNDD</text>
    <path d="m40900 18820-40-30h-70l-80 30-40 40-30 50-20 100v70l20 90 30 50 40 50 80 20h40l70-20 30-30v-160h-100"/>
    <path d="m41140 19290v-500l290 500v-500"/>
    <path d="m41670 19290v-500h120l70 30 40 40 30 50 20 100v70l-20 90-30 50-40 50-70 20h-120"/>
    <path d="m42170 19290v-500h120l70 30 40 40 30 50 20 100v70l-20 90-30 50-40 50-70 20h-120"/>
   </g>
  </g>
  <g transform="translate(-25900,-12290)" stroke="#000" stroke-linecap="round" stroke-linejoin="round" stroke-width="60">
   <g fill-opacity="0">
    <rect x="38100" y="15600" width="1800" height="200" rx="0"/>
   </g>
   <g fill-opacity="1">
    <rect x="38100" y="16200" width="1800" height="200" rx="0"/>
   </g>
   <g fill-opacity="0">
    <path d="m38300 15100h400" fill="none" stroke="#000" stroke-linecap="round" stroke-linejoin="round" stroke-width="60"/>
    <path d="m38500 14900v400" fill="none" stroke="#000" stroke-linecap="round" stroke-linejoin="round" stroke-width="60"/>
    <path d="m39000 15600v-1100"/>
    <path d="m39000 16400v1100"/>
    <text x="40700" y="15810" font-size="660px" opacity="0" text-anchor="middle" lengthAdjust="spacingAndGlyphs" textLength="1040">C1</text>
    <path d="m40610 15730-20 30-70 20h-50l-70-20-50-50-20-50-30-90v-70l30-100 20-50 50-40 70-30h50l70 30 20 20"/>
    <path d="m41090 15780h-290"/>
    <path d="m40950 15780v-500l-50 70-50 50-50 20"/>
    <text x="41120" y="16720" font-size="660px" opacity="0" text-anchor="middle" lengthAdjust="spacingAndGlyphs" textLength="1890">10uF</text>
    <path d="m40580 16690h-290"/>
    <path d="m40440 16690v-500l-50 70-50 50-50 20"/>
    <path d="m40890 16190h50l40 30 30 20 20 50 30 90v120l-30 100-20 40-30 30-40 20h-50l-50-20-20-30-30-40-20-100v-120l20-90 30-50 20-20 50-30"/>
    <path d="m41480 16360v330"/>
    <path d="m41270 16360v260l20 50 50 20h70l50-20 20-30"/>
    <path d="m41890 16430h-170"/>
    <path d="m41720 16690v-500h240"/>
   </g>
  </g>
  <g transform="translate(-25900,-12290)" stroke="#000" stroke-linecap="round" stroke-linejoin="round">
   <g fill="none" stroke-width="200">
    <path d="m43200 16300h1600"/>
    <path d="m43200 15700h1600"/>
   </g>
   <g stroke-width="60">
    <path d="m44000 15600v-1100"/>
    <path d="m44000 16400v1100"/>
    <text x="45670" y="15810" font-size="660px" opacity="0" text-anchor="middle" lengthAdjust="spacingAndGlyphs" textLength="1040">C2</text>
    <path d="m45580 15730-20 30-70 20h-50l-70-20-50-50-20-50-30-90v-70l30-100 20-50 50-40 70-30h50l70 30 20 20"/>
    <path d="m45770 15330 30-20 40-30h120l50 30 20 20 30 50v40l-30 80-280 280h310"/>
    <text x="46210" y="16720" font-size="660px" opacity="0" text-anchor="middle" lengthAdjust="spacingAndGlyphs" textLength="2130">0.1uF</text>
    <path d="m45380 16190h50l50 30 20 20 30 50 20 90v120l-20 100-30 40-20 30-50 20h-50l-40-20-30-30-20-40-30-100v-120l30-90 20-50 30-20 40-30"/>
    <path d="m45760 16640 30 30-30 20-20-20 20-30v50"/>
    <path d="m46260 16690h-280"/>
    <path d="m46120 16690v-500l-50 70-40 50-50 20"/>
    <path d="m46690 16360v330"/>
    <path d="m46480 16360v260l20 50 50 20h70l50-20 20-30"/>
    <path d="m47100 16430h-170"/>
    <path d="m46930 16690v-500h240"/>
   </g>
  </g>
  <g transform="translate(-25900,-12290)" stroke="#000" stroke-linecap="round" stroke-linejoin="round">
   <g fill="none" stroke-width="200">
    <path d="m55200 21800h1600"/>
    <path d="m55200 21200h1600"/>
   </g>
   <g stroke-width="60">
    <path d="m56000 21100v-1100"/>
    <path d="m56000 21900v1100"/>
    <text x="57670" y="21310" font-size="660px" opacity="0" text-anchor="middle" lengthAdjust="spacingAndGlyphs" textLength="1040">C7</text>
    <path d="m57580 21230-20 30-70 20h-50l-70-20-50-50-20-50-30-90v-70l30-100 20-50 50-40 70-30h50l70 30 20 20"/>
    <path d="m57750 20780h330l-210 500"/>
    <text x="58210" y="22220" font-size="660px" opacity="0" text-anchor="middle" lengthAdjust="spacingAndGlyphs" textLength="2130">0.1uF</text>
    <path d="m57380 21690h50l50 30 20 20 30 50 20 90v120l-20 100-30 40-20 30-50 20h-50l-40-20-30-30-20-40-30-100v-120l30-90 20-50 30-20 40-30"/>
    <path d="m57760 22140 30 30-30 20-20-20 20-30v50"/>
    <path d="m58260 22190h-280"/>
    <path d="m58120 22190v-500l-50 70-40 50-50 20"/>
    <path d="m58690 21860v330"/>
    <path d="m58480 21860v260l20 50 50 20h70l50-20 20-30"/>
    <path d="m59100 21930h-170"/>
    <path d="m58930 22190v-500h240"/>
   </g>
  </g>
  <g transform="translate(-25900,-12290)" stroke="#000" stroke-linecap="round" stroke-linejoin="round" stroke-width="60">
   <g fill-opacity="0">
    <rect x="60100" y="21100" width="1800" height="200" rx="0"/>
   </g>
   <g fill-opacity="1">
    <rect x="60100" y="21700" width="1800" height="200" rx="0"/>
   </g>
   <g fill-opacity="0">
    <path d="m60300 20600h400" fill="none" stroke="#000" stroke-linecap="round" stroke-linejoin="round" stroke-width="60"/>
    <path d="m60500 20400v400" fill="none" stroke="#000" stroke-linecap="round" stroke-linejoin="round" stroke-width="60"/>
    <path d="m61000 21100v-1100"/>
    <path d="m61000 21900v1100"/>
    <text x="62700" y="21310" font-size="660px" opacity="0" text-anchor="middle" lengthAdjust="spacingAndGlyphs" textLength="1040">C8</text>
    <path d="m62610 21230-20 30-70 20h-50l-70-20-50-50-20-50-30-90v-70l30-100 20-50 50-40 70-30h50l70 30 20 20"/>
    <path d="m62900 21000-50-30-20-20-30-50v-20l30-50 20-20 50-30h90l50 30 20 20 30 50v20l-30 50-20 20-50 30h-90l-50 20-20 20-30 50v100l30 40 20 30 50 20h90l50-20 20-30 30-40v-100l-30-50-20-20-50-20"/>
    <text x="63120" y="22220" font-size="660px" opacity="0" text-anchor="middle" lengthAdjust="spacingAndGlyphs" textLength="1890">10uF</text>
    <path d="m62580 22190h-290"/>
    <path d="m62440 22190v-500l-50 70-50 50-50 20"/>
    <path d="m62890 21690h50l40 30 30 20 20 50 30 90v120l-30 100-20 40-30 30-40 20h-50l-50-20-20-30-30-40-20-100v-120l20-90 30-50 20-20 50-30"/>
    <path d="m63480 21860v330"/>
    <path d="m63270 21860v260l20 50 50 20h70l50-20 20-30"/>
    <path d="m63890 21930h-170"/>
    <path d="m63720 22190v-500h240"/>
   </g>
  </g>
  <g transform="translate(-25900,-12290)" stroke-width="0">
   <g fill-opacity="0" stroke="#000" stroke-linecap="round" stroke-linejoin="round" stroke-width="60">
    <path d="m58500 23000v500h500l-500 500-500-500h500" fill="none" stroke="#000" stroke-linecap="round" stroke-linejoin="round" stroke-width="60"/>
    <text x="58550" y="25000" font-size="660px" opacity="0" text-anchor="middle" lengthAdjust="spacingAndGlyphs" textLength="2010">GNDA</text>
    <path d="m57950 24500-50-30h-70l-70 30-50 40-20 50-30 100v70l30 90 20 50 50 50 70 20h50l70-20 20-30v-160h-90"/>
    <path d="m58190 24970v-500l280 500v-500"/>
    <path d="m58710 24970v-500h120l70 30 50 40 20 50 30 100v70l-30 90-20 50-50 50-70 20h-120"/>
    <path d="m59190 24830h240"/>
    <path d="m59140 24970 170-500 160 500"/>
   </g>
  </g>
  <g transform="translate(-25900,-12290)" stroke="#000" stroke-linecap="round" stroke-linejoin="round">
   <g fill-opacity="1" stroke-width="100">
    <rect x="49500" y="40600" width="1e3" height="200" rx="0"/>
   </g>
   <g fill-opacity="0" stroke-width="60">
    <path d="m5e4 4e4v600" fill="none" stroke="#000" stroke-linecap="round" stroke-linejoin="round" stroke-width="60"/>
    <text x="50040" y="41820" font-size="660px" opacity="0" text-anchor="middle" lengthAdjust="spacingAndGlyphs" textLength="2080">GNDD</text>
    <path d="m49400 41320-40-30h-70l-80 30-40 40-30 50-20 100v70l20 90 30 50 40 50 80 20h40l70-20 30-30v-160h-100"/>
    <path d="m49640 41790v-500l290 500v-500"/>
    <path d="m50170 41790v-500h120l70 30 40 40 30 50 20 100v70l-20 90-30 50-40 50-70 20h-120"/>
    <path d="m50670 41790v-500h120l70 30 40 40 30 50 20 100v70l-20 90-30 50-40 50-70 20h-120"/>
   </g>
  </g>
  <g transform="translate(-25900,-12290)" stroke-width="0">
   <g fill-opacity="0" stroke="#000" stroke-linecap="round" stroke-linejoin="round" stroke-width="60">
    <path d="m41500 23000v500h500l-500 500-500-500h500" fill="none" stroke="#000" stroke-linecap="round" stroke-linejoin="round" stroke-width="60"/>
    <text x="41550" y="25000" font-size="660px" opacity="0" text-anchor="middle" lengthAdjust="spacingAndGlyphs" textLength="2010">GNDA</text>
    <path d="m40950 24500-50-30h-70l-70 30-50 40-20 50-30 100v70l30 90 20 50 50 50 70 20h50l70-20 20-30v-160h-90"/>
    <path d="m41190 24970v-500l280 500v-500"/>
    <path d="m41710 24970v-500h120l70 30 50 40 20 50 30 100v70l-30 90-20 50-50 50-70 20h-120"/>
    <path d="m42190 24830h240"/>
    <path d="m42140 24970 170-500 160 500"/>
   </g>
  </g>
  <g transform="translate(-25900,-12290)" stroke="#000" stroke-linecap="round" stroke-linejoin="round" stroke-width="60">
   <g fill-opacity="0">
    <rect x="38100" y="21100" width="1800" height="200" rx="0"/>
   </g>
   <g fill-opacity="1">
    <rect x="38100" y="21700" width="1800" height="200" rx="0"/>
   </g>
   <g fill-opacity="0">
    <path d="m38300 20600h400" fill="none" stroke="#000" stroke-linecap="round" stroke-linejoin="round" stroke-width="60"/>
    <path d="m38500 20400v400" fill="none" stroke="#000" stroke-linecap="round" stroke-linejoin="round" stroke-width="60"/>
    <path d="m39000 21100v-1100"/>
    <path d="m39000 21900v1100"/>
    <text x="40700" y="21310" font-size="660px" opacity="0" text-anchor="middle" lengthAdjust="spacingAndGlyphs" textLength="1040">C5</text>
    <path d="m40610 21230-20 30-70 20h-50l-70-20-50-50-20-50-30-90v-70l30-100 20-50 50-40 70-30h50l70 30 20 20"/>
    <path d="m41060 20780h-230l-30 240 30-20 40-30h120l50 30 20 20 30 50v120l-30 40-20 30-50 20h-120l-40-20-30-30"/>
    <text x="41120" y="22220" font-size="660px" opacity="0" text-anchor="middle" lengthAdjust="spacingAndGlyphs" textLength="1890">10uF</text>
    <path d="m40580 22190h-290"/>
    <path d="m40440 22190v-500l-50 70-50 50-50 20"/>
    <path d="m40890 21690h50l40 30 30 20 20 50 30 90v120l-30 100-20 40-30 30-40 20h-50l-50-20-20-30-30-40-20-100v-120l20-90 30-50 20-20 50-30"/>
    <path d="m41480 21860v330"/>
    <path d="m41270 21860v260l20 50 50 20h70l50-20 20-30"/>
    <path d="m41890 21930h-170"/>
    <path d="m41720 22190v-500h240"/>
   </g>
  </g>
  <g transform="translate(-25900,-12290)" stroke="#000" stroke-linecap="round" stroke-linejoin="round">
   <g fill="none" stroke-width="200">
    <path d="m43200 21800h1600"/>
    <path d="m43200 21200h1600"/>
   </g>
   <g stroke-width="60">
    <path d="m44000 21100v-1100"/>
    <path d="m44000 21900v1100"/>
    <text x="45670" y="21310" font-size="660px" opacity="0" text-anchor="middle" lengthAdjust="spacingAndGlyphs" textLength="1040">C6</text>
    <path d="m45580 21230-20 30-70 20h-50l-70-20-50-50-20-50-30-90v-70l30-100 20-50 50-40 70-30h50l70 30 20 20"/>
    <path d="m46010 20780h-90l-50 30-30 20-40 70-30 100v190l30 40 20 30 50 20h90l50-20 20-30 30-40v-120l-30-50-20-20-50-30h-90l-50 30-20 20-30 50"/>
    <text x="46210" y="22220" font-size="660px" opacity="0" text-anchor="middle" lengthAdjust="spacingAndGlyphs" textLength="2130">0.1uF</text>
    <path d="m45380 21690h50l50 30 20 20 30 50 20 90v120l-20 100-30 40-20 30-50 20h-50l-40-20-30-30-20-40-30-100v-120l30-90 20-50 30-20 40-30"/>
    <path d="m45760 22140 30 30-30 20-20-20 20-30v50"/>
    <path d="m46260 22190h-280"/>
    <path d="m46120 22190v-500l-50 70-40 50-50 20"/>
    <path d="m46690 21860v330"/>
    <path d="m46480 21860v260l20 50 50 20h70l50-20 20-30"/>
    <path d="m47100 21930h-170"/>
    <path d="m46930 22190v-500h240"/>
   </g>
  </g>
  <g transform="translate(-25900,-12290)" stroke="#000" stroke-linecap="round" stroke-linejoin="round">
   <g stroke-width="100">
    <rect x="46000" y="26000" width="8e3" height="11000" rx="0"/>
    <rect x="46000" y="26000" width="8e3" height="11000" rx="0"/>
   </g>
   <g stroke-width="60">
    <path d="m49000 26000v-1e3"/>
    <g transform="rotate(-90,49000,26200)">
     <text x="49000" y="26450" font-size="660px" opacity="0" text-anchor="end" lengthAdjust="spacingAndGlyphs" textLength="2490">CPVDD</text>
    </g>
    <path d="m49170 28250 30 20 20 70v50l-20 70-50 50-50 20-90 30h-70l-100-30-50-20-40-50-30-70v-50l30-70 20-20"/>
    <path d="m49220 28030h-500v-190l30-40 20-30 50-20h70l50 20 20 30 20 40v190"/>
    <path d="m48720 27610 500-170-500-170"/>
    <path d="m49220 27110h-500v-120l30-70 40-50 50-30 100-20h70l90 20 50 30 50 50 20 70v120"/>
    <path d="m49220 26610h-500v-120l30-70 40-50 50-30 100-20h70l90 20 50 30 50 50 20 70v120"/>
    <g transform="rotate(-90,48900,25500)">
     <text x="48900" y="25500" font-size="660px" opacity="0" text-anchor="middle" lengthAdjust="spacingAndGlyphs" textLength="540">1</text>
    </g>
    <path d="m48870 25350v290"/>
    <path d="m48870 25500h-500l70 40 50 50 20 50"/>
    <path d="m46000 33000h-1e3"/>
    <text x="46200" y="33250" font-size="660px" opacity="0" lengthAdjust="spacingAndGlyphs" textLength="2080">DEMP</text>
    <path d="m46340 33220v-500h120l70 30 50 40 30 50 20 100v70l-20 90-30 50-50 50-70 20h-120"/>
    <path d="m46840 32960h170"/>
    <path d="m47080 33220h-240v-500h240"/>
    <path d="m47300 33220v-500l160 360 170-360v500"/>
    <path d="m47870 33220v-500h190l50 30 20 20 20 50v70l-20 50-20 20-50 20h-190"/>
    <text x="45500" y="32900" font-size="660px" opacity="0" text-anchor="middle" lengthAdjust="spacingAndGlyphs" textLength="1010">10</text>
    <path d="m45400 32870h-290"/>
    <path d="m45260 32870v-500l-50 70-50 50-50 20"/>
    <path d="m45710 32370h50l40 30 30 20 20 50 30 90v120l-30 100-20 40-30 30-40 20h-50l-50-20-20-30-30-40-20-100v-120l20-90 30-50 20-20 50-30"/>
    <path d="m46000 32000h-1e3"/>
    <text x="46200" y="32250" font-size="660px" opacity="0" lengthAdjust="spacingAndGlyphs" textLength="1270">FLT</text>
    <path d="m46510 31960h-170"/>
    <path d="m46340 32220v-500h240"/>
    <path d="m47010 32220h-240v-500"/>
    <path d="m47110 31720h280"/>
    <path d="m47250 32220v-500"/>
    <text x="45500" y="31900" font-size="660px" opacity="0" text-anchor="middle" lengthAdjust="spacingAndGlyphs" textLength="1010">11</text>
    <path d="m45400 31870h-290"/>
    <path d="m45260 31870v-500l-50 70-50 50-50 20"/>
    <path d="m45880 31870h-290"/>
    <path d="m45730 31870v-500l-40 70-50 50-50 20"/>
    <path d="m46000 3e4h-1e3"/>
    <text x="46200" y="30250" font-size="660px" opacity="0" lengthAdjust="spacingAndGlyphs" textLength="1540">SCK</text>
    <path d="m46320 30200 70 20h120l50-20 20-30 30-40v-50l-30-50-20-20-50-30-90-20-50-20-30-30-20-50v-40l20-50 30-20 50-30h110l80 30"/>
    <path d="m47110 30170-30 30-70 20h-50l-70-20-50-50-20-50-20-90v-70l20-100 20-50 50-40 70-30h50l70 30 30 20"/>
    <path d="m47320 30220v-500"/>
    <path d="m47610 30220-220-280"/>
    <path d="m47610 29720-290 290"/>
    <text x="45500" y="29900" font-size="660px" opacity="0" text-anchor="middle" lengthAdjust="spacingAndGlyphs" textLength="1010">12</text>
    <path d="m45400 29870h-290"/>
    <path d="m45260 29870v-500l-50 70-50 50-50 20"/>
    <path d="m45590 29420 20-20 50-30h120l50 30 20 20 30 50v40l-30 80-280 280h310"/>
    <path d="m46000 29000h-1e3"/>
    <text x="46200" y="29250" font-size="660px" opacity="0" lengthAdjust="spacingAndGlyphs" textLength="1560">BCK</text>
    <path d="m46510 28960 70 20 30 30 20 40v80l-20 40-30 30-50 20h-190v-500h170l50 30 20 20 30 50v40l-30 50-20 30-50 20h-170"/>
    <path d="m47130 29170-20 30-80 20h-40l-70-20-50-50-30-50-20-90v-70l20-100 30-50 50-40 70-30h40l80 30 20 20"/>
    <path d="m47340 29220v-500"/>
    <path d="m47630 29220-210-280"/>
    <path d="m47630 28720-290 290"/>
    <text x="45500" y="28900" font-size="660px" opacity="0" text-anchor="middle" lengthAdjust="spacingAndGlyphs" textLength="1010">13</text>
    <path d="m45400 28870h-290"/>
    <path d="m45260 28870v-500l-50 70-50 50-50 20"/>
    <path d="m45570 28370h310l-170 190h70l50 30 20 20 30 50v120l-30 40-20 30-50 20h-140l-50-20-20-30"/>
    <path d="m46000 28000h-1e3"/>
    <text x="46200" y="28250" font-size="660px" opacity="0" lengthAdjust="spacingAndGlyphs" textLength="1320">DIN</text>
    <path d="m46340 28220v-500h120l70 30 50 40 30 50 20 100v70l-20 90-30 50-50 50-70 20h-120"/>
    <path d="m46840 28220v-500"/>
    <path d="m47080 28220v-500l290 500v-500"/>
    <text x="45500" y="27900" font-size="660px" opacity="0" text-anchor="middle" lengthAdjust="spacingAndGlyphs" textLength="1010">14</text>
    <path d="m45400 27870h-290"/>
    <path d="m45260 27870v-500l-50 70-50 50-50 20"/>
    <path d="m45830 27540v330"/>
    <path d="m45710 27350-120 350h310"/>
    <path d="m46000 27000h-1e3"/>
    <text x="46200" y="27250" font-size="660px" opacity="0" lengthAdjust="spacingAndGlyphs" textLength="1960">LRCK</text>
    <path d="m46580 27220h-240v-500"/>
    <path d="m47030 27220-160-240"/>
    <path d="m46750 27220v-500h190l50 30 20 20 20 50v70l-20 50-20 20-50 20h-190"/>
    <path d="m47530 27170-20 30-70 20h-50l-70-20-50-50-20-50-20-90v-70l20-100 20-50 50-40 70-30h50l70 30 20 20"/>
    <path d="m47750 27220v-500"/>
    <path d="m48030 27220-210-280"/>
    <path d="m48030 26720-280 290"/>
    <text x="45500" y="26900" font-size="660px" opacity="0" text-anchor="middle" lengthAdjust="spacingAndGlyphs" textLength="1010">15</text>
    <path d="m45400 26870h-290"/>
    <path d="m45260 26870v-500l-50 70-50 50-50 20"/>
    <path d="m45850 26370h-240l-20 240 20-20 50-30h120l50 30 20 20 30 50v120l-30 40-20 30-50 20h-120l-50-20-20-30"/>
    <path d="m46000 35000h-1e3"/>
    <text x="46200" y="35250" font-size="660px" opacity="0" lengthAdjust="spacingAndGlyphs" textLength="1440">FMT</text>
    <path d="m46510 34960h-170"/>
    <path d="m46340 35220v-500h240"/>
    <path d="m46770 35220v-500l170 360 170-360v500"/>
    <path d="m47270 34720h290"/>
    <path d="m47420 35220v-500"/>
    <text x="45500" y="34900" font-size="660px" opacity="0" text-anchor="middle" lengthAdjust="spacingAndGlyphs" textLength="1010">16</text>
    <path d="m45400 34870h-290"/>
    <path d="m45260 34870v-500l-50 70-50 50-50 20"/>
    <path d="m45830 34370h-100l-40 30-30 20-50 70-20 100v190l20 40 30 30 50 20h90l50-20 20-30 30-40v-120l-30-50-20-20-50-30h-90l-50 30-30 20-20 50"/>
    <path d="m46000 34000h-1e3"/>
    <text x="46200" y="34250" font-size="660px" opacity="0" lengthAdjust="spacingAndGlyphs" textLength="1960">XSMT</text>
    <path d="m46300 33720 330 500"/>
    <path d="m46630 33720-330 500"/>
    <path d="m46800 34200 70 20h120l40-20 30-30 20-40v-50l-20-50-30-20-40-30-100-20-50-20-20-30-20-50v-40l20-50 20-20 50-30h120l70 30"/>
    <path d="m47300 34220v-500l160 360 170-360v500"/>
    <path d="m47800 33720h280"/>
    <path d="m47940 34220v-500"/>
    <text x="45500" y="33900" font-size="660px" opacity="0" text-anchor="middle" lengthAdjust="spacingAndGlyphs" textLength="1010">17</text>
    <path d="m45400 33870h-290"/>
    <path d="m45260 33870v-500l-50 70-50 50-50 20"/>
    <path d="m45570 33370h330l-210 500"/>
    <path d="m54000 35000h1e3"/>
    <text x="53800" y="35250" font-size="660px" opacity="0" text-anchor="end" lengthAdjust="spacingAndGlyphs" textLength="2010">LDOO</text>
    <path d="m52170 35220h-240v-500"/>
    <path d="m52340 35220v-500h120l70 30 40 40 30 50 20 100v70l-20 90-30 50-40 50-70 20h-120"/>
    <path d="m52930 34720h100l40 30 50 40 30 100v160l-30 100-50 50-40 20h-100l-50-20-40-50-30-100v-160l30-100 40-40 50-30"/>
    <path d="m53460 34720h90l50 30 50 40 20 100v160l-20 100-50 50-50 20h-90l-50-20-50-50-20-100v-160l20-100 50-40 50-30"/>
    <text x="54500" y="34900" font-size="660px" opacity="0" text-anchor="middle" lengthAdjust="spacingAndGlyphs" textLength="1010">18</text>
    <path d="m54400 34870h-290"/>
    <path d="m54260 34870v-500l-50 70-50 50-50 20"/>
    <path d="m54690 34590-50-30-30-20-20-50v-20l20-50 30-20 50-30h90l50 30 20 20 30 50v20l-30 50-20 20-50 30h-90l-50 20-30 20-20 50v100l20 40 30 30 50 20h90l50-20 20-30 30-40v-100l-30-50-20-20-50-20"/>
    <path d="m5e4 37000v1e3"/>
    <g transform="rotate(-90 5e4 36800)">
     <text x="50000" y="37050" font-size="660px" opacity="0" lengthAdjust="spacingAndGlyphs" textLength="2080">DGND</text>
    </g>
    <path d="m50220 36650h-500v-120l30-70 40-50 50-30 100-20h70l90 20 50 30 50 50 20 70v120"/>
    <path d="m49750 35880-30 50v70l30 70 40 50 50 30 100 20h70l90-20 50-30 50-50 20-70v-40l-20-80-30-20h-160v100"/>
    <path d="m50220 35650h-500l500-290h-500"/>
    <path d="m50220 35120h-500v-120l30-70 40-50 50-20 100-20h70l90 20 50 20 50 50 20 70v120"/>
    <g transform="rotate(-90,49900,37500)">
     <text x="49900" y="37500" font-size="660px" opacity="0" text-anchor="middle" lengthAdjust="spacingAndGlyphs" textLength="1010">19</text>
    </g>
    <path d="m49870 37590v290"/>
    <path d="m49870 37730h-500l70 50 50 50 20 50"/>
    <path d="m49870 37350v-90l-20-50-30-20-70-50-90-30h-190l-50 30-20 20-30 50v90l30 50 20 30 50 20h120l40-20 30-30 20-50v-90l-20-50-30-20-40-30"/>
    <path d="m54000 3e4h1e3"/>
    <text x="53800" y="30250" font-size="660px" opacity="0" text-anchor="end" lengthAdjust="spacingAndGlyphs" textLength="1990">CAPP</text>
    <path d="m52240 30170-20 30-70 20h-50l-70-20-50-50-20-50-30-90v-70l30-100 20-50 50-40 70-30h50l70 30 20 20"/>
    <path d="m52430 30080h240"/>
    <path d="m52380 30220 170-500 170 500"/>
    <path d="m52880 30220v-500h190l50 30 30 20 20 50v70l-20 50-30 20-50 20h-190"/>
    <path d="m53380 30220v-500h190l50 30 30 20 20 50v70l-20 50-30 20-50 20h-190"/>
    <text x="54500" y="29900" font-size="660px" opacity="0" text-anchor="middle" lengthAdjust="spacingAndGlyphs" textLength="540">2</text>
    <path d="m54350 29420 30-20 40-30h120l50 30 20 20 30 50v40l-30 80-280 280h310"/>
    <path d="m5e4 26000v-1e3"/>
    <g transform="rotate(-90 5e4 26200)">
     <text x="50000" y="26450" font-size="660px" opacity="0" text-anchor="end" lengthAdjust="spacingAndGlyphs" textLength="1990">DVDD</text>
    </g>
    <path d="m50220 28030h-500v-110l30-80 40-40 50-30 100-20h70l90 20 50 30 50 40 20 80v110"/>
    <path d="m49720 27610 500-170-500-170"/>
    <path d="m50220 27110h-500v-120l30-70 40-50 50-30 100-20h70l90 20 50 30 50 50 20 70v120"/>
    <path d="m50220 26610h-500v-120l30-70 40-50 50-30 100-20h70l90 20 50 30 50 50 20 70v120"/>
    <g transform="rotate(-90,49900,25500)">
     <text x="49900" y="25500" font-size="660px" opacity="0" text-anchor="middle" lengthAdjust="spacingAndGlyphs" textLength="1010">20</text>
    </g>
    <path d="m49420 25880-20-30-30-50v-110l30-50 20-30 50-20h40l80 20 280 290v-310"/>
    <path d="m49370 25280v-50l30-40 20-30 50-20 90-30h120l100 30 40 20 30 30 20 40v50l-20 50-30 20-40 30-100 20h-120l-90-20-50-30-20-20-30-50"/>
    <path d="m49000 37000v1e3"/>
    <g transform="rotate(-90,49000,36800)">
     <text x="49000" y="37050" font-size="660px" opacity="0" lengthAdjust="spacingAndGlyphs" textLength="2580">CPGND</text>
    </g>
    <path d="m49170 36360 30 20 20 80v40l-20 70-50 50-50 30-90 20h-70l-100-20-50-30-40-50-30-70v-40l30-80 20-20"/>
    <path d="m49220 36150h-500v-190l30-50 20-30 50-20h70l50 20 20 30 20 50v190"/>
    <path d="m48750 35380-30 50v70l30 70 40 50 50 30 100 20h70l90-20 50-30 50-50 20-70v-40l-20-80-30-20h-160v100"/>
    <path d="m49220 35150h-500l500-290h-500"/>
    <path d="m49220 34620h-500v-120l30-70 40-50 50-20 100-20h70l90 20 50 20 50 50 20 70v120"/>
    <g transform="rotate(-90,48900,37500)">
     <text x="48900" y="37500" font-size="660px" opacity="0" text-anchor="middle" lengthAdjust="spacingAndGlyphs" textLength="540">3</text>
    </g>
    <path d="m48370 37660v-310l190 170v-70l30-50 20-20 50-30h120l40 30 30 20 20 50v140l-20 50-30 20"/>
    <path d="m54000 33000h1e3"/>
    <text x="53800" y="33250" font-size="660px" opacity="0" text-anchor="end" lengthAdjust="spacingAndGlyphs" textLength="2060">CAPM</text>
    <path d="m52170 33170-20 30-80 20h-40l-70-20-50-50-30-50-20-90v-70l20-100 30-50 50-40 70-30h40l80 30 20 20"/>
    <path d="m52360 33080h240"/>
    <path d="m52310 33220 170-500 170 500"/>
    <path d="m52810 33220v-500h190l50 30 20 20 30 50v70l-30 50-20 20-50 20h-190"/>
    <path d="m53310 33220v-500l170 360 170-360v500"/>
    <text x="54500" y="32900" font-size="660px" opacity="0" text-anchor="middle" lengthAdjust="spacingAndGlyphs" textLength="540">4</text>
    <path d="m54590 32540v330"/>
    <path d="m54470 32350-120 350h310"/>
    <path d="m54000 36000h1e3"/>
    <text x="53800" y="36250" font-size="660px" opacity="0" text-anchor="end" lengthAdjust="spacingAndGlyphs" textLength="1960">VNEG</text>
    <path d="m51910 35720 160 500 170-500"/>
    <path d="m52410 36220v-500l280 500v-500"/>
    <path d="m52930 35960h170"/>
    <path d="m53170 36220h-240v-500h240"/>
    <path d="m53650 35750-50-30h-70l-70 30-50 40-30 50-20 100v70l20 90 30 50 50 50 70 20h40l80-20 20-30v-160h-100"/>
    <text x="54500" y="35900" font-size="660px" opacity="0" text-anchor="middle" lengthAdjust="spacingAndGlyphs" textLength="540">5</text>
    <path d="m54610 35370h-230l-30 240 30-20 40-30h120l50 30 20 20 30 50v120l-30 40-20 30-50 20h-120l-40-20-30-30"/>
    <path d="m54000 27000h1e3"/>
    <text x="53800" y="27250" font-size="660px" opacity="0" text-anchor="end" lengthAdjust="spacingAndGlyphs" textLength="1890">OUTL</text>
    <path d="m52150 26720h90l50 30 50 40 20 100v160l-20 100-50 50-50 20h-90l-50-20-50-50-20-100v-160l20-100 50-40 50-30"/>
    <path d="m52570 26720v410l30 40 20 30 50 20h100l40-20 30-30 20-40v-410"/>
    <path d="m53030 26720h280"/>
    <path d="m53170 27220v-500"/>
    <path d="m53720 27220h-240v-500"/>
    <text x="54500" y="26900" font-size="660px" opacity="0" text-anchor="middle" lengthAdjust="spacingAndGlyphs" textLength="540">6</text>
    <path d="m54590 26370h-90l-50 30-30 20-40 70-30 100v190l30 40 20 30 50 20h90l50-20 20-30 30-40v-120l-30-50-20-20-50-30h-90l-50 30-20 20-30 50"/>
    <path d="m54000 28000h1e3"/>
    <text x="53800" y="28250" font-size="660px" opacity="0" text-anchor="end" lengthAdjust="spacingAndGlyphs" textLength="1990">OUTR</text>
    <path d="m52050 27720h100l40 30 50 40 30 100v160l-30 100-50 50-40 20h-100l-50-20-40-50-30-100v-160l30-100 40-40 50-30"/>
    <path d="m52480 27720v410l20 40 30 30 40 20h100l50-20 20-30 30-40v-410"/>
    <path d="m52930 27720h290"/>
    <path d="m53070 28220v-500"/>
    <path d="m53670 28220-170-240"/>
    <path d="m53380 28220v-500h190l50 30 30 20 20 50v70l-20 50-30 20-50 20h-190"/>
    <text x="54500" y="27900" font-size="660px" opacity="0" text-anchor="middle" lengthAdjust="spacingAndGlyphs" textLength="540">7</text>
    <path d="m54330 27370h330l-210 500"/>
    <path d="m51000 26000v-1e3"/>
    <g transform="rotate(-90,51000,26200)">
     <text x="51000" y="26450" font-size="660px" opacity="0" text-anchor="end" lengthAdjust="spacingAndGlyphs" textLength="1920">AVDD</text>
    </g>
    <path d="m51080 27990v-240"/>
    <path d="m51220 28030-500-160 500-170"/>
    <path d="m50720 27610 500-170-500-170"/>
    <path d="m51220 27110h-500v-120l30-70 40-50 50-30 100-20h70l90 20 50 30 50 50 20 70v120"/>
    <path d="m51220 26610h-500v-120l30-70 40-50 50-30 100-20h70l90 20 50 30 50 50 20 70v120"/>
    <g transform="rotate(-90,50900,25500)">
     <text x="50900" y="25500" font-size="660px" opacity="0" text-anchor="middle" lengthAdjust="spacingAndGlyphs" textLength="540">8</text>
    </g>
    <path d="m50590 25540-30 50-20 20-50 30h-20l-50-30-20-20-30-50v-90l30-50 20-20 50-30h20l50 30 20 20 30 50v90l20 50 20 20 50 30h100l40-30 30-20 20-50v-90l-20-50-30-20-40-30h-100l-50 30-20 20-20 50"/>
    <path d="m51000 37000v1e3"/>
    <g transform="rotate(-90,51000,36800)">
     <text x="51000" y="37050" font-size="660px" opacity="0" lengthAdjust="spacingAndGlyphs" textLength="2010">AGND</text>
    </g>
    <path d="m51080 36670v-240"/>
    <path d="m51220 36720-500-170 500-170"/>
    <path d="m50750 35960-30 40v70l30 80 40 40 50 30 100 20h70l90-20 50-30 50-40 20-80v-40l-20-70-30-30h-160v100"/>
    <path d="m51220 35720h-500l500-290h-500"/>
    <path d="m51220 35190h-500v-120l30-70 40-40 50-30 100-20h70l90 20 50 30 50 40 20 70v120"/>
    <g transform="rotate(-90,50900,37500)">
     <text x="50900" y="37500" font-size="660px" opacity="0" text-anchor="middle" lengthAdjust="spacingAndGlyphs" textLength="540">9</text>
    </g>
    <path d="m50870 37590v-90l-20-50-30-30-70-40-90-30h-190l-50 30-20 20-30 50v90l30 50 20 20 50 30h120l40-30 30-20 20-50v-90l-20-50-30-20-40-30"/>
    <text x="50000" y="30770" font-size="660px" opacity="0" text-anchor="middle" lengthAdjust="spacingAndGlyphs" textLength="1060">U2</text>
    <path d="m49610 30240v410l30 40 20 30 50 20h90l50-20 30-30 20-40v-410"/>
    <path d="m50110 30290 30-20 50-30h110l50 30 30 20 20 50v40l-20 80-290 280h310"/>
    <text x="50000" y="31770" font-size="660px" opacity="0" text-anchor="middle" lengthAdjust="spacingAndGlyphs" textLength="3960">PCM5102A</text>
    <path d="m48160 31740v-500h190l50 30 20 20 30 50v70l-30 50-20 20-50 20h-190"/>
    <path d="m48950 31690-30 30-70 20h-50l-70-20-40-50-30-50-20-90v-70l20-100 30-50 40-40 70-30h50l70 30 30 20"/>
    <path d="m49160 31740v-500l170 360 170-360v500"/>
    <path d="m49970 31240h-240l-20 240 20-20 50-30h120l50 30 20 20 30 50v120l-30 40-20 30-50 20h-120l-50-20-20-30"/>
    <path d="m50470 31740h-280"/>
    <path d="m50330 31740v-500l-50 70-50 50-40 20"/>
    <path d="m50780 31240h50l50 30 20 20 20 50 30 90v120l-30 100-20 40-20 30-50 20h-50l-50-20-20-30-20-40-30-100v-120l30-90 20-50 20-20 50-30"/>
    <path d="m51140 31290 20-20 50-30h120l50 30 20 20 20 50v40l-20 80-290 280h310"/>
    <path d="m51610 31600h240"/>
    <path d="m51570 31740 160-500 170 500"/>
   </g>
  </g>
  <g stroke="#000" stroke-linecap="round" stroke-linejoin="round">
   <g transform="translate(-25900,-12290)" stroke-width="60">
    <path d="m29000 34500h-1e3"/>
    <path d="m34000 3e4v4500"/>
    <path d="m45000 3e4h-11000"/>
    <path d="m33000 30500h-1e3"/>
    <path d="m33000 29000v1500"/>
    <path d="m45000 29000h-12000"/>
    <path d="m33000 26500h-1e3"/>
    <path d="m33000 28000v-1500"/>
    <path d="m45000 28000h-12000"/>
    <path d="m34000 22500h-2e3"/>
    <path d="m34000 27000v-4500"/>
    <path d="m45000 27000h-11000"/>
    <path d="m34000 34500h-2e3"/>
    <path d="m29000 30500h-1e3"/>
    <path d="m76500 18000h6e3"/>
    <path d="m70500 18000h6e3"/>
    <path d="m79500 15000h3e3"/>
    <path d="m70500 15000h3e3"/>
    <path d="m5e4 38000v2e3"/>
    <path d="m61000 23000h-2500"/>
    <path d="m29000 26500h-1e3"/>
    <path d="m29000 22500h-1e3"/>
    <path d="m49000 2e4h-5e3"/>
    <path d="m92500 32000h-1e3"/>
    <path d="m92500 23500h-1e3"/>
    <path d="m92500 21500h-1e3"/>
    <path d="m92500 22500h-5e3"/>
    <path d="m91500 16000v-1e3"/>
    <path d="m92500 16000h-1e3"/>
    <path d="m92500 17000h-5e3"/>
    <path d="m87500 17000v5500"/>
    <path d="m72500 4e4h1500"/>
    <path d="m92500 33000h-1e3"/>
    <path d="m69000 4e4h1500"/>
    <path d="m92500 29000h-5e3"/>
    <path d="m92500 31000h-1e3"/>
    <path d="m92500 3e4h-1e3"/>
    <path d="m91500 28000v-1e3"/>
    <path d="m92500 28000h-1e3"/>
    <path d="m55000 3e4h1e3"/>
    <path d="m55000 33000h1e3"/>
    <path d="m49000 25000v-5e3"/>
    <path d="m51000 38000v1e3"/>
    <path d="m49000 38000v1e3"/>
    <path d="m49000 39000h2e3"/>
    <path d="m60500 39000v1e3"/>
    <path d="m74000 30500h2500"/>
    <path d="m71500 30500h2500"/>
    <path d="m66000 30500h2500"/>
    <path d="m66000 28000v2500"/>
    <path d="m55000 28000h11000"/>
    <path d="m74000 24500h2500"/>
    <path d="m71500 24500h2500"/>
    <path d="m66000 24500h2500"/>
    <path d="m66000 27000v-2500"/>
    <path d="m55000 27000h11000"/>
    <path d="m44000 14500h-5e3"/>
    <path d="m39000 17500h2500"/>
    <path d="m44000 2e4h-5e3"/>
    <path d="m60500 35000v1e3"/>
    <path d="m55000 35000h5500"/>
    <path d="m51000 25000v-5e3"/>
    <path d="m57000 39000h-1e3"/>
    <path d="m51000 39000h5e3"/>
    <path d="m55000 36000h1e3"/>
    <path d="m51000 2e4h5e3"/>
    <path d="m39000 14500h-5e3"/>
    <path d="m56000 23000h2500"/>
    <path d="m61000 2e4h5e3"/>
    <path d="m39000 2e4h-5e3"/>
    <path d="m56000 2e4h5e3"/>
    <path d="m44000 17500h-2500"/>
    <path d="m44000 23000h-2500"/>
    <path d="m39000 23000h2500"/>
    <path d="m5e4 25000v-10500"/>
    <path d="m45000 34000h-3e3"/>
    <path d="m5e4 14500h-6e3"/>
    <path d="m45000 35000h-1e3"/>
    <path d="m44000 35000v1e3"/>
    <path d="m45000 33000h-1e3"/>
    <path d="m44000 32000v1e3"/>
    <path d="m44000 33000v2e3"/>
    <path d="m45000 32000h-1e3"/>
    <text x="27690" y="30750" font-size="660px" opacity="0" text-anchor="end" lengthAdjust="spacingAndGlyphs" textLength="1060">CK</text>
    <path d="m27060 30670-20 30-80 20h-40l-70-20-50-50-30-50-20-90v-70l20-100 30-50 50-40 70-30h40l80 30 20 20"/>
    <path d="m27270 30720v-500"/>
    <path d="m27560 30720-210-280"/>
    <path d="m27560 30220-290 290"/>
   </g>
   <g transform="translate(-25900,-12290)" stroke-width="100">
    <path d="m28000 30500-250-440h-1230v880h1230z" fill="none" stroke="#000" stroke-linecap="round" stroke-linejoin="round" stroke-width="100"/>
   </g>
   <g transform="translate(-25900,-12290)" stroke-width="60">
    <text x="27690" y="22750" font-size="660px" opacity="0" text-anchor="end" lengthAdjust="spacingAndGlyphs" textLength="1110">WS</text>
    <path d="m26680 22220 120 500 90-360 100 360 120-500"/>
    <path d="m27270 22700 80 20h110l50-20 30-30 20-40v-50l-20-50-30-20-50-30-90-20-50-20-20-30-30-50v-40l30-50 20-20 50-30h120l70 30"/>
   </g>
   <g transform="translate(-25900,-12290)" stroke-width="100">
    <path d="m28000 22500-250-440h-1280v880h1280z" fill="none" stroke="#000" stroke-linecap="round" stroke-linejoin="round" stroke-width="100"/>
   </g>
   <g transform="translate(-25900,-12290)" stroke-width="60">
    <text x="27690" y="26750" font-size="660px" opacity="0" text-anchor="end" lengthAdjust="spacingAndGlyphs" textLength="1040">SD</text>
    <path d="m26770 26700 80 20h110l50-20 30-30 20-40v-50l-20-50-30-20-50-30-90-20-50-20-20-30-30-50v-40l30-50 20-20 50-30h120l70 30"/>
    <path d="m27270 26720v-500h120l70 30 50 40 30 50 20 100v70l-20 90-30 50-50 50-70 20h-120"/>
   </g>
   <g transform="translate(-25900,-12290)" stroke-width="100">
    <path d="m28000 26500-250-440h-1210v880h1210z" fill="none" stroke="#000" stroke-linecap="round" stroke-linejoin="round" stroke-width="100"/>
   </g>
   <g transform="translate(-25900,-12290)" stroke-width="60">
    <text x="91190" y="23750" font-size="660px" opacity="0" text-anchor="end" lengthAdjust="spacingAndGlyphs" textLength="1990">OUTR</text>
    <path d="m89440 23220h100l40 30 50 40 30 100v160l-30 100-50 50-40 20h-100l-50-20-40-50-30-100v-160l30-100 40-40 50-30"/>
    <path d="m89870 23220v410l20 40 30 30 40 20h100l50-20 20-30 30-40v-410"/>
    <path d="m90320 23220h290"/>
    <path d="m90460 23720v-500"/>
    <path d="m91060 23720-170-240"/>
    <path d="m90770 23720v-500h190l50 30 30 20 20 50v70l-20 50-30 20-50 20h-190"/>
   </g>
   <g transform="translate(-25900,-12290)" stroke-width="100">
    <path d="m91500 23500-250-440h-2160v880h2160z" fill="none" stroke="#000" stroke-linecap="round" stroke-linejoin="round" stroke-width="100"/>
   </g>
   <g transform="translate(-25900,-12290)" stroke-width="60">
    <text x="91190" y="21750" font-size="660px" opacity="0" text-anchor="end" lengthAdjust="spacingAndGlyphs" textLength="1890">OUTL</text>
    <path d="m89540 21220h90l50 30 50 40 20 100v160l-20 100-50 50-50 20h-90l-50-20-50-50-20-100v-160l20-100 50-40 50-30"/>
    <path d="m89960 21220v410l30 40 20 30 50 20h100l40-20 30-30 20-40v-410"/>
    <path d="m90420 21220h280"/>
    <path d="m90560 21720v-500"/>
    <path d="m91110 21720h-240v-500"/>
   </g>
   <g transform="translate(-25900,-12290)" stroke-width="100">
    <path d="m91500 21500-250-440h-2060v880h2060z" fill="none" stroke="#000" stroke-linecap="round" stroke-linejoin="round" stroke-width="100"/>
   </g>
   <g transform="translate(-25900,-12290)" stroke-width="60">
    <text x="91190" y="33250" font-size="660px" opacity="0" text-anchor="end" lengthAdjust="spacingAndGlyphs" textLength="1630">MCK</text>
    <path d="m89700 33220v-500l170 360 170-360v500"/>
    <path d="m90560 33170-20 30-80 20h-40l-70-20-50-50-30-50-20-90v-70l20-100 30-50 50-40 70-30h40l80 30 20 20"/>
    <path d="m90770 33220v-500"/>
    <path d="m91060 33220-210-280"/>
    <path d="m91060 32720-290 290"/>
   </g>
   <g transform="translate(-25900,-12290)" stroke-width="100">
    <path d="m91500 33000-250-440h-1800v880h1800z" fill="none" stroke="#000" stroke-linecap="round" stroke-linejoin="round" stroke-width="100"/>
   </g>
   <g transform="translate(-25900,-12290)" stroke-width="60">
    <text x="27690" y="34750" font-size="660px" opacity="0" text-anchor="end" lengthAdjust="spacingAndGlyphs" textLength="1630">MCK</text>
    <path d="m26200 34720v-500l170 360 170-360v500"/>
    <path d="m27060 34670-20 30-80 20h-40l-70-20-50-50-30-50-20-90v-70l20-100 30-50 50-40 70-30h40l80 30 20 20"/>
    <path d="m27270 34720v-500"/>
    <path d="m27560 34720-210-280"/>
    <path d="m27560 34220-290 290"/>
   </g>
   <g transform="translate(-25900,-12290)" stroke-width="100">
    <path d="m28000 34500-250-440h-1800v880h1800z" fill="none" stroke="#000" stroke-linecap="round" stroke-linejoin="round" stroke-width="100"/>
   </g>
   <g transform="translate(-25900,-12290)" stroke-width="60">
    <text x="91190" y="32250" font-size="660px" opacity="0" text-anchor="end" lengthAdjust="spacingAndGlyphs" textLength="1060">CK</text>
    <path d="m90560 32170-20 30-80 20h-40l-70-20-50-50-30-50-20-90v-70l20-100 30-50 50-40 70-30h40l80 30 20 20"/>
    <path d="m90770 32220v-500"/>
    <path d="m91060 32220-210-280"/>
    <path d="m91060 31720-290 290"/>
   </g>
   <g transform="translate(-25900,-12290)" stroke-width="100">
    <path d="m91500 32000-250-440h-1230v880h1230z" fill="none" stroke="#000" stroke-linecap="round" stroke-linejoin="round" stroke-width="100"/>
   </g>
   <g transform="translate(-25900,-12290)" stroke-width="60">
    <text x="91190" y="31250" font-size="660px" opacity="0" text-anchor="end" lengthAdjust="spacingAndGlyphs" textLength="1040">SD</text>
    <path d="m90270 31200 80 20h110l50-20 30-30 20-40v-50l-20-50-30-20-50-30-90-20-50-20-20-30-30-50v-40l30-50 20-20 50-30h120l70 30"/>
    <path d="m90770 31220v-500h120l70 30 50 40 30 50 20 100v70l-20 90-30 50-50 50-70 20h-120"/>
   </g>
   <g transform="translate(-25900,-12290)" stroke-width="100">
    <path d="m91500 31000-250-440h-1210v880h1210z" fill="none" stroke="#000" stroke-linecap="round" stroke-linejoin="round" stroke-width="100"/>
   </g>
   <g transform="translate(-25900,-12290)" stroke-width="60">
    <text x="91190" y="30250" font-size="660px" opacity="0" text-anchor="end" lengthAdjust="spacingAndGlyphs" textLength="1110">WS</text>
    <path d="m90180 29720 120 500 90-360 100 360 120-500"/>
    <path d="m90770 30200 80 20h110l50-20 30-30 20-40v-50l-20-50-30-20-50-30-90-20-50-20-20-30-30-50v-40l30-50 20-20 50-30h120l70 30"/>
   </g>
   <g transform="translate(-25900,-12290)" stroke-width="100">
    <path d="m91500 3e4 -250-440h-1280v880h1280z" fill="none" stroke="#000" stroke-linecap="round" stroke-linejoin="round" stroke-width="100"/>
   </g>
   <g transform="translate(-25900,-12290)" stroke-width="60">
    <text x="76810" y="30750" font-size="660px" opacity="0" lengthAdjust="spacingAndGlyphs" textLength="1990">OUTR</text>
    <path d="m77050 30220h90l50 30 50 40 20 100v160l-20 100-50 50-50 20h-90l-50-20-50-50-20-100v-160l20-100 50-40 50-30"/>
    <path d="m77480 30220v410l20 40 30 30 40 20h100l50-20 20-30 20-40v-410"/>
    <path d="m77930 30220h290"/>
    <path d="m78070 30720v-500"/>
    <path d="m78670 30720-170-240"/>
    <path d="m78380 30720v-500h190l50 30 20 20 30 50v70l-30 50-20 20-50 20h-190"/>
   </g>
   <g transform="translate(-25900,-12290)" stroke-width="100">
    <path d="m76500 30500 250 440h2160v-880h-2160z" fill="none" stroke="#000" stroke-linecap="round" stroke-linejoin="round" stroke-width="100"/>
   </g>
   <g transform="translate(-25900,-12290)" stroke-width="60">
    <text x="76810" y="24750" font-size="660px" opacity="0" lengthAdjust="spacingAndGlyphs" textLength="1890">OUTL</text>
    <path d="m77050 24220h90l50 30 50 40 20 100v160l-20 100-50 50-50 20h-90l-50-20-50-50-20-100v-160l20-100 50-40 50-30"/>
    <path d="m77480 24220v410l20 40 30 30 40 20h100l50-20 20-30 20-40v-410"/>
    <path d="m77930 24220h290"/>
    <path d="m78070 24720v-500"/>
    <path d="m78620 24720h-240v-500"/>
   </g>
   <g transform="translate(-25900,-12290)" stroke-width="100">
    <path d="m76500 24500 250 440h2060v-880h-2060z" fill="none" stroke="#000" stroke-linecap="round" stroke-linejoin="round" stroke-width="100"/>
   </g>
  </g>
 </g>
 <g stroke="#000" stroke-linecap="round" stroke-linejoin="round" stroke-width="100">
  <g transform="translate(-25900,-12290)">
   <circle cx="58500" cy="23000" r="200"/>
  </g>
  <g transform="translate(-25900,-12290)">
   <circle cx="56000" cy="2e4" r="200"/>
  </g>
  <g transform="translate(-25900,-12290)">
   <circle cx="74000" cy="30500" r="200"/>
  </g>
  <g transform="translate(-25900,-12290)">
   <circle cx="39000" cy="2e4" r="200"/>
  </g>
  <g transform="translate(-25900,-12290)">
   <circle cx="44000" cy="2e4" r="200"/>
  </g>
  <g transform="translate(-25900,-12290)">
   <circle cx="87500" cy="22500" r="200"/>
  </g>
  <g transform="translate(-25900,-12290)">
   <circle cx="61000" cy="2e4" r="200"/>
  </g>
  <g transform="translate(-25900,-12290)">
   <circle cx="44000" cy="33000" r="200"/>
  </g>
  <g transform="translate(-25900,-12290)">
   <circle cx="39000" cy="14500" r="200"/>
  </g>
  <g transform="translate(-25900,-12290)">
   <circle cx="41500" cy="23000" r="200"/>
  </g>
  <g transform="translate(-25900,-12290)">
   <circle cx="51000" cy="39000" r="200"/>
  </g>
  <g transform="translate(-25900,-12290)">
   <circle cx="56000" cy="39000" r="200"/>
  </g>
  <g transform="translate(-25900,-12290)">
   <circle cx="70500" cy="15000" r="200"/>
  </g>
  <g transform="translate(-25900,-12290)">
   <circle cx="74000" cy="24500" r="200"/>
  </g>
  <g transform="translate(-25900,-12290)">
   <circle cx="82500" cy="15000" r="200"/>
  </g>
  <g transform="translate(-25900,-12290)">
   <circle cx="44000" cy="35000" r="200"/>
  </g>
  <g transform="translate(-25900,-12290)">
   <circle cx="41500" cy="17500" r="200"/>
  </g>
  <g transform="translate(-25900,-12290)">
   <circle cx="76500" cy="18000" r="200"/>
  </g>
  <g transform="translate(-25900,-12290)">
   <circle cx="44000" cy="14500" r="200"/>
  </g>
 </g>
</svg>
